  0
SECTION
  2
HEADER
  9
$ACADVER
  1
AC1014
  9
$HANDSEED
  5
FFFF
  9
$MEASUREMENT
 70
     1
  0
ENDSEC
  0
SECTION
  2
TABLES
  0
TABLE
  2
VPORT
  5
8
330
0
100
AcDbSymbolTable
 70
     4
  0
VPORT
  5
2E
330
8
100
AcDbSymbolTableRecord
100
AcDbViewportTableRecord
  2
*ACTIVE
 70
     0
 10
0.0
 20
0.0
 11
1.0
 21
1.0
 12
210.0
 22
148.5
 13
0.0
 23
0.0
 14
10.0
 24
10.0
 15
10.0
 25
10.0
 16
0.0
 26
0.0
 36
1.0
 17
0.0
 27
0.0
 37
0.0
 40
341.0
 41
1.24
 42
50.0
 43
0.0
 44
0.0
 50
0.0
 51
0.0
 71
     0
 72
   100
 73
     1
 74
     3
 75
     0
 76
     0
 77
     0
 78
     0
  0
ENDTAB
  0
TABLE
  2
LTYPE
  5
5
330
0
100
AcDbSymbolTable
 70
     1
  0
LTYPE
  5
14
330
5
100
AcDbSymbolTableRecord
100
AcDbLinetypeTableRecord
  2
BYBLOCK
 70
     0
  3

 72
    65
 73
     0
 40
0.0
  0
LTYPE
  5
15
330
5
100
AcDbSymbolTableRecord
100
AcDbLinetypeTableRecord
  2
BYLAYER
 70
     0
  3

 72
    65
 73
     0
 40
0.0
  0
LTYPE
  5
16
330
5
100
AcDbSymbolTableRecord
100
AcDbLinetypeTableRecord
  2
CONTINUOUS
 70
     0
  3
Solid line
 72
    65
 73
     0
 40
0.0
  0
ENDTAB
  0
TABLE
  2
LAYER
  5
2
100
AcDbSymbolTable
 70
22
  0
LAYER
  5
50
100
AcDbSymbolTableRecord
100
AcDbLayerTableRecord
  2
0
 70
0
  6
CONTINUOUS
  0
LAYER
  5
51
100
AcDbSymbolTableRecord
100
AcDbLayerTableRecord
  2
X-REF-PLAN
 70
0
  6
CONTINUOUS
  0
LAYER
  5
52
100
AcDbSymbolTableRecord
100
AcDbLayerTableRecord
  2
MINI-MILL
 70
0
  6
CONTINUOUS
  0
LAYER
  5
53
100
AcDbSymbolTableRecord
100
AcDbLayerTableRecord
  2
ST-10-LATHE
 70
0
  6
CONTINUOUS
  0
LAYER
  5
54
100
AcDbSymbolTableRecord
100
AcDbLayerTableRecord
  2
TL-1_LATHE
 70
0
  6
CONTINUOUS
  0
LAYER
  5
55
100
AcDbSymbolTableRecord
100
AcDbLayerTableRecord
  2
PORTABLE-PNEUMATIC
 70
0
  6
CONTINUOUS
  0
LAYER
  5
56
100
AcDbSymbolTableRecord
100
AcDbLayerTableRecord
  2
WORK_COUNTER
 70
0
  6
CONTINUOUS
  0
LAYER
  5
57
100
AcDbSymbolTableRecord
100
AcDbLayerTableRecord
  2
FLUID_POWER_TRAINER
 70
0
  6
CONTINUOUS
  0
LAYER
  5
58
100
AcDbSymbolTableRecord
100
AcDbLayerTableRecord
  2
PLASMA-CUTTER
 70
0
  6
CONTINUOUS
  0
LAYER
  5
59
100
AcDbSymbolTableRecord
100
AcDbLayerTableRecord
  2
PRESS-BRAKE
 70
0
  6
CONTINUOUS
  0
LAYER
  5
5a
100
AcDbSymbolTableRecord
100
AcDbLayerTableRecord
  2
1-TEXT
 70
0
  6
CONTINUOUS
  0
LAYER
  5
5b
100
AcDbSymbolTableRecord
100
AcDbLayerTableRecord
  2
1AWA-NW
 70
0
  6
CONTINUOUS
  0
LAYER
  5
5c
100
AcDbSymbolTableRecord
100
AcDbLayerTableRecord
  2
HLSSHEET
 70
0
  6
CONTINUOUS
  0
LAYER
  5
5d
100
AcDbSymbolTableRecord
100
AcDbLayerTableRecord
  2
B-RMDRNUM
 70
0
  6
CONTINUOUS
  0
LAYER
  5
5e
100
AcDbSymbolTableRecord
100
AcDbLayerTableRecord
  2
3-A10-NEW
 70
0
  6
CONTINUOUS
  0
LAYER
  5
5f
100
AcDbSymbolTableRecord
100
AcDbLayerTableRecord
  2
EX-1AWA
 70
0
  6
CONTINUOUS
  0
LAYER
  5
60
100
AcDbSymbolTableRecord
100
AcDbLayerTableRecord
  2
EX-1ADO
 70
0
  6
CONTINUOUS
  0
LAYER
  5
61
100
AcDbSymbolTableRecord
100
AcDbLayerTableRecord
  2
EX-1AGL
 70
0
  6
CONTINUOUS
  0
LAYER
  5
62
100
AcDbSymbolTableRecord
100
AcDbLayerTableRecord
  2
EX-1AEQ
 70
0
  6
CONTINUOUS
  0
LAYER
  5
63
100
AcDbSymbolTableRecord
100
AcDbLayerTableRecord
  2
EX-1-TXT
 70
0
  6
CONTINUOUS
  0
LAYER
  5
64
100
AcDbSymbolTableRecord
100
AcDbLayerTableRecord
  2
Defpoints
 70
0
  6
CONTINUOUS
  0
LAYER
  5
65
100
AcDbSymbolTableRecord
100
AcDbLayerTableRecord
  2
Epilog_Laser
 70
0
  6
CONTINUOUS
  0
ENDTAB
  0
TABLE
  2
STYLE
  5
3
330
0
100
AcDbSymbolTable
 70
     1
  0
STYLE
  5
11
330
3
100
AcDbSymbolTableRecord
100
AcDbTextStyleTableRecord
  2
STANDARD
 70
     0
 40
0.0
 41
1.0
 50
0.0
 71
     0
 42
2.5
  3
txt
  4

  0
ENDTAB
  0
TABLE
  2
VIEW
  5
6
330
0
100
AcDbSymbolTable
 70
     0
  0
ENDTAB
  0
TABLE
  2
UCS
  5
7
330
0
100
AcDbSymbolTable
 70
     0
  0
ENDTAB
  0
TABLE
  2
APPID
  5
9
330
0
100
AcDbSymbolTable
 70
     2
  0
APPID
  5
12
330
9
100
AcDbSymbolTableRecord
100
AcDbRegAppTableRecord
  2
ACAD
 70
     0
  0
ENDTAB
  0
TABLE
  2
DIMSTYLE
  5
A
330
0
100
AcDbSymbolTable
 70
     1
  0
DIMSTYLE
105
27
330
A
100
AcDbSymbolTableRecord
100
AcDbDimStyleTableRecord
  2
ISO-25
 70
     0
  3

  4

  5

  6

  7

 40
1.0
 41
2.5
 42
0.625
 43
3.75
 44
1.25
 45
0.0
 46
0.0
 47
0.0
 48
0.0
140
2.5
141
2.5
142
0.0
143
0.03937007874016
144
1.0
145
0.0
146
1.0
147
0.625
 71
     0
 72
     0
 73
     0
 74
     0
 75
     0
 76
     0
 77
     1
 78
     8
170
     0
171
     3
172
     1
173
     0
174
     0
175
     0
176
     0
177
     0
178
     0
270
     2
271
     2
272
     2
273
     2
274
     3
340
11
275
     0
280
     0
281
     0
282
     0
283
     0
284
     8
285
     0
286
     0
287
     3
288
     0
  0
ENDTAB
  0
TABLE
  2
BLOCK_RECORD
  5
1
330
0
100
AcDbSymbolTable
 70
     1
  0
BLOCK_RECORD
  5
1F
330
1
100
AcDbSymbolTableRecord
100
AcDbBlockTableRecord
  2
*MODEL_SPACE
  0
BLOCK_RECORD
  5
1B
330
1
100
AcDbSymbolTableRecord
100
AcDbBlockTableRecord
  2
*PAPER_SPACE
  0
ENDTAB
  0
ENDSEC
  0
SECTION
  2
BLOCKS
  0
BLOCK
  5
20
330
1F
100
AcDbEntity
  8
0
100
AcDbBlockBegin
  2
*MODEL_SPACE
 70
     0
 10
0.0
 20
0.0
 30
0.0
  3
*MODEL_SPACE
  1

  0
ENDBLK
  5
21
330
1F
100
AcDbEntity
  8
0
100
AcDbBlockEnd
  0
BLOCK
  5
1C
330
1B
100
AcDbEntity
 67
     1
  8
0
100
AcDbBlockBegin
  2
*PAPER_SPACE
  1

  0
ENDBLK
  5
1D
330
1B
100
AcDbEntity
 67
     1
  8
0
100
AcDbBlockEnd
  0
ENDSEC
  0
SECTION
  2
ENTITIES
  0
LWPOLYLINE
  5
100
100
AcDbEntity
  8
Epilog_Laser
 62
7
100
AcDbPolyline
 90
2
 70
0
 10
1668.453556
 20
692.149467
 30
0.0
 10
40.358979
 20
692.149133
 30
0.0
  0
LWPOLYLINE
  5
101
100
AcDbEntity
  8
Epilog_Laser
 62
7
100
AcDbPolyline
 90
2
 70
0
 10
609.800289
 20
504.334200
 30
0.0
 10
618.980078
 20
504.360211
 30
0.0
  0
LWPOLYLINE
  5
102
100
AcDbEntity
  8
Epilog_Laser
 62
7
100
AcDbPolyline
 90
3
 70
0
 10
618.980078
 20
504.361689
 30
0.0
 10
618.976478
 20
505.569578
 30
0.0
 10
609.796689
 20
505.543567
 30
0.0
  0
LWPOLYLINE
  5
103
100
AcDbEntity
  8
Epilog_Laser
 62
7
100
AcDbPolyline
 90
2
 70
0
 10
350.502422
 20
387.141333
 30
0.0
 10
351.621867
 20
386.220611
 30
0.0
  0
LWPOLYLINE
  5
104
100
AcDbEntity
  8
Epilog_Laser
 62
7
100
AcDbPolyline
 90
2
 70
0
 10
296.732556
 20
384.135822
 30
0.0
 10
295.811833
 20
383.016378
 30
0.0
  0
LWPOLYLINE
  5
105
100
AcDbEntity
  8
Epilog_Laser
 62
7
100
AcDbPolyline
 90
2
 70
0
 10
40.358858
 20
4.648123
 30
0.0
 10
40.358980
 20
198.154600
 30
0.0
  0
LWPOLYLINE
  5
106
100
AcDbEntity
  8
Epilog_Laser
 62
7
100
AcDbPolyline
 90
2
 70
0
 10
40.358979
 20
317.428911
 30
0.0
 10
40.358979
 20
412.848378
 30
0.0
  0
LWPOLYLINE
  5
107
100
AcDbEntity
  8
Epilog_Laser
 62
7
100
AcDbPolyline
 90
2
 70
0
 10
40.358979
 20
458.570211
 30
0.0
 10
40.358979
 20
481.431133
 30
0.0
  0
LWPOLYLINE
  5
108
100
AcDbEntity
  8
Epilog_Laser
 62
7
100
AcDbPolyline
 90
2
 70
0
 10
40.358979
 20
541.068289
 30
0.0
 10
40.358979
 20
588.778000
 30
0.0
  0
LWPOLYLINE
  5
109
100
AcDbEntity
  8
Epilog_Laser
 62
7
100
AcDbPolyline
 90
2
 70
0
 10
40.358979
 20
648.415156
 30
0.0
 10
40.358979
 20
692.149078
 30
0.0
  0
LWPOLYLINE
  5
10a
100
AcDbEntity
  8
Epilog_Laser
 62
7
100
AcDbPolyline
 90
2
 70
0
 10
56.261983
 20
317.428911
 30
0.0
 10
56.262228
 20
340.448778
 30
0.0
  0
LWPOLYLINE
  5
10b
100
AcDbEntity
  8
Epilog_Laser
 62
7
100
AcDbPolyline
 90
2
 70
0
 10
56.262226
 20
348.400378
 30
0.0
 10
56.262226
 20
396.110133
 30
0.0
  0
LWPOLYLINE
  5
10c
100
AcDbEntity
  8
Epilog_Laser
 62
7
100
AcDbPolyline
 90
2
 70
0
 10
56.262226
 20
404.061733
 30
0.0
 10
56.262226
 20
412.848378
 30
0.0
  0
LWPOLYLINE
  5
10d
100
AcDbEntity
  8
Epilog_Laser
 62
7
100
AcDbPolyline
 90
2
 70
0
 10
56.262226
 20
458.570211
 30
0.0
 10
56.262226
 20
481.431133
 30
0.0
  0
LWPOLYLINE
  5
10e
100
AcDbEntity
  8
Epilog_Laser
 62
7
100
AcDbPolyline
 90
2
 70
0
 10
56.262226
 20
541.068289
 30
0.0
 10
56.262226
 20
588.778000
 30
0.0
  0
LWPOLYLINE
  5
10f
100
AcDbEntity
  8
Epilog_Laser
 62
7
100
AcDbPolyline
 90
2
 70
0
 10
56.262226
 20
648.415156
 30
0.0
 10
56.262226
 20
676.246222
 30
0.0
  0
LWPOLYLINE
  5
110
100
AcDbEntity
  8
Epilog_Laser
 62
7
100
AcDbPolyline
 90
2
 70
0
 10
1005.549200
 20
676.246222
 30
0.0
 10
56.262226
 20
676.246222
 30
0.0
  0
LWPOLYLINE
  5
111
100
AcDbEntity
  8
Epilog_Laser
 62
7
100
AcDbPolyline
 90
2
 70
0
 10
56.262226
 20
404.061733
 30
0.0
 10
236.221900
 20
404.061733
 30
0.0
  0
LWPOLYLINE
  5
112
100
AcDbEntity
  8
Epilog_Laser
 62
7
100
AcDbPolyline
 90
2
 70
0
 10
56.262226
 20
396.110133
 30
0.0
 10
228.270278
 20
396.110133
 30
0.0
  0
LWPOLYLINE
  5
113
100
AcDbEntity
  8
Epilog_Laser
 62
7
100
AcDbPolyline
 90
2
 70
0
 10
773.895789
 20
398.933144
 30
0.0
 10
910.121833
 20
398.933256
 30
0.0
  0
LWPOLYLINE
  5
114
100
AcDbEntity
  8
Epilog_Laser
 62
7
100
AcDbPolyline
 90
2
 70
0
 10
918.073478
 20
470.525533
 30
0.0
 10
1013.500844
 20
470.525533
 30
0.0
  0
LWPOLYLINE
  5
115
100
AcDbEntity
  8
Epilog_Laser
 62
7
100
AcDbPolyline
 90
2
 70
0
 10
1013.500844
 20
676.246222
 30
0.0
 10
1013.500844
 20
536.126411
 30
0.0
  0
LWPOLYLINE
  5
116
100
AcDbEntity
  8
Epilog_Laser
 62
7
100
AcDbPolyline
 90
2
 70
0
 10
1013.500844
 20
530.162689
 30
0.0
 10
1013.500844
 20
516.247378
 30
0.0
  0
LWPOLYLINE
  5
117
100
AcDbEntity
  8
Epilog_Laser
 62
7
100
AcDbPolyline
 90
2
 70
0
 10
1013.500844
 20
480.465056
 30
0.0
 10
1013.500844
 20
470.525533
 30
0.0
  0
LWPOLYLINE
  5
118
100
AcDbEntity
  8
Epilog_Laser
 62
7
100
AcDbPolyline
 90
2
 70
0
 10
1013.500844
 20
516.247378
 30
0.0
 10
1005.549200
 20
516.247378
 30
0.0
  0
LWPOLYLINE
  5
119
100
AcDbEntity
  8
Epilog_Laser
 62
7
100
AcDbPolyline
 90
2
 70
0
 10
1013.500844
 20
480.465056
 30
0.0
 10
1005.549200
 20
480.465056
 30
0.0
  0
LWPOLYLINE
  5
11a
100
AcDbEntity
  8
Epilog_Laser
 62
7
100
AcDbPolyline
 90
2
 70
0
 10
1005.549200
 20
675.956456
 30
0.0
 10
1005.549200
 20
516.247378
 30
0.0
  0
LWPOLYLINE
  5
11b
100
AcDbEntity
  8
Epilog_Laser
 62
7
100
AcDbPolyline
 90
2
 70
0
 10
1005.549200
 20
480.465056
 30
0.0
 10
1005.549200
 20
476.489122
 30
0.0
  0
LWPOLYLINE
  5
11c
100
AcDbEntity
  8
Epilog_Laser
 62
7
100
AcDbPolyline
 90
5
 70
0
 10
297.846967
 20
406.884789
 30
0.0
 10
297.846967
 20
390.981556
 30
0.0
 10
281.943733
 20
390.981556
 30
0.0
 10
281.943733
 20
406.884789
 30
0.0
 10
297.846967
 20
406.884789
 30
0.0
  0
LWPOLYLINE
  5
11d
100
AcDbEntity
  8
Epilog_Laser
 62
7
100
AcDbPolyline
 90
2
 70
0
 10
536.395633
 20
406.884789
 30
0.0
 10
536.395633
 20
404.061733
 30
0.0
  0
LWPOLYLINE
  5
11e
100
AcDbEntity
  8
Epilog_Laser
 62
7
100
AcDbPolyline
 90
2
 70
0
 10
526.490933
 20
390.981556
 30
0.0
 10
520.492389
 20
390.981556
 30
0.0
  0
LWPOLYLINE
  5
11f
100
AcDbEntity
  8
Epilog_Laser
 62
7
100
AcDbPolyline
 90
2
 70
0
 10
773.895789
 20
390.981556
 30
0.0
 10
757.992500
 20
390.981556
 30
0.0
  0
LWPOLYLINE
  5
120
100
AcDbEntity
  8
Epilog_Laser
 62
7
100
AcDbPolyline
 90
2
 70
0
 10
520.492389
 20
390.981556
 30
0.0
 10
520.492389
 20
406.884789
 30
0.0
  0
LWPOLYLINE
  5
121
100
AcDbEntity
  8
Epilog_Laser
 62
7
100
AcDbPolyline
 90
2
 70
0
 10
757.992500
 20
390.981556
 30
0.0
 10
757.992500
 20
398.933144
 30
0.0
  0
LWPOLYLINE
  5
122
100
AcDbEntity
  8
Epilog_Laser
 62
7
100
AcDbPolyline
 90
2
 70
0
 10
520.492389
 20
406.884789
 30
0.0
 10
536.395633
 20
406.884789
 30
0.0
  0
LWPOLYLINE
  5
123
100
AcDbEntity
  8
Epilog_Laser
 62
7
100
AcDbPolyline
 90
4
 70
0
 10
296.798467
 20
108.019193
 30
0.0
 10
296.798467
 20
104.723393
 30
0.0
 10
280.895244
 20
104.723393
 30
0.0
 10
280.895244
 20
108.019193
 30
0.0
  0
LWPOLYLINE
  5
124
100
AcDbEntity
  8
Epilog_Laser
 62
7
100
AcDbPolyline
 90
2
 70
0
 10
296.798467
 20
120.626631
 30
0.0
 10
296.798467
 20
115.970834
 30
0.0
  0
LWPOLYLINE
  5
125
100
AcDbEntity
  8
Epilog_Laser
 62
7
100
AcDbPolyline
 90
2
 70
0
 10
280.895244
 20
115.970834
 30
0.0
 10
280.895244
 20
120.626631
 30
0.0
  0
LWPOLYLINE
  5
126
100
AcDbEntity
  8
Epilog_Laser
 62
7
100
AcDbPolyline
 90
2
 70
0
 10
281.091667
 20
120.626631
 30
0.0
 10
296.994889
 20
120.626631
 30
0.0
  0
LWPOLYLINE
  5
127
100
AcDbEntity
  8
Epilog_Laser
 62
7
100
AcDbPolyline
 90
2
 70
0
 10
56.262226
 20
348.400378
 30
0.0
 10
158.693589
 20
348.400378
 30
0.0
  0
LWPOLYLINE
  5
128
100
AcDbEntity
  8
Epilog_Laser
 62
7
100
AcDbPolyline
 90
3
 70
0
 10
198.451700
 20
348.400378
 30
0.0
 10
228.270278
 20
348.400378
 30
0.0
 10
228.270278
 20
396.110133
 30
0.0
  0
LWPOLYLINE
  5
129
100
AcDbEntity
  8
Epilog_Laser
 62
7
100
AcDbPolyline
 90
2
 70
0
 10
236.221900
 20
340.232811
 30
0.0
 10
236.221900
 20
399.340467
 30
0.0
  0
LWPOLYLINE
  5
12a
100
AcDbEntity
  8
Epilog_Laser
 62
7
100
AcDbPolyline
 90
2
 70
0
 10
56.261983
 20
115.970834
 30
0.0
 10
280.895244
 20
115.970834
 30
0.0
  0
LWPOLYLINE
  5
12b
100
AcDbEntity
  8
Epilog_Laser
 62
7
100
AcDbPolyline
 90
2
 70
0
 10
296.798467
 20
115.970834
 30
0.0
 10
519.443889
 20
115.970834
 30
0.0
  0
LWPOLYLINE
  5
12c
100
AcDbEntity
  8
Epilog_Laser
 62
7
100
AcDbPolyline
 90
2
 70
0
 10
56.261983
 20
108.019193
 30
0.0
 10
280.895244
 20
108.019193
 30
0.0
  0
LWPOLYLINE
  5
12d
100
AcDbEntity
  8
Epilog_Laser
 62
7
100
AcDbPolyline
 90
2
 70
0
 10
296.798467
 20
108.019193
 30
0.0
 10
519.443889
 20
108.019193
 30
0.0
  0
LWPOLYLINE
  5
12e
100
AcDbEntity
  8
Epilog_Laser
 62
7
100
AcDbPolyline
 90
2
 70
0
 10
537.872744
 20
114.737229
 30
0.0
 10
537.872744
 20
67.825492
 30
0.0
  0
LWPOLYLINE
  5
12f
100
AcDbEntity
  8
Epilog_Laser
 62
7
100
AcDbPolyline
 90
2
 70
0
 10
529.921100
 20
104.723350
 30
0.0
 10
529.921100
 20
67.825492
 30
0.0
  0
LWPOLYLINE
  5
130
100
AcDbEntity
  8
Epilog_Laser
 62
7
100
AcDbPolyline
 90
2
 70
0
 10
534.442522
 20
122.688870
 30
0.0
 10
711.372311
 20
122.688870
 30
0.0
  0
LWPOLYLINE
  5
131
100
AcDbEntity
  8
Epilog_Laser
 62
7
100
AcDbPolyline
 90
2
 70
0
 10
537.872744
 20
114.737229
 30
0.0
 10
719.323822
 20
114.737229
 30
0.0
  0
LWPOLYLINE
  5
132
100
AcDbEntity
  8
Epilog_Laser
 62
7
100
AcDbPolyline
 90
2
 70
0
 10
711.372178
 20
122.688783
 30
0.0
 10
711.333156
 20
340.793700
 30
0.0
  0
LWPOLYLINE
  5
133
100
AcDbEntity
  8
Epilog_Laser
 62
7
100
AcDbPolyline
 90
2
 70
0
 10
719.323822
 20
114.737229
 30
0.0
 10
719.280467
 20
348.726300
 30
0.0
  0
LWPOLYLINE
  5
134
100
AcDbEntity
  8
Epilog_Laser
 62
7
100
AcDbPolyline
 90
2
 70
0
 10
651.694144
 20
348.745467
 30
0.0
 10
699.403856
 20
348.732467
 30
0.0
  0
LWPOLYLINE
  5
135
100
AcDbEntity
  8
Epilog_Laser
 62
7
100
AcDbPolyline
 90
2
 70
0
 10
707.355500
 20
348.729689
 30
0.0
 10
719.281456
 20
348.726300
 30
0.0
  0
LWPOLYLINE
  5
136
100
AcDbEntity
  8
Epilog_Laser
 62
7
100
AcDbPolyline
 90
2
 70
0
 10
643.742500
 20
340.793700
 30
0.0
 10
711.500700
 20
340.793700
 30
0.0
  0
LWPOLYLINE
  5
137
100
AcDbEntity
  8
Epilog_Laser
 62
7
100
AcDbPolyline
 90
2
 70
0
 10
773.895789
 20
390.981556
 30
0.0
 10
773.895789
 20
398.933144
 30
0.0
  0
LWPOLYLINE
  5
138
100
AcDbEntity
  8
Epilog_Laser
 62
7
100
AcDbPolyline
 90
2
 70
0
 10
42.346887
 20
458.570211
 30
0.0
 10
40.358979
 20
458.570211
 30
0.0
  0
LWPOLYLINE
  5
139
100
AcDbEntity
  8
Epilog_Laser
 62
7
100
AcDbPolyline
 90
2
 70
0
 10
42.346887
 20
458.570211
 30
0.0
 10
42.346887
 20
456.582300
 30
0.0
  0
LWPOLYLINE
  5
13a
100
AcDbEntity
  8
Epilog_Laser
 62
7
100
AcDbPolyline
 90
2
 70
0
 10
42.346887
 20
414.836167
 30
0.0
 10
42.346887
 20
412.848244
 30
0.0
  0
LWPOLYLINE
  5
13b
100
AcDbEntity
  8
Epilog_Laser
 62
7
100
AcDbPolyline
 90
2
 70
0
 10
50.298506
 20
458.570211
 30
0.0
 10
50.298506
 20
456.582300
 30
0.0
  0
LWPOLYLINE
  5
13c
100
AcDbEntity
  8
Epilog_Laser
 62
7
100
AcDbPolyline
 90
2
 70
0
 10
50.298506
 20
414.836167
 30
0.0
 10
50.298506
 20
412.848378
 30
0.0
  0
LWPOLYLINE
  5
13d
100
AcDbEntity
  8
Epilog_Laser
 62
7
100
AcDbPolyline
 90
2
 70
0
 10
50.298506
 20
456.582300
 30
0.0
 10
42.346887
 20
456.582300
 30
0.0
  0
LWPOLYLINE
  5
13e
100
AcDbEntity
  8
Epilog_Laser
 62
7
100
AcDbPolyline
 90
2
 70
0
 10
50.298506
 20
414.836167
 30
0.0
 10
42.346887
 20
414.836167
 30
0.0
  0
LWPOLYLINE
  5
13f
100
AcDbEntity
  8
Epilog_Laser
 62
7
100
AcDbPolyline
 90
2
 70
0
 10
56.262226
 20
458.570211
 30
0.0
 10
50.298506
 20
458.570211
 30
0.0
  0
LWPOLYLINE
  5
140
100
AcDbEntity
  8
Epilog_Laser
 62
7
100
AcDbPolyline
 90
2
 70
0
 10
56.262226
 20
412.848378
 30
0.0
 10
50.298506
 20
412.848378
 30
0.0
  0
LWPOLYLINE
  5
141
100
AcDbEntity
  8
Epilog_Laser
 62
7
100
AcDbPolyline
 90
2
 70
0
 10
42.346887
 20
412.848244
 30
0.0
 10
40.358979
 20
412.848244
 30
0.0
  0
LWPOLYLINE
  5
142
100
AcDbEntity
  8
Epilog_Laser
 62
7
100
AcDbPolyline
 90
2
 70
0
 10
56.261983
 20
198.154600
 30
0.0
 10
53.280123
 20
198.154600
 30
0.0
  0
LWPOLYLINE
  5
143
100
AcDbEntity
  8
Epilog_Laser
 62
7
100
AcDbPolyline
 90
2
 70
0
 10
47.316408
 20
198.154600
 30
0.0
 10
40.358979
 20
198.154600
 30
0.0
  0
LWPOLYLINE
  5
144
100
AcDbEntity
  8
Epilog_Laser
 62
7
100
AcDbPolyline
 90
2
 70
0
 10
56.261983
 20
317.428911
 30
0.0
 10
53.280123
 20
317.428911
 30
0.0
  0
LWPOLYLINE
  5
145
100
AcDbEntity
  8
Epilog_Laser
 62
7
100
AcDbPolyline
 90
2
 70
0
 10
47.316408
 20
317.428911
 30
0.0
 10
40.358979
 20
317.428911
 30
0.0
  0
LWPOLYLINE
  5
146
100
AcDbEntity
  8
Epilog_Laser
 62
7
100
AcDbPolyline
 90
2
 70
0
 10
236.221900
 20
348.400378
 30
0.0
 10
236.221900
 20
340.232811
 30
0.0
  0
LWPOLYLINE
  5
147
100
AcDbEntity
  8
Epilog_Laser
 62
7
100
AcDbPolyline
 90
2
 70
0
 10
56.262226
 20
340.448778
 30
0.0
 10
158.693589
 20
340.321300
 30
0.0
  0
LWPOLYLINE
  5
148
100
AcDbEntity
  8
Epilog_Laser
 62
7
100
AcDbPolyline
 90
2
 70
0
 10
198.451700
 20
340.278167
 30
0.0
 10
236.221900
 20
340.232633
 30
0.0
  0
LWPOLYLINE
  5
149
100
AcDbEntity
  8
Epilog_Laser
 62
7
100
AcDbPolyline
 90
2
 70
0
 10
536.395633
 20
404.061733
 30
0.0
 10
638.275756
 20
404.061622
 30
0.0
  0
LWPOLYLINE
  5
14a
100
AcDbEntity
  8
Epilog_Laser
 62
7
100
AcDbPolyline
 90
2
 70
0
 10
642.251600
 20
404.061600
 30
0.0
 10
647.718344
 20
404.061600
 30
0.0
  0
LWPOLYLINE
  5
14b
100
AcDbEntity
  8
Epilog_Laser
 62
7
100
AcDbPolyline
 90
2
 70
0
 10
651.694144
 20
406.884656
 30
0.0
 10
651.694144
 20
406.884767
 30
0.0
  0
LWPOLYLINE
  5
14c
100
AcDbEntity
  8
Epilog_Laser
 62
7
100
AcDbPolyline
 90
2
 70
0
 10
643.742500
 20
388.503456
 30
0.0
 10
643.742500
 20
396.110267
 30
0.0
  0
LWPOLYLINE
  5
14d
100
AcDbEntity
  8
Epilog_Laser
 62
7
100
AcDbPolyline
 90
2
 70
0
 10
651.694144
 20
388.503456
 30
0.0
 10
643.742500
 20
388.503456
 30
0.0
  0
LWPOLYLINE
  5
14e
100
AcDbEntity
  8
Epilog_Laser
 62
7
100
AcDbPolyline
 90
2
 70
0
 10
651.694144
 20
388.503456
 30
0.0
 10
651.694144
 20
398.933278
 30
0.0
  0
LWPOLYLINE
  5
14f
100
AcDbEntity
  8
Epilog_Laser
 62
7
100
AcDbPolyline
 90
2
 70
0
 10
643.742500
 20
340.793700
 30
0.0
 10
643.742500
 20
352.721133
 30
0.0
  0
LWPOLYLINE
  5
150
100
AcDbEntity
  8
Epilog_Laser
 62
7
100
AcDbPolyline
 90
3
 70
0
 10
651.694144
 20
348.745467
 30
0.0
 10
651.694144
 20
352.721133
 30
0.0
 10
643.742500
 20
352.721133
 30
0.0
  0
LWPOLYLINE
  5
151
100
AcDbEntity
  8
Epilog_Laser
 62
7
100
AcDbPolyline
 90
3
 70
0
 10
651.694144
 20
398.933278
 30
0.0
 10
651.694144
 20
405.139156
 30
0.0
 10
651.694144
 20
406.884789
 30
0.0
  0
LWPOLYLINE
  5
152
100
AcDbEntity
  8
Epilog_Laser
 62
7
100
AcDbPolyline
 90
2
 70
0
 10
47.316408
 20
198.154600
 30
0.0
 10
53.280123
 20
198.154600
 30
0.0
  0
LWPOLYLINE
  5
153
100
AcDbEntity
  8
Epilog_Laser
 62
7
100
AcDbPolyline
 90
2
 70
0
 10
47.316408
 20
317.428911
 30
0.0
 10
53.280123
 20
317.428911
 30
0.0
  0
LWPOLYLINE
  5
154
100
AcDbEntity
  8
Epilog_Laser
 62
7
100
AcDbPolyline
 90
2
 70
0
 10
910.121833
 20
476.489122
 30
0.0
 10
1005.549200
 20
476.489122
 30
0.0
  0
LWPOLYLINE
  5
155
100
AcDbEntity
  8
Epilog_Laser
 62
7
100
AcDbPolyline
 90
2
 70
0
 10
536.395633
 20
396.110133
 30
0.0
 10
536.395633
 20
390.981556
 30
0.0
  0
LWPOLYLINE
  5
156
100
AcDbEntity
  8
Epilog_Laser
 62
7
100
AcDbPolyline
 90
2
 70
0
 10
536.395633
 20
396.110133
 30
0.0
 10
643.742500
 20
396.110244
 30
0.0
  0
LWPOLYLINE
  5
157
100
AcDbEntity
  8
Epilog_Laser
 62
7
100
AcDbPolyline
 90
2
 70
0
 10
536.395633
 20
390.981556
 30
0.0
 10
534.442522
 20
390.981556
 30
0.0
  0
LWPOLYLINE
  5
158
100
AcDbEntity
  8
Epilog_Laser
 62
7
100
AcDbPolyline
 90
2
 70
0
 10
56.262074
 20
4.648123
 30
0.0
 10
56.262074
 20
52.357838
 30
0.0
  0
LWPOLYLINE
  5
159
100
AcDbEntity
  8
Epilog_Laser
 62
7
100
AcDbPolyline
 90
2
 70
0
 10
56.262027
 20
60.309479
 30
0.0
 10
56.262027
 20
108.019193
 30
0.0
  0
LWPOLYLINE
  5
15a
100
AcDbEntity
  8
Epilog_Laser
 62
7
100
AcDbPolyline
 90
2
 70
0
 10
56.261983
 20
115.970834
 30
0.0
 10
56.261983
 20
198.154600
 30
0.0
  0
LWPOLYLINE
  5
15b
100
AcDbEntity
  8
Epilog_Laser
 62
7
100
AcDbPolyline
 90
2
 70
0
 10
910.121833
 20
406.884789
 30
0.0
 10
910.121833
 20
471.767722
 30
0.0
  0
LWPOLYLINE
  5
15c
100
AcDbEntity
  8
Epilog_Laser
 62
7
100
AcDbPolyline
 90
3
 70
0
 10
228.270278
 20
348.400378
 30
0.0
 10
198.451700
 20
348.400378
 30
0.0
 10
198.451700
 20
340.278167
 30
0.0
  0
LWPOLYLINE
  5
15d
100
AcDbEntity
  8
Epilog_Laser
 62
7
100
AcDbPolyline
 90
2
 70
0
 10
158.693589
 20
348.400378
 30
0.0
 10
158.693589
 20
340.321133
 30
0.0
  0
LWPOLYLINE
  5
15e
100
AcDbEntity
  8
Epilog_Laser
 62
7
100
AcDbPolyline
 90
2
 70
0
 10
707.355500
 20
348.729689
 30
0.0
 10
707.355500
 20
398.933144
 30
0.0
  0
LWPOLYLINE
  5
15f
100
AcDbEntity
  8
Epilog_Laser
 62
7
100
AcDbPolyline
 90
2
 70
0
 10
910.121833
 20
406.884789
 30
0.0
 10
716.052567
 20
406.884789
 30
0.0
  0
LWPOLYLINE
  5
160
100
AcDbEntity
  8
Epilog_Laser
 62
7
100
AcDbPolyline
 90
2
 70
0
 10
757.992500
 20
398.933144
 30
0.0
 10
707.355500
 20
398.933144
 30
0.0
  0
LWPOLYLINE
  5
161
100
AcDbEntity
  8
Epilog_Laser
 62
7
100
AcDbPolyline
 90
2
 70
0
 10
44.334791
 20
237.912711
 30
0.0
 10
44.334791
 20
235.924789
 30
0.0
  0
LWPOLYLINE
  5
162
100
AcDbEntity
  8
Epilog_Laser
 62
7
100
AcDbPolyline
 90
2
 70
0
 10
44.334791
 20
200.142478
 30
0.0
 10
44.334791
 20
198.154600
 30
0.0
  0
LWPOLYLINE
  5
163
100
AcDbEntity
  8
Epilog_Laser
 62
7
100
AcDbPolyline
 90
2
 70
0
 10
48.310602
 20
237.912711
 30
0.0
 10
48.310602
 20
235.924789
 30
0.0
  0
LWPOLYLINE
  5
164
100
AcDbEntity
  8
Epilog_Laser
 62
7
100
AcDbPolyline
 90
2
 70
0
 10
48.310602
 20
200.142478
 30
0.0
 10
48.310602
 20
198.154600
 30
0.0
  0
LWPOLYLINE
  5
165
100
AcDbEntity
  8
Epilog_Laser
 62
7
100
AcDbPolyline
 90
2
 70
0
 10
48.310602
 20
273.694989
 30
0.0
 10
48.310602
 20
317.428911
 30
0.0
  0
LWPOLYLINE
  5
166
100
AcDbEntity
  8
Epilog_Laser
 62
7
100
AcDbPolyline
 90
2
 70
0
 10
44.334791
 20
317.428911
 30
0.0
 10
44.334791
 20
273.694989
 30
0.0
  0
LWPOLYLINE
  5
167
100
AcDbEntity
  8
Epilog_Laser
 62
7
100
AcDbPolyline
 90
2
 70
0
 10
529.921100
 20
67.825492
 30
0.0
 10
529.921100
 20
60.309479
 30
0.0
  0
LWPOLYLINE
  5
168
100
AcDbEntity
  8
Epilog_Laser
 62
7
100
AcDbPolyline
 90
2
 70
0
 10
699.403856
 20
348.731989
 30
0.0
 10
699.403856
 20
406.884789
 30
0.0
  0
LWPOLYLINE
  5
169
100
AcDbEntity
  8
Epilog_Laser
 62
7
100
AcDbPolyline
 90
2
 70
0
 10
711.331289
 20
406.884789
 30
0.0
 10
699.403856
 20
406.884789
 30
0.0
  0
LWPOLYLINE
  5
16a
100
AcDbEntity
  8
Epilog_Laser
 62
7
100
AcDbPolyline
 90
2
 70
0
 10
236.221900
 20
404.061733
 30
0.0
 10
241.191667
 20
404.061733
 30
0.0
  0
LWPOLYLINE
  5
16b
100
AcDbEntity
  8
Epilog_Laser
 62
7
100
AcDbPolyline
 90
2
 70
0
 10
276.973967
 20
404.061733
 30
0.0
 10
281.943733
 20
404.061733
 30
0.0
  0
LWPOLYLINE
  5
16c
100
AcDbEntity
  8
Epilog_Laser
 62
7
100
AcDbPolyline
 90
2
 70
0
 10
241.191667
 20
404.061733
 30
0.0
 10
241.191667
 20
399.340467
 30
0.0
  0
LWPOLYLINE
  5
16d
100
AcDbEntity
  8
Epilog_Laser
 62
7
100
AcDbPolyline
 90
2
 70
0
 10
276.973967
 20
404.061733
 30
0.0
 10
276.973967
 20
399.340467
 30
0.0
  0
LWPOLYLINE
  5
16e
100
AcDbEntity
  8
Epilog_Laser
 62
7
100
AcDbPolyline
 90
2
 70
0
 10
236.221900
 20
399.340467
 30
0.0
 10
241.191667
 20
399.340467
 30
0.0
  0
LWPOLYLINE
  5
16f
100
AcDbEntity
  8
Epilog_Laser
 62
7
100
AcDbPolyline
 90
2
 70
0
 10
276.973967
 20
399.340467
 30
0.0
 10
281.943733
 20
399.340467
 30
0.0
  0
LWPOLYLINE
  5
170
100
AcDbEntity
  8
Epilog_Laser
 62
7
100
AcDbPolyline
 90
2
 70
0
 10
297.846967
 20
404.061733
 30
0.0
 10
301.822767
 20
404.061733
 30
0.0
  0
LWPOLYLINE
  5
171
100
AcDbEntity
  8
Epilog_Laser
 62
7
100
AcDbPolyline
 90
2
 70
0
 10
407.181756
 20
404.061733
 30
0.0
 10
520.492389
 20
404.061733
 30
0.0
  0
LWPOLYLINE
  5
172
100
AcDbEntity
  8
Epilog_Laser
 62
7
100
AcDbPolyline
 90
2
 70
0
 10
297.846967
 20
399.340467
 30
0.0
 10
301.822767
 20
399.340467
 30
0.0
  0
LWPOLYLINE
  5
173
100
AcDbEntity
  8
Epilog_Laser
 62
7
100
AcDbPolyline
 90
2
 70
0
 10
407.181756
 20
399.340467
 30
0.0
 10
520.492389
 20
399.340467
 30
0.0
  0
LWPOLYLINE
  5
174
100
AcDbEntity
  8
Epilog_Laser
 62
7
100
AcDbPolyline
 90
2
 70
0
 10
910.121833
 20
476.489122
 30
0.0
 10
896.206522
 20
476.489122
 30
0.0
  0
LWPOLYLINE
  5
175
100
AcDbEntity
  8
Epilog_Laser
 62
7
100
AcDbPolyline
 90
2
 70
0
 10
860.424200
 20
476.489122
 30
0.0
 10
711.331289
 20
476.489011
 30
0.0
  0
LWPOLYLINE
  5
176
100
AcDbEntity
  8
Epilog_Laser
 62
7
100
AcDbPolyline
 90
2
 70
0
 10
910.121833
 20
471.767722
 30
0.0
 10
896.206522
 20
471.767722
 30
0.0
  0
LWPOLYLINE
  5
177
100
AcDbEntity
  8
Epilog_Laser
 62
7
100
AcDbPolyline
 90
2
 70
0
 10
860.424200
 20
471.767722
 30
0.0
 10
716.052567
 20
471.767833
 30
0.0
  0
LWPOLYLINE
  5
178
100
AcDbEntity
  8
Epilog_Laser
 62
7
100
AcDbPolyline
 90
2
 70
0
 10
896.206522
 20
471.767722
 30
0.0
 10
896.206522
 20
476.489122
 30
0.0
  0
LWPOLYLINE
  5
179
100
AcDbEntity
  8
Epilog_Laser
 62
7
100
AcDbPolyline
 90
2
 70
0
 10
860.424200
 20
471.767722
 30
0.0
 10
860.424200
 20
476.489122
 30
0.0
  0
LWPOLYLINE
  5
17a
100
AcDbEntity
  8
Epilog_Laser
 62
7
100
AcDbPolyline
 90
3
 70
0
 10
711.331289
 20
406.884789
 30
0.0
 10
711.331289
 20
476.489000
 30
0.0
 10
711.331289
 20
476.489111
 30
0.0
  0
LWPOLYLINE
  5
17b
100
AcDbEntity
  8
Epilog_Laser
 62
7
100
AcDbPolyline
 90
2
 70
0
 10
716.052567
 20
406.884789
 30
0.0
 10
716.052567
 20
471.767856
 30
0.0
  0
LWPOLYLINE
  5
17c
100
AcDbEntity
  8
Epilog_Laser
 62
7
100
AcDbPolyline
 90
2
 70
0
 10
651.694144
 20
406.884656
 30
0.0
 10
651.694144
 20
476.489122
 30
0.0
  0
LWPOLYLINE
  5
17d
100
AcDbEntity
  8
Epilog_Laser
 62
7
100
AcDbPolyline
 90
2
 70
0
 10
647.718344
 20
404.061600
 30
0.0
 10
647.718344
 20
472.505089
 30
0.0
  0
LWPOLYLINE
  5
17e
100
AcDbEntity
  8
Epilog_Laser
 62
7
100
AcDbPolyline
 90
2
 70
0
 10
642.251600
 20
404.061600
 30
0.0
 10
642.251600
 20
472.513322
 30
0.0
  0
LWPOLYLINE
  5
17f
100
AcDbEntity
  8
Epilog_Laser
 62
7
100
AcDbPolyline
 90
2
 70
0
 10
638.275756
 20
404.061600
 30
0.0
 10
638.275756
 20
476.489122
 30
0.0
  0
LWPOLYLINE
  5
180
100
AcDbEntity
  8
Epilog_Laser
 62
7
100
AcDbPolyline
 90
2
 70
0
 10
638.275756
 20
476.517044
 30
0.0
 10
638.275756
 20
476.491033
 30
0.0
  0
LWPOLYLINE
  5
181
100
AcDbEntity
  8
Epilog_Laser
 62
7
100
AcDbPolyline
 90
2
 70
0
 10
642.251600
 20
472.513322
 30
0.0
 10
647.718344
 20
472.504656
 30
0.0
  0
LWPOLYLINE
  5
182
100
AcDbEntity
  8
Epilog_Laser
 62
7
100
AcDbPolyline
 90
2
 70
0
 10
638.275756
 20
476.517044
 30
0.0
 10
651.694144
 20
476.517044
 30
0.0
  0
LWPOLYLINE
  5
183
100
AcDbEntity
  8
Epilog_Laser
 62
7
100
AcDbPolyline
 90
2
 70
0
 10
301.822767
 20
399.340467
 30
0.0
 10
301.822767
 20
404.061733
 30
0.0
  0
LWPOLYLINE
  5
184
100
AcDbEntity
  8
Epilog_Laser
 62
7
100
AcDbPolyline
 90
2
 70
0
 10
407.181756
 20
399.340467
 30
0.0
 10
407.181756
 20
404.061733
 30
0.0
  0
LWPOLYLINE
  5
185
100
AcDbEntity
  8
Epilog_Laser
 62
7
100
AcDbPolyline
 90
3
 70
0
 10
529.921100
 20
104.723350
 30
0.0
 10
519.443844
 20
104.723350
 30
0.0
 10
519.443844
 20
108.019150
 30
0.0
  0
LWPOLYLINE
  5
186
100
AcDbEntity
  8
Epilog_Laser
 62
7
100
AcDbPolyline
 90
3
 70
0
 10
519.443844
 20
115.970748
 30
0.0
 10
519.443844
 20
120.626588
 30
0.0
 10
526.490933
 20
120.626588
 30
0.0
  0
LWPOLYLINE
  5
187
100
AcDbEntity
  8
Epilog_Laser
 62
7
100
AcDbPolyline
 90
2
 70
0
 10
45.129760
 20
692.755878
 30
0.0
 10
45.129760
 20
692.149078
 30
0.0
  0
LWPOLYLINE
  5
188
100
AcDbEntity
  8
Epilog_Laser
 62
7
100
AcDbPolyline
 90
2
 70
0
 10
45.129760
 20
692.149589
 30
0.0
 10
49.366437
 20
692.149589
 30
0.0
  0
LWPOLYLINE
  5
189
100
AcDbEntity
  8
Epilog_Laser
 62
7
100
AcDbPolyline
 90
2
 70
0
 10
50.064701
 20
691.451300
 30
0.0
 10
50.064701
 20
670.672689
 30
0.0
  0
LWPOLYLINE
  5
18a
100
AcDbEntity
  8
Epilog_Laser
 62
7
100
AcDbPolyline
 90
6
 70
0
 10
49.366437
 20
669.974444
 30
0.0
 10
45.129760
 20
669.974444
 30
0.0
 10
45.129760
 20
669.368156
 30
0.0
 10
55.466771
 20
669.368156
 30
0.0
 10
55.466771
 20
669.974444
 30
0.0
 10
51.230094
 20
669.974444
 30
0.0
  0
LWPOLYLINE
  5
18b
100
AcDbEntity
  8
Epilog_Laser
 62
7
100
AcDbPolyline
 90
2
 70
0
 10
50.531829
 20
670.672689
 30
0.0
 10
50.531829
 20
691.451300
 30
0.0
  0
LWPOLYLINE
  5
18c
100
AcDbEntity
  8
Epilog_Laser
 62
7
100
AcDbPolyline
 90
2
 70
0
 10
51.230094
 20
692.149589
 30
0.0
 10
55.466771
 20
692.149589
 30
0.0
  0
SPLINE
  5
18d
100
AcDbEntity
  8
Epilog_Laser
 62
7
100
AcDbSpline
 70
8
 71
3
 72
8
 73
4
 74
0
 40
0
 40
0
 40
0
 40
0
 40
1
 40
1
 40
1
 40
1
 10
50.064689
 20
691.451300
 30
0.0
 10
50.064690
 20
691.636489
 30
0.0
 10
49.991124
 20
691.814093
 30
0.0
 10
49.860177
 20
691.945041
 30
0.0
  0
SPLINE
  5
18e
100
AcDbEntity
  8
Epilog_Laser
 62
7
100
AcDbSpline
 70
8
 71
3
 72
8
 73
4
 74
0
 40
0
 40
0
 40
0
 40
0
 40
1
 40
1
 40
1
 40
1
 10
49.860177
 20
691.945041
 30
0.0
 10
49.729229
 20
692.075989
 30
0.0
 10
49.551625
 20
692.149555
 30
0.0
 10
49.366437
 20
692.149556
 30
0.0
  0
SPLINE
  5
18f
100
AcDbEntity
  8
Epilog_Laser
 62
7
100
AcDbSpline
 70
8
 71
3
 72
8
 73
4
 74
0
 40
0
 40
0
 40
0
 40
0
 40
1
 40
1
 40
1
 40
1
 10
49.366437
 20
669.974444
 30
0.0
 10
49.752068
 20
669.974445
 30
0.0
 10
50.064684
 20
670.287058
 30
0.0
 10
50.064689
 20
670.672689
 30
0.0
  0
SPLINE
  5
190
100
AcDbEntity
  8
Epilog_Laser
 62
7
100
AcDbSpline
 70
8
 71
3
 72
8
 73
4
 74
0
 40
0
 40
0
 40
0
 40
0
 40
1
 40
1
 40
1
 40
1
 10
50.531842
 20
670.672689
 30
0.0
 10
50.531847
 20
670.287058
 30
0.0
 10
50.844463
 20
669.974445
 30
0.0
 10
51.230094
 20
669.974444
 30
0.0
  0
SPLINE
  5
191
100
AcDbEntity
  8
Epilog_Laser
 62
7
100
AcDbSpline
 70
8
 71
3
 72
8
 73
4
 74
0
 40
0
 40
0
 40
0
 40
0
 40
1
 40
1
 40
1
 40
1
 10
51.230094
 20
692.149556
 30
0.0
 10
51.044906
 20
692.149555
 30
0.0
 10
50.867302
 20
692.075989
 30
0.0
 10
50.736354
 20
691.945041
 30
0.0
  0
SPLINE
  5
192
100
AcDbEntity
  8
Epilog_Laser
 62
7
100
AcDbSpline
 70
8
 71
3
 72
8
 73
4
 74
0
 40
0
 40
0
 40
0
 40
0
 40
1
 40
1
 40
1
 40
1
 10
50.736354
 20
691.945041
 30
0.0
 10
50.605407
 20
691.814093
 30
0.0
 10
50.531841
 20
691.636489
 30
0.0
 10
50.531842
 20
691.451300
 30
0.0
  0
LWPOLYLINE
  5
193
100
AcDbEntity
  8
Epilog_Laser
 62
7
100
AcDbPolyline
 90
3
 70
0
 10
55.466771
 20
692.149200
 30
0.0
 10
55.466771
 20
692.755878
 30
0.0
 10
45.129760
 20
692.755878
 30
0.0
  0
LWPOLYLINE
  5
194
100
AcDbEntity
  8
Epilog_Laser
 62
7
100
AcDbPolyline
 90
3
 70
0
 10
283.678411
 20
692.755878
 30
0.0
 10
283.678411
 20
692.149589
 30
0.0
 10
287.915078
 20
692.149589
 30
0.0
  0
LWPOLYLINE
  5
195
100
AcDbEntity
  8
Epilog_Laser
 62
7
100
AcDbPolyline
 90
2
 70
0
 10
288.613378
 20
691.451300
 30
0.0
 10
288.613378
 20
670.672689
 30
0.0
  0
LWPOLYLINE
  5
196
100
AcDbEntity
  8
Epilog_Laser
 62
7
100
AcDbPolyline
 90
6
 70
0
 10
287.915078
 20
669.974444
 30
0.0
 10
283.678411
 20
669.974444
 30
0.0
 10
283.678411
 20
669.368156
 30
0.0
 10
294.015422
 20
669.368156
 30
0.0
 10
294.015422
 20
669.974444
 30
0.0
 10
289.778733
 20
669.974444
 30
0.0
  0
LWPOLYLINE
  5
197
100
AcDbEntity
  8
Epilog_Laser
 62
7
100
AcDbPolyline
 90
2
 70
0
 10
289.080489
 20
670.672689
 30
0.0
 10
289.080489
 20
691.451300
 30
0.0
  0
SPLINE
  5
198
100
AcDbEntity
  8
Epilog_Laser
 62
7
100
AcDbSpline
 70
8
 71
3
 72
8
 73
4
 74
0
 40
0
 40
0
 40
0
 40
0
 40
1
 40
1
 40
1
 40
1
 10
288.613333
 20
691.451300
 30
0.0
 10
288.613334
 20
691.636489
 30
0.0
 10
288.539768
 20
691.814094
 30
0.0
 10
288.408820
 20
691.945042
 30
0.0
  0
SPLINE
  5
199
100
AcDbEntity
  8
Epilog_Laser
 62
7
100
AcDbSpline
 70
8
 71
3
 72
8
 73
4
 74
0
 40
0
 40
0
 40
0
 40
0
 40
1
 40
1
 40
1
 40
1
 10
288.408820
 20
691.945042
 30
0.0
 10
288.277871
 20
692.075991
 30
0.0
 10
288.100267
 20
692.149556
 30
0.0
 10
287.915078
 20
692.149556
 30
0.0
  0
SPLINE
  5
19a
100
AcDbEntity
  8
Epilog_Laser
 62
7
100
AcDbSpline
 70
8
 71
3
 72
8
 73
4
 74
0
 40
0
 40
0
 40
0
 40
0
 40
1
 40
1
 40
1
 40
1
 10
287.915078
 20
669.974444
 30
0.0
 10
288.300710
 20
669.974443
 30
0.0
 10
288.613329
 20
670.287057
 30
0.0
 10
288.613333
 20
670.672689
 30
0.0
  0
SPLINE
  5
19b
100
AcDbEntity
  8
Epilog_Laser
 62
7
100
AcDbSpline
 70
8
 71
3
 72
8
 73
4
 74
0
 40
0
 40
0
 40
0
 40
0
 40
1
 40
1
 40
1
 40
1
 10
289.080489
 20
670.672689
 30
0.0
 10
289.080493
 20
670.287061
 30
0.0
 10
289.393105
 20
669.974449
 30
0.0
 10
289.778733
 20
669.974444
 30
0.0
  0
SPLINE
  5
19c
100
AcDbEntity
  8
Epilog_Laser
 62
7
100
AcDbSpline
 70
8
 71
3
 72
8
 73
4
 74
0
 40
0
 40
0
 40
0
 40
0
 40
1
 40
1
 40
1
 40
1
 10
289.778733
 20
692.149556
 30
0.0
 10
289.393101
 20
692.149551
 30
0.0
 10
289.080487
 20
691.836932
 30
0.0
 10
289.080489
 20
691.451300
 30
0.0
  0
LWPOLYLINE
  5
19d
100
AcDbEntity
  8
Epilog_Laser
 62
7
100
AcDbPolyline
 90
4
 70
0
 10
289.778733
 20
692.149589
 30
0.0
 10
294.015422
 20
692.149589
 30
0.0
 10
294.015422
 20
692.755878
 30
0.0
 10
283.678411
 20
692.755878
 30
0.0
  0
LWPOLYLINE
  5
19e
100
AcDbEntity
  8
Epilog_Laser
 62
7
100
AcDbPolyline
 90
3
 70
0
 10
522.227056
 20
692.755878
 30
0.0
 10
522.227056
 20
692.149589
 30
0.0
 10
526.463744
 20
692.149589
 30
0.0
  0
LWPOLYLINE
  5
19f
100
AcDbEntity
  8
Epilog_Laser
 62
7
100
AcDbPolyline
 90
2
 70
0
 10
527.162000
 20
691.451300
 30
0.0
 10
527.162000
 20
670.672689
 30
0.0
  0
LWPOLYLINE
  5
1a0
100
AcDbEntity
  8
Epilog_Laser
 62
7
100
AcDbPolyline
 90
6
 70
0
 10
526.463744
 20
669.974444
 30
0.0
 10
522.227056
 20
669.974444
 30
0.0
 10
522.227056
 20
669.368156
 30
0.0
 10
532.564089
 20
669.368156
 30
0.0
 10
532.564089
 20
669.974444
 30
0.0
 10
528.327400
 20
669.974444
 30
0.0
  0
LWPOLYLINE
  5
1a1
100
AcDbEntity
  8
Epilog_Laser
 62
7
100
AcDbPolyline
 90
2
 70
0
 10
527.629144
 20
670.672689
 30
0.0
 10
527.629144
 20
691.451300
 30
0.0
  0
SPLINE
  5
1a2
100
AcDbEntity
  8
Epilog_Laser
 62
7
100
AcDbSpline
 70
8
 71
3
 72
8
 73
4
 74
0
 40
0
 40
0
 40
0
 40
0
 40
1
 40
1
 40
1
 40
1
 10
527.162000
 20
691.451300
 30
0.0
 10
527.162001
 20
691.636489
 30
0.0
 10
527.088435
 20
691.814094
 30
0.0
 10
526.957487
 20
691.945042
 30
0.0
  0
SPLINE
  5
1a3
100
AcDbEntity
  8
Epilog_Laser
 62
7
100
AcDbSpline
 70
8
 71
3
 72
8
 73
4
 74
0
 40
0
 40
0
 40
0
 40
0
 40
1
 40
1
 40
1
 40
1
 10
526.957487
 20
691.945042
 30
0.0
 10
526.826538
 20
692.075991
 30
0.0
 10
526.648934
 20
692.149556
 30
0.0
 10
526.463744
 20
692.149556
 30
0.0
  0
SPLINE
  5
1a4
100
AcDbEntity
  8
Epilog_Laser
 62
7
100
AcDbSpline
 70
8
 71
3
 72
8
 73
4
 74
0
 40
0
 40
0
 40
0
 40
0
 40
1
 40
1
 40
1
 40
1
 10
526.463744
 20
669.974444
 30
0.0
 10
526.849377
 20
669.974443
 30
0.0
 10
527.161996
 20
670.287057
 30
0.0
 10
527.162000
 20
670.672689
 30
0.0
  0
SPLINE
  5
1a5
100
AcDbEntity
  8
Epilog_Laser
 62
7
100
AcDbSpline
 70
8
 71
3
 72
8
 73
4
 74
0
 40
0
 40
0
 40
0
 40
0
 40
1
 40
1
 40
1
 40
1
 10
527.629144
 20
670.672689
 30
0.0
 10
527.629149
 20
670.287057
 30
0.0
 10
527.941768
 20
669.974443
 30
0.0
 10
528.327400
 20
669.974444
 30
0.0
  0
SPLINE
  5
1a6
100
AcDbEntity
  8
Epilog_Laser
 62
7
100
AcDbSpline
 70
8
 71
3
 72
8
 73
4
 74
0
 40
0
 40
0
 40
0
 40
0
 40
1
 40
1
 40
1
 40
1
 10
528.327400
 20
692.149556
 30
0.0
 10
528.142211
 20
692.149556
 30
0.0
 10
527.964606
 20
692.075991
 30
0.0
 10
527.833658
 20
691.945042
 30
0.0
  0
SPLINE
  5
1a7
100
AcDbEntity
  8
Epilog_Laser
 62
7
100
AcDbSpline
 70
8
 71
3
 72
8
 73
4
 74
0
 40
0
 40
0
 40
0
 40
0
 40
1
 40
1
 40
1
 40
1
 10
527.833658
 20
691.945042
 30
0.0
 10
527.702709
 20
691.814094
 30
0.0
 10
527.629144
 20
691.636489
 30
0.0
 10
527.629144
 20
691.451300
 30
0.0
  0
LWPOLYLINE
  5
1a8
100
AcDbEntity
  8
Epilog_Laser
 62
7
100
AcDbPolyline
 90
4
 70
0
 10
528.327400
 20
692.149589
 30
0.0
 10
532.564089
 20
692.149589
 30
0.0
 10
532.564089
 20
692.755878
 30
0.0
 10
522.227056
 20
692.755878
 30
0.0
  0
LWPOLYLINE
  5
1a9
100
AcDbEntity
  8
Epilog_Laser
 62
7
100
AcDbPolyline
 90
3
 70
0
 10
760.775711
 20
692.755878
 30
0.0
 10
760.775711
 20
692.149589
 30
0.0
 10
765.012400
 20
692.149589
 30
0.0
  0
LWPOLYLINE
  5
1aa
100
AcDbEntity
  8
Epilog_Laser
 62
7
100
AcDbPolyline
 90
2
 70
0
 10
765.710656
 20
691.451300
 30
0.0
 10
765.710656
 20
670.672689
 30
0.0
  0
LWPOLYLINE
  5
1ab
100
AcDbEntity
  8
Epilog_Laser
 62
7
100
AcDbPolyline
 90
6
 70
0
 10
765.012400
 20
669.974444
 30
0.0
 10
760.775711
 20
669.974444
 30
0.0
 10
760.775711
 20
669.368156
 30
0.0
 10
771.112744
 20
669.368156
 30
0.0
 10
771.112744
 20
669.974444
 30
0.0
 10
766.876056
 20
669.974444
 30
0.0
  0
LWPOLYLINE
  5
1ac
100
AcDbEntity
  8
Epilog_Laser
 62
7
100
AcDbPolyline
 90
2
 70
0
 10
766.177800
 20
670.672689
 30
0.0
 10
766.177800
 20
691.451300
 30
0.0
  0
SPLINE
  5
1ad
100
AcDbEntity
  8
Epilog_Laser
 62
7
100
AcDbSpline
 70
8
 71
3
 72
8
 73
4
 74
0
 40
0
 40
0
 40
0
 40
0
 40
1
 40
1
 40
1
 40
1
 10
765.710656
 20
691.451300
 30
0.0
 10
765.710656
 20
691.636489
 30
0.0
 10
765.637091
 20
691.814094
 30
0.0
 10
765.506142
 20
691.945042
 30
0.0
  0
SPLINE
  5
1ae
100
AcDbEntity
  8
Epilog_Laser
 62
7
100
AcDbSpline
 70
8
 71
3
 72
8
 73
4
 74
0
 40
0
 40
0
 40
0
 40
0
 40
1
 40
1
 40
1
 40
1
 10
765.506142
 20
691.945042
 30
0.0
 10
765.375194
 20
692.075991
 30
0.0
 10
765.197589
 20
692.149556
 30
0.0
 10
765.012400
 20
692.149556
 30
0.0
  0
SPLINE
  5
1af
100
AcDbEntity
  8
Epilog_Laser
 62
7
100
AcDbSpline
 70
8
 71
3
 72
8
 73
4
 74
0
 40
0
 40
0
 40
0
 40
0
 40
1
 40
1
 40
1
 40
1
 10
765.012400
 20
669.974444
 30
0.0
 10
765.398032
 20
669.974443
 30
0.0
 10
765.710651
 20
670.287057
 30
0.0
 10
765.710656
 20
670.672689
 30
0.0
  0
SPLINE
  5
1b0
100
AcDbEntity
  8
Epilog_Laser
 62
7
100
AcDbSpline
 70
8
 71
3
 72
8
 73
4
 74
0
 40
0
 40
0
 40
0
 40
0
 40
1
 40
1
 40
1
 40
1
 10
766.177800
 20
670.672689
 30
0.0
 10
766.177804
 20
670.287057
 30
0.0
 10
766.490423
 20
669.974443
 30
0.0
 10
766.876056
 20
669.974444
 30
0.0
  0
SPLINE
  5
1b1
100
AcDbEntity
  8
Epilog_Laser
 62
7
100
AcDbSpline
 70
8
 71
3
 72
8
 73
4
 74
0
 40
0
 40
0
 40
0
 40
0
 40
1
 40
1
 40
1
 40
1
 10
766.876056
 20
692.149556
 30
0.0
 10
766.690866
 20
692.149556
 30
0.0
 10
766.513262
 20
692.075991
 30
0.0
 10
766.382313
 20
691.945042
 30
0.0
  0
SPLINE
  5
1b2
100
AcDbEntity
  8
Epilog_Laser
 62
7
100
AcDbSpline
 70
8
 71
3
 72
8
 73
4
 74
0
 40
0
 40
0
 40
0
 40
0
 40
1
 40
1
 40
1
 40
1
 10
766.382313
 20
691.945042
 30
0.0
 10
766.251365
 20
691.814094
 30
0.0
 10
766.177799
 20
691.636489
 30
0.0
 10
766.177800
 20
691.451300
 30
0.0
  0
LWPOLYLINE
  5
1b3
100
AcDbEntity
  8
Epilog_Laser
 62
7
100
AcDbPolyline
 90
4
 70
0
 10
766.876056
 20
692.149589
 30
0.0
 10
771.112744
 20
692.149589
 30
0.0
 10
771.112744
 20
692.755878
 30
0.0
 10
760.775711
 20
692.755878
 30
0.0
  0
LWPOLYLINE
  5
1b4
100
AcDbEntity
  8
Epilog_Laser
 62
7
100
AcDbPolyline
 90
3
 70
0
 10
999.324378
 20
692.755878
 30
0.0
 10
999.324378
 20
692.149589
 30
0.0
 10
1003.561067
 20
692.149589
 30
0.0
  0
LWPOLYLINE
  5
1b5
100
AcDbEntity
  8
Epilog_Laser
 62
7
100
AcDbPolyline
 90
2
 70
0
 10
1004.259311
 20
691.451300
 30
0.0
 10
1004.259311
 20
670.672689
 30
0.0
  0
LWPOLYLINE
  5
1b6
100
AcDbEntity
  8
Epilog_Laser
 62
7
100
AcDbPolyline
 90
6
 70
0
 10
1003.561067
 20
669.974444
 30
0.0
 10
999.324378
 20
669.974444
 30
0.0
 10
999.324378
 20
669.368156
 30
0.0
 10
1009.661411
 20
669.368156
 30
0.0
 10
1009.661411
 20
669.974444
 30
0.0
 10
1005.424722
 20
669.974444
 30
0.0
  0
LWPOLYLINE
  5
1b7
100
AcDbEntity
  8
Epilog_Laser
 62
7
100
AcDbPolyline
 90
2
 70
0
 10
1004.726467
 20
670.672689
 30
0.0
 10
1004.726467
 20
691.451300
 30
0.0
  0
SPLINE
  5
1b8
100
AcDbEntity
  8
Epilog_Laser
 62
7
100
AcDbSpline
 70
8
 71
3
 72
8
 73
4
 74
0
 40
0
 40
0
 40
0
 40
0
 40
1
 40
1
 40
1
 40
1
 10
1004.259311
 20
691.451300
 30
0.0
 10
1004.259313
 20
691.836932
 30
0.0
 10
1003.946699
 20
692.149551
 30
0.0
 10
1003.561067
 20
692.149556
 30
0.0
  0
SPLINE
  5
1b9
100
AcDbEntity
  8
Epilog_Laser
 62
7
100
AcDbSpline
 70
8
 71
3
 72
8
 73
4
 74
0
 40
0
 40
0
 40
0
 40
0
 40
1
 40
1
 40
1
 40
1
 10
1003.561067
 20
669.974444
 30
0.0
 10
1003.946695
 20
669.974449
 30
0.0
 10
1004.259307
 20
670.287061
 30
0.0
 10
1004.259311
 20
670.672689
 30
0.0
  0
SPLINE
  5
1ba
100
AcDbEntity
  8
Epilog_Laser
 62
7
100
AcDbSpline
 70
8
 71
3
 72
8
 73
4
 74
0
 40
0
 40
0
 40
0
 40
0
 40
1
 40
1
 40
1
 40
1
 10
1004.726467
 20
670.672689
 30
0.0
 10
1004.726471
 20
670.287057
 30
0.0
 10
1005.039090
 20
669.974443
 30
0.0
 10
1005.424722
 20
669.974444
 30
0.0
  0
SPLINE
  5
1bb
100
AcDbEntity
  8
Epilog_Laser
 62
7
100
AcDbSpline
 70
8
 71
3
 72
8
 73
4
 74
0
 40
0
 40
0
 40
0
 40
0
 40
1
 40
1
 40
1
 40
1
 10
1005.424722
 20
692.149556
 30
0.0
 10
1005.239533
 20
692.149556
 30
0.0
 10
1005.061929
 20
692.075991
 30
0.0
 10
1004.930980
 20
691.945042
 30
0.0
  0
SPLINE
  5
1bc
100
AcDbEntity
  8
Epilog_Laser
 62
7
100
AcDbSpline
 70
8
 71
3
 72
8
 73
4
 74
0
 40
0
 40
0
 40
0
 40
0
 40
1
 40
1
 40
1
 40
1
 10
1004.930980
 20
691.945042
 30
0.0
 10
1004.800032
 20
691.814094
 30
0.0
 10
1004.726466
 20
691.636489
 30
0.0
 10
1004.726467
 20
691.451300
 30
0.0
  0
LWPOLYLINE
  5
1bd
100
AcDbEntity
  8
Epilog_Laser
 62
7
100
AcDbPolyline
 90
4
 70
0
 10
1005.424722
 20
692.149589
 30
0.0
 10
1009.661411
 20
692.149589
 30
0.0
 10
1009.661411
 20
692.755878
 30
0.0
 10
999.324378
 20
692.755878
 30
0.0
  0
LWPOLYLINE
  5
1be
100
AcDbEntity
  8
Epilog_Laser
 62
7
100
AcDbPolyline
 90
2
 70
0
 10
56.262031
 20
4.648123
 30
0.0
 10
50.298359
 20
4.648123
 30
0.0
  0
LWPOLYLINE
  5
1bf
100
AcDbEntity
  8
Epilog_Laser
 62
7
100
AcDbPolyline
 90
2
 70
0
 10
42.346736
 20
4.648123
 30
0.0
 10
40.358858
 20
4.648123
 30
0.0
  0
LWPOLYLINE
  5
1c0
100
AcDbEntity
  8
Epilog_Laser
 62
7
100
AcDbPolyline
 90
2
 70
0
 10
50.298359
 20
2.660202
 30
0.0
 10
42.346736
 20
2.660202
 30
0.0
  0
LWPOLYLINE
  5
1c1
100
AcDbEntity
  8
Epilog_Laser
 62
7
100
AcDbPolyline
 90
2
 70
0
 10
42.346736
 20
4.648123
 30
0.0
 10
42.346736
 20
2.660202
 30
0.0
  0
SPLINE
  5
1c2
100
AcDbEntity
  8
Epilog_Laser
 62
7
100
AcDbSpline
 70
8
 71
3
 72
8
 73
4
 74
0
 40
0
 40
0
 40
0
 40
0
 40
1
 40
1
 40
1
 40
1
 10
687.476456
 20
352.721133
 30
0.0
 10
687.476462
 20
362.211195
 30
0.0
 10
683.706554
 20
371.312571
 30
0.0
 10
676.996067
 20
378.023060
 30
0.0
  0
SPLINE
  5
1c3
100
AcDbEntity
  8
Epilog_Laser
 62
7
100
AcDbSpline
 70
8
 71
3
 72
8
 73
4
 74
0
 40
0
 40
0
 40
0
 40
0
 40
1
 40
1
 40
1
 40
1
 10
676.996067
 20
378.023060
 30
0.0
 10
670.285581
 20
384.733548
 30
0.0
 10
661.184206
 20
388.503459
 30
0.0
 10
651.694144
 20
388.503456
 30
0.0
  0
LWPOLYLINE
  5
1c4
100
AcDbEntity
  8
Epilog_Laser
 62
7
100
AcDbPolyline
 90
2
 70
0
 10
50.298359
 20
4.648123
 30
0.0
 10
50.298359
 20
2.660202
 30
0.0
  0
SPLINE
  5
1c5
100
AcDbEntity
  8
Epilog_Laser
 62
7
100
AcDbSpline
 70
8
 71
3
 72
8
 73
4
 74
0
 40
0
 40
0
 40
0
 40
0
 40
1
 40
1
 40
1
 40
1
 10
1006.481033
 20
480.465056
 30
0.0
 10
1015.971095
 20
480.465052
 30
0.0
 10
1025.072470
 20
484.234963
 30
0.0
 10
1031.782956
 20
490.945452
 30
0.0
  0
SPLINE
  5
1c6
100
AcDbEntity
  8
Epilog_Laser
 62
7
100
AcDbSpline
 70
8
 71
3
 72
8
 73
4
 74
0
 40
0
 40
0
 40
0
 40
0
 40
1
 40
1
 40
1
 40
1
 10
1031.782956
 20
490.945452
 30
0.0
 10
1038.493443
 20
497.655940
 30
0.0
 10
1042.263351
 20
506.757316
 30
0.0
 10
1042.263344
 20
516.247378
 30
0.0
  0
LWPOLYLINE
  5
1c7
100
AcDbEntity
  8
Epilog_Laser
 62
7
100
AcDbPolyline
 90
5
 70
0
 10
651.694144
 20
352.721133
 30
0.0
 10
687.476456
 20
352.721133
 30
0.0
 10
687.476456
 20
354.460567
 30
0.0
 10
651.694144
 20
354.460567
 30
0.0
 10
651.694144
 20
352.721133
 30
0.0
  0
SPLINE
  5
1c8
100
AcDbEntity
  8
Epilog_Laser
 62
7
100
AcDbSpline
 70
8
 71
3
 72
8
 73
4
 74
0
 40
0
 40
0
 40
0
 40
0
 40
1
 40
1
 40
1
 40
1
 10
179.656622
 20
336.302367
 30
0.0
 10
179.656622
 20
336.689635
 30
0.0
 10
179.450017
 20
337.047485
 30
0.0
 10
179.114633
 20
337.241119
 30
0.0
  0
SPLINE
  5
1c9
100
AcDbEntity
  8
Epilog_Laser
 62
7
100
AcDbSpline
 70
8
 71
3
 72
8
 73
4
 74
0
 40
0
 40
0
 40
0
 40
0
 40
1
 40
1
 40
1
 40
1
 10
179.114633
 20
337.241119
 30
0.0
 10
178.779249
 20
337.434753
 30
0.0
 10
178.366039
 20
337.434753
 30
0.0
 10
178.030656
 20
337.241119
 30
0.0
  0
SPLINE
  5
1ca
100
AcDbEntity
  8
Epilog_Laser
 62
7
100
AcDbSpline
 70
8
 71
3
 72
8
 73
4
 74
0
 40
0
 40
0
 40
0
 40
0
 40
1
 40
1
 40
1
 40
1
 10
178.030656
 20
337.241119
 30
0.0
 10
177.695272
 20
337.047485
 30
0.0
 10
177.488667
 20
336.689635
 30
0.0
 10
177.488667
 20
336.302367
 30
0.0
  0
SPLINE
  5
1cb
100
AcDbEntity
  8
Epilog_Laser
 62
7
100
AcDbSpline
 70
8
 71
3
 72
8
 73
4
 74
0
 40
0
 40
0
 40
0
 40
0
 40
1
 40
1
 40
1
 40
1
 10
177.488667
 20
336.302367
 30
0.0
 10
177.488667
 20
335.915099
 30
0.0
 10
177.695272
 20
335.557248
 30
0.0
 10
178.030656
 20
335.363614
 30
0.0
  0
SPLINE
  5
1cc
100
AcDbEntity
  8
Epilog_Laser
 62
7
100
AcDbSpline
 70
8
 71
3
 72
8
 73
4
 74
0
 40
0
 40
0
 40
0
 40
0
 40
1
 40
1
 40
1
 40
1
 10
178.030656
 20
335.363614
 30
0.0
 10
178.366039
 20
335.169980
 30
0.0
 10
178.779249
 20
335.169980
 30
0.0
 10
179.114633
 20
335.363614
 30
0.0
  0
SPLINE
  5
1cd
100
AcDbEntity
  8
Epilog_Laser
 62
7
100
AcDbSpline
 70
8
 71
3
 72
8
 73
4
 74
0
 40
0
 40
0
 40
0
 40
0
 40
1
 40
1
 40
1
 40
1
 10
179.114633
 20
335.363614
 30
0.0
 10
179.450017
 20
335.557248
 30
0.0
 10
179.656622
 20
335.915099
 30
0.0
 10
179.656622
 20
336.302367
 30
0.0
  0
LWPOLYLINE
  5
1ce
100
AcDbEntity
  8
Epilog_Laser
 62
7
100
AcDbPolyline
 90
5
 70
0
 10
1013.500844
 20
516.247378
 30
0.0
 10
1042.263344
 20
516.247378
 30
0.0
 10
1042.263344
 20
514.507944
 30
0.0
 10
1013.500844
 20
514.507944
 30
0.0
 10
1013.500844
 20
516.247378
 30
0.0
  0
SPLINE
  5
1cf
100
AcDbEntity
  8
Epilog_Laser
 62
7
100
AcDbSpline
 70
8
 71
3
 72
8
 73
4
 74
0
 40
0
 40
0
 40
0
 40
0
 40
1
 40
1
 40
1
 40
1
 10
158.693589
 20
340.278167
 30
0.0
 10
158.693585
 20
329.733658
 30
0.0
 10
162.882373
 20
319.621024
 30
0.0
 10
170.338465
 20
312.164929
 30
0.0
  0
SPLINE
  5
1d0
100
AcDbEntity
  8
Epilog_Laser
 62
7
100
AcDbSpline
 70
8
 71
3
 72
8
 73
4
 74
0
 40
0
 40
0
 40
0
 40
0
 40
1
 40
1
 40
1
 40
1
 10
170.338465
 20
312.164929
 30
0.0
 10
177.794558
 20
304.708834
 30
0.0
 10
187.907191
 20
300.520044
 30
0.0
 10
198.451700
 20
300.520044
 30
0.0
  0
LWPOLYLINE
  5
1d1
100
AcDbEntity
  8
Epilog_Laser
 62
7
100
AcDbPolyline
 90
2
 70
1
 10
179.656622
 20
336.302367
 30
0.0
 10
179.656622
 20
336.302367
 30
0.0
  0
LWPOLYLINE
  5
1d2
100
AcDbEntity
  8
Epilog_Laser
 62
7
100
AcDbPolyline
 90
5
 70
0
 10
198.451700
 20
340.278167
 30
0.0
 10
198.451700
 20
300.520044
 30
0.0
 10
196.712278
 20
300.520044
 30
0.0
 10
196.712278
 20
340.278167
 30
0.0
 10
198.451700
 20
340.278167
 30
0.0
  0
SPLINE
  5
1d3
100
AcDbEntity
  8
Epilog_Laser
 62
7
100
AcDbSpline
 70
8
 71
3
 72
8
 73
4
 74
0
 40
0
 40
0
 40
0
 40
0
 40
1
 40
1
 40
1
 40
1
 10
0.600749
 20
456.582378
 30
0.0
 10
0.600708
 20
433.526623
 30
0.0
 10
19.291058
 20
414.836207
 30
0.0
 10
42.346813
 20
414.836167
 30
0.0
  0
LWPOLYLINE
  5
1d4
100
AcDbEntity
  8
Epilog_Laser
 62
7
100
AcDbPolyline
 90
2
 70
0
 10
158.693589
 20
340.278167
 30
0.0
 10
158.693589
 20
342.017589
 30
0.0
  0
LWPOLYLINE
  5
1d5
100
AcDbEntity
  8
Epilog_Laser
 62
7
100
AcDbPolyline
 90
5
 70
0
 10
42.346887
 20
456.582300
 30
0.0
 10
0.600628
 20
456.582411
 30
0.0
 10
0.600628
 20
454.842989
 30
0.0
 10
42.346887
 20
454.842878
 30
0.0
 10
42.346887
 20
456.582300
 30
0.0
  0
LWPOLYLINE
  5
1d6
100
AcDbEntity
  8
Epilog_Laser
 62
7
100
AcDbPolyline
 90
2
 70
0
 10
42.346887
 20
414.836167
 30
0.0
 10
44.086304
 20
414.836167
 30
0.0
  0
LWPOLYLINE
  5
1d7
100
AcDbEntity
  8
Epilog_Laser
 62
7
100
AcDbPolyline
 90
2
 70
0
 10
44.334791
 20
200.142478
 30
0.0
 10
48.310602
 20
200.142478
 30
0.0
  0
LWPOLYLINE
  5
1d8
100
AcDbEntity
  8
Epilog_Laser
 62
7
100
AcDbPolyline
 90
2
 70
0
 10
44.334791
 20
235.924789
 30
0.0
 10
48.310602
 20
235.924789
 30
0.0
  0
LWPOLYLINE
  5
1d9
100
AcDbEntity
  8
Epilog_Laser
 62
7
100
AcDbPolyline
 90
2
 70
0
 10
44.334791
 20
237.912711
 30
0.0
 10
48.310602
 20
237.912711
 30
0.0
  0
SPLINE
  5
1da
100
AcDbEntity
  8
Epilog_Laser
 62
7
100
AcDbSpline
 70
8
 71
3
 72
8
 73
4
 74
0
 40
0
 40
0
 40
0
 40
0
 40
1
 40
1
 40
1
 40
1
 10
45.418764
 20
218.033633
 30
0.0
 10
45.418764
 20
218.420900
 30
0.0
 10
45.212160
 20
218.778749
 30
0.0
 10
44.876778
 20
218.972382
 30
0.0
  0
SPLINE
  5
1db
100
AcDbEntity
  8
Epilog_Laser
 62
7
100
AcDbSpline
 70
8
 71
3
 72
8
 73
4
 74
0
 40
0
 40
0
 40
0
 40
0
 40
1
 40
1
 40
1
 40
1
 10
44.876778
 20
218.972382
 30
0.0
 10
44.541395
 20
219.166016
 30
0.0
 10
44.128186
 20
219.166016
 30
0.0
 10
43.792804
 20
218.972382
 30
0.0
  0
SPLINE
  5
1dc
100
AcDbEntity
  8
Epilog_Laser
 62
7
100
AcDbSpline
 70
8
 71
3
 72
8
 73
4
 74
0
 40
0
 40
0
 40
0
 40
0
 40
1
 40
1
 40
1
 40
1
 10
43.792804
 20
218.972382
 30
0.0
 10
43.457421
 20
218.778749
 30
0.0
 10
43.250817
 20
218.420900
 30
0.0
 10
43.250817
 20
218.033633
 30
0.0
  0
SPLINE
  5
1dd
100
AcDbEntity
  8
Epilog_Laser
 62
7
100
AcDbSpline
 70
8
 71
3
 72
8
 73
4
 74
0
 40
0
 40
0
 40
0
 40
0
 40
1
 40
1
 40
1
 40
1
 10
43.250817
 20
218.033633
 30
0.0
 10
43.250817
 20
217.646367
 30
0.0
 10
43.457421
 20
217.288518
 30
0.0
 10
43.792804
 20
217.094884
 30
0.0
  0
SPLINE
  5
1de
100
AcDbEntity
  8
Epilog_Laser
 62
7
100
AcDbSpline
 70
8
 71
3
 72
8
 73
4
 74
0
 40
0
 40
0
 40
0
 40
0
 40
1
 40
1
 40
1
 40
1
 10
43.792804
 20
217.094884
 30
0.0
 10
44.128186
 20
216.901251
 30
0.0
 10
44.541395
 20
216.901251
 30
0.0
 10
44.876778
 20
217.094884
 30
0.0
  0
SPLINE
  5
1df
100
AcDbEntity
  8
Epilog_Laser
 62
7
100
AcDbSpline
 70
8
 71
3
 72
8
 73
4
 74
0
 40
0
 40
0
 40
0
 40
0
 40
1
 40
1
 40
1
 40
1
 10
44.876778
 20
217.094884
 30
0.0
 10
45.212160
 20
217.288518
 30
0.0
 10
45.418764
 20
217.646367
 30
0.0
 10
45.418764
 20
218.033633
 30
0.0
  0
LWPOLYLINE
  5
1e0
100
AcDbEntity
  8
Epilog_Laser
 62
7
100
AcDbPolyline
 90
2
 70
0
 10
44.334791
 20
273.694989
 30
0.0
 10
48.310602
 20
273.694989
 30
0.0
  0
SPLINE
  5
1e1
100
AcDbEntity
  8
Epilog_Laser
 62
7
100
AcDbSpline
 70
8
 71
3
 72
8
 73
4
 74
0
 40
0
 40
0
 40
0
 40
0
 40
1
 40
1
 40
1
 40
1
 10
44.334791
 20
235.924789
 30
0.0
 10
34.844733
 20
235.924789
 30
0.0
 10
25.743364
 20
232.154877
 30
0.0
 10
19.032881
 20
225.444392
 30
0.0
  0
SPLINE
  5
1e2
100
AcDbEntity
  8
Epilog_Laser
 62
7
100
AcDbSpline
 70
8
 71
3
 72
8
 73
4
 74
0
 40
0
 40
0
 40
0
 40
0
 40
1
 40
1
 40
1
 40
1
 10
19.032881
 20
225.444392
 30
0.0
 10
12.322398
 20
218.733906
 30
0.0
 10
8.552490
 20
209.632536
 30
0.0
 10
8.552494
 20
200.142478
 30
0.0
  0
LWPOLYLINE
  5
1e3
100
AcDbEntity
  8
Epilog_Laser
 62
7
100
AcDbPolyline
 90
2
 70
1
 10
45.418764
 20
218.033633
 30
0.0
 10
45.418764
 20
218.033633
 30
0.0
  0
LWPOLYLINE
  5
1e4
100
AcDbEntity
  8
Epilog_Laser
 62
7
100
AcDbPolyline
 90
5
 70
0
 10
44.334791
 20
200.142478
 30
0.0
 10
8.552494
 20
200.142478
 30
0.0
 10
8.552494
 20
201.881911
 30
0.0
 10
44.334791
 20
201.881911
 30
0.0
 10
44.334791
 20
200.142478
 30
0.0
  0
SPLINE
  5
1e5
100
AcDbEntity
  8
Epilog_Laser
 62
7
100
AcDbSpline
 70
8
 71
3
 72
8
 73
4
 74
0
 40
0
 40
0
 40
0
 40
0
 40
1
 40
1
 40
1
 40
1
 10
45.418764
 20
255.803833
 30
0.0
 10
45.418764
 20
256.191100
 30
0.0
 10
45.212160
 20
256.548949
 30
0.0
 10
44.876778
 20
256.742582
 30
0.0
  0
SPLINE
  5
1e6
100
AcDbEntity
  8
Epilog_Laser
 62
7
100
AcDbSpline
 70
8
 71
3
 72
8
 73
4
 74
0
 40
0
 40
0
 40
0
 40
0
 40
1
 40
1
 40
1
 40
1
 10
44.876778
 20
256.742582
 30
0.0
 10
44.541395
 20
256.936216
 30
0.0
 10
44.128186
 20
256.936216
 30
0.0
 10
43.792804
 20
256.742582
 30
0.0
  0
SPLINE
  5
1e7
100
AcDbEntity
  8
Epilog_Laser
 62
7
100
AcDbSpline
 70
8
 71
3
 72
8
 73
4
 74
0
 40
0
 40
0
 40
0
 40
0
 40
1
 40
1
 40
1
 40
1
 10
43.792804
 20
256.742582
 30
0.0
 10
43.457421
 20
256.548949
 30
0.0
 10
43.250817
 20
256.191100
 30
0.0
 10
43.250817
 20
255.803833
 30
0.0
  0
SPLINE
  5
1e8
100
AcDbEntity
  8
Epilog_Laser
 62
7
100
AcDbSpline
 70
8
 71
3
 72
8
 73
4
 74
0
 40
0
 40
0
 40
0
 40
0
 40
1
 40
1
 40
1
 40
1
 10
43.250817
 20
255.803833
 30
0.0
 10
43.250817
 20
255.416567
 30
0.0
 10
43.457421
 20
255.058718
 30
0.0
 10
43.792804
 20
254.865084
 30
0.0
  0
SPLINE
  5
1e9
100
AcDbEntity
  8
Epilog_Laser
 62
7
100
AcDbSpline
 70
8
 71
3
 72
8
 73
4
 74
0
 40
0
 40
0
 40
0
 40
0
 40
1
 40
1
 40
1
 40
1
 10
43.792804
 20
254.865084
 30
0.0
 10
44.128186
 20
254.671451
 30
0.0
 10
44.541395
 20
254.671451
 30
0.0
 10
44.876778
 20
254.865084
 30
0.0
  0
SPLINE
  5
1ea
100
AcDbEntity
  8
Epilog_Laser
 62
7
100
AcDbSpline
 70
8
 71
3
 72
8
 73
4
 74
0
 40
0
 40
0
 40
0
 40
0
 40
1
 40
1
 40
1
 40
1
 10
44.876778
 20
254.865084
 30
0.0
 10
45.212160
 20
255.058718
 30
0.0
 10
45.418764
 20
255.416567
 30
0.0
 10
45.418764
 20
255.803833
 30
0.0
  0
LWPOLYLINE
  5
1eb
100
AcDbEntity
  8
Epilog_Laser
 62
7
100
AcDbPolyline
 90
2
 70
0
 10
44.334791
 20
235.924789
 30
0.0
 10
46.074209
 20
235.924789
 30
0.0
  0
SPLINE
  5
1ec
100
AcDbEntity
  8
Epilog_Laser
 62
7
100
AcDbSpline
 70
8
 71
3
 72
8
 73
4
 74
0
 40
0
 40
0
 40
0
 40
0
 40
1
 40
1
 40
1
 40
1
 10
8.552494
 20
273.694989
 30
0.0
 10
8.552504
 20
253.932979
 30
0.0
 10
24.572781
 20
237.912711
 30
0.0
 10
44.334791
 20
237.912711
 30
0.0
  0
LWPOLYLINE
  5
1ed
100
AcDbEntity
  8
Epilog_Laser
 62
7
100
AcDbPolyline
 90
2
 70
1
 10
45.418764
 20
255.803833
 30
0.0
 10
45.418764
 20
255.803833
 30
0.0
  0
LWPOLYLINE
  5
1ee
100
AcDbEntity
  8
Epilog_Laser
 62
7
100
AcDbPolyline
 90
5
 70
0
 10
44.334791
 20
273.694989
 30
0.0
 10
8.552494
 20
273.694989
 30
0.0
 10
8.552494
 20
271.955556
 30
0.0
 10
44.334791
 20
271.955556
 30
0.0
 10
44.334791
 20
273.694989
 30
0.0
  0
LWPOLYLINE
  5
1ef
100
AcDbEntity
  8
Epilog_Laser
 62
7
100
AcDbPolyline
 90
2
 70
0
 10
44.334791
 20
237.912711
 30
0.0
 10
46.074209
 20
237.912711
 30
0.0
  0
SPLINE
  5
1f0
100
AcDbEntity
  8
Epilog_Laser
 62
7
100
AcDbSpline
 70
8
 71
3
 72
8
 73
4
 74
0
 40
0
 40
0
 40
0
 40
0
 40
1
 40
1
 40
1
 40
1
 10
879.399333
 20
476.489122
 30
0.0
 10
879.399974
 20
476.876815
 30
0.0
 10
879.193510
 20
477.235331
 30
0.0
 10
878.857865
 20
477.429362
 30
0.0
  0
SPLINE
  5
1f1
100
AcDbEntity
  8
Epilog_Laser
 62
7
100
AcDbSpline
 70
8
 71
3
 72
8
 73
4
 74
0
 40
0
 40
0
 40
0
 40
0
 40
1
 40
1
 40
1
 40
1
 10
878.857865
 20
477.429362
 30
0.0
 10
878.522219
 20
477.623394
 30
0.0
 10
878.108503
 20
477.623394
 30
0.0
 10
877.772858
 20
477.429362
 30
0.0
  0
SPLINE
  5
1f2
100
AcDbEntity
  8
Epilog_Laser
 62
7
100
AcDbSpline
 70
8
 71
3
 72
8
 73
4
 74
0
 40
0
 40
0
 40
0
 40
0
 40
1
 40
1
 40
1
 40
1
 10
877.772858
 20
477.429362
 30
0.0
 10
877.437213
 20
477.235331
 30
0.0
 10
877.230749
 20
476.876815
 30
0.0
 10
877.231389
 20
476.489122
 30
0.0
  0
SPLINE
  5
1f3
100
AcDbEntity
  8
Epilog_Laser
 62
7
100
AcDbSpline
 70
8
 71
3
 72
8
 73
4
 74
0
 40
0
 40
0
 40
0
 40
0
 40
1
 40
1
 40
1
 40
1
 10
877.231389
 20
476.489122
 30
0.0
 10
877.232376
 20
475.891160
 30
0.0
 10
877.717398
 20
475.406938
 30
0.0
 10
878.315361
 20
475.406938
 30
0.0
  0
SPLINE
  5
1f4
100
AcDbEntity
  8
Epilog_Laser
 62
7
100
AcDbSpline
 70
8
 71
3
 72
8
 73
4
 74
0
 40
0
 40
0
 40
0
 40
0
 40
1
 40
1
 40
1
 40
1
 10
878.315361
 20
475.406938
 30
0.0
 10
878.913324
 20
475.406938
 30
0.0
 10
879.398346
 20
475.891160
 30
0.0
 10
879.399333
 20
476.489122
 30
0.0
  0
LWPOLYLINE
  5
1f5
100
AcDbEntity
  8
Epilog_Laser
 62
7
100
AcDbPolyline
 90
2
 70
0
 10
242.931089
 20
404.061733
 30
0.0
 10
241.191667
 20
404.061733
 30
0.0
  0
SPLINE
  5
1f6
100
AcDbEntity
  8
Epilog_Laser
 62
7
100
AcDbSpline
 70
8
 71
3
 72
8
 73
4
 74
0
 40
0
 40
0
 40
0
 40
0
 40
1
 40
1
 40
1
 40
1
 10
896.206522
 20
512.271444
 30
0.0
 10
886.716459
 20
512.271450
 30
0.0
 10
877.615082
 20
508.501539
 30
0.0
 10
870.904593
 20
501.791051
 30
0.0
  0
SPLINE
  5
1f7
100
AcDbEntity
  8
Epilog_Laser
 62
7
100
AcDbSpline
 70
8
 71
3
 72
8
 73
4
 74
0
 40
0
 40
0
 40
0
 40
0
 40
1
 40
1
 40
1
 40
1
 10
870.904593
 20
501.791051
 30
0.0
 10
864.194105
 20
495.080563
 30
0.0
 10
860.424194
 20
485.979186
 30
0.0
 10
860.424200
 20
476.489122
 30
0.0
  0
LWPOLYLINE
  5
1f8
100
AcDbEntity
  8
Epilog_Laser
 62
7
100
AcDbPolyline
 90
2
 70
1
 10
879.399333
 20
476.489122
 30
0.0
 10
879.399333
 20
476.489122
 30
0.0
  0
LWPOLYLINE
  5
1f9
100
AcDbEntity
  8
Epilog_Laser
 62
7
100
AcDbPolyline
 90
5
 70
0
 10
896.206522
 20
476.489122
 30
0.0
 10
896.206522
 20
512.271444
 30
0.0
 10
894.467089
 20
512.271444
 30
0.0
 10
894.467089
 20
476.489122
 30
0.0
 10
896.206522
 20
476.489122
 30
0.0
  0
LWPOLYLINE
  5
1fa
100
AcDbEntity
  8
Epilog_Laser
 62
7
100
AcDbPolyline
 90
2
 70
0
 10
40.358979
 20
648.415156
 30
0.0
 10
40.358979
 20
588.778133
 30
0.0
  0
LWPOLYLINE
  5
1fb
100
AcDbEntity
  8
Epilog_Laser
 62
7
100
AcDbPolyline
 90
2
 70
0
 10
56.262226
 20
648.415156
 30
0.0
 10
56.262226
 20
588.778000
 30
0.0
  0
LWPOLYLINE
  5
1fc
100
AcDbEntity
  8
Epilog_Laser
 62
7
100
AcDbPolyline
 90
2
 70
0
 10
46.322699
 20
646.178789
 30
0.0
 10
46.322699
 20
591.014411
 30
0.0
  0
LWPOLYLINE
  5
1fd
100
AcDbEntity
  8
Epilog_Laser
 62
7
100
AcDbPolyline
 90
2
 70
0
 10
50.298506
 20
591.014411
 30
0.0
 10
50.298506
 20
646.178789
 30
0.0
  0
LWPOLYLINE
  5
1fe
100
AcDbEntity
  8
Epilog_Laser
 62
7
100
AcDbPolyline
 90
2
 70
0
 10
40.358979
 20
541.068289
 30
0.0
 10
40.358979
 20
481.431222
 30
0.0
  0
LWPOLYLINE
  5
1ff
100
AcDbEntity
  8
Epilog_Laser
 62
7
100
AcDbPolyline
 90
2
 70
0
 10
56.262226
 20
541.068289
 30
0.0
 10
56.262226
 20
481.431133
 30
0.0
  0
LWPOLYLINE
  5
200
100
AcDbEntity
  8
Epilog_Laser
 62
7
100
AcDbPolyline
 90
2
 70
0
 10
46.322699
 20
538.831878
 30
0.0
 10
46.322699
 20
483.667500
 30
0.0
  0
LWPOLYLINE
  5
201
100
AcDbEntity
  8
Epilog_Laser
 62
7
100
AcDbPolyline
 90
2
 70
0
 10
50.298506
 20
483.667500
 30
0.0
 10
50.298506
 20
538.831878
 30
0.0
  0
LWPOLYLINE
  5
202
100
AcDbEntity
  8
Epilog_Laser
 62
7
100
AcDbPolyline
 90
2
 70
0
 10
48.331228
 20
646.178789
 30
0.0
 10
48.331228
 20
591.014411
 30
0.0
  0
LWPOLYLINE
  5
203
100
AcDbEntity
  8
Epilog_Laser
 62
7
100
AcDbPolyline
 90
2
 70
0
 10
48.331228
 20
538.831878
 30
0.0
 10
48.331228
 20
483.667500
 30
0.0
  0
LWPOLYLINE
  5
204
100
AcDbEntity
  8
Epilog_Laser
 62
7
100
AcDbPolyline
 90
2
 70
0
 10
40.358979
 20
588.778000
 30
0.0
 10
46.322699
 20
588.778000
 30
0.0
  0
LWPOLYLINE
  5
205
100
AcDbEntity
  8
Epilog_Laser
 62
7
100
AcDbPolyline
 90
2
 70
0
 10
53.280366
 20
588.778000
 30
0.0
 10
56.262226
 20
588.778000
 30
0.0
  0
LWPOLYLINE
  5
206
100
AcDbEntity
  8
Epilog_Laser
 62
7
100
AcDbPolyline
 90
2
 70
0
 10
46.322699
 20
588.778000
 30
0.0
 10
46.322699
 20
591.014411
 30
0.0
  0
LWPOLYLINE
  5
207
100
AcDbEntity
  8
Epilog_Laser
 62
7
100
AcDbPolyline
 90
2
 70
0
 10
50.298506
 20
589.772089
 30
0.0
 10
50.298506
 20
591.014411
 30
0.0
  0
LWPOLYLINE
  5
208
100
AcDbEntity
  8
Epilog_Laser
 62
7
100
AcDbPolyline
 90
3
 70
0
 10
50.298506
 20
589.772089
 30
0.0
 10
53.280366
 20
589.771978
 30
0.0
 10
53.280366
 20
588.778000
 30
0.0
  0
LWPOLYLINE
  5
209
100
AcDbEntity
  8
Epilog_Laser
 62
7
100
AcDbPolyline
 90
2
 70
0
 10
46.322699
 20
591.014411
 30
0.0
 10
50.298506
 20
591.014411
 30
0.0
  0
LWPOLYLINE
  5
20a
100
AcDbEntity
  8
Epilog_Laser
 62
7
100
AcDbPolyline
 90
2
 70
0
 10
46.322699
 20
588.778000
 30
0.0
 10
53.280366
 20
588.778000
 30
0.0
  0
LWPOLYLINE
  5
20b
100
AcDbEntity
  8
Epilog_Laser
 62
7
100
AcDbPolyline
 90
2
 70
0
 10
50.298506
 20
589.772089
 30
0.0
 10
50.298506
 20
588.778000
 30
0.0
  0
LWPOLYLINE
  5
20c
100
AcDbEntity
  8
Epilog_Laser
 62
7
100
AcDbPolyline
 90
2
 70
0
 10
40.358979
 20
648.415156
 30
0.0
 10
46.322699
 20
648.415156
 30
0.0
  0
LWPOLYLINE
  5
20d
100
AcDbEntity
  8
Epilog_Laser
 62
7
100
AcDbPolyline
 90
2
 70
0
 10
53.280366
 20
648.415156
 30
0.0
 10
56.262226
 20
648.415156
 30
0.0
  0
LWPOLYLINE
  5
20e
100
AcDbEntity
  8
Epilog_Laser
 62
7
100
AcDbPolyline
 90
2
 70
0
 10
46.322699
 20
648.415156
 30
0.0
 10
46.322699
 20
646.178789
 30
0.0
  0
LWPOLYLINE
  5
20f
100
AcDbEntity
  8
Epilog_Laser
 62
7
100
AcDbPolyline
 90
2
 70
0
 10
50.298506
 20
647.421111
 30
0.0
 10
50.298506
 20
646.178789
 30
0.0
  0
LWPOLYLINE
  5
210
100
AcDbEntity
  8
Epilog_Laser
 62
7
100
AcDbPolyline
 90
3
 70
0
 10
50.298506
 20
647.421111
 30
0.0
 10
53.280366
 20
647.421111
 30
0.0
 10
53.280366
 20
648.415156
 30
0.0
  0
LWPOLYLINE
  5
211
100
AcDbEntity
  8
Epilog_Laser
 62
7
100
AcDbPolyline
 90
2
 70
0
 10
46.322699
 20
646.178789
 30
0.0
 10
50.298506
 20
646.178789
 30
0.0
  0
LWPOLYLINE
  5
212
100
AcDbEntity
  8
Epilog_Laser
 62
7
100
AcDbPolyline
 90
2
 70
0
 10
46.322699
 20
648.415156
 30
0.0
 10
53.280366
 20
648.415156
 30
0.0
  0
LWPOLYLINE
  5
213
100
AcDbEntity
  8
Epilog_Laser
 62
7
100
AcDbPolyline
 90
2
 70
0
 10
50.298506
 20
647.421111
 30
0.0
 10
50.298506
 20
648.415156
 30
0.0
  0
LWPOLYLINE
  5
214
100
AcDbEntity
  8
Epilog_Laser
 62
7
100
AcDbPolyline
 90
2
 70
0
 10
40.358979
 20
481.431133
 30
0.0
 10
46.322699
 20
481.431133
 30
0.0
  0
LWPOLYLINE
  5
215
100
AcDbEntity
  8
Epilog_Laser
 62
7
100
AcDbPolyline
 90
2
 70
0
 10
53.280366
 20
481.431133
 30
0.0
 10
56.262226
 20
481.431133
 30
0.0
  0
LWPOLYLINE
  5
216
100
AcDbEntity
  8
Epilog_Laser
 62
7
100
AcDbPolyline
 90
2
 70
0
 10
46.322699
 20
481.431133
 30
0.0
 10
46.322699
 20
483.667500
 30
0.0
  0
LWPOLYLINE
  5
217
100
AcDbEntity
  8
Epilog_Laser
 62
7
100
AcDbPolyline
 90
2
 70
0
 10
50.298506
 20
482.425178
 30
0.0
 10
50.298506
 20
483.667500
 30
0.0
  0
LWPOLYLINE
  5
218
100
AcDbEntity
  8
Epilog_Laser
 62
7
100
AcDbPolyline
 90
3
 70
0
 10
50.298506
 20
482.425178
 30
0.0
 10
53.280366
 20
482.425067
 30
0.0
 10
53.280366
 20
481.431133
 30
0.0
  0
LWPOLYLINE
  5
219
100
AcDbEntity
  8
Epilog_Laser
 62
7
100
AcDbPolyline
 90
2
 70
0
 10
46.322699
 20
483.667500
 30
0.0
 10
50.298506
 20
483.667500
 30
0.0
  0
LWPOLYLINE
  5
21a
100
AcDbEntity
  8
Epilog_Laser
 62
7
100
AcDbPolyline
 90
2
 70
0
 10
46.322699
 20
481.431133
 30
0.0
 10
53.280366
 20
481.431133
 30
0.0
  0
LWPOLYLINE
  5
21b
100
AcDbEntity
  8
Epilog_Laser
 62
7
100
AcDbPolyline
 90
2
 70
0
 10
50.298506
 20
482.425178
 30
0.0
 10
50.298506
 20
481.431133
 30
0.0
  0
LWPOLYLINE
  5
21c
100
AcDbEntity
  8
Epilog_Laser
 62
7
100
AcDbPolyline
 90
2
 70
0
 10
40.358979
 20
541.068289
 30
0.0
 10
46.322699
 20
541.068289
 30
0.0
  0
LWPOLYLINE
  5
21d
100
AcDbEntity
  8
Epilog_Laser
 62
7
100
AcDbPolyline
 90
2
 70
0
 10
53.280366
 20
541.068289
 30
0.0
 10
56.262226
 20
541.068289
 30
0.0
  0
LWPOLYLINE
  5
21e
100
AcDbEntity
  8
Epilog_Laser
 62
7
100
AcDbPolyline
 90
2
 70
0
 10
46.322699
 20
541.068289
 30
0.0
 10
46.322699
 20
538.831878
 30
0.0
  0
LWPOLYLINE
  5
21f
100
AcDbEntity
  8
Epilog_Laser
 62
7
100
AcDbPolyline
 90
2
 70
0
 10
50.298506
 20
540.074200
 30
0.0
 10
50.298506
 20
538.831878
 30
0.0
  0
LWPOLYLINE
  5
220
100
AcDbEntity
  8
Epilog_Laser
 62
7
100
AcDbPolyline
 90
3
 70
0
 10
50.298506
 20
540.074200
 30
0.0
 10
53.280366
 20
540.074311
 30
0.0
 10
53.280366
 20
541.068289
 30
0.0
  0
LWPOLYLINE
  5
221
100
AcDbEntity
  8
Epilog_Laser
 62
7
100
AcDbPolyline
 90
2
 70
0
 10
46.322699
 20
538.831878
 30
0.0
 10
50.298506
 20
538.831878
 30
0.0
  0
LWPOLYLINE
  5
222
100
AcDbEntity
  8
Epilog_Laser
 62
7
100
AcDbPolyline
 90
2
 70
0
 10
46.322699
 20
541.068289
 30
0.0
 10
53.280366
 20
541.068289
 30
0.0
  0
LWPOLYLINE
  5
223
100
AcDbEntity
  8
Epilog_Laser
 62
7
100
AcDbPolyline
 90
2
 70
0
 10
50.298506
 20
540.074200
 30
0.0
 10
50.298506
 20
541.068289
 30
0.0
  0
LWPOLYLINE
  5
224
100
AcDbEntity
  8
Epilog_Laser
 62
7
100
AcDbPolyline
 90
5
 70
0
 10
113.239822
 20
486.205656
 30
0.0
 10
160.949554
 20
486.205656
 30
0.0
 10
160.949554
 20
438.495941
 30
0.0
 10
113.239822
 20
438.495941
 30
0.0
 10
113.239822
 20
486.205656
 30
0.0
  0
LWPOLYLINE
  5
225
100
AcDbEntity
  8
Epilog_Laser
 62
7
100
AcDbPolyline
 90
5
 70
0
 10
313.636027
 20
430.563473
 30
0.0
 10
388.182502
 20
430.563473
 30
0.0
 10
388.182502
 20
508.588766
 30
0.0
 10
313.636027
 20
508.588766
 30
0.0
 10
313.636027
 20
430.563473
 30
0.0
  0
LWPOLYLINE
  5
226
100
AcDbEntity
  8
Epilog_Laser
 62
7
100
AcDbPolyline
 90
2
 70
0
 10
425.442100
 20
510.658156
 30
0.0
 10
473.151832
 20
510.658156
 30
0.0
  0
LWPOLYLINE
  5
227
100
AcDbEntity
  8
Epilog_Laser
 62
7
100
AcDbPolyline
 90
3
 70
0
 10
425.442100
 20
510.658156
 30
0.0
 10
425.442100
 20
486.803314
 30
0.0
 10
473.151832
 20
486.803314
 30
0.0
  0
LWPOLYLINE
  5
228
100
AcDbEntity
  8
Epilog_Laser
 62
7
100
AcDbPolyline
 90
2
 70
0
 10
473.151832
 20
510.658156
 30
0.0
 10
473.151832
 20
486.803314
 30
0.0
  0
LWPOLYLINE
  5
229
100
AcDbEntity
  8
Epilog_Laser
 62
7
100
AcDbPolyline
 90
7
 70
0
 10
322.282619
 20
142.427373
 30
0.0
 10
329.342961
 20
151.396432
 30
0.0
 10
328.604941
 20
151.977417
 30
0.0
 10
330.021104
 20
153.776400
 30
0.0
 10
344.701508
 20
142.220128
 30
0.0
 10
352.228848
 20
149.219831
 30
0.0
 10
351.490795
 20
149.800815
 30
0.0
  0
LWPOLYLINE
  5
22a
100
AcDbEntity
  8
Epilog_Laser
 62
7
100
AcDbPolyline
 90
2
 70
0
 10
354.231978
 20
152.349853
 30
0.0
 10
354.516505
 20
152.126099
 30
0.0
  0
LWPOLYLINE
  5
22b
100
AcDbEntity
  8
Epilog_Laser
 62
7
100
AcDbPolyline
 90
9
 70
0
 10
354.516465
 20
152.125887
 30
0.0
 10
359.563779
 20
158.537654
 30
0.0
 10
360.394076
 20
157.884052
 30
0.0
 10
361.846547
 20
159.729179
 30
0.0
 10
361.016250
 20
160.382781
 30
0.0
 10
366.012702
 20
166.730010
 30
0.0
 10
361.907339
 20
169.961732
 30
0.0
 10
362.669867
 20
170.930406
 30
0.0
 10
362.300647
 20
171.220871
 30
0.0
  0
LWPOLYLINE
  5
22c
100
AcDbEntity
  8
Epilog_Laser
 62
7
100
AcDbPolyline
 90
34
 70
0
 10
362.300858
 20
171.220876
 30
0.0
 10
365.314682
 20
175.049506
 30
0.0
 10
360.517410
 20
178.825904
 30
0.0
 10
357.757702
 20
175.320182
 30
0.0
 10
354.101914
 20
178.198013
 30
0.0
 10
355.154945
 20
179.535752
 30
0.0
 10
356.354252
 20
178.591636
 30
0.0
 10
357.552563
 20
180.113854
 30
0.0
 10
355.015482
 20
182.111000
 30
0.0
 10
355.850661
 20
183.171918
 30
0.0
 10
354.928119
 20
183.898182
 30
0.0
 10
353.911397
 20
182.606587
 30
0.0
 10
351.235973
 20
184.712660
 30
0.0
 10
350.509721
 20
183.790118
 30
0.0
 10
349.863945
 20
184.298474
 30
0.0
 10
351.606887
 20
186.512610
 30
0.0
 10
351.053344
 20
186.948359
 30
0.0
 10
350.036622
 20
185.656764
 30
0.0
 10
347.084432
 20
187.980689
 30
0.0
 10
346.212990
 20
186.873616
 30
0.0
 10
342.245970
 20
189.996411
 30
0.0
 10
340.829807
 20
188.197428
 30
0.0
 10
320.267484
 20
204.383940
 30
0.0
 10
322.954530
 20
207.797416
 30
0.0
 10
317.834359
 20
211.827975
 30
0.0
 10
317.325992
 20
211.182199
 30
0.0
 10
304.410171
 20
221.349411
 30
0.0
 10
302.340406
 20
218.720131
 30
0.0
 10
315.163995
 20
208.625538
 30
0.0
 10
314.510393
 20
207.795241
 30
0.0
 10
314.187484
 20
208.049401
 30
0.0
 10
313.170761
 20
206.757850
 30
0.0
 10
307.220238
 20
211.441998
 30
0.0
 10
295.673172
 20
196.773338
 30
0.0
  0
LWPOLYLINE
  5
22d
100
AcDbEntity
  8
Epilog_Laser
 62
7
100
AcDbPolyline
 90
3
 70
0
 10
320.777324
 20
209.511320
 30
0.0
 10
330.937276
 20
222.417917
 30
0.0
 10
328.492519
 20
224.342403
 30
0.0
  0
SPLINE
  5
22e
100
AcDbEntity
  8
Epilog_Laser
 62
7
100
AcDbSpline
 70
8
 71
3
 72
8
 73
4
 74
0
 40
0
 40
0
 40
0
 40
0
 40
1
 40
1
 40
1
 40
1
 10
328.492519
 20
224.342403
 30
0.0
 10
320.555884
 20
228.049020
 30
0.0
 10
311.198044
 20
226.886013
 30
0.0
 10
304.410171
 20
221.349411
 30
0.0
  0
LWPOLYLINE
  5
22f
100
AcDbEntity
  8
Epilog_Laser
 62
7
100
AcDbPolyline
 90
2
 70
0
 10
318.332521
 20
211.435838
 30
0.0
 10
328.492519
 20
224.342403
 30
0.0
  0
LWPOLYLINE
  5
230
100
AcDbEntity
  8
Epilog_Laser
 62
7
100
AcDbPolyline
 90
2
 70
0
 10
288.757461
 20
185.350360
 30
0.0
 10
293.289679
 20
194.463987
 30
0.0
  0
LWPOLYLINE
  5
231
100
AcDbEntity
  8
Epilog_Laser
 62
7
100
AcDbPolyline
 90
4
 70
0
 10
294.069599
 20
194.090859
 30
0.0
 10
291.291305
 20
188.283710
 30
0.0
 10
296.365376
 20
184.289427
 30
0.0
 10
301.028572
 20
192.571270
 30
0.0
  0
LWPOLYLINE
  5
232
100
AcDbEntity
  8
Epilog_Laser
 62
7
100
AcDbPolyline
 90
2
 70
0
 10
301.123301
 20
203.696855
 30
0.0
 10
300.334298
 20
204.317990
 30
0.0
  0
LWPOLYLINE
  5
233
100
AcDbEntity
  8
Epilog_Laser
 62
7
100
AcDbPolyline
 90
2
 70
0
 10
298.212110
 20
202.827326
 30
0.0
 10
298.209815
 20
202.829132
 30
0.0
  0
LWPOLYLINE
  5
234
100
AcDbEntity
  8
Epilog_Laser
 62
7
100
AcDbPolyline
 90
2
 70
0
 10
298.085164
 20
203.875990
 30
0.0
 10
299.275749
 20
205.388418
 30
0.0
  0
LWPOLYLINE
  5
235
100
AcDbEntity
  8
Epilog_Laser
 62
7
100
AcDbPolyline
 90
2
 70
0
 10
298.422438
 20
206.692620
 30
0.0
 10
298.418199
 20
206.688184
 30
0.0
  0
LWPOLYLINE
  5
236
100
AcDbEntity
  8
Epilog_Laser
 62
7
100
AcDbPolyline
 90
2
 70
0
 10
302.109657
 20
207.783275
 30
0.0
 10
302.111952
 20
207.781457
 30
0.0
  0
LWPOLYLINE
  5
237
100
AcDbEntity
  8
Epilog_Laser
 62
7
100
AcDbPolyline
 90
3
 70
0
 10
302.236615
 20
206.734599
 30
0.0
 10
301.174885
 20
205.385837
 30
0.0
 10
301.963932
 20
204.764714
 30
0.0
  0
LWPOLYLINE
  5
238
100
AcDbEntity
  8
Epilog_Laser
 62
7
100
AcDbPolyline
 90
2
 70
0
 10
272.648812
 20
136.742032
 30
0.0
 10
294.401475
 20
164.375225
 30
0.0
  0
LWPOLYLINE
  5
239
100
AcDbEntity
  8
Epilog_Laser
 62
7
100
AcDbPolyline
 90
4
 70
0
 10
272.648812
 20
136.742032
 30
0.0
 10
271.644663
 20
137.532462
 30
0.0
 10
293.397328
 20
165.165688
 30
0.0
 10
322.282619
 20
142.427373
 30
0.0
  0
LWPOLYLINE
  5
23a
100
AcDbEntity
  8
Epilog_Laser
 62
7
100
AcDbPolyline
 90
3
 70
0
 10
293.397328
 20
165.165688
 30
0.0
 10
294.015204
 20
165.950642
 30
0.0
 10
286.553225
 20
171.824663
 30
0.0
  0
LWPOLYLINE
  5
23b
100
AcDbEntity
  8
Epilog_Laser
 62
7
100
AcDbPolyline
 90
2
 70
0
 10
351.490795
 20
149.800815
 30
0.0
 10
354.231978
 20
152.349853
 30
0.0
  0
LWPOLYLINE
  5
23c
100
AcDbEntity
  8
Epilog_Laser
 62
7
100
AcDbPolyline
 90
2
 70
0
 10
300.334298
 20
204.317990
 30
0.0
 10
299.258968
 20
202.951977
 30
0.0
  0
LWPOLYLINE
  5
23d
100
AcDbEntity
  8
Epilog_Laser
 62
7
100
AcDbPolyline
 90
2
 70
0
 10
299.275749
 20
205.388418
 30
0.0
 10
298.505524
 20
205.994729
 30
0.0
  0
LWPOLYLINE
  5
23e
100
AcDbEntity
  8
Epilog_Laser
 62
7
100
AcDbPolyline
 90
2
 70
0
 10
299.885816
 20
206.163392
 30
0.0
 10
299.115601
 20
206.769703
 30
0.0
  0
SPLINE
  5
23f
100
AcDbEntity
  8
Epilog_Laser
 62
7
100
AcDbSpline
 70
8
 71
3
 72
8
 73
4
 74
0
 40
0
 40
0
 40
0
 40
0
 40
1
 40
1
 40
1
 40
1
 10
298.422438
 20
206.692620
 30
0.0
 10
298.252658
 20
206.476970
 30
0.0
 10
298.289836
 20
206.164518
 30
0.0
 10
298.505480
 20
205.994729
 30
0.0
  0
SPLINE
  5
240
100
AcDbEntity
  8
Epilog_Laser
 62
7
100
AcDbSpline
 70
8
 71
3
 72
8
 73
4
 74
0
 40
0
 40
0
 40
0
 40
0
 40
1
 40
1
 40
1
 40
1
 10
299.115601
 20
206.769703
 30
0.0
 10
298.899951
 20
206.939483
 30
0.0
 10
298.587499
 20
206.902305
 30
0.0
 10
298.417709
 20
206.686662
 30
0.0
  0
SPLINE
  5
241
100
AcDbEntity
  8
Epilog_Laser
 62
7
100
AcDbSpline
 70
8
 71
3
 72
8
 73
4
 74
0
 40
0
 40
0
 40
0
 40
0
 40
1
 40
1
 40
1
 40
1
 10
298.212110
 20
202.827326
 30
0.0
 10
298.367478
 20
202.705048
 30
0.0
 10
298.565058
 20
202.649500
 30
0.0
 10
298.761382
 20
202.672902
 30
0.0
  0
SPLINE
  5
242
100
AcDbEntity
  8
Epilog_Laser
 62
7
100
AcDbSpline
 70
8
 71
3
 72
8
 73
4
 74
0
 40
0
 40
0
 40
0
 40
0
 40
1
 40
1
 40
1
 40
1
 10
298.761382
 20
202.672902
 30
0.0
 10
298.957706
 20
202.696303
 30
0.0
 10
299.136693
 20
202.796738
 30
0.0
 10
299.258965
 20
202.952110
 30
0.0
  0
SPLINE
  5
243
100
AcDbEntity
  8
Epilog_Laser
 62
7
100
AcDbSpline
 70
8
 71
3
 72
8
 73
4
 74
0
 40
0
 40
0
 40
0
 40
0
 40
1
 40
1
 40
1
 40
1
 10
298.085164
 20
203.875990
 30
0.0
 10
297.962887
 20
203.720623
 30
0.0
 10
297.907339
 20
203.523043
 30
0.0
 10
297.930740
 20
203.326719
 30
0.0
  0
SPLINE
  5
244
100
AcDbEntity
  8
Epilog_Laser
 62
7
100
AcDbSpline
 70
8
 71
3
 72
8
 73
4
 74
0
 40
0
 40
0
 40
0
 40
0
 40
1
 40
1
 40
1
 40
1
 10
297.930740
 20
203.326719
 30
0.0
 10
297.954142
 20
203.130394
 30
0.0
 10
298.054577
 20
202.951407
 30
0.0
 10
298.209949
 20
202.829135
 30
0.0
  0
SPLINE
  5
245
100
AcDbEntity
  8
Epilog_Laser
 62
7
100
AcDbSpline
 70
8
 71
3
 72
8
 73
4
 74
0
 40
0
 40
0
 40
0
 40
0
 40
1
 40
1
 40
1
 40
1
 10
302.236615
 20
206.734599
 30
0.0
 10
302.358891
 20
206.889968
 30
0.0
 10
302.414437
 20
207.087549
 30
0.0
 10
302.391033
 20
207.283873
 30
0.0
  0
SPLINE
  5
246
100
AcDbEntity
  8
Epilog_Laser
 62
7
100
AcDbSpline
 70
8
 71
3
 72
8
 73
4
 74
0
 40
0
 40
0
 40
0
 40
0
 40
1
 40
1
 40
1
 40
1
 10
302.391033
 20
207.283873
 30
0.0
 10
302.367629
 20
207.480198
 30
0.0
 10
302.267193
 20
207.659183
 30
0.0
 10
302.111819
 20
207.781454
 30
0.0
  0
SPLINE
  5
247
100
AcDbEntity
  8
Epilog_Laser
 62
7
100
AcDbSpline
 70
8
 71
3
 72
8
 73
4
 74
0
 40
0
 40
0
 40
0
 40
0
 40
1
 40
1
 40
1
 40
1
 10
302.109657
 20
207.783275
 30
0.0
 10
301.954288
 20
207.905551
 30
0.0
 10
301.756708
 20
207.961097
 30
0.0
 10
301.560383
 20
207.937693
 30
0.0
  0
SPLINE
  5
248
100
AcDbEntity
  8
Epilog_Laser
 62
7
100
AcDbSpline
 70
8
 71
3
 72
8
 73
4
 74
0
 40
0
 40
0
 40
0
 40
0
 40
1
 40
1
 40
1
 40
1
 10
301.560383
 20
207.937693
 30
0.0
 10
301.364059
 20
207.914289
 30
0.0
 10
301.185073
 20
207.813853
 30
0.0
 10
301.062802
 20
207.658479
 30
0.0
  0
LWPOLYLINE
  5
249
100
AcDbEntity
  8
Epilog_Laser
 62
7
100
AcDbPolyline
 90
2
 70
0
 10
299.885816
 20
206.163392
 30
0.0
 10
301.062800
 20
207.658613
 30
0.0
  0
LWPOLYLINE
  5
24a
100
AcDbEntity
  8
Epilog_Laser
 62
7
100
AcDbPolyline
 90
2
 70
0
 10
295.679836
 20
196.781805
 30
0.0
 10
301.028572
 20
192.571270
 30
0.0
  0
LWPOLYLINE
  5
24b
100
AcDbEntity
  8
Epilog_Laser
 62
7
100
AcDbPolyline
 90
2
 70
0
 10
294.069599
 20
194.090859
 30
0.0
 10
293.289678
 20
194.464020
 30
0.0
  0
LWPOLYLINE
  5
24c
100
AcDbEntity
  8
Epilog_Laser
 62
7
100
AcDbPolyline
 90
2
 70
0
 10
294.037243
 20
181.331858
 30
0.0
 10
286.553225
 20
171.824663
 30
0.0
  0
SPLINE
  5
24d
100
AcDbEntity
  8
Epilog_Laser
 62
7
100
AcDbSpline
 70
8
 71
3
 72
8
 73
4
 74
0
 40
0
 40
0
 40
0
 40
0
 40
1
 40
1
 40
1
 40
1
 10
272.648812
 20
136.742032
 30
0.0
 10
288.694321
 20
127.765285
 30
0.0
 10
308.682578
 20
130.054854
 30
0.0
 10
322.282619
 20
142.427373
 30
0.0
  0
SPLINE
  5
24e
100
AcDbEntity
  8
Epilog_Laser
 62
7
100
AcDbSpline
 70
8
 71
3
 72
8
 73
4
 74
0
 40
0
 40
0
 40
0
 40
0
 40
1
 40
1
 40
1
 40
1
 10
362.201674
 20
183.435900
 30
0.0
 10
366.463224
 20
183.525403
 30
0.0
 10
370.353102
 20
185.882257
 30
0.0
 10
372.405290
 20
189.618210
 30
0.0
  0
SPLINE
  5
24f
100
AcDbEntity
  8
Epilog_Laser
 62
7
100
AcDbSpline
 70
8
 71
3
 72
8
 73
4
 74
0
 40
0
 40
0
 40
0
 40
0
 40
1
 40
1
 40
1
 40
1
 10
372.405290
 20
189.618210
 30
0.0
 10
374.457478
 20
193.354163
 30
0.0
 10
374.360013
 20
197.901295
 30
0.0
 10
372.149628
 20
201.545883
 30
0.0
  0
SPLINE
  5
250
100
AcDbEntity
  8
Epilog_Laser
 62
7
100
AcDbSpline
 70
8
 71
3
 72
8
 73
4
 74
0
 40
0
 40
0
 40
0
 40
0
 40
1
 40
1
 40
1
 40
1
 10
372.149628
 20
201.545883
 30
0.0
 10
369.939242
 20
205.190470
 30
0.0
 10
365.951949
 20
207.378482
 30
0.0
 10
361.690477
 20
207.285300
 30
0.0
  0
SPLINE
  5
251
100
AcDbEntity
  8
Epilog_Laser
 62
7
100
AcDbSpline
 70
8
 71
3
 72
8
 73
4
 74
0
 40
0
 40
0
 40
0
 40
0
 40
1
 40
1
 40
1
 40
1
 10
361.690477
 20
207.285300
 30
0.0
 10
355.106718
 20
207.141338
 30
0.0
 10
349.885402
 20
201.688932
 30
0.0
 10
350.026522
 20
195.105112
 30
0.0
  0
SPLINE
  5
252
100
AcDbEntity
  8
Epilog_Laser
 62
7
100
AcDbSpline
 70
8
 71
3
 72
8
 73
4
 74
0
 40
0
 40
0
 40
0
 40
0
 40
1
 40
1
 40
1
 40
1
 10
350.026522
 20
195.105112
 30
0.0
 10
350.167642
 20
188.521291
 30
0.0
 10
355.617793
 20
183.297622
 30
0.0
 10
362.201674
 20
183.435900
 30
0.0
  0
LWPOLYLINE
  5
253
100
AcDbEntity
  8
Epilog_Laser
 62
7
100
AcDbPolyline
 90
2
 70
0
 10
293.970316
 20
181.246848
 30
0.0
 10
288.757461
 20
185.350360
 30
0.0
  0
SPLINE
  5
254
100
AcDbEntity
  8
Epilog_Laser
 62
7
100
AcDbSpline
 70
8
 71
3
 72
8
 73
4
 74
0
 40
0
 40
0
 40
0
 40
0
 40
1
 40
1
 40
1
 40
1
 10
341.017484
 20
200.111942
 30
0.0
 10
345.279035
 20
200.201445
 30
0.0
 10
349.168912
 20
202.558299
 30
0.0
 10
351.221100
 20
206.294252
 30
0.0
  0
SPLINE
  5
255
100
AcDbEntity
  8
Epilog_Laser
 62
7
100
AcDbSpline
 70
8
 71
3
 72
8
 73
4
 74
0
 40
0
 40
0
 40
0
 40
0
 40
1
 40
1
 40
1
 40
1
 10
351.221100
 20
206.294252
 30
0.0
 10
353.273288
 20
210.030205
 30
0.0
 10
353.175823
 20
214.577337
 30
0.0
 10
350.965438
 20
218.221924
 30
0.0
  0
SPLINE
  5
256
100
AcDbEntity
  8
Epilog_Laser
 62
7
100
AcDbSpline
 70
8
 71
3
 72
8
 73
4
 74
0
 40
0
 40
0
 40
0
 40
0
 40
1
 40
1
 40
1
 40
1
 10
350.965438
 20
218.221924
 30
0.0
 10
348.755053
 20
221.866512
 30
0.0
 10
344.767759
 20
224.054524
 30
0.0
 10
340.506288
 20
223.961341
 30
0.0
  0
SPLINE
  5
257
100
AcDbEntity
  8
Epilog_Laser
 62
7
100
AcDbSpline
 70
8
 71
3
 72
8
 73
4
 74
0
 40
0
 40
0
 40
0
 40
0
 40
1
 40
1
 40
1
 40
1
 10
340.506288
 20
223.961341
 30
0.0
 10
333.922529
 20
223.817380
 30
0.0
 10
328.701212
 20
218.364974
 30
0.0
 10
328.842332
 20
211.781154
 30
0.0
  0
SPLINE
  5
258
100
AcDbEntity
  8
Epilog_Laser
 62
7
100
AcDbSpline
 70
8
 71
3
 72
8
 73
4
 74
0
 40
0
 40
0
 40
0
 40
0
 40
1
 40
1
 40
1
 40
1
 10
328.842332
 20
211.781154
 30
0.0
 10
328.983452
 20
205.197333
 30
0.0
 10
334.433604
 20
199.973664
 30
0.0
 10
341.017484
 20
200.111942
 30
0.0
  0
LWPOLYLINE
  5
259
100
AcDbEntity
  8
Epilog_Laser
 62
7
100
AcDbPolyline
 90
2
 70
1
 10
362.201674
 20
183.435900
 30
0.0
 10
362.201674
 20
183.435900
 30
0.0
  0
LWPOLYLINE
  5
25a
100
AcDbEntity
  8
Epilog_Laser
 62
7
100
AcDbPolyline
 90
2
 70
1
 10
341.017484
 20
200.111942
 30
0.0
 10
341.017484
 20
200.111942
 30
0.0
  0
LWPOLYLINE
  5
25b
100
AcDbEntity
  8
Epilog_Laser
 62
7
100
AcDbPolyline
 90
2
 70
0
 10
609.122960
 20
467.602808
 30
0.0
 10
609.006327
 20
506.474274
 30
0.0
  0
LWPOLYLINE
  5
25c
100
AcDbEntity
  8
Epilog_Laser
 62
7
100
AcDbPolyline
 90
2
 70
0
 10
609.006460
 20
506.474274
 30
0.0
 10
565.523249
 20
506.343763
 30
0.0
  0
LWPOLYLINE
  5
25d
100
AcDbEntity
  8
Epilog_Laser
 62
7
100
AcDbPolyline
 90
2
 70
0
 10
565.523249
 20
506.343986
 30
0.0
 10
565.514571
 20
508.638930
 30
0.0
  0
LWPOLYLINE
  5
25e
100
AcDbEntity
  8
Epilog_Laser
 62
7
100
AcDbPolyline
 90
2
 70
0
 10
564.910627
 20
509.241052
 30
0.0
 10
564.910627
 20
509.241052
 30
0.0
  0
LWPOLYLINE
  5
25f
100
AcDbEntity
  8
Epilog_Laser
 62
7
100
AcDbPolyline
 90
2
 70
0
 10
564.308505
 20
508.635286
 30
0.0
 10
564.317171
 20
506.340341
 30
0.0
  0
LWPOLYLINE
  5
260
100
AcDbEntity
  8
Epilog_Laser
 62
7
100
AcDbPolyline
 90
2
 70
0
 10
564.315394
 20
506.340341
 30
0.0
 10
559.483905
 20
506.327330
 30
0.0
  0
LWPOLYLINE
  5
261
100
AcDbEntity
  8
Epilog_Laser
 62
7
100
AcDbPolyline
 90
2
 70
0
 10
559.483905
 20
506.325863
 30
0.0
 10
559.470894
 20
511.157341
 30
0.0
  0
LWPOLYLINE
  5
262
100
AcDbEntity
  8
Epilog_Laser
 62
7
100
AcDbPolyline
 90
2
 70
0
 10
559.469427
 20
511.157341
 30
0.0
 10
559.710938
 20
511.158119
 30
0.0
  0
SPLINE
  5
263
100
AcDbEntity
  8
Epilog_Laser
 62
7
100
AcDbSpline
 70
8
 71
3
 72
8
 73
4
 74
0
 40
0
 40
0
 40
0
 40
0
 40
1
 40
1
 40
1
 40
1
 10
559.630460
 20
511.157819
 30
0.0
 10
560.415387
 20
511.160863
 30
0.0
 10
561.055505
 20
511.787713
 30
0.0
 10
561.074987
 20
512.572404
 30
0.0
  0
SPLINE
  5
264
100
AcDbEntity
  8
Epilog_Laser
 62
7
100
AcDbSpline
 70
8
 71
3
 72
8
 73
4
 74
0
 40
0
 40
0
 40
0
 40
0
 40
1
 40
1
 40
1
 40
1
 10
561.074987
 20
512.572404
 30
0.0
 10
561.094469
 20
513.357095
 30
0.0
 10
560.486247
 20
514.014938
 30
0.0
 10
559.702438
 20
514.056930
 30
0.0
  0
LWPOLYLINE
  5
265
100
AcDbEntity
  8
Epilog_Laser
 62
7
100
AcDbPolyline
 90
2
 70
0
 10
559.460749
 20
514.056241
 30
0.0
 10
559.702260
 20
514.056908
 30
0.0
  0
LWPOLYLINE
  5
266
100
AcDbEntity
  8
Epilog_Laser
 62
7
100
AcDbPolyline
 90
5
 70
0
 10
559.460749
 20
514.056241
 30
0.0
 10
559.417394
 20
528.550619
 30
0.0
 10
556.518416
 20
528.541941
 30
0.0
 10
556.561771
 20
514.047519
 30
0.0
 10
554.629260
 20
514.043186
 30
0.0
  0
LWPOLYLINE
  5
267
100
AcDbEntity
  8
Epilog_Laser
 62
7
100
AcDbPolyline
 90
2
 70
0
 10
554.629260
 20
514.041752
 30
0.0
 10
554.633605
 20
512.109163
 30
0.0
  0
SPLINE
  5
268
100
AcDbEntity
  8
Epilog_Laser
 62
7
100
AcDbSpline
 70
8
 71
3
 72
8
 73
4
 74
0
 40
0
 40
0
 40
0
 40
0
 40
1
 40
1
 40
1
 40
1
 10
556.518416
 20
528.541941
 30
0.0
 10
547.944548
 20
527.419438
 30
0.0
 10
541.211750
 20
520.646161
 30
0.0
 10
540.140660
 20
512.065719
 30
0.0
  0
LWPOLYLINE
  5
269
100
AcDbEntity
  8
Epilog_Laser
 62
7
100
AcDbPolyline
 90
6
 70
0
 10
554.635071
 20
512.109163
 30
0.0
 10
540.140660
 20
512.065808
 30
0.0
 10
540.149327
 20
509.166863
 30
0.0
 10
554.643749
 20
509.210230
 30
0.0
 10
554.652416
 20
506.311374
 30
0.0
 10
544.989482
 20
506.281030
 30
0.0
  0
LWPOLYLINE
  5
26a
100
AcDbEntity
  8
Epilog_Laser
 62
7
100
AcDbPolyline
 90
2
 70
0
 10
544.989482
 20
506.282452
 30
0.0
 10
545.028516
 20
493.720630
 30
0.0
  0
LWPOLYLINE
  5
26b
100
AcDbEntity
  8
Epilog_Laser
 62
7
100
AcDbPolyline
 90
4
 70
0
 10
545.027171
 20
493.720630
 30
0.0
 10
540.250871
 20
494.448930
 30
0.0
 10
540.246538
 20
495.898374
 30
0.0
 10
531.066760
 20
495.872363
 30
0.0
  0
LWPOLYLINE
  5
26c
100
AcDbEntity
  8
Epilog_Laser
 62
7
100
AcDbPolyline
 90
2
 70
0
 10
531.066760
 20
495.870886
 30
0.0
 10
531.092771
 20
487.657363
 30
0.0
  0
LWPOLYLINE
  5
26d
100
AcDbEntity
  8
Epilog_Laser
 62
7
100
AcDbPolyline
 90
4
 70
0
 10
545.038616
 20
489.891252
 30
0.0
 10
540.266782
 20
489.134341
 30
0.0
 10
540.271127
 20
487.684897
 30
0.0
 10
531.091338
 20
487.658874
 30
0.0
  0
LWPOLYLINE
  5
26e
100
AcDbEntity
  8
Epilog_Laser
 62
7
100
AcDbPolyline
 90
6
 70
0
 10
545.038616
 20
489.891252
 30
0.0
 10
545.102349
 20
468.632797
 30
0.0
 10
546.551749
 20
468.637130
 30
0.0
 10
546.556094
 20
467.187730
 30
0.0
 10
545.106682
 20
467.183397
 30
0.0
 10
545.164349
 20
447.857486
 30
0.0
  0
LWPOLYLINE
  5
26f
100
AcDbEntity
  8
Epilog_Laser
 62
7
100
AcDbPolyline
 90
2
 70
0
 10
545.164571
 20
447.857486
 30
0.0
 10
525.838705
 20
447.799386
 30
0.0
  0
SPLINE
  5
270
100
AcDbEntity
  8
Epilog_Laser
 62
7
100
AcDbSpline
 70
8
 71
3
 72
8
 73
4
 74
0
 40
0
 40
0
 40
0
 40
0
 40
1
 40
1
 40
1
 40
1
 10
546.553927
 20
467.912430
 30
0.0
 10
535.855683
 20
467.997456
 30
0.0
 10
526.863854
 20
459.897943
 30
0.0
 10
525.834371
 20
449.249008
 30
0.0
  0
LWPOLYLINE
  5
271
100
AcDbEntity
  8
Epilog_Laser
 62
7
100
AcDbPolyline
 90
2
 70
0
 10
525.834371
 20
449.249008
 30
0.0
 10
545.160238
 20
449.307108
 30
0.0
  0
LWPOLYLINE
  5
272
100
AcDbEntity
  8
Epilog_Laser
 62
7
100
AcDbPolyline
 90
9
 70
0
 10
545.164571
 20
447.857486
 30
0.0
 10
556.760094
 20
447.892174
 30
0.0
 10
556.764438
 20
446.442819
 30
0.0
 10
558.213882
 20
446.447152
 30
0.0
 10
558.209549
 20
447.896597
 30
0.0
 10
558.451049
 20
447.897374
 30
0.0
 10
558.448238
 20
448.863586
 30
0.0
 10
561.347127
 20
448.872263
 30
0.0
 10
561.364471
 20
443.074519
 30
0.0
  0
LWPOLYLINE
  5
273
100
AcDbEntity
  8
Epilog_Laser
 62
7
100
AcDbPolyline
 90
2
 70
0
 10
562.330771
 20
443.077419
 30
0.0
 10
562.434827
 20
408.290841
 30
0.0
  0
LWPOLYLINE
  5
274
100
AcDbEntity
  8
Epilog_Laser
 62
7
100
AcDbPolyline
 90
2
 70
0
 10
563.884449
 20
408.295174
 30
0.0
 10
563.780394
 20
443.081763
 30
0.0
  0
SPLINE
  5
275
100
AcDbEntity
  8
Epilog_Laser
 62
7
100
AcDbSpline
 70
8
 71
3
 72
8
 73
4
 74
0
 40
0
 40
0
 40
0
 40
0
 40
1
 40
1
 40
1
 40
1
 10
563.884449
 20
408.295174
 30
0.0
 10
582.625537
 20
409.436289
 30
0.0
 10
597.538039
 20
424.438450
 30
0.0
 10
598.566794
 20
443.186041
 30
0.0
  0
LWPOLYLINE
  5
276
100
AcDbEntity
  8
Epilog_Laser
 62
7
100
AcDbPolyline
 90
6
 70
0
 10
561.364471
 20
443.074519
 30
0.0
 10
598.566794
 20
443.185952
 30
0.0
 10
598.563894
 20
444.152297
 30
0.0
 10
599.530182
 20
444.155197
 30
0.0
 10
599.499838
 20
454.301274
 30
0.0
 10
597.325605
 20
454.296941
 30
0.0
  0
LWPOLYLINE
  5
277
100
AcDbEntity
  8
Epilog_Laser
 62
7
100
AcDbPolyline
 90
7
 70
0
 10
597.325605
 20
454.294774
 30
0.0
 10
597.321260
 20
455.744219
 30
0.0
 10
595.158394
 20
455.965352
 30
0.0
 10
595.123705
 20
467.560874
 30
0.0
 10
596.089916
 20
467.563741
 30
0.0
 10
596.092816
 20
466.597441
 30
0.0
 10
599.716416
 20
466.610452
 30
0.0
  0
SPLINE
  5
278
100
AcDbEntity
  8
Epilog_Laser
 62
7
100
AcDbSpline
 70
8
 71
3
 72
8
 73
4
 74
0
 40
0
 40
0
 40
0
 40
0
 40
1
 40
1
 40
1
 40
1
 10
565.516349
 20
508.638930
 30
0.0
 10
565.515348
 20
508.972464
 30
0.0
 10
565.244161
 20
509.242039
 30
0.0
 10
564.910627
 20
509.241052
 30
0.0
  0
SPLINE
  5
279
100
AcDbEntity
  8
Epilog_Laser
 62
7
100
AcDbSpline
 70
8
 71
3
 72
8
 73
4
 74
0
 40
0
 40
0
 40
0
 40
0
 40
1
 40
1
 40
1
 40
1
 10
564.910627
 20
509.241052
 30
0.0
 10
564.750450
 20
509.240571
 30
0.0
 10
564.597025
 20
509.176479
 30
0.0
 10
564.484105
 20
509.062875
 30
0.0
  0
SPLINE
  5
27a
100
AcDbEntity
  8
Epilog_Laser
 62
7
100
AcDbSpline
 70
8
 71
3
 72
8
 73
4
 74
0
 40
0
 40
0
 40
0
 40
0
 40
1
 40
1
 40
1
 40
1
 10
564.484105
 20
509.062875
 30
0.0
 10
564.371184
 20
508.949271
 30
0.0
 10
564.308019
 20
508.795462
 30
0.0
 10
564.308505
 20
508.635286
 30
0.0
  0
SPLINE
  5
27b
100
AcDbEntity
  8
Epilog_Laser
 62
7
100
AcDbSpline
 70
8
 71
3
 72
8
 73
4
 74
0
 40
0
 40
0
 40
0
 40
0
 40
1
 40
1
 40
1
 40
1
 10
586.213616
 20
520.326286
 30
0.0
 10
586.215456
 20
524.588775
 30
0.0
 10
583.942501
 20
528.528266
 30
0.0
 10
580.251383
 20
530.660042
 30
0.0
  0
SPLINE
  5
27c
100
AcDbEntity
  8
Epilog_Laser
 62
7
100
AcDbSpline
 70
8
 71
3
 72
8
 73
4
 74
0
 40
0
 40
0
 40
0
 40
0
 40
1
 40
1
 40
1
 40
1
 10
580.251383
 20
530.660042
 30
0.0
 10
576.560265
 20
532.791818
 30
0.0
 10
572.012089
 20
532.791818
 30
0.0
 10
568.320971
 20
530.660042
 30
0.0
  0
SPLINE
  5
27d
100
AcDbEntity
  8
Epilog_Laser
 62
7
100
AcDbSpline
 70
8
 71
3
 72
8
 73
4
 74
0
 40
0
 40
0
 40
0
 40
0
 40
1
 40
1
 40
1
 40
1
 10
568.320971
 20
530.660042
 30
0.0
 10
564.629853
 20
528.528266
 30
0.0
 10
562.356898
 20
524.588775
 30
0.0
 10
562.358738
 20
520.326286
 30
0.0
  0
SPLINE
  5
27e
100
AcDbEntity
  8
Epilog_Laser
 62
7
100
AcDbSpline
 70
8
 71
3
 72
8
 73
4
 74
0
 40
0
 40
0
 40
0
 40
0
 40
1
 40
1
 40
1
 40
1
 10
562.358738
 20
520.326286
 30
0.0
 10
562.361580
 20
513.740953
 30
0.0
 10
567.700844
 20
508.403994
 30
0.0
 10
574.286177
 20
508.403994
 30
0.0
  0
SPLINE
  5
27f
100
AcDbEntity
  8
Epilog_Laser
 62
7
100
AcDbSpline
 70
8
 71
3
 72
8
 73
4
 74
0
 40
0
 40
0
 40
0
 40
0
 40
1
 40
1
 40
1
 40
1
 10
574.286177
 20
508.403994
 30
0.0
 10
580.871510
 20
508.403994
 30
0.0
 10
586.210773
 20
513.740953
 30
0.0
 10
586.213616
 20
520.326286
 30
0.0
  0
LWPOLYLINE
  5
280
100
AcDbEntity
  8
Epilog_Laser
 62
7
100
AcDbPolyline
 90
3
 70
0
 10
599.716416
 20
466.608330
 30
0.0
 10
599.713505
 20
467.574619
 30
0.0
 10
609.122960
 20
467.600641
 30
0.0
  0
SPLINE
  5
281
100
AcDbEntity
  8
Epilog_Laser
 62
7
100
AcDbSpline
 70
8
 71
3
 72
8
 73
4
 74
0
 40
0
 40
0
 40
0
 40
0
 40
1
 40
1
 40
1
 40
1
 10
613.173816
 20
520.407108
 30
0.0
 10
613.180947
 20
524.673113
 30
0.0
 10
610.909156
 20
528.618119
 30
0.0
 10
607.215871
 20
530.753183
 30
0.0
  0
SPLINE
  5
282
100
AcDbEntity
  8
Epilog_Laser
 62
7
100
AcDbSpline
 70
8
 71
3
 72
8
 73
4
 74
0
 40
0
 40
0
 40
0
 40
0
 40
1
 40
1
 40
1
 40
1
 10
607.215871
 20
530.753183
 30
0.0
 10
603.522586
 20
532.888247
 30
0.0
 10
598.970212
 20
532.888247
 30
0.0
 10
595.276927
 20
530.753183
 30
0.0
  0
SPLINE
  5
283
100
AcDbEntity
  8
Epilog_Laser
 62
7
100
AcDbSpline
 70
8
 71
3
 72
8
 73
4
 74
0
 40
0
 40
0
 40
0
 40
0
 40
1
 40
1
 40
1
 40
1
 10
595.276927
 20
530.753183
 30
0.0
 10
591.583643
 20
528.618119
 30
0.0
 10
589.311851
 20
524.673113
 30
0.0
 10
589.318982
 20
520.407108
 30
0.0
  0
SPLINE
  5
284
100
AcDbEntity
  8
Epilog_Laser
 62
7
100
AcDbSpline
 70
8
 71
3
 72
8
 73
4
 74
0
 40
0
 40
0
 40
0
 40
0
 40
1
 40
1
 40
1
 40
1
 10
589.318982
 20
520.407108
 30
0.0
 10
589.311851
 20
516.141103
 30
0.0
 10
591.583643
 20
512.196097
 30
0.0
 10
595.276927
 20
510.061033
 30
0.0
  0
SPLINE
  5
285
100
AcDbEntity
  8
Epilog_Laser
 62
7
100
AcDbSpline
 70
8
 71
3
 72
8
 73
4
 74
0
 40
0
 40
0
 40
0
 40
0
 40
1
 40
1
 40
1
 40
1
 10
595.276927
 20
510.061033
 30
0.0
 10
598.970212
 20
507.925969
 30
0.0
 10
603.522586
 20
507.925969
 30
0.0
 10
607.215871
 20
510.061033
 30
0.0
  0
SPLINE
  5
286
100
AcDbEntity
  8
Epilog_Laser
 62
7
100
AcDbSpline
 70
8
 71
3
 72
8
 73
4
 74
0
 40
0
 40
0
 40
0
 40
0
 40
1
 40
1
 40
1
 40
1
 10
607.215871
 20
510.061033
 30
0.0
 10
610.909156
 20
512.196097
 30
0.0
 10
613.180947
 20
516.141103
 30
0.0
 10
613.173816
 20
520.407108
 30
0.0
  0
LWPOLYLINE
  5
287
100
AcDbEntity
  8
Epilog_Laser
 62
7
100
AcDbPolyline
 90
2
 70
1
 10
586.213616
 20
520.326286
 30
0.0
 10
586.213616
 20
520.326286
 30
0.0
  0
LWPOLYLINE
  5
288
100
AcDbEntity
  8
Epilog_Laser
 62
7
100
AcDbPolyline
 90
2
 70
1
 10
613.173816
 20
520.407108
 30
0.0
 10
613.173816
 20
520.407108
 30
0.0
  0
LWPOLYLINE
  5
289
100
AcDbEntity
  8
Epilog_Laser
 62
7
100
AcDbPolyline
 90
2
 70
0
 10
443.135416
 20
361.937963
 30
0.0
 10
418.442760
 20
331.916697
 30
0.0
  0
LWPOLYLINE
  5
28a
100
AcDbEntity
  8
Epilog_Laser
 62
7
100
AcDbPolyline
 90
4
 70
0
 10
419.823871
 20
333.595819
 30
0.0
 10
412.734116
 20
339.427208
 30
0.0
 10
411.966838
 20
338.494341
 30
0.0
 10
419.056594
 20
332.662997
 30
0.0
  0
LWPOLYLINE
  5
28b
100
AcDbEntity
  8
Epilog_Laser
 62
7
100
AcDbPolyline
 90
3
 70
0
 10
418.442760
 20
331.916697
 30
0.0
 10
452.025782
 20
304.294497
 30
0.0
 10
450.567916
 20
302.522019
 30
0.0
  0
LWPOLYLINE
  5
28c
100
AcDbEntity
  8
Epilog_Laser
 62
7
100
AcDbPolyline
 90
2
 70
0
 10
450.650738
 20
301.671974
 30
0.0
 10
450.650738
 20
301.671974
 30
0.0
  0
LWPOLYLINE
  5
28d
100
AcDbEntity
  8
Epilog_Laser
 62
7
100
AcDbPolyline
 90
5
 70
0
 10
451.500794
 20
301.754741
 30
0.0
 10
452.958649
 20
303.527219
 30
0.0
 10
456.690071
 20
300.458052
 30
0.0
 10
453.620949
 20
296.726619
 30
0.0
 10
453.434516
 20
296.880119
 30
0.0
  0
SPLINE
  5
28e
100
AcDbEntity
  8
Epilog_Laser
 62
7
100
AcDbSpline
 70
8
 71
3
 72
8
 73
4
 74
0
 40
0
 40
0
 40
0
 40
0
 40
1
 40
1
 40
1
 40
1
 10
453.496560
 20
296.828908
 30
0.0
 10
452.889891
 20
297.327145
 30
0.0
 10
451.996939
 20
297.252348
 30
0.0
 10
451.481611
 20
296.660128
 30
0.0
  0
SPLINE
  5
28f
100
AcDbEntity
  8
Epilog_Laser
 62
7
100
AcDbSpline
 70
8
 71
3
 72
8
 73
4
 74
0
 40
0
 40
0
 40
0
 40
0
 40
1
 40
1
 40
1
 40
1
 10
451.481611
 20
296.660128
 30
0.0
 10
450.966282
 20
296.067908
 30
0.0
 10
451.015594
 20
295.173187
 30
0.0
 10
451.592882
 20
294.641186
 30
0.0
  0
LWPOLYLINE
  5
290
100
AcDbEntity
  8
Epilog_Laser
 62
7
100
AcDbPolyline
 90
2
 70
0
 10
451.779460
 20
294.487741
 30
0.0
 10
451.593016
 20
294.641230
 30
0.0
  0
SPLINE
  5
291
100
AcDbEntity
  8
Epilog_Laser
 62
7
100
AcDbSpline
 70
8
 71
3
 72
8
 73
4
 74
0
 40
0
 40
0
 40
0
 40
0
 40
1
 40
1
 40
1
 40
1
 10
444.810938
 20
281.451919
 30
0.0
 10
452.131985
 20
276.850454
 30
0.0
 10
461.637291
 20
277.776174
 30
0.0
 10
467.932916
 20
283.703763
 30
0.0
  0
LWPOLYLINE
  5
292
100
AcDbEntity
  8
Epilog_Laser
 62
7
100
AcDbPolyline
 90
16
 70
0
 10
451.779460
 20
294.487741
 30
0.0
 10
442.572049
 20
283.293419
 30
0.0
 10
444.810938
 20
281.451919
 30
0.0
 10
454.018338
 20
292.646241
 30
0.0
 10
455.510927
 20
291.418619
 30
0.0
 10
456.738594
 20
292.911163
 30
0.0
 10
467.932916
 20
283.703763
 30
0.0
 10
469.774416
 20
285.942641
 30
0.0
 10
458.580049
 20
295.150052
 30
0.0
 10
460.421549
 20
297.388930
 30
0.0
 10
467.884449
 20
291.250652
 30
0.0
 10
475.864182
 20
300.952430
 30
0.0
 10
479.079549
 20
297.346219
 30
0.0
 10
478.158782
 20
296.226786
 30
0.0
 10
485.248527
 20
290.395397
 30
0.0
 10
490.466082
 20
296.738897
 30
0.0
  0
LWPOLYLINE
  5
293
100
AcDbEntity
  8
Epilog_Laser
 62
7
100
AcDbPolyline
 90
4
 70
0
 10
478.296749
 20
303.909897
 30
0.0
 10
482.455605
 20
301.450797
 30
0.0
 10
483.376338
 20
302.570241
 30
0.0
 10
490.466082
 20
296.738897
 30
0.0
  0
SPLINE
  5
294
100
AcDbEntity
  8
Epilog_Laser
 62
7
100
AcDbSpline
 70
8
 71
3
 72
8
 73
4
 74
0
 40
0
 40
0
 40
0
 40
0
 40
1
 40
1
 40
1
 40
1
 10
491.141882
 20
321.808730
 30
0.0
 10
499.329713
 20
314.922592
 30
0.0
 10
511.420931
 20
315.429820
 30
0.0
 10
519.003260
 20
322.977519
 30
0.0
  0
LWPOLYLINE
  5
295
100
AcDbEntity
  8
Epilog_Laser
 62
7
100
AcDbPolyline
 90
9
 70
0
 10
478.296749
 20
303.909897
 30
0.0
 10
491.800938
 20
320.328286
 30
0.0
 10
490.681494
 20
321.249008
 30
0.0
 10
491.602227
 20
322.368452
 30
0.0
 10
492.721660
 20
321.447730
 30
0.0
 10
504.998227
 20
336.373530
 30
0.0
 10
519.923982
 20
324.096963
 30
0.0
 10
519.003260
 20
322.977519
 30
0.0
 10
504.077460
 20
335.254086
 30
0.0
  0
LWPOLYLINE
  5
296
100
AcDbEntity
  8
Epilog_Laser
 62
7
100
AcDbPolyline
 90
6
 70
0
 10
504.998227
 20
336.373530
 30
0.0
 10
496.042738
 20
343.739430
 30
0.0
 10
496.963471
 20
344.858874
 30
0.0
 10
495.844027
 20
345.779597
 30
0.0
 10
494.923305
 20
344.660197
 30
0.0
 10
494.736860
 20
344.813686
 30
0.0
  0
LWPOLYLINE
  5
297
100
AcDbEntity
  8
Epilog_Laser
 62
7
100
AcDbPolyline
 90
4
 70
0
 10
494.736727
 20
344.813652
 30
0.0
 10
494.122894
 20
344.067352
 30
0.0
 10
491.884016
 20
345.908808
 30
0.0
 10
495.567005
 20
350.386574
 30
0.0
  0
LWPOLYLINE
  5
298
100
AcDbEntity
  8
Epilog_Laser
 62
7
100
AcDbPolyline
 90
4
 70
0
 10
494.820716
 20
351.000408
 30
0.0
 10
516.918471
 20
377.866819
 30
0.0
 10
515.799027
 20
378.787552
 30
0.0
 10
493.701271
 20
351.921130
 30
0.0
  0
SPLINE
  5
299
100
AcDbEntity
  8
Epilog_Laser
 62
7
100
AcDbSpline
 70
8
 71
3
 72
8
 73
4
 74
0
 40
0
 40
0
 40
0
 40
0
 40
1
 40
1
 40
1
 40
1
 10
515.799027
 20
378.787552
 30
0.0
 10
500.633184
 20
389.856718
 30
0.0
 10
479.579885
 20
387.806318
 30
0.0
 10
466.834849
 20
374.018886
 30
0.0
  0
SPLINE
  5
29a
100
AcDbEntity
  8
Epilog_Laser
 62
7
100
AcDbSpline
 70
8
 71
3
 72
8
 73
4
 74
0
 40
0
 40
0
 40
0
 40
0
 40
1
 40
1
 40
1
 40
1
 10
450.567916
 20
302.522019
 30
0.0
 10
450.356064
 20
302.264411
 30
0.0
 10
450.393144
 20
301.883843
 30
0.0
 10
450.650738
 20
301.671974
 30
0.0
  0
SPLINE
  5
29b
100
AcDbEntity
  8
Epilog_Laser
 62
7
100
AcDbSpline
 70
8
 71
3
 72
8
 73
4
 74
0
 40
0
 40
0
 40
0
 40
0
 40
1
 40
1
 40
1
 40
1
 10
450.650738
 20
301.671974
 30
0.0
 10
450.908344
 20
301.460113
 30
0.0
 10
451.288921
 20
301.497188
 30
0.0
 10
451.500794
 20
301.754786
 30
0.0
  0
SPLINE
  5
29c
100
AcDbEntity
  8
Epilog_Laser
 62
7
100
AcDbSpline
 70
8
 71
3
 72
8
 73
4
 74
0
 40
0
 40
0
 40
0
 40
0
 40
1
 40
1
 40
1
 40
1
 10
448.287760
 20
299.109108
 30
0.0
 10
448.289600
 20
303.371598
 30
0.0
 10
446.016646
 20
307.311088
 30
0.0
 10
442.325527
 20
309.442864
 30
0.0
  0
SPLINE
  5
29d
100
AcDbEntity
  8
Epilog_Laser
 62
7
100
AcDbSpline
 70
8
 71
3
 72
8
 73
4
 74
0
 40
0
 40
0
 40
0
 40
0
 40
1
 40
1
 40
1
 40
1
 10
442.325527
 20
309.442864
 30
0.0
 10
438.634409
 20
311.574640
 30
0.0
 10
434.086233
 20
311.574640
 30
0.0
 10
430.395115
 20
309.442864
 30
0.0
  0
SPLINE
  5
29e
100
AcDbEntity
  8
Epilog_Laser
 62
7
100
AcDbSpline
 70
8
 71
3
 72
8
 73
4
 74
0
 40
0
 40
0
 40
0
 40
0
 40
1
 40
1
 40
1
 40
1
 10
430.395115
 20
309.442864
 30
0.0
 10
426.703997
 20
307.311088
 30
0.0
 10
424.431043
 20
303.371598
 30
0.0
 10
424.432882
 20
299.109108
 30
0.0
  0
SPLINE
  5
29f
100
AcDbEntity
  8
Epilog_Laser
 62
7
100
AcDbSpline
 70
8
 71
3
 72
8
 73
4
 74
0
 40
0
 40
0
 40
0
 40
0
 40
1
 40
1
 40
1
 40
1
 10
424.432882
 20
299.109108
 30
0.0
 10
424.435725
 20
292.523776
 30
0.0
 10
429.774989
 20
287.186816
 30
0.0
 10
436.360321
 20
287.186816
 30
0.0
  0
SPLINE
  5
2a0
100
AcDbEntity
  8
Epilog_Laser
 62
7
100
AcDbSpline
 70
8
 71
3
 72
8
 73
4
 74
0
 40
0
 40
0
 40
0
 40
0
 40
1
 40
1
 40
1
 40
1
 10
436.360321
 20
287.186816
 30
0.0
 10
442.945654
 20
287.186816
 30
0.0
 10
448.284918
 20
292.523776
 30
0.0
 10
448.287760
 20
299.109108
 30
0.0
  0
LWPOLYLINE
  5
2a1
100
AcDbEntity
  8
Epilog_Laser
 62
7
100
AcDbPolyline
 90
14
 70
0
 10
495.567005
 20
350.386574
 30
0.0
 10
466.834849
 20
374.018886
 30
0.0
 10
466.221016
 20
373.272597
 30
0.0
 10
465.474727
 20
373.886430
 30
0.0
 10
459.029549
 20
366.050386
 30
0.0
 10
460.708716
 20
364.669274
 30
0.0
 10
459.787938
 20
363.549874
 30
0.0
 10
461.313305
 20
362.000530
 30
0.0
 10
453.947360
 20
353.045086
 30
0.0
 10
453.201071
 20
353.658919
 30
0.0
 10
453.814894
 20
354.405208
 30
0.0
 10
451.016338
 20
356.707052
 30
0.0
 10
450.402505
 20
355.960752
 30
0.0
 10
443.135416
 20
361.937963
 30
0.0
  0
SPLINE
  5
2a2
100
AcDbEntity
  8
Epilog_Laser
 62
7
100
AcDbSpline
 70
8
 71
3
 72
8
 73
4
 74
0
 40
0
 40
0
 40
0
 40
0
 40
1
 40
1
 40
1
 40
1
 10
427.465794
 20
316.235286
 30
0.0
 10
427.467633
 20
320.497775
 30
0.0
 10
425.194679
 20
324.437266
 30
0.0
 10
421.503561
 20
326.569042
 30
0.0
  0
SPLINE
  5
2a3
100
AcDbEntity
  8
Epilog_Laser
 62
7
100
AcDbSpline
 70
8
 71
3
 72
8
 73
4
 74
0
 40
0
 40
0
 40
0
 40
0
 40
1
 40
1
 40
1
 40
1
 10
421.503561
 20
326.569042
 30
0.0
 10
417.812443
 20
328.700818
 30
0.0
 10
413.264267
 20
328.700818
 30
0.0
 10
409.573149
 20
326.569042
 30
0.0
  0
SPLINE
  5
2a4
100
AcDbEntity
  8
Epilog_Laser
 62
7
100
AcDbSpline
 70
8
 71
3
 72
8
 73
4
 74
0
 40
0
 40
0
 40
0
 40
0
 40
1
 40
1
 40
1
 40
1
 10
409.573149
 20
326.569042
 30
0.0
 10
405.882030
 20
324.437266
 30
0.0
 10
403.609076
 20
320.497775
 30
0.0
 10
403.610916
 20
316.235286
 30
0.0
  0
SPLINE
  5
2a5
100
AcDbEntity
  8
Epilog_Laser
 62
7
100
AcDbSpline
 70
8
 71
3
 72
8
 73
4
 74
0
 40
0
 40
0
 40
0
 40
0
 40
1
 40
1
 40
1
 40
1
 10
403.610916
 20
316.235286
 30
0.0
 10
403.613758
 20
309.649953
 30
0.0
 10
408.953022
 20
304.312994
 30
0.0
 10
415.538355
 20
304.312994
 30
0.0
  0
SPLINE
  5
2a6
100
AcDbEntity
  8
Epilog_Laser
 62
7
100
AcDbSpline
 70
8
 71
3
 72
8
 73
4
 74
0
 40
0
 40
0
 40
0
 40
0
 40
1
 40
1
 40
1
 40
1
 10
415.538355
 20
304.312994
 30
0.0
 10
422.123687
 20
304.312994
 30
0.0
 10
427.462951
 20
309.649953
 30
0.0
 10
427.465794
 20
316.235286
 30
0.0
  0
LWPOLYLINE
  5
2a7
100
AcDbEntity
  8
Epilog_Laser
 62
7
100
AcDbPolyline
 90
2
 70
1
 10
448.287760
 20
299.109108
 30
0.0
 10
448.287760
 20
299.109108
 30
0.0
  0
LWPOLYLINE
  5
2a8
100
AcDbEntity
  8
Epilog_Laser
 62
7
100
AcDbPolyline
 90
2
 70
1
 10
427.465794
 20
316.235286
 30
0.0
 10
427.465794
 20
316.235286
 30
0.0
  0
LWPOLYLINE
  5
2a9
100
AcDbEntity
  8
Epilog_Laser
 62
7
100
AcDbPolyline
 90
2
 70
0
 10
492.723182
 20
200.910508
 30
0.0
 10
462.701882
 20
225.603119
 30
0.0
  0
LWPOLYLINE
  5
2aa
100
AcDbEntity
  8
Epilog_Laser
 62
7
100
AcDbPolyline
 90
4
 70
0
 10
464.381038
 20
224.222052
 30
0.0
 10
470.212382
 20
231.311808
 30
0.0
 10
469.279516
 20
232.079086
 30
0.0
 10
463.448171
 20
224.989330
 30
0.0
  0
LWPOLYLINE
  5
2ab
100
AcDbEntity
  8
Epilog_Laser
 62
7
100
AcDbPolyline
 90
3
 70
0
 10
462.701882
 20
225.603119
 30
0.0
 10
435.079671
 20
192.020097
 30
0.0
 10
433.307249
 20
193.477952
 30
0.0
  0
LWPOLYLINE
  5
2ac
100
AcDbEntity
  8
Epilog_Laser
 62
7
100
AcDbPolyline
 90
2
 70
0
 10
432.457149
 20
193.395141
 30
0.0
 10
432.457149
 20
193.395141
 30
0.0
  0
LWPOLYLINE
  5
2ad
100
AcDbEntity
  8
Epilog_Laser
 62
7
100
AcDbPolyline
 90
5
 70
0
 10
432.539960
 20
192.545086
 30
0.0
 10
434.312394
 20
191.087230
 30
0.0
 10
431.243271
 20
187.355797
 30
0.0
 10
427.511805
 20
190.424919
 30
0.0
 10
427.665294
 20
190.611363
 30
0.0
  0
SPLINE
  5
2ae
100
AcDbEntity
  8
Epilog_Laser
 62
7
100
AcDbSpline
 70
8
 71
3
 72
8
 73
4
 74
0
 40
0
 40
0
 40
0
 40
0
 40
1
 40
1
 40
1
 40
1
 10
427.614127
 20
190.549319
 30
0.0
 10
428.112364
 20
191.155989
 30
0.0
 10
428.037567
 20
192.048940
 30
0.0
 10
427.445347
 20
192.564268
 30
0.0
  0
SPLINE
  5
2af
100
AcDbEntity
  8
Epilog_Laser
 62
7
100
AcDbSpline
 70
8
 71
3
 72
8
 73
4
 74
0
 40
0
 40
0
 40
0
 40
0
 40
1
 40
1
 40
1
 40
1
 10
427.445347
 20
192.564268
 30
0.0
 10
426.853127
 20
193.079597
 30
0.0
 10
425.958406
 20
193.030286
 30
0.0
 10
425.426405
 20
192.452997
 30
0.0
  0
LWPOLYLINE
  5
2b0
100
AcDbEntity
  8
Epilog_Laser
 62
7
100
AcDbPolyline
 90
2
 70
0
 10
425.272916
 20
192.266419
 30
0.0
 10
425.426405
 20
192.452863
 30
0.0
  0
SPLINE
  5
2b1
100
AcDbEntity
  8
Epilog_Laser
 62
7
100
AcDbSpline
 70
8
 71
3
 72
8
 73
4
 74
0
 40
0
 40
0
 40
0
 40
0
 40
1
 40
1
 40
1
 40
1
 10
412.237094
 20
199.234941
 30
0.0
 10
407.635634
 20
191.913882
 30
0.0
 10
408.561373
 20
182.408568
 30
0.0
 10
414.488982
 20
176.112952
 30
0.0
  0
LWPOLYLINE
  5
2b2
100
AcDbEntity
  8
Epilog_Laser
 62
7
100
AcDbPolyline
 90
16
 70
0
 10
425.272916
 20
192.266419
 30
0.0
 10
414.078594
 20
201.473819
 30
0.0
 10
412.237094
 20
199.234941
 30
0.0
 10
423.431460
 20
190.027541
 30
0.0
 10
422.203794
 20
188.534952
 30
0.0
 10
423.696382
 20
187.307330
 30
0.0
 10
414.488982
 20
176.112952
 30
0.0
 10
416.727827
 20
174.271508
 30
0.0
 10
425.935227
 20
185.465830
 30
0.0
 10
428.174105
 20
183.624330
 30
0.0
 10
422.035827
 20
176.161430
 30
0.0
 10
431.737605
 20
168.181697
 30
0.0
 10
428.131405
 20
164.966330
 30
0.0
 10
427.011960
 20
165.887097
 30
0.0
 10
421.180616
 20
158.797341
 30
0.0
 10
427.524071
 20
153.579786
 30
0.0
  0
LWPOLYLINE
  5
2b3
100
AcDbEntity
  8
Epilog_Laser
 62
7
100
AcDbPolyline
 90
4
 70
0
 10
434.695116
 20
165.749130
 30
0.0
 10
432.235971
 20
161.590308
 30
0.0
 10
433.355416
 20
160.669541
 30
0.0
 10
427.524071
 20
153.579786
 30
0.0
  0
SPLINE
  5
2b4
100
AcDbEntity
  8
Epilog_Laser
 62
7
100
AcDbSpline
 70
8
 71
3
 72
8
 73
4
 74
0
 40
0
 40
0
 40
0
 40
0
 40
1
 40
1
 40
1
 40
1
 10
452.593949
 20
152.904041
 30
0.0
 10
445.707783
 20
144.716203
 30
0.0
 10
446.215012
 20
132.624954
 30
0.0
 10
453.762738
 20
125.042619
 30
0.0
  0
LWPOLYLINE
  5
2b5
100
AcDbEntity
  8
Epilog_Laser
 62
7
100
AcDbPolyline
 90
9
 70
0
 10
434.695116
 20
165.749130
 30
0.0
 10
451.113460
 20
152.244941
 30
0.0
 10
452.034238
 20
153.364386
 30
0.0
 10
453.153627
 20
152.443652
 30
0.0
 10
452.232905
 20
151.324208
 30
0.0
 10
467.158705
 20
139.047686
 30
0.0
 10
454.882182
 20
124.121897
 30
0.0
 10
453.762738
 20
125.042619
 30
0.0
 10
466.039260
 20
139.968419
 30
0.0
  0
LWPOLYLINE
  5
2b6
100
AcDbEntity
  8
Epilog_Laser
 62
7
100
AcDbPolyline
 90
6
 70
0
 10
467.158705
 20
139.047686
 30
0.0
 10
474.524649
 20
148.003130
 30
0.0
 10
475.644049
 20
147.082408
 30
0.0
 10
476.564816
 20
148.201852
 30
0.0
 10
475.445382
 20
149.122574
 30
0.0
 10
475.598871
 20
149.309019
 30
0.0
  0
LWPOLYLINE
  5
2b7
100
AcDbEntity
  8
Epilog_Laser
 62
7
100
AcDbPolyline
 90
4
 70
0
 10
475.598827
 20
149.309152
 30
0.0
 10
474.852527
 20
149.922986
 30
0.0
 10
476.694027
 20
152.161863
 30
0.0
 10
481.171749
 20
148.478908
 30
0.0
  0
LWPOLYLINE
  5
2b8
100
AcDbEntity
  8
Epilog_Laser
 62
7
100
AcDbPolyline
 90
4
 70
0
 10
481.785582
 20
149.225163
 30
0.0
 10
508.652005
 20
127.127408
 30
0.0
 10
509.572771
 20
128.246841
 30
0.0
 10
482.706305
 20
150.344608
 30
0.0
  0
SPLINE
  5
2b9
100
AcDbEntity
  8
Epilog_Laser
 62
7
100
AcDbSpline
 70
8
 71
3
 72
8
 73
4
 74
0
 40
0
 40
0
 40
0
 40
0
 40
1
 40
1
 40
1
 40
1
 10
509.572771
 20
128.246841
 30
0.0
 10
520.641940
 20
143.412681
 30
0.0
 10
518.591544
 20
164.465980
 30
0.0
 10
504.804116
 20
177.211019
 30
0.0
  0
SPLINE
  5
2ba
100
AcDbEntity
  8
Epilog_Laser
 62
7
100
AcDbSpline
 70
8
 71
3
 72
8
 73
4
 74
0
 40
0
 40
0
 40
0
 40
0
 40
1
 40
1
 40
1
 40
1
 10
433.307249
 20
193.477952
 30
0.0
 10
433.183539
 20
193.579706
 30
0.0
 10
433.024474
 20
193.628146
 30
0.0
 10
432.865048
 20
193.612616
 30
0.0
  0
SPLINE
  5
2bb
100
AcDbEntity
  8
Epilog_Laser
 62
7
100
AcDbSpline
 70
8
 71
3
 72
8
 73
4
 74
0
 40
0
 40
0
 40
0
 40
0
 40
1
 40
1
 40
1
 40
1
 10
432.865048
 20
193.612616
 30
0.0
 10
432.705621
 20
193.597086
 30
0.0
 10
432.558895
 20
193.518857
 30
0.0
 10
432.457149
 20
193.395141
 30
0.0
  0
SPLINE
  5
2bc
100
AcDbEntity
  8
Epilog_Laser
 62
7
100
AcDbSpline
 70
8
 71
3
 72
8
 73
4
 74
0
 40
0
 40
0
 40
0
 40
0
 40
1
 40
1
 40
1
 40
1
 10
432.457149
 20
193.395141
 30
0.0
 10
432.245288
 20
193.137535
 30
0.0
 10
432.282363
 20
192.756958
 30
0.0
 10
432.539960
 20
192.545086
 30
0.0
  0
SPLINE
  5
2bd
100
AcDbEntity
  8
Epilog_Laser
 62
7
100
AcDbSpline
 70
8
 71
3
 72
8
 73
4
 74
0
 40
0
 40
0
 40
0
 40
0
 40
1
 40
1
 40
1
 40
1
 10
441.821727
 20
207.685552
 30
0.0
 10
441.828858
 20
211.951557
 30
0.0
 10
439.557067
 20
215.896563
 30
0.0
 10
435.863782
 20
218.031627
 30
0.0
  0
SPLINE
  5
2be
100
AcDbEntity
  8
Epilog_Laser
 62
7
100
AcDbSpline
 70
8
 71
3
 72
8
 73
4
 74
0
 40
0
 40
0
 40
0
 40
0
 40
1
 40
1
 40
1
 40
1
 10
435.863782
 20
218.031627
 30
0.0
 10
432.170497
 20
220.166691
 30
0.0
 10
427.618123
 20
220.166691
 30
0.0
 10
423.924838
 20
218.031627
 30
0.0
  0
SPLINE
  5
2bf
100
AcDbEntity
  8
Epilog_Laser
 62
7
100
AcDbSpline
 70
8
 71
3
 72
8
 73
4
 74
0
 40
0
 40
0
 40
0
 40
0
 40
1
 40
1
 40
1
 40
1
 10
423.924838
 20
218.031627
 30
0.0
 10
420.231554
 20
215.896563
 30
0.0
 10
417.959762
 20
211.951557
 30
0.0
 10
417.966894
 20
207.685552
 30
0.0
  0
SPLINE
  5
2c0
100
AcDbEntity
  8
Epilog_Laser
 62
7
100
AcDbSpline
 70
8
 71
3
 72
8
 73
4
 74
0
 40
0
 40
0
 40
0
 40
0
 40
1
 40
1
 40
1
 40
1
 10
417.966894
 20
207.685552
 30
0.0
 10
417.959762
 20
203.419547
 30
0.0
 10
420.231554
 20
199.474541
 30
0.0
 10
423.924838
 20
197.339477
 30
0.0
  0
SPLINE
  5
2c1
100
AcDbEntity
  8
Epilog_Laser
 62
7
100
AcDbSpline
 70
8
 71
3
 72
8
 73
4
 74
0
 40
0
 40
0
 40
0
 40
0
 40
1
 40
1
 40
1
 40
1
 10
423.924838
 20
197.339477
 30
0.0
 10
427.618123
 20
195.204414
 30
0.0
 10
432.170497
 20
195.204414
 30
0.0
 10
435.863782
 20
197.339477
 30
0.0
  0
SPLINE
  5
2c2
100
AcDbEntity
  8
Epilog_Laser
 62
7
100
AcDbSpline
 70
8
 71
3
 72
8
 73
4
 74
0
 40
0
 40
0
 40
0
 40
0
 40
1
 40
1
 40
1
 40
1
 10
435.863782
 20
197.339477
 30
0.0
 10
439.557067
 20
199.474541
 30
0.0
 10
441.828858
 20
203.419547
 30
0.0
 10
441.821727
 20
207.685552
 30
0.0
  0
LWPOLYLINE
  5
2c3
100
AcDbEntity
  8
Epilog_Laser
 62
7
100
AcDbPolyline
 90
14
 70
0
 10
481.171749
 20
148.478908
 30
0.0
 10
504.804116
 20
177.211019
 30
0.0
 10
504.057816
 20
177.824852
 30
0.0
 10
504.671649
 20
178.571152
 30
0.0
 10
496.835605
 20
185.016330
 30
0.0
 10
495.454494
 20
183.337163
 30
0.0
 10
494.335049
 20
184.257930
 30
0.0
 10
492.785749
 20
182.732563
 30
0.0
 10
483.830260
 20
190.098519
 30
0.0
 10
484.444094
 20
190.844808
 30
0.0
 10
485.190382
 20
190.230974
 30
0.0
 10
487.492227
 20
193.029586
 30
0.0
 10
486.745938
 20
193.643374
 30
0.0
 10
492.723182
 20
200.910508
 30
0.0
  0
SPLINE
  5
2c4
100
AcDbEntity
  8
Epilog_Laser
 62
7
100
AcDbSpline
 70
8
 71
3
 72
8
 73
4
 74
0
 40
0
 40
0
 40
0
 40
0
 40
1
 40
1
 40
1
 40
1
 10
458.947905
 20
228.507519
 30
0.0
 10
458.955036
 20
232.773524
 30
0.0
 10
456.683244
 20
236.718530
 30
0.0
 10
452.989960
 20
238.853594
 30
0.0
  0
SPLINE
  5
2c5
100
AcDbEntity
  8
Epilog_Laser
 62
7
100
AcDbSpline
 70
8
 71
3
 72
8
 73
4
 74
0
 40
0
 40
0
 40
0
 40
0
 40
1
 40
1
 40
1
 40
1
 10
452.989960
 20
238.853594
 30
0.0
 10
449.296675
 20
240.988658
 30
0.0
 10
444.744301
 20
240.988658
 30
0.0
 10
441.051016
 20
238.853594
 30
0.0
  0
SPLINE
  5
2c6
100
AcDbEntity
  8
Epilog_Laser
 62
7
100
AcDbSpline
 70
8
 71
3
 72
8
 73
4
 74
0
 40
0
 40
0
 40
0
 40
0
 40
1
 40
1
 40
1
 40
1
 10
441.051016
 20
238.853594
 30
0.0
 10
437.357732
 20
236.718530
 30
0.0
 10
435.085940
 20
232.773524
 30
0.0
 10
435.093071
 20
228.507519
 30
0.0
  0
SPLINE
  5
2c7
100
AcDbEntity
  8
Epilog_Laser
 62
7
100
AcDbSpline
 70
8
 71
3
 72
8
 73
4
 74
0
 40
0
 40
0
 40
0
 40
0
 40
1
 40
1
 40
1
 40
1
 10
435.093071
 20
228.507519
 30
0.0
 10
435.085940
 20
224.241514
 30
0.0
 10
437.357732
 20
220.296508
 30
0.0
 10
441.051016
 20
218.161444
 30
0.0
  0
SPLINE
  5
2c8
100
AcDbEntity
  8
Epilog_Laser
 62
7
100
AcDbSpline
 70
8
 71
3
 72
8
 73
4
 74
0
 40
0
 40
0
 40
0
 40
0
 40
1
 40
1
 40
1
 40
1
 10
441.051016
 20
218.161444
 30
0.0
 10
444.744301
 20
216.026380
 30
0.0
 10
449.296675
 20
216.026380
 30
0.0
 10
452.989960
 20
218.161444
 30
0.0
  0
SPLINE
  5
2c9
100
AcDbEntity
  8
Epilog_Laser
 62
7
100
AcDbSpline
 70
8
 71
3
 72
8
 73
4
 74
0
 40
0
 40
0
 40
0
 40
0
 40
1
 40
1
 40
1
 40
1
 10
452.989960
 20
218.161444
 30
0.0
 10
456.683244
 20
220.296508
 30
0.0
 10
458.955036
 20
224.241514
 30
0.0
 10
458.947905
 20
228.507519
 30
0.0
  0
LWPOLYLINE
  5
2ca
100
AcDbEntity
  8
Epilog_Laser
 62
7
100
AcDbPolyline
 90
2
 70
1
 10
441.821727
 20
207.685552
 30
0.0
 10
441.821727
 20
207.685552
 30
0.0
  0
LWPOLYLINE
  5
2cb
100
AcDbEntity
  8
Epilog_Laser
 62
7
100
AcDbPolyline
 90
2
 70
1
 10
458.947905
 20
228.507519
 30
0.0
 10
458.947905
 20
228.507519
 30
0.0
  0
LWPOLYLINE
  5
2cc
100
AcDbEntity
  8
Epilog_Laser
 62
7
100
AcDbPolyline
 90
4
 70
0
 10
246.316149
 20
152.942090
 30
0.0
 10
246.322322
 20
164.558584
 30
0.0
 10
247.915448
 20
164.557758
 30
0.0
 10
247.927829
 20
187.899691
 30
0.0
  0
LWPOLYLINE
  5
2cd
100
AcDbEntity
  8
Epilog_Laser
 62
7
100
AcDbPolyline
 90
2
 70
0
 10
246.316149
 20
152.942090
 30
0.0
 10
207.503364
 20
152.962674
 30
0.0
  0
LWPOLYLINE
  5
2ce
100
AcDbEntity
  8
Epilog_Laser
 62
7
100
AcDbPolyline
 90
2
 70
0
 10
209.056379
 20
116.525128
 30
0.0
 10
209.075691
 20
152.961848
 30
0.0
  0
SPLINE
  5
2cf
100
AcDbEntity
  8
Epilog_Laser
 62
7
100
AcDbSpline
 70
8
 71
3
 72
8
 73
4
 74
0
 40
0
 40
0
 40
0
 40
0
 40
1
 40
1
 40
1
 40
1
 10
208.975003
 20
116.606562
 30
0.0
 10
228.871040
 20
117.413892
 30
0.0
 10
244.966096
 20
133.075499
 30
0.0
 10
246.316149
 20
152.942090
 30
0.0
  0
LWPOLYLINE
  5
2d0
100
AcDbEntity
  8
Epilog_Laser
 62
7
100
AcDbPolyline
 90
3
 70
0
 10
208.975003
 20
116.606562
 30
0.0
 10
207.484104
 20
116.607357
 30
0.0
 10
207.503364
 20
152.962674
 30
0.0
  0
LWPOLYLINE
  5
2d1
100
AcDbEntity
  8
Epilog_Laser
 62
7
100
AcDbPolyline
 90
13
 70
0
 10
247.927829
 20
187.899691
 30
0.0
 10
257.154652
 20
187.894795
 30
0.0
 10
257.161691
 20
201.170799
 30
0.0
 10
248.532298
 20
201.175368
 30
0.0
 10
248.536751
 20
209.539258
 30
0.0
 10
212.810739
 20
209.558200
 30
0.0
 10
212.811670
 20
211.257554
 30
0.0
 10
207.567642
 20
211.260332
 30
0.0
 10
207.570031
 20
215.774175
 30
0.0
 10
195.024212
 20
215.780824
 30
0.0
 10
195.021918
 20
211.466113
 30
0.0
 10
187.485655
 20
211.470117
 30
0.0
 10
187.486828
 20
213.645383
 30
0.0
  0
LWPOLYLINE
  5
2d2
100
AcDbEntity
  8
Epilog_Laser
 62
7
100
AcDbPolyline
 90
2
 70
0
 10
186.741753
 20
214.391240
 30
0.0
 10
186.741285
 20
214.391292
 30
0.0
  0
LWPOLYLINE
  5
2d3
100
AcDbEntity
  8
Epilog_Laser
 62
7
100
AcDbPolyline
 90
6
 70
0
 10
185.995381
 20
213.646151
 30
0.0
 10
185.994291
 20
211.537304
 30
0.0
 10
183.870127
 20
211.538424
 30
0.0
 10
183.880933
 20
231.917080
 30
0.0
 10
181.225740
 20
231.918499
 30
0.0
 10
181.217343
 20
216.133100
 30
0.0
  0
LWPOLYLINE
  5
2d4
100
AcDbEntity
  8
Epilog_Laser
 62
7
100
AcDbPolyline
 90
4
 70
0
 10
183.150748
 20
231.917469
 30
0.0
 10
183.152318
 20
234.904557
 30
0.0
 10
181.957495
 20
234.905198
 30
0.0
 10
181.955925
 20
231.918110
 30
0.0
  0
SPLINE
  5
2d5
100
AcDbEntity
  8
Epilog_Laser
 62
7
100
AcDbSpline
 70
8
 71
3
 72
8
 73
4
 74
0
 40
0
 40
0
 40
0
 40
0
 40
1
 40
1
 40
1
 40
1
 10
181.957495
 20
234.905198
 30
0.0
 10
170.832891
 20
235.130556
 30
0.0
 10
161.530825
 20
226.499480
 30
0.0
 10
160.924234
 20
215.389140
 30
0.0
  0
SPLINE
  5
2d6
100
AcDbEntity
  8
Epilog_Laser
 62
7
100
AcDbSpline
 70
8
 71
3
 72
8
 73
4
 74
0
 40
0
 40
0
 40
0
 40
0
 40
1
 40
1
 40
1
 40
1
 10
187.486828
 20
213.645383
 30
0.0
 10
187.486919
 20
213.843095
 30
0.0
 10
187.408464
 20
214.032745
 30
0.0
 10
187.268724
 20
214.172611
 30
0.0
  0
SPLINE
  5
2d7
100
AcDbEntity
  8
Epilog_Laser
 62
7
100
AcDbSpline
 70
8
 71
3
 72
8
 73
4
 74
0
 40
0
 40
0
 40
0
 40
0
 40
1
 40
1
 40
1
 40
1
 10
187.268724
 20
214.172611
 30
0.0
 10
187.128983
 20
214.312478
 30
0.0
 10
186.939404
 20
214.391104
 30
0.0
 10
186.741692
 20
214.391191
 30
0.0
  0
SPLINE
  5
2d8
100
AcDbEntity
  8
Epilog_Laser
 62
7
100
AcDbSpline
 70
8
 71
3
 72
8
 73
4
 74
0
 40
0
 40
0
 40
0
 40
0
 40
1
 40
1
 40
1
 40
1
 10
186.741255
 20
214.391240
 30
0.0
 10
186.543540
 20
214.391350
 30
0.0
 10
186.353880
 20
214.312912
 30
0.0
 10
186.213999
 20
214.173181
 30
0.0
  0
SPLINE
  5
2d9
100
AcDbEntity
  8
Epilog_Laser
 62
7
100
AcDbSpline
 70
8
 71
3
 72
8
 73
4
 74
0
 40
0
 40
0
 40
0
 40
0
 40
1
 40
1
 40
1
 40
1
 10
186.213999
 20
214.173181
 30
0.0
 10
186.074118
 20
214.033451
 30
0.0
 10
185.995476
 20
213.843875
 30
0.0
 10
185.995374
 20
213.646160
 30
0.0
  0
LWPOLYLINE
  5
2da
100
AcDbEntity
  8
Epilog_Laser
 62
7
100
AcDbPolyline
 90
20
 70
0
 10
181.217343
 20
216.133100
 30
0.0
 10
163.947936
 20
216.142268
 30
0.0
 10
163.947539
 20
215.387522
 30
0.0
 10
160.924234
 20
215.389140
 30
0.0
 10
160.923657
 20
214.303087
 30
0.0
 10
163.946963
 20
214.301469
 30
0.0
 10
163.944937
 20
210.485624
 30
0.0
 10
152.820299
 20
210.491542
 30
0.0
 10
152.819189
 20
208.407504
 30
0.0
 10
140.185791
 20
208.414189
 30
0.0
 10
140.183290
 20
203.659089
 30
0.0
 10
133.813754
 20
203.662450
 30
0.0
 10
133.812910
 20
202.077404
 30
0.0
 10
131.934335
 20
202.078402
 30
0.0
 10
131.927536
 20
189.298240
 30
0.0
 10
133.571291
 20
189.297365
 30
0.0
 10
133.570367
 20
187.565567
 30
0.0
 10
148.863116
 20
187.557457
 30
0.0
 10
148.861910
 20
185.267955
 30
0.0
 10
152.806896
 20
185.265850
 30
0.0
  0
LWPOLYLINE
  5
2db
100
AcDbEntity
  8
Epilog_Laser
 62
7
100
AcDbPolyline
 90
2
 70
0
 10
206.424111
 20
152.963268
 30
0.0
 10
152.789770
 20
152.991717
 30
0.0
  0
LWPOLYLINE
  5
2dc
100
AcDbEntity
  8
Epilog_Laser
 62
7
100
AcDbPolyline
 90
4
 70
0
 10
207.503364
 20
152.962674
 30
0.0
 10
207.504047
 20
154.255494
 30
0.0
 10
206.424786
 20
154.256081
 30
0.0
 10
206.424111
 20
152.963268
 30
0.0
  0
SPLINE
  5
2dd
100
AcDbEntity
  8
Epilog_Laser
 62
7
100
AcDbSpline
 70
8
 71
3
 72
8
 73
4
 74
0
 40
0
 40
0
 40
0
 40
0
 40
1
 40
1
 40
1
 40
1
 10
231.799302
 20
219.748280
 30
0.0
 10
235.127423
 20
222.409476
 30
0.0
 10
236.783003
 20
226.644053
 30
0.0
 10
236.142401
 20
230.856888
 30
0.0
  0
SPLINE
  5
2de
100
AcDbEntity
  8
Epilog_Laser
 62
7
100
AcDbSpline
 70
8
 71
3
 72
8
 73
4
 74
0
 40
0
 40
0
 40
0
 40
0
 40
1
 40
1
 40
1
 40
1
 10
236.142401
 20
230.856888
 30
0.0
 10
235.501799
 20
235.069723
 30
0.0
 10
232.662338
 20
238.620786
 30
0.0
 10
228.693615
 20
240.172426
 30
0.0
  0
SPLINE
  5
2df
100
AcDbEntity
  8
Epilog_Laser
 62
7
100
AcDbSpline
 70
8
 71
3
 72
8
 73
4
 74
0
 40
0
 40
0
 40
0
 40
0
 40
1
 40
1
 40
1
 40
1
 10
228.693615
 20
240.172426
 30
0.0
 10
224.724891
 20
241.724066
 30
0.0
 10
220.229850
 20
241.040552
 30
0.0
 10
216.901729
 20
238.379356
 30
0.0
  0
SPLINE
  5
2e0
100
AcDbEntity
  8
Epilog_Laser
 62
7
100
AcDbSpline
 70
8
 71
3
 72
8
 73
4
 74
0
 40
0
 40
0
 40
0
 40
0
 40
1
 40
1
 40
1
 40
1
 10
216.901729
 20
238.379356
 30
0.0
 10
213.573608
 20
235.718161
 30
0.0
 10
211.918028
 20
231.483584
 30
0.0
 10
212.558630
 20
227.270749
 30
0.0
  0
SPLINE
  5
2e1
100
AcDbEntity
  8
Epilog_Laser
 62
7
100
AcDbSpline
 70
8
 71
3
 72
8
 73
4
 74
0
 40
0
 40
0
 40
0
 40
0
 40
1
 40
1
 40
1
 40
1
 10
212.558630
 20
227.270749
 30
0.0
 10
213.199232
 20
223.057914
 30
0.0
 10
216.038693
 20
219.506851
 30
0.0
 10
220.007416
 20
217.955211
 30
0.0
  0
SPLINE
  5
2e2
100
AcDbEntity
  8
Epilog_Laser
 62
7
100
AcDbSpline
 70
8
 71
3
 72
8
 73
4
 74
0
 40
0
 40
0
 40
0
 40
0
 40
1
 40
1
 40
1
 40
1
 10
220.007416
 20
217.955211
 30
0.0
 10
223.976139
 20
216.403571
 30
0.0
 10
228.471181
 20
217.087085
 30
0.0
 10
231.799302
 20
219.748280
 30
0.0
  0
LWPOLYLINE
  5
2e3
100
AcDbEntity
  8
Epilog_Laser
 62
7
100
AcDbPolyline
 90
2
 70
0
 10
152.806896
 20
185.265850
 30
0.0
 10
152.789770
 20
152.991717
 30
0.0
  0
SPLINE
  5
2e4
100
AcDbEntity
  8
Epilog_Laser
 62
7
100
AcDbSpline
 70
8
 71
3
 72
8
 73
4
 74
0
 40
0
 40
0
 40
0
 40
0
 40
1
 40
1
 40
1
 40
1
 10
204.838972
 20
219.762599
 30
0.0
 10
208.167093
 20
222.423794
 30
0.0
 10
209.822673
 20
226.658371
 30
0.0
 10
209.182072
 20
230.871206
 30
0.0
  0
SPLINE
  5
2e5
100
AcDbEntity
  8
Epilog_Laser
 62
7
100
AcDbSpline
 70
8
 71
3
 72
8
 73
4
 74
0
 40
0
 40
0
 40
0
 40
0
 40
1
 40
1
 40
1
 40
1
 10
209.182072
 20
230.871206
 30
0.0
 10
208.541470
 20
235.084041
 30
0.0
 10
205.702008
 20
238.635104
 30
0.0
 10
201.733285
 20
240.186744
 30
0.0
  0
SPLINE
  5
2e6
100
AcDbEntity
  8
Epilog_Laser
 62
7
100
AcDbSpline
 70
8
 71
3
 72
8
 73
4
 74
0
 40
0
 40
0
 40
0
 40
0
 40
1
 40
1
 40
1
 40
1
 10
201.733285
 20
240.186744
 30
0.0
 10
197.764562
 20
241.738384
 30
0.0
 10
193.269520
 20
241.054870
 30
0.0
 10
189.941399
 20
238.393675
 30
0.0
  0
SPLINE
  5
2e7
100
AcDbEntity
  8
Epilog_Laser
 62
7
100
AcDbSpline
 70
8
 71
3
 72
8
 73
4
 74
0
 40
0
 40
0
 40
0
 40
0
 40
1
 40
1
 40
1
 40
1
 10
189.941399
 20
238.393675
 30
0.0
 10
186.613278
 20
235.732480
 30
0.0
 10
184.957698
 20
231.497903
 30
0.0
 10
185.598300
 20
227.285068
 30
0.0
  0
SPLINE
  5
2e8
100
AcDbEntity
  8
Epilog_Laser
 62
7
100
AcDbSpline
 70
8
 71
3
 72
8
 73
4
 74
0
 40
0
 40
0
 40
0
 40
0
 40
1
 40
1
 40
1
 40
1
 10
185.598300
 20
227.285068
 30
0.0
 10
186.238902
 20
223.072233
 30
0.0
 10
189.078363
 20
219.521169
 30
0.0
 10
193.047086
 20
217.969530
 30
0.0
  0
SPLINE
  5
2e9
100
AcDbEntity
  8
Epilog_Laser
 62
7
100
AcDbSpline
 70
8
 71
3
 72
8
 73
4
 74
0
 40
0
 40
0
 40
0
 40
0
 40
1
 40
1
 40
1
 40
1
 10
193.047086
 20
217.969530
 30
0.0
 10
197.015810
 20
216.417890
 30
0.0
 10
201.510851
 20
217.101404
 30
0.0
 10
204.838972
 20
219.762599
 30
0.0
  0
LWPOLYLINE
  5
2ea
100
AcDbEntity
  8
Epilog_Laser
 62
7
100
AcDbPolyline
 90
2
 70
1
 10
231.799302
 20
219.748280
 30
0.0
 10
231.799302
 20
219.748280
 30
0.0
  0
LWPOLYLINE
  5
2eb
100
AcDbEntity
  8
Epilog_Laser
 62
7
100
AcDbPolyline
 90
2
 70
1
 10
204.838972
 20
219.762599
 30
0.0
 10
204.838972
 20
219.762599
 30
0.0
  0
LWPOLYLINE
  5
2ec
100
AcDbEntity
  8
Epilog_Laser
 62
7
100
AcDbPolyline
 90
5
 70
0
 10
820.052333
 20
558.356133
 30
0.0
 10
767.869800
 20
558.356133
 30
0.0
 10
767.869800
 20
593.144489
 30
0.0
 10
820.052333
 20
593.144489
 30
0.0
 10
820.052333
 20
558.356133
 30
0.0
  0
LWPOLYLINE
  5
2ed
100
AcDbEntity
  8
Epilog_Laser
 62
7
100
AcDbPolyline
 90
5
 70
1
 10
526.388889
 20
201.944456
 30
0.0
 10
534.388889
 20
201.944456
 30
0.0
 10
534.388889
 20
120.944456
 30
0.0
 10
526.388889
 20
120.944456
 30
0.0
 10
526.388889
 20
201.944456
 30
0.0
  0
LWPOLYLINE
  5
2ee
100
AcDbEntity
  8
Epilog_Laser
 62
7
100
AcDbPolyline
 90
5
 70
1
 10
526.416622
 20
391.316956
 30
0.0
 10
533.828036
 20
391.316956
 30
0.0
 10
533.828036
 20
247.805522
 30
0.0
 10
526.416622
 20
247.805522
 30
0.0
 10
526.416622
 20
391.316956
 30
0.0
  0
LWPOLYLINE
  5
2ef
100
AcDbEntity
  8
Epilog_Laser
 62
7
100
AcDbPolyline
 90
5
 70
1
 10
533.611844
 20
276.110378
 30
0.0
 10
711.249244
 20
276.110378
 30
0.0
 10
711.249244
 20
268.889641
 30
0.0
 10
533.611844
 20
268.889641
 30
0.0
 10
533.611844
 20
276.110378
 30
0.0
  0
ENDSEC
  0
SECTION
  2
OBJECTS
  0
DICTIONARY
  5
C
330
0
100
AcDbDictionary
  3
ACAD_GROUP
350
D
  3
ACAD_MLINESTYLE
350
17
  0
DICTIONARY
  5
D
330
C
100
AcDbDictionary
  0
DICTIONARY
  5
1A
330
C
100
AcDbDictionary
  0
DICTIONARY
  5
17
330
C
100
AcDbDictionary
  3
STANDARD
350
18
  0
DICTIONARY
  5
19
330
C
100
AcDbDictionary
  0
ENDSEC
  0
EOF
