  0
SECTION
  2
HEADER
  9
$ACADVER
  1
AC1014
  9
$HANDSEED
  5
FFFF
  9
$MEASUREMENT
 70
     1
  0
ENDSEC
  0
SECTION
  2
TABLES
  0
TABLE
  2
VPORT
  5
8
330
0
100
AcDbSymbolTable
 70
     4
  0
VPORT
  5
2E
330
8
100
AcDbSymbolTableRecord
100
AcDbViewportTableRecord
  2
*ACTIVE
 70
     0
 10
0.0
 20
0.0
 11
1.0
 21
1.0
 12
210.0
 22
148.5
 13
0.0
 23
0.0
 14
10.0
 24
10.0
 15
10.0
 25
10.0
 16
0.0
 26
0.0
 36
1.0
 17
0.0
 27
0.0
 37
0.0
 40
341.0
 41
1.24
 42
50.0
 43
0.0
 44
0.0
 50
0.0
 51
0.0
 71
     0
 72
   100
 73
     1
 74
     3
 75
     0
 76
     0
 77
     0
 78
     0
  0
ENDTAB
  0
TABLE
  2
LTYPE
  5
5
330
0
100
AcDbSymbolTable
 70
     1
  0
LTYPE
  5
14
330
5
100
AcDbSymbolTableRecord
100
AcDbLinetypeTableRecord
  2
BYBLOCK
 70
     0
  3

 72
    65
 73
     0
 40
0.0
  0
LTYPE
  5
15
330
5
100
AcDbSymbolTableRecord
100
AcDbLinetypeTableRecord
  2
BYLAYER
 70
     0
  3

 72
    65
 73
     0
 40
0.0
  0
LTYPE
  5
16
330
5
100
AcDbSymbolTableRecord
100
AcDbLinetypeTableRecord
  2
CONTINUOUS
 70
     0
  3
Solid line
 72
    65
 73
     0
 40
0.0
  0
ENDTAB
  0
TABLE
  2
LAYER
  5
2
100
AcDbSymbolTable
 70
22
  0
LAYER
  5
50
100
AcDbSymbolTableRecord
100
AcDbLayerTableRecord
  2
0
 70
0
  6
CONTINUOUS
  0
LAYER
  5
51
100
AcDbSymbolTableRecord
100
AcDbLayerTableRecord
  2
X-REF-PLAN
 70
0
  6
CONTINUOUS
  0
LAYER
  5
52
100
AcDbSymbolTableRecord
100
AcDbLayerTableRecord
  2
MINI-MILL
 70
0
  6
CONTINUOUS
  0
LAYER
  5
53
100
AcDbSymbolTableRecord
100
AcDbLayerTableRecord
  2
ST-10-LATHE
 70
0
  6
CONTINUOUS
  0
LAYER
  5
54
100
AcDbSymbolTableRecord
100
AcDbLayerTableRecord
  2
TL-1_LATHE
 70
0
  6
CONTINUOUS
  0
LAYER
  5
55
100
AcDbSymbolTableRecord
100
AcDbLayerTableRecord
  2
PORTABLE-PNEUMATIC
 70
0
  6
CONTINUOUS
  0
LAYER
  5
56
100
AcDbSymbolTableRecord
100
AcDbLayerTableRecord
  2
WORK_COUNTER
 70
0
  6
CONTINUOUS
  0
LAYER
  5
57
100
AcDbSymbolTableRecord
100
AcDbLayerTableRecord
  2
FLUID_POWER_TRAINER
 70
0
  6
CONTINUOUS
  0
LAYER
  5
58
100
AcDbSymbolTableRecord
100
AcDbLayerTableRecord
  2
PLASMA-CUTTER
 70
0
  6
CONTINUOUS
  0
LAYER
  5
59
100
AcDbSymbolTableRecord
100
AcDbLayerTableRecord
  2
PRESS-BRAKE
 70
0
  6
CONTINUOUS
  0
LAYER
  5
5a
100
AcDbSymbolTableRecord
100
AcDbLayerTableRecord
  2
1-TEXT
 70
0
  6
CONTINUOUS
  0
LAYER
  5
5b
100
AcDbSymbolTableRecord
100
AcDbLayerTableRecord
  2
1AWA-NW
 70
0
  6
CONTINUOUS
  0
LAYER
  5
5c
100
AcDbSymbolTableRecord
100
AcDbLayerTableRecord
  2
HLSSHEET
 70
0
  6
CONTINUOUS
  0
LAYER
  5
5d
100
AcDbSymbolTableRecord
100
AcDbLayerTableRecord
  2
B-RMDRNUM
 70
0
  6
CONTINUOUS
  0
LAYER
  5
5e
100
AcDbSymbolTableRecord
100
AcDbLayerTableRecord
  2
3-A10-NEW
 70
0
  6
CONTINUOUS
  0
LAYER
  5
5f
100
AcDbSymbolTableRecord
100
AcDbLayerTableRecord
  2
EX-1AWA
 70
0
  6
CONTINUOUS
  0
LAYER
  5
60
100
AcDbSymbolTableRecord
100
AcDbLayerTableRecord
  2
EX-1ADO
 70
0
  6
CONTINUOUS
  0
LAYER
  5
61
100
AcDbSymbolTableRecord
100
AcDbLayerTableRecord
  2
EX-1AGL
 70
0
  6
CONTINUOUS
  0
LAYER
  5
62
100
AcDbSymbolTableRecord
100
AcDbLayerTableRecord
  2
EX-1AEQ
 70
0
  6
CONTINUOUS
  0
LAYER
  5
63
100
AcDbSymbolTableRecord
100
AcDbLayerTableRecord
  2
EX-1-TXT
 70
0
  6
CONTINUOUS
  0
LAYER
  5
64
100
AcDbSymbolTableRecord
100
AcDbLayerTableRecord
  2
Defpoints
 70
0
  6
CONTINUOUS
  0
LAYER
  5
65
100
AcDbSymbolTableRecord
100
AcDbLayerTableRecord
  2
Epilog_Laser
 70
0
  6
CONTINUOUS
  0
ENDTAB
  0
TABLE
  2
STYLE
  5
3
330
0
100
AcDbSymbolTable
 70
     1
  0
STYLE
  5
11
330
3
100
AcDbSymbolTableRecord
100
AcDbTextStyleTableRecord
  2
STANDARD
 70
     0
 40
0.0
 41
1.0
 50
0.0
 71
     0
 42
2.5
  3
txt
  4

  0
ENDTAB
  0
TABLE
  2
VIEW
  5
6
330
0
100
AcDbSymbolTable
 70
     0
  0
ENDTAB
  0
TABLE
  2
UCS
  5
7
330
0
100
AcDbSymbolTable
 70
     0
  0
ENDTAB
  0
TABLE
  2
APPID
  5
9
330
0
100
AcDbSymbolTable
 70
     2
  0
APPID
  5
12
330
9
100
AcDbSymbolTableRecord
100
AcDbRegAppTableRecord
  2
ACAD
 70
     0
  0
ENDTAB
  0
TABLE
  2
DIMSTYLE
  5
A
330
0
100
AcDbSymbolTable
 70
     1
  0
DIMSTYLE
105
27
330
A
100
AcDbSymbolTableRecord
100
AcDbDimStyleTableRecord
  2
ISO-25
 70
     0
  3

  4

  5

  6

  7

 40
1.0
 41
2.5
 42
0.625
 43
3.75
 44
1.25
 45
0.0
 46
0.0
 47
0.0
 48
0.0
140
2.5
141
2.5
142
0.0
143
0.03937007874016
144
1.0
145
0.0
146
1.0
147
0.625
 71
     0
 72
     0
 73
     0
 74
     0
 75
     0
 76
     0
 77
     1
 78
     8
170
     0
171
     3
172
     1
173
     0
174
     0
175
     0
176
     0
177
     0
178
     0
270
     2
271
     2
272
     2
273
     2
274
     3
340
11
275
     0
280
     0
281
     0
282
     0
283
     0
284
     8
285
     0
286
     0
287
     3
288
     0
  0
ENDTAB
  0
TABLE
  2
BLOCK_RECORD
  5
1
330
0
100
AcDbSymbolTable
 70
     1
  0
BLOCK_RECORD
  5
1F
330
1
100
AcDbSymbolTableRecord
100
AcDbBlockTableRecord
  2
*MODEL_SPACE
  0
BLOCK_RECORD
  5
1B
330
1
100
AcDbSymbolTableRecord
100
AcDbBlockTableRecord
  2
*PAPER_SPACE
  0
ENDTAB
  0
ENDSEC
  0
SECTION
  2
BLOCKS
  0
BLOCK
  5
20
330
1F
100
AcDbEntity
  8
0
100
AcDbBlockBegin
  2
*MODEL_SPACE
 70
     0
 10
0.0
 20
0.0
 30
0.0
  3
*MODEL_SPACE
  1

  0
ENDBLK
  5
21
330
1F
100
AcDbEntity
  8
0
100
AcDbBlockEnd
  0
BLOCK
  5
1C
330
1B
100
AcDbEntity
 67
     1
  8
0
100
AcDbBlockBegin
  2
*PAPER_SPACE
  1

  0
ENDBLK
  5
1D
330
1B
100
AcDbEntity
 67
     1
  8
0
100
AcDbBlockEnd
  0
ENDSEC
  0
SECTION
  2
ENTITIES
  0
LWPOLYLINE
  5
100
100
AcDbEntity
  8
Epilog_Laser
 62
7
100
AcDbPolyline
 90
2
 70
0
 10
42378.720311
 20
17580.596453
 30
0.0
 10
1025.118064
 20
17580.587987
 30
0.0
  0
LWPOLYLINE
  5
101
100
AcDbEntity
  8
Epilog_Laser
 62
7
100
AcDbPolyline
 90
2
 70
0
 10
15488.927338
 20
12810.088680
 30
0.0
 10
15722.093976
 20
12810.749362
 30
0.0
  0
LWPOLYLINE
  5
102
100
AcDbEntity
  8
Epilog_Laser
 62
7
100
AcDbPolyline
 90
3
 70
0
 10
15722.093976
 20
12810.786898
 30
0.0
 10
15722.002536
 20
12841.467276
 30
0.0
 10
15488.835898
 20
12840.806593
 30
0.0
  0
LWPOLYLINE
  5
103
100
AcDbEntity
  8
Epilog_Laser
 62
7
100
AcDbPolyline
 90
2
 70
0
 10
8902.761524
 20
9833.389867
 30
0.0
 10
8931.195413
 20
9810.003522
 30
0.0
  0
LWPOLYLINE
  5
104
100
AcDbEntity
  8
Epilog_Laser
 62
7
100
AcDbPolyline
 90
2
 70
0
 10
7537.006911
 20
9757.049884
 30
0.0
 10
7513.620567
 20
9728.615996
 30
0.0
  0
LWPOLYLINE
  5
105
100
AcDbEntity
  8
Epilog_Laser
 62
7
100
AcDbPolyline
 90
2
 70
0
 10
1025.114988
 20
118.062335
 30
0.0
 10
1025.118092
 20
5033.126840
 30
0.0
  0
LWPOLYLINE
  5
106
100
AcDbEntity
  8
Epilog_Laser
 62
7
100
AcDbPolyline
 90
2
 70
0
 10
1025.118064
 20
8062.694342
 30
0.0
 10
1025.118064
 20
10486.348796
 30
0.0
  0
LWPOLYLINE
  5
107
100
AcDbEntity
  8
Epilog_Laser
 62
7
100
AcDbPolyline
 90
2
 70
0
 10
1025.118064
 20
11647.683362
 30
0.0
 10
1025.118064
 20
12228.350787
 30
0.0
  0
LWPOLYLINE
  5
108
100
AcDbEntity
  8
Epilog_Laser
 62
7
100
AcDbPolyline
 90
2
 70
0
 10
1025.118064
 20
13743.134538
 30
0.0
 10
1025.118064
 20
14954.961200
 30
0.0
  0
LWPOLYLINE
  5
109
100
AcDbEntity
  8
Epilog_Laser
 62
7
100
AcDbPolyline
 90
2
 70
0
 10
1025.118064
 20
16469.744951
 30
0.0
 10
1025.118064
 20
17580.586576
 30
0.0
  0
LWPOLYLINE
  5
10a
100
AcDbEntity
  8
Epilog_Laser
 62
7
100
AcDbPolyline
 90
2
 70
0
 10
1429.054377
 20
8062.694342
 30
0.0
 10
1429.060586
 20
8647.398956
 30
0.0
  0
LWPOLYLINE
  5
10b
100
AcDbEntity
  8
Epilog_Laser
 62
7
100
AcDbPolyline
 90
2
 70
0
 10
1429.060529
 20
8849.369596
 30
0.0
 10
1429.060529
 20
10061.197387
 30
0.0
  0
LWPOLYLINE
  5
10c
100
AcDbEntity
  8
Epilog_Laser
 62
7
100
AcDbPolyline
 90
2
 70
0
 10
1429.060529
 20
10263.168027
 30
0.0
 10
1429.060529
 20
10486.348796
 30
0.0
  0
LWPOLYLINE
  5
10d
100
AcDbEntity
  8
Epilog_Laser
 62
7
100
AcDbPolyline
 90
2
 70
0
 10
1429.060529
 20
11647.683362
 30
0.0
 10
1429.060529
 20
12228.350787
 30
0.0
  0
LWPOLYLINE
  5
10e
100
AcDbEntity
  8
Epilog_Laser
 62
7
100
AcDbPolyline
 90
2
 70
0
 10
1429.060529
 20
13743.134538
 30
0.0
 10
1429.060529
 20
14954.961200
 30
0.0
  0
LWPOLYLINE
  5
10f
100
AcDbEntity
  8
Epilog_Laser
 62
7
100
AcDbPolyline
 90
2
 70
0
 10
1429.060529
 20
16469.744951
 30
0.0
 10
1429.060529
 20
17176.654044
 30
0.0
  0
LWPOLYLINE
  5
110
100
AcDbEntity
  8
Epilog_Laser
 62
7
100
AcDbPolyline
 90
2
 70
0
 10
25540.949680
 20
17176.654044
 30
0.0
 10
1429.060529
 20
17176.654044
 30
0.0
  0
LWPOLYLINE
  5
111
100
AcDbEntity
  8
Epilog_Laser
 62
7
100
AcDbPolyline
 90
2
 70
0
 10
1429.060529
 20
10263.168027
 30
0.0
 10
6000.036260
 20
10263.168027
 30
0.0
  0
LWPOLYLINE
  5
112
100
AcDbEntity
  8
Epilog_Laser
 62
7
100
AcDbPolyline
 90
2
 70
0
 10
1429.060529
 20
10061.197387
 30
0.0
 10
5798.065056
 20
10061.197387
 30
0.0
  0
LWPOLYLINE
  5
113
100
AcDbEntity
  8
Epilog_Laser
 62
7
100
AcDbPolyline
 90
2
 70
0
 10
19656.953038
 20
10132.901869
 30
0.0
 10
23117.094567
 20
10132.904691
 30
0.0
  0
LWPOLYLINE
  5
114
100
AcDbEntity
  8
Epilog_Laser
 62
7
100
AcDbPolyline
 90
2
 70
0
 10
23319.066336
 20
11951.348547
 30
0.0
 10
25742.921449
 20
11951.348547
 30
0.0
  0
LWPOLYLINE
  5
115
100
AcDbEntity
  8
Epilog_Laser
 62
7
100
AcDbPolyline
 90
2
 70
0
 10
25742.921449
 20
17176.654044
 30
0.0
 10
25742.921449
 20
13617.610842
 30
0.0
  0
LWPOLYLINE
  5
116
100
AcDbEntity
  8
Epilog_Laser
 62
7
100
AcDbPolyline
 90
2
 70
0
 10
25742.921449
 20
13466.132298
 30
0.0
 10
25742.921449
 20
13112.683396
 30
0.0
  0
LWPOLYLINE
  5
117
100
AcDbEntity
  8
Epilog_Laser
 62
7
100
AcDbPolyline
 90
2
 70
0
 10
25742.921449
 20
12203.812411
 30
0.0
 10
25742.921449
 20
11951.348547
 30
0.0
  0
LWPOLYLINE
  5
118
100
AcDbEntity
  8
Epilog_Laser
 62
7
100
AcDbPolyline
 90
2
 70
0
 10
25742.921449
 20
13112.683396
 30
0.0
 10
25540.949680
 20
13112.683396
 30
0.0
  0
LWPOLYLINE
  5
119
100
AcDbEntity
  8
Epilog_Laser
 62
7
100
AcDbPolyline
 90
2
 70
0
 10
25742.921449
 20
12203.812411
 30
0.0
 10
25540.949680
 20
12203.812411
 30
0.0
  0
LWPOLYLINE
  5
11a
100
AcDbEntity
  8
Epilog_Laser
 62
7
100
AcDbPolyline
 90
2
 70
0
 10
25540.949680
 20
17169.293971
 30
0.0
 10
25540.949680
 20
13112.683396
 30
0.0
  0
LWPOLYLINE
  5
11b
100
AcDbEntity
  8
Epilog_Laser
 62
7
100
AcDbPolyline
 90
2
 70
0
 10
25540.949680
 20
12203.812411
 30
0.0
 10
25540.949680
 20
12102.823704
 30
0.0
  0
LWPOLYLINE
  5
11c
100
AcDbEntity
  8
Epilog_Laser
 62
7
100
AcDbPolyline
 90
5
 70
0
 10
7565.312953
 20
10334.873638
 30
0.0
 10
7565.312953
 20
9930.931511
 30
0.0
 10
7161.370827
 20
9930.931511
 30
0.0
 10
7161.370827
 20
10334.873638
 30
0.0
 10
7565.312953
 20
10334.873638
 30
0.0
  0
LWPOLYLINE
  5
11d
100
AcDbEntity
  8
Epilog_Laser
 62
7
100
AcDbPolyline
 90
2
 70
0
 10
13624.449087
 20
10334.873638
 30
0.0
 10
13624.449087
 20
10263.168027
 30
0.0
  0
LWPOLYLINE
  5
11e
100
AcDbEntity
  8
Epilog_Laser
 62
7
100
AcDbPolyline
 90
2
 70
0
 10
13372.869707
 20
9930.931511
 30
0.0
 10
13220.506678
 20
9930.931511
 30
0.0
  0
LWPOLYLINE
  5
11f
100
AcDbEntity
  8
Epilog_Laser
 62
7
100
AcDbPolyline
 90
2
 70
0
 10
19656.953038
 20
9930.931511
 30
0.0
 10
19253.009500
 20
9930.931511
 30
0.0
  0
LWPOLYLINE
  5
120
100
AcDbEntity
  8
Epilog_Laser
 62
7
100
AcDbPolyline
 90
2
 70
0
 10
13220.506678
 20
9930.931511
 30
0.0
 10
13220.506678
 20
10334.873638
 30
0.0
  0
LWPOLYLINE
  5
121
100
AcDbEntity
  8
Epilog_Laser
 62
7
100
AcDbPolyline
 90
2
 70
0
 10
19253.009500
 20
9930.931511
 30
0.0
 10
19253.009500
 20
10132.901869
 30
0.0
  0
LWPOLYLINE
  5
122
100
AcDbEntity
  8
Epilog_Laser
 62
7
100
AcDbPolyline
 90
2
 70
0
 10
13220.506678
 20
10334.873638
 30
0.0
 10
13624.449087
 20
10334.873638
 30
0.0
  0
LWPOLYLINE
  5
123
100
AcDbEntity
  8
Epilog_Laser
 62
7
100
AcDbPolyline
 90
4
 70
0
 10
7538.681053
 20
2743.687511
 30
0.0
 10
7538.681053
 20
2659.974191
 30
0.0
 10
7134.739209
 20
2659.974191
 30
0.0
 10
7134.739209
 20
2743.687511
 30
0.0
  0
LWPOLYLINE
  5
124
100
AcDbEntity
  8
Epilog_Laser
 62
7
100
AcDbPolyline
 90
2
 70
0
 10
7538.681053
 20
3063.916430
 30
0.0
 10
7538.681053
 20
2945.659195
 30
0.0
  0
LWPOLYLINE
  5
125
100
AcDbEntity
  8
Epilog_Laser
 62
7
100
AcDbPolyline
 90
2
 70
0
 10
7134.739209
 20
2945.659195
 30
0.0
 10
7134.739209
 20
3063.916430
 30
0.0
  0
LWPOLYLINE
  5
126
100
AcDbEntity
  8
Epilog_Laser
 62
7
100
AcDbPolyline
 90
2
 70
0
 10
7139.728333
 20
3063.916430
 30
0.0
 10
7543.670178
 20
3063.916430
 30
0.0
  0
LWPOLYLINE
  5
127
100
AcDbEntity
  8
Epilog_Laser
 62
7
100
AcDbPolyline
 90
2
 70
0
 10
1429.060529
 20
8849.369596
 30
0.0
 10
4030.817158
 20
8849.369596
 30
0.0
  0
LWPOLYLINE
  5
128
100
AcDbEntity
  8
Epilog_Laser
 62
7
100
AcDbPolyline
 90
3
 70
0
 10
5040.673180
 20
8849.369596
 30
0.0
 10
5798.065056
 20
8849.369596
 30
0.0
 10
5798.065056
 20
10061.197387
 30
0.0
  0
LWPOLYLINE
  5
129
100
AcDbEntity
  8
Epilog_Laser
 62
7
100
AcDbPolyline
 90
2
 70
0
 10
6000.036260
 20
8641.913402
 30
0.0
 10
6000.036260
 20
10143.247853
 30
0.0
  0
LWPOLYLINE
  5
12a
100
AcDbEntity
  8
Epilog_Laser
 62
7
100
AcDbPolyline
 90
2
 70
0
 10
1429.054377
 20
2945.659195
 30
0.0
 10
7134.739209
 20
2945.659195
 30
0.0
  0
LWPOLYLINE
  5
12b
100
AcDbEntity
  8
Epilog_Laser
 62
7
100
AcDbPolyline
 90
2
 70
0
 10
7538.681053
 20
2945.659195
 30
0.0
 10
13193.874778
 20
2945.659195
 30
0.0
  0
LWPOLYLINE
  5
12c
100
AcDbEntity
  8
Epilog_Laser
 62
7
100
AcDbPolyline
 90
2
 70
0
 10
1429.054377
 20
2743.687511
 30
0.0
 10
7134.739209
 20
2743.687511
 30
0.0
  0
LWPOLYLINE
  5
12d
100
AcDbEntity
  8
Epilog_Laser
 62
7
100
AcDbPolyline
 90
2
 70
0
 10
7538.681053
 20
2743.687511
 30
0.0
 10
13193.874778
 20
2743.687511
 30
0.0
  0
LWPOLYLINE
  5
12e
100
AcDbEntity
  8
Epilog_Laser
 62
7
100
AcDbPolyline
 90
2
 70
0
 10
13661.967709
 20
2914.325614
 30
0.0
 10
13661.967709
 20
1722.767502
 30
0.0
  0
LWPOLYLINE
  5
12f
100
AcDbEntity
  8
Epilog_Laser
 62
7
100
AcDbPolyline
 90
2
 70
0
 10
13459.995940
 20
2659.973090
 30
0.0
 10
13459.995940
 20
1722.767502
 30
0.0
  0
LWPOLYLINE
  5
130
100
AcDbEntity
  8
Epilog_Laser
 62
7
100
AcDbPolyline
 90
2
 70
0
 10
13574.840064
 20
3116.297298
 30
0.0
 10
18068.856702
 20
3116.297298
 30
0.0
  0
LWPOLYLINE
  5
131
100
AcDbEntity
  8
Epilog_Laser
 62
7
100
AcDbPolyline
 90
2
 70
0
 10
13661.967709
 20
2914.325614
 30
0.0
 10
18270.825084
 20
2914.325614
 30
0.0
  0
LWPOLYLINE
  5
132
100
AcDbEntity
  8
Epilog_Laser
 62
7
100
AcDbPolyline
 90
2
 70
0
 10
18068.853316
 20
3116.295097
 30
0.0
 10
18067.862151
 20
8656.159980
 30
0.0
  0
LWPOLYLINE
  5
133
100
AcDbEntity
  8
Epilog_Laser
 62
7
100
AcDbPolyline
 90
2
 70
0
 10
18270.825084
 20
2914.325614
 30
0.0
 10
18269.723853
 20
8857.648020
 30
0.0
  0
LWPOLYLINE
  5
134
100
AcDbEntity
  8
Epilog_Laser
 62
7
100
AcDbPolyline
 90
2
 70
0
 10
16553.031269
 20
8858.134853
 30
0.0
 10
17764.857931
 20
8857.804653
 30
0.0
  0
LWPOLYLINE
  5
135
100
AcDbEntity
  8
Epilog_Laser
 62
7
100
AcDbPolyline
 90
2
 70
0
 10
17966.829700
 20
8857.734098
 30
0.0
 10
18269.748971
 20
8857.648020
 30
0.0
  0
LWPOLYLINE
  5
136
100
AcDbEntity
  8
Epilog_Laser
 62
7
100
AcDbPolyline
 90
2
 70
0
 10
16351.059500
 20
8656.159980
 30
0.0
 10
18072.117780
 20
8656.159980
 30
0.0
  0
LWPOLYLINE
  5
137
100
AcDbEntity
  8
Epilog_Laser
 62
7
100
AcDbPolyline
 90
2
 70
0
 10
19656.953038
 20
9930.931511
 30
0.0
 10
19656.953038
 20
10132.901869
 30
0.0
  0
LWPOLYLINE
  5
138
100
AcDbEntity
  8
Epilog_Laser
 62
7
100
AcDbPolyline
 90
2
 70
0
 10
1075.610921
 20
11647.683362
 30
0.0
 10
1025.118064
 20
11647.683362
 30
0.0
  0
LWPOLYLINE
  5
139
100
AcDbEntity
  8
Epilog_Laser
 62
7
100
AcDbPolyline
 90
2
 70
0
 10
1075.610921
 20
11647.683362
 30
0.0
 10
1075.610921
 20
11597.190420
 30
0.0
  0
LWPOLYLINE
  5
13a
100
AcDbEntity
  8
Epilog_Laser
 62
7
100
AcDbPolyline
 90
2
 70
0
 10
1075.610921
 20
10536.838633
 30
0.0
 10
1075.610921
 20
10486.345409
 30
0.0
  0
LWPOLYLINE
  5
13b
100
AcDbEntity
  8
Epilog_Laser
 62
7
100
AcDbPolyline
 90
2
 70
0
 10
1277.582041
 20
11647.683362
 30
0.0
 10
1277.582041
 20
11597.190420
 30
0.0
  0
LWPOLYLINE
  5
13c
100
AcDbEntity
  8
Epilog_Laser
 62
7
100
AcDbPolyline
 90
2
 70
0
 10
1277.582041
 20
10536.838633
 30
0.0
 10
1277.582041
 20
10486.348796
 30
0.0
  0
LWPOLYLINE
  5
13d
100
AcDbEntity
  8
Epilog_Laser
 62
7
100
AcDbPolyline
 90
2
 70
0
 10
1277.582041
 20
11597.190420
 30
0.0
 10
1075.610921
 20
11597.190420
 30
0.0
  0
LWPOLYLINE
  5
13e
100
AcDbEntity
  8
Epilog_Laser
 62
7
100
AcDbPolyline
 90
2
 70
0
 10
1277.582041
 20
10536.838633
 30
0.0
 10
1075.610921
 20
10536.838633
 30
0.0
  0
LWPOLYLINE
  5
13f
100
AcDbEntity
  8
Epilog_Laser
 62
7
100
AcDbPolyline
 90
2
 70
0
 10
1429.060529
 20
11647.683362
 30
0.0
 10
1277.582041
 20
11647.683362
 30
0.0
  0
LWPOLYLINE
  5
140
100
AcDbEntity
  8
Epilog_Laser
 62
7
100
AcDbPolyline
 90
2
 70
0
 10
1429.060529
 20
10486.348796
 30
0.0
 10
1277.582041
 20
10486.348796
 30
0.0
  0
LWPOLYLINE
  5
141
100
AcDbEntity
  8
Epilog_Laser
 62
7
100
AcDbPolyline
 90
2
 70
0
 10
1075.610921
 20
10486.345409
 30
0.0
 10
1025.118064
 20
10486.345409
 30
0.0
  0
LWPOLYLINE
  5
142
100
AcDbEntity
  8
Epilog_Laser
 62
7
100
AcDbPolyline
 90
2
 70
0
 10
1429.054377
 20
5033.126840
 30
0.0
 10
1353.315133
 20
5033.126840
 30
0.0
  0
LWPOLYLINE
  5
143
100
AcDbEntity
  8
Epilog_Laser
 62
7
100
AcDbPolyline
 90
2
 70
0
 10
1201.836758
 20
5033.126840
 30
0.0
 10
1025.118064
 20
5033.126840
 30
0.0
  0
LWPOLYLINE
  5
144
100
AcDbEntity
  8
Epilog_Laser
 62
7
100
AcDbPolyline
 90
2
 70
0
 10
1429.054377
 20
8062.694342
 30
0.0
 10
1353.315133
 20
8062.694342
 30
0.0
  0
LWPOLYLINE
  5
145
100
AcDbEntity
  8
Epilog_Laser
 62
7
100
AcDbPolyline
 90
2
 70
0
 10
1201.836758
 20
8062.694342
 30
0.0
 10
1025.118064
 20
8062.694342
 30
0.0
  0
LWPOLYLINE
  5
146
100
AcDbEntity
  8
Epilog_Laser
 62
7
100
AcDbPolyline
 90
2
 70
0
 10
6000.036260
 20
8849.369596
 30
0.0
 10
6000.036260
 20
8641.913402
 30
0.0
  0
LWPOLYLINE
  5
147
100
AcDbEntity
  8
Epilog_Laser
 62
7
100
AcDbPolyline
 90
2
 70
0
 10
1429.060529
 20
8647.398956
 30
0.0
 10
4030.817158
 20
8644.161020
 30
0.0
  0
LWPOLYLINE
  5
148
100
AcDbEntity
  8
Epilog_Laser
 62
7
100
AcDbPolyline
 90
2
 70
0
 10
5040.673180
 20
8643.065433
 30
0.0
 10
6000.036260
 20
8641.908887
 30
0.0
  0
LWPOLYLINE
  5
149
100
AcDbEntity
  8
Epilog_Laser
 62
7
100
AcDbPolyline
 90
2
 70
0
 10
13372.869707
 20
9930.931511
 30
0.0
 10
13372.869707
 20
3063.915330
 30
0.0
  0
LWPOLYLINE
  5
14a
100
AcDbEntity
  8
Epilog_Laser
 62
7
100
AcDbPolyline
 90
2
 70
0
 10
13574.840064
 20
9930.931511
 30
0.0
 10
13574.840064
 20
3116.297298
 30
0.0
  0
LWPOLYLINE
  5
14b
100
AcDbEntity
  8
Epilog_Laser
 62
7
100
AcDbPolyline
 90
2
 70
0
 10
13624.449087
 20
10263.168027
 30
0.0
 10
16212.204191
 20
10263.165204
 30
0.0
  0
LWPOLYLINE
  5
14c
100
AcDbEntity
  8
Epilog_Laser
 62
7
100
AcDbPolyline
 90
2
 70
0
 10
16313.190640
 20
10263.164640
 30
0.0
 10
16452.045949
 20
10263.164640
 30
0.0
  0
LWPOLYLINE
  5
14d
100
AcDbEntity
  8
Epilog_Laser
 62
7
100
AcDbPolyline
 90
2
 70
0
 10
16553.031269
 20
10334.870251
 30
0.0
 10
16553.031269
 20
10334.873073
 30
0.0
  0
LWPOLYLINE
  5
14e
100
AcDbEntity
  8
Epilog_Laser
 62
7
100
AcDbPolyline
 90
2
 70
0
 10
16351.059500
 20
9867.987771
 30
0.0
 10
16351.059500
 20
10061.200773
 30
0.0
  0
LWPOLYLINE
  5
14f
100
AcDbEntity
  8
Epilog_Laser
 62
7
100
AcDbPolyline
 90
2
 70
0
 10
16553.031269
 20
9867.987771
 30
0.0
 10
16351.059500
 20
9867.987771
 30
0.0
  0
LWPOLYLINE
  5
150
100
AcDbEntity
  8
Epilog_Laser
 62
7
100
AcDbPolyline
 90
2
 70
0
 10
16553.031269
 20
9867.987771
 30
0.0
 10
16553.031269
 20
10132.905256
 30
0.0
  0
LWPOLYLINE
  5
151
100
AcDbEntity
  8
Epilog_Laser
 62
7
100
AcDbPolyline
 90
2
 70
0
 10
16351.059500
 20
8656.159980
 30
0.0
 10
16351.059500
 20
8959.116787
 30
0.0
  0
LWPOLYLINE
  5
152
100
AcDbEntity
  8
Epilog_Laser
 62
7
100
AcDbPolyline
 90
3
 70
0
 10
16553.031269
 20
8858.134853
 30
0.0
 10
16553.031269
 20
8959.116787
 30
0.0
 10
16351.059500
 20
8959.116787
 30
0.0
  0
LWPOLYLINE
  5
153
100
AcDbEntity
  8
Epilog_Laser
 62
7
100
AcDbPolyline
 90
3
 70
0
 10
16553.031269
 20
10132.905256
 30
0.0
 10
16553.031269
 20
10290.534551
 30
0.0
 10
16553.031269
 20
10334.873638
 30
0.0
  0
LWPOLYLINE
  5
154
100
AcDbEntity
  8
Epilog_Laser
 62
7
100
AcDbPolyline
 90
2
 70
0
 10
1201.836758
 20
5033.126840
 30
0.0
 10
1353.315133
 20
5033.126840
 30
0.0
  0
LWPOLYLINE
  5
155
100
AcDbEntity
  8
Epilog_Laser
 62
7
100
AcDbPolyline
 90
2
 70
0
 10
1201.836758
 20
8062.694342
 30
0.0
 10
1353.315133
 20
8062.694342
 30
0.0
  0
LWPOLYLINE
  5
156
100
AcDbEntity
  8
Epilog_Laser
 62
7
100
AcDbPolyline
 90
2
 70
0
 10
23117.094567
 20
12102.823704
 30
0.0
 10
25540.949680
 20
12102.823704
 30
0.0
  0
LWPOLYLINE
  5
157
100
AcDbEntity
  8
Epilog_Laser
 62
7
100
AcDbPolyline
 90
2
 70
0
 10
13624.449087
 20
10061.197387
 30
0.0
 10
13624.449087
 20
9930.931511
 30
0.0
  0
LWPOLYLINE
  5
158
100
AcDbEntity
  8
Epilog_Laser
 62
7
100
AcDbPolyline
 90
2
 70
0
 10
13624.449087
 20
10061.197387
 30
0.0
 10
16351.059500
 20
10061.200209
 30
0.0
  0
LWPOLYLINE
  5
159
100
AcDbEntity
  8
Epilog_Laser
 62
7
100
AcDbPolyline
 90
2
 70
0
 10
13624.449087
 20
9930.931511
 30
0.0
 10
13574.840064
 20
9930.931511
 30
0.0
  0
LWPOLYLINE
  5
15a
100
AcDbEntity
  8
Epilog_Laser
 62
7
100
AcDbPolyline
 90
2
 70
0
 10
1429.056691
 20
118.062335
 30
0.0
 10
1429.056691
 20
1329.889080
 30
0.0
  0
LWPOLYLINE
  5
15b
100
AcDbEntity
  8
Epilog_Laser
 62
7
100
AcDbPolyline
 90
2
 70
0
 10
1429.055477
 20
1531.860764
 30
0.0
 10
1429.055477
 20
2743.687511
 30
0.0
  0
LWPOLYLINE
  5
15c
100
AcDbEntity
  8
Epilog_Laser
 62
7
100
AcDbPolyline
 90
2
 70
0
 10
1429.054377
 20
2945.659195
 30
0.0
 10
1429.054377
 20
5033.126840
 30
0.0
  0
LWPOLYLINE
  5
15d
100
AcDbEntity
  8
Epilog_Laser
 62
7
100
AcDbPolyline
 90
2
 70
0
 10
23117.094567
 20
10334.873638
 30
0.0
 10
23117.094567
 20
11982.900144
 30
0.0
  0
LWPOLYLINE
  5
15e
100
AcDbEntity
  8
Epilog_Laser
 62
7
100
AcDbPolyline
 90
3
 70
0
 10
5798.065056
 20
8849.369596
 30
0.0
 10
5040.673180
 20
8849.369596
 30
0.0
 10
5040.673180
 20
8643.065433
 30
0.0
  0
LWPOLYLINE
  5
15f
100
AcDbEntity
  8
Epilog_Laser
 62
7
100
AcDbPolyline
 90
2
 70
0
 10
4030.817158
 20
8849.369596
 30
0.0
 10
4030.817158
 20
8644.156787
 30
0.0
  0
LWPOLYLINE
  5
160
100
AcDbEntity
  8
Epilog_Laser
 62
7
100
AcDbPolyline
 90
2
 70
0
 10
17966.829700
 20
8857.734098
 30
0.0
 10
17966.829700
 20
10132.901869
 30
0.0
  0
LWPOLYLINE
  5
161
100
AcDbEntity
  8
Epilog_Laser
 62
7
100
AcDbPolyline
 90
2
 70
0
 10
23117.094567
 20
10334.873638
 30
0.0
 10
18187.735193
 20
10334.873638
 30
0.0
  0
LWPOLYLINE
  5
162
100
AcDbEntity
  8
Epilog_Laser
 62
7
100
AcDbPolyline
 90
2
 70
0
 10
19253.009500
 20
10132.901869
 30
0.0
 10
17966.829700
 20
10132.901869
 30
0.0
  0
LWPOLYLINE
  5
163
100
AcDbEntity
  8
Epilog_Laser
 62
7
100
AcDbPolyline
 90
2
 70
0
 10
1126.103694
 20
6042.982862
 30
0.0
 10
1126.103694
 20
5992.489638
 30
0.0
  0
LWPOLYLINE
  5
164
100
AcDbEntity
  8
Epilog_Laser
 62
7
100
AcDbPolyline
 90
2
 70
0
 10
1126.103694
 20
5083.618936
 30
0.0
 10
1126.103694
 20
5033.126840
 30
0.0
  0
LWPOLYLINE
  5
165
100
AcDbEntity
  8
Epilog_Laser
 62
7
100
AcDbPolyline
 90
2
 70
0
 10
1227.089296
 20
6042.982862
 30
0.0
 10
1227.089296
 20
5992.489638
 30
0.0
  0
LWPOLYLINE
  5
166
100
AcDbEntity
  8
Epilog_Laser
 62
7
100
AcDbPolyline
 90
2
 70
0
 10
1227.089296
 20
5083.618936
 30
0.0
 10
1227.089296
 20
5033.126840
 30
0.0
  0
LWPOLYLINE
  5
167
100
AcDbEntity
  8
Epilog_Laser
 62
7
100
AcDbPolyline
 90
2
 70
0
 10
1227.089296
 20
6951.852718
 30
0.0
 10
1227.089296
 20
8062.694342
 30
0.0
  0
LWPOLYLINE
  5
168
100
AcDbEntity
  8
Epilog_Laser
 62
7
100
AcDbPolyline
 90
2
 70
0
 10
1126.103694
 20
8062.694342
 30
0.0
 10
1126.103694
 20
6951.852718
 30
0.0
  0
LWPOLYLINE
  5
169
100
AcDbEntity
  8
Epilog_Laser
 62
7
100
AcDbPolyline
 90
2
 70
0
 10
13459.995940
 20
1722.767502
 30
0.0
 10
13459.995940
 20
1531.860764
 30
0.0
  0
LWPOLYLINE
  5
16a
100
AcDbEntity
  8
Epilog_Laser
 62
7
100
AcDbPolyline
 90
2
 70
0
 10
17764.857931
 20
8857.792518
 30
0.0
 10
17764.857931
 20
10334.873638
 30
0.0
  0
LWPOLYLINE
  5
16b
100
AcDbEntity
  8
Epilog_Laser
 62
7
100
AcDbPolyline
 90
2
 70
0
 10
18067.814738
 20
10334.873638
 30
0.0
 10
17764.857931
 20
10334.873638
 30
0.0
  0
LWPOLYLINE
  5
16c
100
AcDbEntity
  8
Epilog_Laser
 62
7
100
AcDbPolyline
 90
2
 70
0
 10
6000.036260
 20
10263.168027
 30
0.0
 10
6126.268333
 20
10263.168027
 30
0.0
  0
LWPOLYLINE
  5
16d
100
AcDbEntity
  8
Epilog_Laser
 62
7
100
AcDbPolyline
 90
2
 70
0
 10
7035.138753
 20
10263.168027
 30
0.0
 10
7161.370827
 20
10263.168027
 30
0.0
  0
LWPOLYLINE
  5
16e
100
AcDbEntity
  8
Epilog_Laser
 62
7
100
AcDbPolyline
 90
2
 70
0
 10
6126.268333
 20
10263.168027
 30
0.0
 10
6126.268333
 20
10143.247853
 30
0.0
  0
LWPOLYLINE
  5
16f
100
AcDbEntity
  8
Epilog_Laser
 62
7
100
AcDbPolyline
 90
2
 70
0
 10
7035.138753
 20
10263.168027
 30
0.0
 10
7035.138753
 20
10143.247853
 30
0.0
  0
LWPOLYLINE
  5
170
100
AcDbEntity
  8
Epilog_Laser
 62
7
100
AcDbPolyline
 90
2
 70
0
 10
6000.036260
 20
10143.247853
 30
0.0
 10
6126.268333
 20
10143.247853
 30
0.0
  0
LWPOLYLINE
  5
171
100
AcDbEntity
  8
Epilog_Laser
 62
7
100
AcDbPolyline
 90
2
 70
0
 10
7035.138753
 20
10143.247853
 30
0.0
 10
7161.370827
 20
10143.247853
 30
0.0
  0
LWPOLYLINE
  5
172
100
AcDbEntity
  8
Epilog_Laser
 62
7
100
AcDbPolyline
 90
2
 70
0
 10
7565.312953
 20
10263.168027
 30
0.0
 10
7666.298273
 20
10263.168027
 30
0.0
  0
LWPOLYLINE
  5
173
100
AcDbEntity
  8
Epilog_Laser
 62
7
100
AcDbPolyline
 90
2
 70
0
 10
10342.416591
 20
10263.168027
 30
0.0
 10
13220.506678
 20
10263.168027
 30
0.0
  0
LWPOLYLINE
  5
174
100
AcDbEntity
  8
Epilog_Laser
 62
7
100
AcDbPolyline
 90
2
 70
0
 10
7565.312953
 20
10143.247853
 30
0.0
 10
7666.298273
 20
10143.247853
 30
0.0
  0
LWPOLYLINE
  5
175
100
AcDbEntity
  8
Epilog_Laser
 62
7
100
AcDbPolyline
 90
2
 70
0
 10
10342.416591
 20
10143.247853
 30
0.0
 10
13220.506678
 20
10143.247853
 30
0.0
  0
LWPOLYLINE
  5
176
100
AcDbEntity
  8
Epilog_Laser
 62
7
100
AcDbPolyline
 90
2
 70
0
 10
23117.094567
 20
12102.823704
 30
0.0
 10
22763.645664
 20
12102.823704
 30
0.0
  0
LWPOLYLINE
  5
177
100
AcDbEntity
  8
Epilog_Laser
 62
7
100
AcDbPolyline
 90
2
 70
0
 10
21854.774680
 20
12102.823704
 30
0.0
 10
18067.814738
 20
12102.820882
 30
0.0
  0
LWPOLYLINE
  5
178
100
AcDbEntity
  8
Epilog_Laser
 62
7
100
AcDbPolyline
 90
2
 70
0
 10
23117.094567
 20
11982.900144
 30
0.0
 10
22763.645664
 20
11982.900144
 30
0.0
  0
LWPOLYLINE
  5
179
100
AcDbEntity
  8
Epilog_Laser
 62
7
100
AcDbPolyline
 90
2
 70
0
 10
21854.774680
 20
11982.900144
 30
0.0
 10
18187.735193
 20
11982.902967
 30
0.0
  0
LWPOLYLINE
  5
17a
100
AcDbEntity
  8
Epilog_Laser
 62
7
100
AcDbPolyline
 90
2
 70
0
 10
22763.645664
 20
11982.900144
 30
0.0
 10
22763.645664
 20
12102.823704
 30
0.0
  0
LWPOLYLINE
  5
17b
100
AcDbEntity
  8
Epilog_Laser
 62
7
100
AcDbPolyline
 90
2
 70
0
 10
21854.774680
 20
11982.900144
 30
0.0
 10
21854.774680
 20
12102.823704
 30
0.0
  0
LWPOLYLINE
  5
17c
100
AcDbEntity
  8
Epilog_Laser
 62
7
100
AcDbPolyline
 90
3
 70
0
 10
18067.814738
 20
10334.873638
 30
0.0
 10
18067.814738
 20
12102.820600
 30
0.0
 10
18067.814738
 20
12102.823422
 30
0.0
  0
LWPOLYLINE
  5
17d
100
AcDbEntity
  8
Epilog_Laser
 62
7
100
AcDbPolyline
 90
2
 70
0
 10
18187.735193
 20
10334.873638
 30
0.0
 10
18187.735193
 20
11982.903531
 30
0.0
  0
LWPOLYLINE
  5
17e
100
AcDbEntity
  8
Epilog_Laser
 62
7
100
AcDbPolyline
 90
2
 70
0
 10
16553.031269
 20
10334.870251
 30
0.0
 10
16553.031269
 20
12102.823704
 30
0.0
  0
LWPOLYLINE
  5
17f
100
AcDbEntity
  8
Epilog_Laser
 62
7
100
AcDbPolyline
 90
2
 70
0
 10
16452.045949
 20
10263.164640
 30
0.0
 10
16452.045949
 20
12001.629258
 30
0.0
  0
LWPOLYLINE
  5
180
100
AcDbEntity
  8
Epilog_Laser
 62
7
100
AcDbPolyline
 90
2
 70
0
 10
16313.190640
 20
10263.164640
 30
0.0
 10
16313.190640
 20
12001.838384
 30
0.0
  0
LWPOLYLINE
  5
181
100
AcDbEntity
  8
Epilog_Laser
 62
7
100
AcDbPolyline
 90
2
 70
0
 10
16212.204191
 20
10263.164640
 30
0.0
 10
16212.204191
 20
12102.823704
 30
0.0
  0
LWPOLYLINE
  5
182
100
AcDbEntity
  8
Epilog_Laser
 62
7
100
AcDbPolyline
 90
2
 70
0
 10
16212.204191
 20
12103.532929
 30
0.0
 10
16212.204191
 20
12102.872247
 30
0.0
  0
LWPOLYLINE
  5
183
100
AcDbEntity
  8
Epilog_Laser
 62
7
100
AcDbPolyline
 90
2
 70
0
 10
16313.190640
 20
12001.838384
 30
0.0
 10
16452.045949
 20
12001.618251
 30
0.0
  0
LWPOLYLINE
  5
184
100
AcDbEntity
  8
Epilog_Laser
 62
7
100
AcDbPolyline
 90
2
 70
0
 10
16212.204191
 20
12103.532929
 30
0.0
 10
16553.031269
 20
12103.532929
 30
0.0
  0
LWPOLYLINE
  5
185
100
AcDbEntity
  8
Epilog_Laser
 62
7
100
AcDbPolyline
 90
2
 70
0
 10
7666.298273
 20
10143.247853
 30
0.0
 10
7666.298273
 20
10263.168027
 30
0.0
  0
LWPOLYLINE
  5
186
100
AcDbEntity
  8
Epilog_Laser
 62
7
100
AcDbPolyline
 90
2
 70
0
 10
10342.416591
 20
10143.247853
 30
0.0
 10
10342.416591
 20
10263.168027
 30
0.0
  0
LWPOLYLINE
  5
187
100
AcDbEntity
  8
Epilog_Laser
 62
7
100
AcDbPolyline
 90
2
 70
0
 10
7691.545027
 20
10263.168027
 30
0.0
 10
10317.171249
 20
10263.173671
 30
0.0
  0
LWPOLYLINE
  5
188
100
AcDbEntity
  8
Epilog_Laser
 62
7
100
AcDbPolyline
 90
2
 70
0
 10
7691.545027
 20
10143.247853
 30
0.0
 10
10317.171249
 20
10143.253498
 30
0.0
  0
LWPOLYLINE
  5
189
100
AcDbEntity
  8
Epilog_Laser
 62
7
100
AcDbPolyline
 90
2
 70
0
 10
7691.545027
 20
10143.247853
 30
0.0
 10
7691.545027
 20
10263.168027
 30
0.0
  0
LWPOLYLINE
  5
18a
100
AcDbEntity
  8
Epilog_Laser
 62
7
100
AcDbPolyline
 90
2
 70
0
 10
10317.171249
 20
10143.254344
 30
0.0
 10
10317.171249
 20
10263.174518
 30
0.0
  0
LWPOLYLINE
  5
18b
100
AcDbEntity
  8
Epilog_Laser
 62
7
100
AcDbPolyline
 90
3
 70
0
 10
13459.995940
 20
2659.973090
 30
0.0
 10
13193.873649
 20
2659.973090
 30
0.0
 10
13193.873649
 20
2743.686410
 30
0.0
  0
LWPOLYLINE
  5
18c
100
AcDbEntity
  8
Epilog_Laser
 62
7
100
AcDbPolyline
 90
3
 70
0
 10
13193.873649
 20
2945.656994
 30
0.0
 10
13193.873649
 20
3063.915330
 30
0.0
 10
13372.869707
 20
3063.915330
 30
0.0
  0
LWPOLYLINE
  5
18d
100
AcDbEntity
  8
Epilog_Laser
 62
7
100
AcDbPolyline
 90
2
 70
0
 10
1146.295904
 20
17595.999296
 30
0.0
 10
1146.295904
 20
17580.586576
 30
0.0
  0
LWPOLYLINE
  5
18e
100
AcDbEntity
  8
Epilog_Laser
 62
7
100
AcDbPolyline
 90
2
 70
0
 10
1146.295904
 20
17580.599558
 30
0.0
 10
1253.907491
 20
17580.599558
 30
0.0
  0
LWPOLYLINE
  5
18f
100
AcDbEntity
  8
Epilog_Laser
 62
7
100
AcDbPolyline
 90
2
 70
0
 10
1271.643408
 20
17562.863020
 30
0.0
 10
1271.643408
 20
17035.086298
 30
0.0
  0
LWPOLYLINE
  5
190
100
AcDbEntity
  8
Epilog_Laser
 62
7
100
AcDbPolyline
 90
6
 70
0
 10
1253.907491
 20
17017.350889
 30
0.0
 10
1146.295904
 20
17017.350889
 30
0.0
 10
1146.295904
 20
17001.951151
 30
0.0
 10
1408.855986
 20
17001.951151
 30
0.0
 10
1408.855986
 20
17017.350889
 30
0.0
 10
1301.244399
 20
17017.350889
 30
0.0
  0
LWPOLYLINE
  5
191
100
AcDbEntity
  8
Epilog_Laser
 62
7
100
AcDbPolyline
 90
2
 70
0
 10
1283.508454
 20
17035.086298
 30
0.0
 10
1283.508454
 20
17562.863020
 30
0.0
  0
LWPOLYLINE
  5
192
100
AcDbEntity
  8
Epilog_Laser
 62
7
100
AcDbPolyline
 90
2
 70
0
 10
1301.244399
 20
17580.599558
 30
0.0
 10
1408.855986
 20
17580.599558
 30
0.0
  0
SPLINE
  5
193
100
AcDbEntity
  8
Epilog_Laser
 62
7
100
AcDbSpline
 70
8
 71
3
 72
8
 73
4
 74
0
 40
0
 40
0
 40
0
 40
0
 40
1
 40
1
 40
1
 40
1
 10
1271.643098
 20
17562.863020
 30
0.0
 10
1271.643118
 20
17567.566809
 30
0.0
 10
1269.774560
 20
17572.077951
 30
0.0
 10
1266.448487
 20
17575.404040
 30
0.0
  0
SPLINE
  5
194
100
AcDbEntity
  8
Epilog_Laser
 62
7
100
AcDbSpline
 70
8
 71
3
 72
8
 73
4
 74
0
 40
0
 40
0
 40
0
 40
0
 40
1
 40
1
 40
1
 40
1
 10
1266.448487
 20
17575.404040
 30
0.0
 10
1263.122413
 20
17578.730130
 30
0.0
 10
1258.611281
 20
17580.598709
 30
0.0
 10
1253.907491
 20
17580.598711
 30
0.0
  0
SPLINE
  5
195
100
AcDbEntity
  8
Epilog_Laser
 62
7
100
AcDbSpline
 70
8
 71
3
 72
8
 73
4
 74
0
 40
0
 40
0
 40
0
 40
0
 40
1
 40
1
 40
1
 40
1
 10
1253.907491
 20
17017.350889
 30
0.0
 10
1263.702518
 20
17017.350893
 30
0.0
 10
1271.642985
 20
17025.291272
 30
0.0
 10
1271.643098
 20
17035.086298
 30
0.0
  0
SPLINE
  5
196
100
AcDbEntity
  8
Epilog_Laser
 62
7
100
AcDbSpline
 70
8
 71
3
 72
8
 73
4
 74
0
 40
0
 40
0
 40
0
 40
0
 40
1
 40
1
 40
1
 40
1
 10
1283.508792
 20
17035.086298
 30
0.0
 10
1283.508905
 20
17025.291272
 30
0.0
 10
1291.449373
 20
17017.350893
 30
0.0
 10
1301.244399
 20
17017.350889
 30
0.0
  0
SPLINE
  5
197
100
AcDbEntity
  8
Epilog_Laser
 62
7
100
AcDbSpline
 70
8
 71
3
 72
8
 73
4
 74
0
 40
0
 40
0
 40
0
 40
0
 40
1
 40
1
 40
1
 40
1
 10
1301.244399
 20
17580.598711
 30
0.0
 10
1296.540610
 20
17580.598709
 30
0.0
 10
1292.029477
 20
17578.730130
 30
0.0
 10
1288.703403
 20
17575.404040
 30
0.0
  0
SPLINE
  5
198
100
AcDbEntity
  8
Epilog_Laser
 62
7
100
AcDbSpline
 70
8
 71
3
 72
8
 73
4
 74
0
 40
0
 40
0
 40
0
 40
0
 40
1
 40
1
 40
1
 40
1
 10
1288.703403
 20
17575.404040
 30
0.0
 10
1285.377330
 20
17572.077951
 30
0.0
 10
1283.508772
 20
17567.566809
 30
0.0
 10
1283.508792
 20
17562.863020
 30
0.0
  0
LWPOLYLINE
  5
199
100
AcDbEntity
  8
Epilog_Laser
 62
7
100
AcDbPolyline
 90
3
 70
0
 10
1408.855986
 20
17580.589680
 30
0.0
 10
1408.855986
 20
17595.999296
 30
0.0
 10
1146.295904
 20
17595.999296
 30
0.0
  0
LWPOLYLINE
  5
19a
100
AcDbEntity
  8
Epilog_Laser
 62
7
100
AcDbPolyline
 90
3
 70
0
 10
7205.431642
 20
17595.999296
 30
0.0
 10
7205.431642
 20
17580.599558
 30
0.0
 10
7313.042976
 20
17580.599558
 30
0.0
  0
LWPOLYLINE
  5
19b
100
AcDbEntity
  8
Epilog_Laser
 62
7
100
AcDbPolyline
 90
2
 70
0
 10
7330.779796
 20
17562.863020
 30
0.0
 10
7330.779796
 20
17035.086298
 30
0.0
  0
LWPOLYLINE
  5
19c
100
AcDbEntity
  8
Epilog_Laser
 62
7
100
AcDbPolyline
 90
6
 70
0
 10
7313.042976
 20
17017.350889
 30
0.0
 10
7205.431642
 20
17017.350889
 30
0.0
 10
7205.431642
 20
17001.951151
 30
0.0
 10
7467.991724
 20
17001.951151
 30
0.0
 10
7467.991724
 20
17017.350889
 30
0.0
 10
7360.379827
 20
17017.350889
 30
0.0
  0
LWPOLYLINE
  5
19d
100
AcDbEntity
  8
Epilog_Laser
 62
7
100
AcDbPolyline
 90
2
 70
0
 10
7342.644418
 20
17035.086298
 30
0.0
 10
7342.644418
 20
17562.863020
 30
0.0
  0
SPLINE
  5
19e
100
AcDbEntity
  8
Epilog_Laser
 62
7
100
AcDbSpline
 70
8
 71
3
 72
8
 73
4
 74
0
 40
0
 40
0
 40
0
 40
0
 40
1
 40
1
 40
1
 40
1
 10
7330.778667
 20
17562.863020
 30
0.0
 10
7330.778687
 20
17567.566824
 30
0.0
 10
7328.910117
 20
17572.077978
 30
0.0
 10
7325.584026
 20
17575.404070
 30
0.0
  0
SPLINE
  5
19f
100
AcDbEntity
  8
Epilog_Laser
 62
7
100
AcDbSpline
 70
8
 71
3
 72
8
 73
4
 74
0
 40
0
 40
0
 40
0
 40
0
 40
1
 40
1
 40
1
 40
1
 10
7325.584026
 20
17575.404070
 30
0.0
 10
7322.257934
 20
17578.730162
 30
0.0
 10
7317.746780
 20
17580.598732
 30
0.0
 10
7313.042976
 20
17580.598711
 30
0.0
  0
SPLINE
  5
1a0
100
AcDbEntity
  8
Epilog_Laser
 62
7
100
AcDbSpline
 70
8
 71
3
 72
8
 73
4
 74
0
 40
0
 40
0
 40
0
 40
0
 40
1
 40
1
 40
1
 40
1
 10
7313.042976
 20
17017.350889
 30
0.0
 10
7322.838035
 20
17017.350846
 30
0.0
 10
7330.778554
 20
17025.291239
 30
0.0
 10
7330.778667
 20
17035.086298
 30
0.0
  0
SPLINE
  5
1a1
100
AcDbEntity
  8
Epilog_Laser
 62
7
100
AcDbSpline
 70
8
 71
3
 72
8
 73
4
 74
0
 40
0
 40
0
 40
0
 40
0
 40
1
 40
1
 40
1
 40
1
 10
7342.644418
 20
17035.086298
 30
0.0
 10
7342.644531
 20
17025.291349
 30
0.0
 10
7350.584878
 20
17017.351002
 30
0.0
 10
7360.379827
 20
17017.350889
 30
0.0
  0
SPLINE
  5
1a2
100
AcDbEntity
  8
Epilog_Laser
 62
7
100
AcDbSpline
 70
8
 71
3
 72
8
 73
4
 74
0
 40
0
 40
0
 40
0
 40
0
 40
1
 40
1
 40
1
 40
1
 10
7360.379827
 20
17580.598711
 30
0.0
 10
7350.584767
 20
17580.598598
 30
0.0
 10
7342.644375
 20
17572.658079
 30
0.0
 10
7342.644418
 20
17562.863020
 30
0.0
  0
LWPOLYLINE
  5
1a3
100
AcDbEntity
  8
Epilog_Laser
 62
7
100
AcDbPolyline
 90
4
 70
0
 10
7360.379827
 20
17580.599558
 30
0.0
 10
7467.991724
 20
17580.599558
 30
0.0
 10
7467.991724
 20
17595.999296
 30
0.0
 10
7205.431642
 20
17595.999296
 30
0.0
  0
LWPOLYLINE
  5
1a4
100
AcDbEntity
  8
Epilog_Laser
 62
7
100
AcDbPolyline
 90
3
 70
0
 10
13264.567211
 20
17595.999296
 30
0.0
 10
13264.567211
 20
17580.599558
 30
0.0
 10
13372.179109
 20
17580.599558
 30
0.0
  0
LWPOLYLINE
  5
1a5
100
AcDbEntity
  8
Epilog_Laser
 62
7
100
AcDbPolyline
 90
2
 70
0
 10
13389.914800
 20
17562.863020
 30
0.0
 10
13389.914800
 20
17035.086298
 30
0.0
  0
LWPOLYLINE
  5
1a6
100
AcDbEntity
  8
Epilog_Laser
 62
7
100
AcDbPolyline
 90
6
 70
0
 10
13372.179109
 20
17017.350889
 30
0.0
 10
13264.567211
 20
17017.350889
 30
0.0
 10
13264.567211
 20
17001.951151
 30
0.0
 10
13527.127858
 20
17001.951151
 30
0.0
 10
13527.127858
 20
17017.350889
 30
0.0
 10
13419.515960
 20
17017.350889
 30
0.0
  0
LWPOLYLINE
  5
1a7
100
AcDbEntity
  8
Epilog_Laser
 62
7
100
AcDbPolyline
 90
2
 70
0
 10
13401.780269
 20
17035.086298
 30
0.0
 10
13401.780269
 20
17562.863020
 30
0.0
  0
SPLINE
  5
1a8
100
AcDbEntity
  8
Epilog_Laser
 62
7
100
AcDbSpline
 70
8
 71
3
 72
8
 73
4
 74
0
 40
0
 40
0
 40
0
 40
0
 40
1
 40
1
 40
1
 40
1
 10
13389.914800
 20
17562.863020
 30
0.0
 10
13389.914821
 20
17567.566824
 30
0.0
 10
13388.046251
 20
17572.077978
 30
0.0
 10
13384.720159
 20
17575.404070
 30
0.0
  0
SPLINE
  5
1a9
100
AcDbEntity
  8
Epilog_Laser
 62
7
100
AcDbSpline
 70
8
 71
3
 72
8
 73
4
 74
0
 40
0
 40
0
 40
0
 40
0
 40
1
 40
1
 40
1
 40
1
 10
13384.720159
 20
17575.404070
 30
0.0
 10
13381.394067
 20
17578.730162
 30
0.0
 10
13376.882913
 20
17580.598732
 30
0.0
 10
13372.179109
 20
17580.598711
 30
0.0
  0
SPLINE
  5
1aa
100
AcDbEntity
  8
Epilog_Laser
 62
7
100
AcDbSpline
 70
8
 71
3
 72
8
 73
4
 74
0
 40
0
 40
0
 40
0
 40
0
 40
1
 40
1
 40
1
 40
1
 10
13372.179109
 20
17017.350889
 30
0.0
 10
13381.974168
 20
17017.350846
 30
0.0
 10
13389.914687
 20
17025.291239
 30
0.0
 10
13389.914800
 20
17035.086298
 30
0.0
  0
SPLINE
  5
1ab
100
AcDbEntity
  8
Epilog_Laser
 62
7
100
AcDbSpline
 70
8
 71
3
 72
8
 73
4
 74
0
 40
0
 40
0
 40
0
 40
0
 40
1
 40
1
 40
1
 40
1
 10
13401.780269
 20
17035.086298
 30
0.0
 10
13401.780382
 20
17025.291239
 30
0.0
 10
13409.720901
 20
17017.350846
 30
0.0
 10
13419.515960
 20
17017.350889
 30
0.0
  0
SPLINE
  5
1ac
100
AcDbEntity
  8
Epilog_Laser
 62
7
100
AcDbSpline
 70
8
 71
3
 72
8
 73
4
 74
0
 40
0
 40
0
 40
0
 40
0
 40
1
 40
1
 40
1
 40
1
 10
13419.515960
 20
17580.598711
 30
0.0
 10
13414.812156
 20
17580.598732
 30
0.0
 10
13410.301002
 20
17578.730162
 30
0.0
 10
13406.974910
 20
17575.404070
 30
0.0
  0
SPLINE
  5
1ad
100
AcDbEntity
  8
Epilog_Laser
 62
7
100
AcDbSpline
 70
8
 71
3
 72
8
 73
4
 74
0
 40
0
 40
0
 40
0
 40
0
 40
1
 40
1
 40
1
 40
1
 10
13406.974910
 20
17575.404070
 30
0.0
 10
13403.648818
 20
17572.077978
 30
0.0
 10
13401.780248
 20
17567.566824
 30
0.0
 10
13401.780269
 20
17562.863020
 30
0.0
  0
LWPOLYLINE
  5
1ae
100
AcDbEntity
  8
Epilog_Laser
 62
7
100
AcDbPolyline
 90
4
 70
0
 10
13419.515960
 20
17580.599558
 30
0.0
 10
13527.127858
 20
17580.599558
 30
0.0
 10
13527.127858
 20
17595.999296
 30
0.0
 10
13264.567211
 20
17595.999296
 30
0.0
  0
LWPOLYLINE
  5
1af
100
AcDbEntity
  8
Epilog_Laser
 62
7
100
AcDbPolyline
 90
3
 70
0
 10
19323.703062
 20
17595.999296
 30
0.0
 10
19323.703062
 20
17580.599558
 30
0.0
 10
19431.314960
 20
17580.599558
 30
0.0
  0
LWPOLYLINE
  5
1b0
100
AcDbEntity
  8
Epilog_Laser
 62
7
100
AcDbPolyline
 90
2
 70
0
 10
19449.050651
 20
17562.863020
 30
0.0
 10
19449.050651
 20
17035.086298
 30
0.0
  0
LWPOLYLINE
  5
1b1
100
AcDbEntity
  8
Epilog_Laser
 62
7
100
AcDbPolyline
 90
6
 70
0
 10
19431.314960
 20
17017.350889
 30
0.0
 10
19323.703062
 20
17017.350889
 30
0.0
 10
19323.703062
 20
17001.951151
 30
0.0
 10
19586.263709
 20
17001.951151
 30
0.0
 10
19586.263709
 20
17017.350889
 30
0.0
 10
19478.651811
 20
17017.350889
 30
0.0
  0
LWPOLYLINE
  5
1b2
100
AcDbEntity
  8
Epilog_Laser
 62
7
100
AcDbPolyline
 90
2
 70
0
 10
19460.916120
 20
17035.086298
 30
0.0
 10
19460.916120
 20
17562.863020
 30
0.0
  0
SPLINE
  5
1b3
100
AcDbEntity
  8
Epilog_Laser
 62
7
100
AcDbSpline
 70
8
 71
3
 72
8
 73
4
 74
0
 40
0
 40
0
 40
0
 40
0
 40
1
 40
1
 40
1
 40
1
 10
19449.050651
 20
17562.863020
 30
0.0
 10
19449.050672
 20
17567.566824
 30
0.0
 10
19447.182102
 20
17572.077978
 30
0.0
 10
19443.856010
 20
17575.404070
 30
0.0
  0
SPLINE
  5
1b4
100
AcDbEntity
  8
Epilog_Laser
 62
7
100
AcDbSpline
 70
8
 71
3
 72
8
 73
4
 74
0
 40
0
 40
0
 40
0
 40
0
 40
1
 40
1
 40
1
 40
1
 10
19443.856010
 20
17575.404070
 30
0.0
 10
19440.529918
 20
17578.730162
 30
0.0
 10
19436.018764
 20
17580.598732
 30
0.0
 10
19431.314960
 20
17580.598711
 30
0.0
  0
SPLINE
  5
1b5
100
AcDbEntity
  8
Epilog_Laser
 62
7
100
AcDbSpline
 70
8
 71
3
 72
8
 73
4
 74
0
 40
0
 40
0
 40
0
 40
0
 40
1
 40
1
 40
1
 40
1
 10
19431.314960
 20
17017.350889
 30
0.0
 10
19441.110019
 20
17017.350846
 30
0.0
 10
19449.050538
 20
17025.291239
 30
0.0
 10
19449.050651
 20
17035.086298
 30
0.0
  0
SPLINE
  5
1b6
100
AcDbEntity
  8
Epilog_Laser
 62
7
100
AcDbSpline
 70
8
 71
3
 72
8
 73
4
 74
0
 40
0
 40
0
 40
0
 40
0
 40
1
 40
1
 40
1
 40
1
 10
19460.916120
 20
17035.086298
 30
0.0
 10
19460.916233
 20
17025.291239
 30
0.0
 10
19468.856752
 20
17017.350846
 30
0.0
 10
19478.651811
 20
17017.350889
 30
0.0
  0
SPLINE
  5
1b7
100
AcDbEntity
  8
Epilog_Laser
 62
7
100
AcDbSpline
 70
8
 71
3
 72
8
 73
4
 74
0
 40
0
 40
0
 40
0
 40
0
 40
1
 40
1
 40
1
 40
1
 10
19478.651811
 20
17580.598711
 30
0.0
 10
19473.948007
 20
17580.598732
 30
0.0
 10
19469.436853
 20
17578.730162
 30
0.0
 10
19466.110761
 20
17575.404070
 30
0.0
  0
SPLINE
  5
1b8
100
AcDbEntity
  8
Epilog_Laser
 62
7
100
AcDbSpline
 70
8
 71
3
 72
8
 73
4
 74
0
 40
0
 40
0
 40
0
 40
0
 40
1
 40
1
 40
1
 40
1
 10
19466.110761
 20
17575.404070
 30
0.0
 10
19462.784669
 20
17572.077978
 30
0.0
 10
19460.916099
 20
17567.566824
 30
0.0
 10
19460.916120
 20
17562.863020
 30
0.0
  0
LWPOLYLINE
  5
1b9
100
AcDbEntity
  8
Epilog_Laser
 62
7
100
AcDbPolyline
 90
4
 70
0
 10
19478.651811
 20
17580.599558
 30
0.0
 10
19586.263709
 20
17580.599558
 30
0.0
 10
19586.263709
 20
17595.999296
 30
0.0
 10
19323.703062
 20
17595.999296
 30
0.0
  0
LWPOLYLINE
  5
1ba
100
AcDbEntity
  8
Epilog_Laser
 62
7
100
AcDbPolyline
 90
3
 70
0
 10
25382.839196
 20
17595.999296
 30
0.0
 10
25382.839196
 20
17580.599558
 30
0.0
 10
25490.451093
 20
17580.599558
 30
0.0
  0
LWPOLYLINE
  5
1bb
100
AcDbEntity
  8
Epilog_Laser
 62
7
100
AcDbPolyline
 90
2
 70
0
 10
25508.186502
 20
17562.863020
 30
0.0
 10
25508.186502
 20
17035.086298
 30
0.0
  0
LWPOLYLINE
  5
1bc
100
AcDbEntity
  8
Epilog_Laser
 62
7
100
AcDbPolyline
 90
6
 70
0
 10
25490.451093
 20
17017.350889
 30
0.0
 10
25382.839196
 20
17017.350889
 30
0.0
 10
25382.839196
 20
17001.951151
 30
0.0
 10
25645.399842
 20
17001.951151
 30
0.0
 10
25645.399842
 20
17017.350889
 30
0.0
 10
25537.787944
 20
17017.350889
 30
0.0
  0
LWPOLYLINE
  5
1bd
100
AcDbEntity
  8
Epilog_Laser
 62
7
100
AcDbPolyline
 90
2
 70
0
 10
25520.052253
 20
17035.086298
 30
0.0
 10
25520.052253
 20
17562.863020
 30
0.0
  0
SPLINE
  5
1be
100
AcDbEntity
  8
Epilog_Laser
 62
7
100
AcDbSpline
 70
8
 71
3
 72
8
 73
4
 74
0
 40
0
 40
0
 40
0
 40
0
 40
1
 40
1
 40
1
 40
1
 10
25508.186502
 20
17562.863020
 30
0.0
 10
25508.186545
 20
17572.658079
 30
0.0
 10
25500.246153
 20
17580.598598
 30
0.0
 10
25490.451093
 20
17580.598711
 30
0.0
  0
SPLINE
  5
1bf
100
AcDbEntity
  8
Epilog_Laser
 62
7
100
AcDbSpline
 70
8
 71
3
 72
8
 73
4
 74
0
 40
0
 40
0
 40
0
 40
0
 40
1
 40
1
 40
1
 40
1
 10
25490.451093
 20
17017.350889
 30
0.0
 10
25500.246042
 20
17017.351002
 30
0.0
 10
25508.186389
 20
17025.291349
 30
0.0
 10
25508.186502
 20
17035.086298
 30
0.0
  0
SPLINE
  5
1c0
100
AcDbEntity
  8
Epilog_Laser
 62
7
100
AcDbSpline
 70
8
 71
3
 72
8
 73
4
 74
0
 40
0
 40
0
 40
0
 40
0
 40
1
 40
1
 40
1
 40
1
 10
25520.052253
 20
17035.086298
 30
0.0
 10
25520.052366
 20
17025.291239
 30
0.0
 10
25527.992885
 20
17017.350846
 30
0.0
 10
25537.787944
 20
17017.350889
 30
0.0
  0
SPLINE
  5
1c1
100
AcDbEntity
  8
Epilog_Laser
 62
7
100
AcDbSpline
 70
8
 71
3
 72
8
 73
4
 74
0
 40
0
 40
0
 40
0
 40
0
 40
1
 40
1
 40
1
 40
1
 10
25537.787944
 20
17580.598711
 30
0.0
 10
25533.084140
 20
17580.598732
 30
0.0
 10
25528.572986
 20
17578.730162
 30
0.0
 10
25525.246894
 20
17575.404070
 30
0.0
  0
SPLINE
  5
1c2
100
AcDbEntity
  8
Epilog_Laser
 62
7
100
AcDbSpline
 70
8
 71
3
 72
8
 73
4
 74
0
 40
0
 40
0
 40
0
 40
0
 40
1
 40
1
 40
1
 40
1
 10
25525.246894
 20
17575.404070
 30
0.0
 10
25521.920803
 20
17572.077978
 30
0.0
 10
25520.052233
 20
17567.566824
 30
0.0
 10
25520.052253
 20
17562.863020
 30
0.0
  0
LWPOLYLINE
  5
1c3
100
AcDbEntity
  8
Epilog_Laser
 62
7
100
AcDbPolyline
 90
4
 70
0
 10
25537.787944
 20
17580.599558
 30
0.0
 10
25645.399842
 20
17580.599558
 30
0.0
 10
25645.399842
 20
17595.999296
 30
0.0
 10
25382.839196
 20
17595.999296
 30
0.0
  0
LWPOLYLINE
  5
1c4
100
AcDbEntity
  8
Epilog_Laser
 62
7
100
AcDbPolyline
 90
2
 70
0
 10
1429.055590
 20
118.062335
 30
0.0
 10
1277.578316
 20
118.062335
 30
0.0
  0
LWPOLYLINE
  5
1c5
100
AcDbEntity
  8
Epilog_Laser
 62
7
100
AcDbPolyline
 90
2
 70
0
 10
1075.607083
 20
118.062335
 30
0.0
 10
1025.114988
 20
118.062335
 30
0.0
  0
LWPOLYLINE
  5
1c6
100
AcDbEntity
  8
Epilog_Laser
 62
7
100
AcDbPolyline
 90
2
 70
0
 10
1277.578316
 20
67.569142
 30
0.0
 10
1075.607083
 20
67.569142
 30
0.0
  0
LWPOLYLINE
  5
1c7
100
AcDbEntity
  8
Epilog_Laser
 62
7
100
AcDbPolyline
 90
2
 70
0
 10
1075.607083
 20
118.062335
 30
0.0
 10
1075.607083
 20
67.569142
 30
0.0
  0
SPLINE
  5
1c8
100
AcDbEntity
  8
Epilog_Laser
 62
7
100
AcDbSpline
 70
8
 71
3
 72
8
 73
4
 74
0
 40
0
 40
0
 40
0
 40
0
 40
1
 40
1
 40
1
 40
1
 10
17461.901971
 20
8959.116787
 30
0.0
 10
17461.902143
 20
9200.164363
 30
0.0
 10
17366.146462
 20
9431.339311
 30
0.0
 10
17195.700113
 20
9601.785713
 30
0.0
  0
SPLINE
  5
1c9
100
AcDbEntity
  8
Epilog_Laser
 62
7
100
AcDbSpline
 70
8
 71
3
 72
8
 73
4
 74
0
 40
0
 40
0
 40
0
 40
0
 40
1
 40
1
 40
1
 40
1
 10
17195.700113
 20
9601.785713
 30
0.0
 10
17025.253764
 20
9772.232115
 30
0.0
 10
16794.078845
 20
9867.987868
 30
0.0
 10
16553.031269
 20
9867.987771
 30
0.0
  0
LWPOLYLINE
  5
1ca
100
AcDbEntity
  8
Epilog_Laser
 62
7
100
AcDbPolyline
 90
2
 70
0
 10
1277.578316
 20
118.062335
 30
0.0
 10
1277.578316
 20
67.569142
 30
0.0
  0
SPLINE
  5
1cb
100
AcDbEntity
  8
Epilog_Laser
 62
7
100
AcDbSpline
 70
8
 71
3
 72
8
 73
4
 74
0
 40
0
 40
0
 40
0
 40
0
 40
1
 40
1
 40
1
 40
1
 10
25564.618247
 20
12203.812411
 30
0.0
 10
25805.665823
 20
12203.812314
 30
0.0
 10
26036.840741
 20
12299.568067
 30
0.0
 10
26207.287091
 20
12470.014469
 30
0.0
  0
SPLINE
  5
1cc
100
AcDbEntity
  8
Epilog_Laser
 62
7
100
AcDbSpline
 70
8
 71
3
 72
8
 73
4
 74
0
 40
0
 40
0
 40
0
 40
0
 40
1
 40
1
 40
1
 40
1
 10
26207.287091
 20
12470.014469
 30
0.0
 10
26377.733440
 20
12640.460871
 30
0.0
 10
26473.489121
 20
12871.635819
 30
0.0
 10
26473.488949
 20
13112.683396
 30
0.0
  0
LWPOLYLINE
  5
1cd
100
AcDbEntity
  8
Epilog_Laser
 62
7
100
AcDbPolyline
 90
5
 70
0
 10
16553.031269
 20
8959.116787
 30
0.0
 10
17461.901971
 20
8959.116787
 30
0.0
 10
17461.901971
 20
9003.298393
 30
0.0
 10
16553.031269
 20
9003.298393
 30
0.0
 10
16553.031269
 20
8959.116787
 30
0.0
  0
SPLINE
  5
1ce
100
AcDbEntity
  8
Epilog_Laser
 62
7
100
AcDbSpline
 70
8
 71
3
 72
8
 73
4
 74
0
 40
0
 40
0
 40
0
 40
0
 40
1
 40
1
 40
1
 40
1
 10
4563.278204
 20
8542.080113
 30
0.0
 10
4563.278204
 20
8551.916720
 30
0.0
 10
4558.030438
 20
8561.006118
 30
0.0
 10
4549.511687
 20
8565.924422
 30
0.0
  0
SPLINE
  5
1cf
100
AcDbEntity
  8
Epilog_Laser
 62
7
100
AcDbSpline
 70
8
 71
3
 72
8
 73
4
 74
0
 40
0
 40
0
 40
0
 40
0
 40
1
 40
1
 40
1
 40
1
 10
4549.511687
 20
8565.924422
 30
0.0
 10
4540.992936
 20
8570.842725
 30
0.0
 10
4530.497402
 20
8570.842725
 30
0.0
 10
4521.978651
 20
8565.924422
 30
0.0
  0
SPLINE
  5
1d0
100
AcDbEntity
  8
Epilog_Laser
 62
7
100
AcDbSpline
 70
8
 71
3
 72
8
 73
4
 74
0
 40
0
 40
0
 40
0
 40
0
 40
1
 40
1
 40
1
 40
1
 10
4521.978651
 20
8565.924422
 30
0.0
 10
4513.459900
 20
8561.006118
 30
0.0
 10
4508.212133
 20
8551.916720
 30
0.0
 10
4508.212133
 20
8542.080113
 30
0.0
  0
SPLINE
  5
1d1
100
AcDbEntity
  8
Epilog_Laser
 62
7
100
AcDbSpline
 70
8
 71
3
 72
8
 73
4
 74
0
 40
0
 40
0
 40
0
 40
0
 40
1
 40
1
 40
1
 40
1
 10
4508.212133
 20
8542.080113
 30
0.0
 10
4508.212133
 20
8532.243507
 30
0.0
 10
4513.459900
 20
8523.154108
 30
0.0
 10
4521.978651
 20
8518.235805
 30
0.0
  0
SPLINE
  5
1d2
100
AcDbEntity
  8
Epilog_Laser
 62
7
100
AcDbSpline
 70
8
 71
3
 72
8
 73
4
 74
0
 40
0
 40
0
 40
0
 40
0
 40
1
 40
1
 40
1
 40
1
 10
4521.978651
 20
8518.235805
 30
0.0
 10
4530.497402
 20
8513.317502
 30
0.0
 10
4540.992936
 20
8513.317502
 30
0.0
 10
4549.511687
 20
8518.235805
 30
0.0
  0
SPLINE
  5
1d3
100
AcDbEntity
  8
Epilog_Laser
 62
7
100
AcDbSpline
 70
8
 71
3
 72
8
 73
4
 74
0
 40
0
 40
0
 40
0
 40
0
 40
1
 40
1
 40
1
 40
1
 10
4549.511687
 20
8518.235805
 30
0.0
 10
4558.030438
 20
8523.154108
 30
0.0
 10
4563.278204
 20
8532.243507
 30
0.0
 10
4563.278204
 20
8542.080113
 30
0.0
  0
LWPOLYLINE
  5
1d4
100
AcDbEntity
  8
Epilog_Laser
 62
7
100
AcDbPolyline
 90
5
 70
0
 10
25742.921449
 20
13112.683396
 30
0.0
 10
26473.488949
 20
13112.683396
 30
0.0
 10
26473.488949
 20
13068.501789
 30
0.0
 10
25742.921449
 20
13068.501789
 30
0.0
 10
25742.921449
 20
13112.683396
 30
0.0
  0
SPLINE
  5
1d5
100
AcDbEntity
  8
Epilog_Laser
 62
7
100
AcDbSpline
 70
8
 71
3
 72
8
 73
4
 74
0
 40
0
 40
0
 40
0
 40
0
 40
1
 40
1
 40
1
 40
1
 10
4030.817158
 20
8643.065433
 30
0.0
 10
4030.817068
 20
8375.234910
 30
0.0
 10
4137.212270
 20
8118.373998
 30
0.0
 10
4326.597022
 20
7928.989193
 30
0.0
  0
SPLINE
  5
1d6
100
AcDbEntity
  8
Epilog_Laser
 62
7
100
AcDbSpline
 70
8
 71
3
 72
8
 73
4
 74
0
 40
0
 40
0
 40
0
 40
0
 40
1
 40
1
 40
1
 40
1
 10
4326.597022
 20
7928.989193
 30
0.0
 10
4515.981775
 20
7739.604388
 30
0.0
 10
4772.842657
 20
7633.209114
 30
0.0
 10
5040.673180
 20
7633.209129
 30
0.0
  0
LWPOLYLINE
  5
1d7
100
AcDbEntity
  8
Epilog_Laser
 62
7
100
AcDbPolyline
 90
2
 70
1
 10
4563.278204
 20
8542.080113
 30
0.0
 10
4563.278204
 20
8542.080113
 30
0.0
  0
LWPOLYLINE
  5
1d8
100
AcDbEntity
  8
Epilog_Laser
 62
7
100
AcDbPolyline
 90
5
 70
0
 10
5040.673180
 20
8643.065433
 30
0.0
 10
5040.673180
 20
7633.209129
 30
0.0
 10
4996.491856
 20
7633.209129
 30
0.0
 10
4996.491856
 20
8643.065433
 30
0.0
 10
5040.673180
 20
8643.065433
 30
0.0
  0
SPLINE
  5
1d9
100
AcDbEntity
  8
Epilog_Laser
 62
7
100
AcDbSpline
 70
8
 71
3
 72
8
 73
4
 74
0
 40
0
 40
0
 40
0
 40
0
 40
1
 40
1
 40
1
 40
1
 10
15.259024
 20
11597.192396
 30
0.0
 10
15.257995
 20
11011.576213
 30
0.0
 10
489.992876
 20
10536.839663
 30
0.0
 10
1075.609059
 20
10536.838633
 30
0.0
  0
LWPOLYLINE
  5
1da
100
AcDbEntity
  8
Epilog_Laser
 62
7
100
AcDbPolyline
 90
2
 70
0
 10
4030.817158
 20
8643.065433
 30
0.0
 10
4030.817158
 20
8687.246758
 30
0.0
  0
LWPOLYLINE
  5
1db
100
AcDbEntity
  8
Epilog_Laser
 62
7
100
AcDbPolyline
 90
2
 70
0
 10
1075.610921
 20
11597.190420
 30
0.0
 10
15.255940
 20
11597.193242
 30
0.0
  0
LWPOLYLINE
  5
1dc
100
AcDbEntity
  8
Epilog_Laser
 62
7
100
AcDbPolyline
 90
3
 70
0
 10
15.255940
 20
11597.193524
 30
0.0
 10
15.255940
 20
11553.011918
 30
0.0
 10
1075.610921
 20
11553.009096
 30
0.0
  0
LWPOLYLINE
  5
1dd
100
AcDbEntity
  8
Epilog_Laser
 62
7
100
AcDbPolyline
 90
2
 70
0
 10
1075.610921
 20
11553.008813
 30
0.0
 10
1075.610921
 20
11597.190420
 30
0.0
  0
LWPOLYLINE
  5
1de
100
AcDbEntity
  8
Epilog_Laser
 62
7
100
AcDbPolyline
 90
2
 70
0
 10
1075.610921
 20
10536.838633
 30
0.0
 10
1119.792133
 20
10536.838633
 30
0.0
  0
LWPOLYLINE
  5
1df
100
AcDbEntity
  8
Epilog_Laser
 62
7
100
AcDbPolyline
 90
2
 70
0
 10
1126.103694
 20
5083.618936
 30
0.0
 10
1227.089296
 20
5083.618936
 30
0.0
  0
LWPOLYLINE
  5
1e0
100
AcDbEntity
  8
Epilog_Laser
 62
7
100
AcDbPolyline
 90
2
 70
0
 10
1126.103694
 20
5992.489638
 30
0.0
 10
1227.089296
 20
5992.489638
 30
0.0
  0
LWPOLYLINE
  5
1e1
100
AcDbEntity
  8
Epilog_Laser
 62
7
100
AcDbPolyline
 90
2
 70
0
 10
1126.103694
 20
6042.982862
 30
0.0
 10
1227.089296
 20
6042.982862
 30
0.0
  0
SPLINE
  5
1e2
100
AcDbEntity
  8
Epilog_Laser
 62
7
100
AcDbSpline
 70
8
 71
3
 72
8
 73
4
 74
0
 40
0
 40
0
 40
0
 40
0
 40
1
 40
1
 40
1
 40
1
 10
1153.636617
 20
5538.054287
 30
0.0
 10
1153.636617
 20
5547.890858
 30
0.0
 10
1148.388869
 20
5556.980224
 30
0.0
 10
1139.870149
 20
5561.898509
 30
0.0
  0
SPLINE
  5
1e3
100
AcDbEntity
  8
Epilog_Laser
 62
7
100
AcDbSpline
 70
8
 71
3
 72
8
 73
4
 74
0
 40
0
 40
0
 40
0
 40
0
 40
1
 40
1
 40
1
 40
1
 10
1139.870149
 20
5561.898509
 30
0.0
 10
1131.351428
 20
5566.816795
 30
0.0
 10
1120.855932
 20
5566.816795
 30
0.0
 10
1112.337212
 20
5561.898509
 30
0.0
  0
SPLINE
  5
1e4
100
AcDbEntity
  8
Epilog_Laser
 62
7
100
AcDbSpline
 70
8
 71
3
 72
8
 73
4
 74
0
 40
0
 40
0
 40
0
 40
0
 40
1
 40
1
 40
1
 40
1
 10
1112.337212
 20
5561.898509
 30
0.0
 10
1103.818491
 20
5556.980224
 30
0.0
 10
1098.570743
 20
5547.890858
 30
0.0
 10
1098.570743
 20
5538.054287
 30
0.0
  0
SPLINE
  5
1e5
100
AcDbEntity
  8
Epilog_Laser
 62
7
100
AcDbSpline
 70
8
 71
3
 72
8
 73
4
 74
0
 40
0
 40
0
 40
0
 40
0
 40
1
 40
1
 40
1
 40
1
 10
1098.570743
 20
5538.054287
 30
0.0
 10
1098.570743
 20
5528.217716
 30
0.0
 10
1103.818491
 20
5519.128349
 30
0.0
 10
1112.337212
 20
5514.210064
 30
0.0
  0
SPLINE
  5
1e6
100
AcDbEntity
  8
Epilog_Laser
 62
7
100
AcDbSpline
 70
8
 71
3
 72
8
 73
4
 74
0
 40
0
 40
0
 40
0
 40
0
 40
1
 40
1
 40
1
 40
1
 10
1112.337212
 20
5514.210064
 30
0.0
 10
1120.855932
 20
5509.291779
 30
0.0
 10
1131.351428
 20
5509.291779
 30
0.0
 10
1139.870149
 20
5514.210064
 30
0.0
  0
SPLINE
  5
1e7
100
AcDbEntity
  8
Epilog_Laser
 62
7
100
AcDbSpline
 70
8
 71
3
 72
8
 73
4
 74
0
 40
0
 40
0
 40
0
 40
0
 40
1
 40
1
 40
1
 40
1
 10
1139.870149
 20
5514.210064
 30
0.0
 10
1148.388869
 20
5519.128349
 30
0.0
 10
1153.636617
 20
5528.217716
 30
0.0
 10
1153.636617
 20
5538.054287
 30
0.0
  0
LWPOLYLINE
  5
1e8
100
AcDbEntity
  8
Epilog_Laser
 62
7
100
AcDbPolyline
 90
2
 70
0
 10
1126.103694
 20
6951.852718
 30
0.0
 10
1227.089296
 20
6951.852718
 30
0.0
  0
SPLINE
  5
1e9
100
AcDbEntity
  8
Epilog_Laser
 62
7
100
AcDbSpline
 70
8
 71
3
 72
8
 73
4
 74
0
 40
0
 40
0
 40
0
 40
0
 40
1
 40
1
 40
1
 40
1
 10
1126.103694
 20
5992.489638
 30
0.0
 10
885.056228
 20
5992.489642
 30
0.0
 10
653.881442
 20
5896.733887
 30
0.0
 10
483.435176
 20
5726.287556
 30
0.0
  0
SPLINE
  5
1ea
100
AcDbEntity
  8
Epilog_Laser
 62
7
100
AcDbSpline
 70
8
 71
3
 72
8
 73
4
 74
0
 40
0
 40
0
 40
0
 40
0
 40
1
 40
1
 40
1
 40
1
 10
483.435176
 20
5726.287556
 30
0.0
 10
312.988911
 20
5555.841225
 30
0.0
 10
217.233245
 20
5324.666402
 30
0.0
 10
217.233342
 20
5083.618936
 30
0.0
  0
LWPOLYLINE
  5
1eb
100
AcDbEntity
  8
Epilog_Laser
 62
7
100
AcDbPolyline
 90
2
 70
1
 10
1153.636617
 20
5538.054287
 30
0.0
 10
1153.636617
 20
5538.054287
 30
0.0
  0
LWPOLYLINE
  5
1ec
100
AcDbEntity
  8
Epilog_Laser
 62
7
100
AcDbPolyline
 90
5
 70
0
 10
1126.103694
 20
5083.618936
 30
0.0
 10
217.233342
 20
5083.618936
 30
0.0
 10
217.233342
 20
5127.800542
 30
0.0
 10
1126.103694
 20
5127.800542
 30
0.0
 10
1126.103694
 20
5083.618936
 30
0.0
  0
SPLINE
  5
1ed
100
AcDbEntity
  8
Epilog_Laser
 62
7
100
AcDbSpline
 70
8
 71
3
 72
8
 73
4
 74
0
 40
0
 40
0
 40
0
 40
0
 40
1
 40
1
 40
1
 40
1
 10
1153.636617
 20
6497.417367
 30
0.0
 10
1153.636617
 20
6507.253938
 30
0.0
 10
1148.388869
 20
6516.343304
 30
0.0
 10
1139.870149
 20
6521.261589
 30
0.0
  0
SPLINE
  5
1ee
100
AcDbEntity
  8
Epilog_Laser
 62
7
100
AcDbSpline
 70
8
 71
3
 72
8
 73
4
 74
0
 40
0
 40
0
 40
0
 40
0
 40
1
 40
1
 40
1
 40
1
 10
1139.870149
 20
6521.261589
 30
0.0
 10
1131.351428
 20
6526.179875
 30
0.0
 10
1120.855932
 20
6526.179875
 30
0.0
 10
1112.337212
 20
6521.261589
 30
0.0
  0
SPLINE
  5
1ef
100
AcDbEntity
  8
Epilog_Laser
 62
7
100
AcDbSpline
 70
8
 71
3
 72
8
 73
4
 74
0
 40
0
 40
0
 40
0
 40
0
 40
1
 40
1
 40
1
 40
1
 10
1112.337212
 20
6521.261589
 30
0.0
 10
1103.818491
 20
6516.343304
 30
0.0
 10
1098.570743
 20
6507.253938
 30
0.0
 10
1098.570743
 20
6497.417367
 30
0.0
  0
SPLINE
  5
1f0
100
AcDbEntity
  8
Epilog_Laser
 62
7
100
AcDbSpline
 70
8
 71
3
 72
8
 73
4
 74
0
 40
0
 40
0
 40
0
 40
0
 40
1
 40
1
 40
1
 40
1
 10
1098.570743
 20
6497.417367
 30
0.0
 10
1098.570743
 20
6487.580796
 30
0.0
 10
1103.818491
 20
6478.491429
 30
0.0
 10
1112.337212
 20
6473.573144
 30
0.0
  0
SPLINE
  5
1f1
100
AcDbEntity
  8
Epilog_Laser
 62
7
100
AcDbSpline
 70
8
 71
3
 72
8
 73
4
 74
0
 40
0
 40
0
 40
0
 40
0
 40
1
 40
1
 40
1
 40
1
 10
1112.337212
 20
6473.573144
 30
0.0
 10
1120.855932
 20
6468.654859
 30
0.0
 10
1131.351428
 20
6468.654859
 30
0.0
 10
1139.870149
 20
6473.573144
 30
0.0
  0
SPLINE
  5
1f2
100
AcDbEntity
  8
Epilog_Laser
 62
7
100
AcDbSpline
 70
8
 71
3
 72
8
 73
4
 74
0
 40
0
 40
0
 40
0
 40
0
 40
1
 40
1
 40
1
 40
1
 10
1139.870149
 20
6473.573144
 30
0.0
 10
1148.388869
 20
6478.491429
 30
0.0
 10
1153.636617
 20
6487.580796
 30
0.0
 10
1153.636617
 20
6497.417367
 30
0.0
  0
LWPOLYLINE
  5
1f3
100
AcDbEntity
  8
Epilog_Laser
 62
7
100
AcDbPolyline
 90
2
 70
0
 10
1126.103694
 20
5992.489638
 30
0.0
 10
1170.284906
 20
5992.489638
 30
0.0
  0
SPLINE
  5
1f4
100
AcDbEntity
  8
Epilog_Laser
 62
7
100
AcDbSpline
 70
8
 71
3
 72
8
 73
4
 74
0
 40
0
 40
0
 40
0
 40
0
 40
1
 40
1
 40
1
 40
1
 10
217.233342
 20
6951.852718
 30
0.0
 10
217.233607
 20
6449.897673
 30
0.0
 10
624.148649
 20
6042.982853
 30
0.0
 10
1126.103694
 20
6042.982862
 30
0.0
  0
LWPOLYLINE
  5
1f5
100
AcDbEntity
  8
Epilog_Laser
 62
7
100
AcDbPolyline
 90
2
 70
1
 10
1153.636617
 20
6497.417367
 30
0.0
 10
1153.636617
 20
6497.417367
 30
0.0
  0
LWPOLYLINE
  5
1f6
100
AcDbEntity
  8
Epilog_Laser
 62
7
100
AcDbPolyline
 90
5
 70
0
 10
1126.103694
 20
6951.852718
 30
0.0
 10
217.233342
 20
6951.852718
 30
0.0
 10
217.233342
 20
6907.671111
 30
0.0
 10
1126.103694
 20
6907.671111
 30
0.0
 10
1126.103694
 20
6951.852718
 30
0.0
  0
SPLINE
  5
1f7
100
AcDbEntity
  8
Epilog_Laser
 62
7
100
AcDbSpline
 70
8
 71
3
 72
8
 73
4
 74
0
 40
0
 40
0
 40
0
 40
0
 40
1
 40
1
 40
1
 40
1
 10
6608.236438
 20
10263.168027
 30
0.0
 10
6608.252698
 20
10273.015412
 30
0.0
 10
6603.008517
 20
10282.121735
 30
0.0
 10
6594.483131
 20
10287.050128
 30
0.0
  0
SPLINE
  5
1f8
100
AcDbEntity
  8
Epilog_Laser
 62
7
100
AcDbSpline
 70
8
 71
3
 72
8
 73
4
 74
0
 40
0
 40
0
 40
0
 40
0
 40
1
 40
1
 40
1
 40
1
 10
6594.483131
 20
10287.050128
 30
0.0
 10
6585.957746
 20
10291.978520
 30
0.0
 10
6575.449341
 20
10291.978520
 30
0.0
 10
6566.923955
 20
10287.050128
 30
0.0
  0
SPLINE
  5
1f9
100
AcDbEntity
  8
Epilog_Laser
 62
7
100
AcDbSpline
 70
8
 71
3
 72
8
 73
4
 74
0
 40
0
 40
0
 40
0
 40
0
 40
1
 40
1
 40
1
 40
1
 10
6566.923955
 20
10287.050128
 30
0.0
 10
6558.398569
 20
10282.121735
 30
0.0
 10
6553.154388
 20
10273.015412
 30
0.0
 10
6553.170649
 20
10263.168027
 30
0.0
  0
SPLINE
  5
1fa
100
AcDbEntity
  8
Epilog_Laser
 62
7
100
AcDbSpline
 70
8
 71
3
 72
8
 73
4
 74
0
 40
0
 40
0
 40
0
 40
0
 40
1
 40
1
 40
1
 40
1
 10
6553.170649
 20
10263.168027
 30
0.0
 10
6553.195728
 20
10247.979780
 30
0.0
 10
6565.515276
 20
10235.680558
 30
0.0
 10
6580.703543
 20
10235.680558
 30
0.0
  0
SPLINE
  5
1fb
100
AcDbEntity
  8
Epilog_Laser
 62
7
100
AcDbSpline
 70
8
 71
3
 72
8
 73
4
 74
0
 40
0
 40
0
 40
0
 40
0
 40
1
 40
1
 40
1
 40
1
 10
6580.703543
 20
10235.680558
 30
0.0
 10
6595.891810
 20
10235.680558
 30
0.0
 10
6608.211358
 20
10247.979780
 30
0.0
 10
6608.236438
 20
10263.168027
 30
0.0
  0
LWPOLYLINE
  5
1fc
100
AcDbEntity
  8
Epilog_Laser
 62
7
100
AcDbPolyline
 90
2
 70
0
 10
1126.103694
 20
6042.982862
 30
0.0
 10
1170.284906
 20
6042.982862
 30
0.0
  0
SPLINE
  5
1fd
100
AcDbEntity
  8
Epilog_Laser
 62
7
100
AcDbSpline
 70
8
 71
3
 72
8
 73
4
 74
0
 40
0
 40
0
 40
0
 40
0
 40
1
 40
1
 40
1
 40
1
 10
7035.138753
 20
10263.168027
 30
0.0
 10
7035.138925
 20
10504.215554
 30
0.0
 10
6939.383283
 20
10735.390460
 30
0.0
 10
6768.936995
 20
10905.836854
 30
0.0
  0
SPLINE
  5
1fe
100
AcDbEntity
  8
Epilog_Laser
 62
7
100
AcDbSpline
 70
8
 71
3
 72
8
 73
4
 74
0
 40
0
 40
0
 40
0
 40
0
 40
1
 40
1
 40
1
 40
1
 10
6768.936995
 20
10905.836854
 30
0.0
 10
6598.490707
 20
11076.283248
 30
0.0
 10
6367.315860
 20
11172.039034
 30
0.0
 10
6126.268333
 20
11172.039011
 30
0.0
  0
LWPOLYLINE
  5
1ff
100
AcDbEntity
  8
Epilog_Laser
 62
7
100
AcDbPolyline
 90
2
 70
1
 10
6608.236438
 20
10263.168027
 30
0.0
 10
6608.236438
 20
10263.168027
 30
0.0
  0
SPLINE
  5
200
100
AcDbEntity
  8
Epilog_Laser
 62
7
100
AcDbSpline
 70
8
 71
3
 72
8
 73
4
 74
0
 40
0
 40
0
 40
0
 40
0
 40
1
 40
1
 40
1
 40
1
 10
22336.743067
 20
12102.823704
 30
0.0
 10
22336.759327
 20
12112.671089
 30
0.0
 10
22331.515146
 20
12121.777413
 30
0.0
 10
22322.989760
 20
12126.705806
 30
0.0
  0
SPLINE
  5
201
100
AcDbEntity
  8
Epilog_Laser
 62
7
100
AcDbSpline
 70
8
 71
3
 72
8
 73
4
 74
0
 40
0
 40
0
 40
0
 40
0
 40
1
 40
1
 40
1
 40
1
 10
22322.989760
 20
12126.705806
 30
0.0
 10
22314.464375
 20
12131.634198
 30
0.0
 10
22303.955970
 20
12131.634198
 30
0.0
 10
22295.430584
 20
12126.705806
 30
0.0
  0
SPLINE
  5
202
100
AcDbEntity
  8
Epilog_Laser
 62
7
100
AcDbSpline
 70
8
 71
3
 72
8
 73
4
 74
0
 40
0
 40
0
 40
0
 40
0
 40
1
 40
1
 40
1
 40
1
 10
22295.430584
 20
12126.705806
 30
0.0
 10
22286.905198
 20
12121.777413
 30
0.0
 10
22281.661017
 20
12112.671089
 30
0.0
 10
22281.677278
 20
12102.823704
 30
0.0
  0
SPLINE
  5
203
100
AcDbEntity
  8
Epilog_Laser
 62
7
100
AcDbSpline
 70
8
 71
3
 72
8
 73
4
 74
0
 40
0
 40
0
 40
0
 40
0
 40
1
 40
1
 40
1
 40
1
 10
22281.677278
 20
12102.823704
 30
0.0
 10
22281.702357
 20
12087.635458
 30
0.0
 10
22294.021905
 20
12075.336236
 30
0.0
 10
22309.210172
 20
12075.336236
 30
0.0
  0
SPLINE
  5
204
100
AcDbEntity
  8
Epilog_Laser
 62
7
100
AcDbSpline
 70
8
 71
3
 72
8
 73
4
 74
0
 40
0
 40
0
 40
0
 40
0
 40
1
 40
1
 40
1
 40
1
 10
22309.210172
 20
12075.336236
 30
0.0
 10
22324.398439
 20
12075.336236
 30
0.0
 10
22336.717987
 20
12087.635458
 30
0.0
 10
22336.743067
 20
12102.823704
 30
0.0
  0
LWPOLYLINE
  5
205
100
AcDbEntity
  8
Epilog_Laser
 62
7
100
AcDbPolyline
 90
5
 70
0
 10
6126.268333
 20
10263.168027
 30
0.0
 10
6126.268333
 20
11172.039011
 30
0.0
 10
6170.449658
 20
11172.039011
 30
0.0
 10
6170.449658
 20
10263.168027
 30
0.0
 10
6126.268333
 20
10263.168027
 30
0.0
  0
SPLINE
  5
206
100
AcDbEntity
  8
Epilog_Laser
 62
7
100
AcDbSpline
 70
8
 71
3
 72
8
 73
4
 74
0
 40
0
 40
0
 40
0
 40
0
 40
1
 40
1
 40
1
 40
1
 10
22763.645664
 20
13011.694689
 30
0.0
 10
22522.598049
 20
13011.694831
 30
0.0
 10
22291.423075
 20
12915.939102
 30
0.0
 10
22120.976671
 20
12745.492698
 30
0.0
  0
SPLINE
  5
207
100
AcDbEntity
  8
Epilog_Laser
 62
7
100
AcDbSpline
 70
8
 71
3
 72
8
 73
4
 74
0
 40
0
 40
0
 40
0
 40
0
 40
1
 40
1
 40
1
 40
1
 10
22120.976671
 20
12745.492698
 30
0.0
 10
21950.530267
 20
12575.046294
 30
0.0
 10
21854.774538
 20
12343.871320
 30
0.0
 10
21854.774680
 20
12102.823704
 30
0.0
  0
LWPOLYLINE
  5
208
100
AcDbEntity
  8
Epilog_Laser
 62
7
100
AcDbPolyline
 90
2
 70
1
 10
22336.743067
 20
12102.823704
 30
0.0
 10
22336.743067
 20
12102.823704
 30
0.0
  0
LWPOLYLINE
  5
209
100
AcDbEntity
  8
Epilog_Laser
 62
7
100
AcDbPolyline
 90
5
 70
0
 10
22763.645664
 20
12102.823704
 30
0.0
 10
22763.645664
 20
13011.694689
 30
0.0
 10
22719.464058
 20
13011.694689
 30
0.0
 10
22719.464058
 20
12102.823704
 30
0.0
 10
22763.645664
 20
12102.823704
 30
0.0
  0
LWPOLYLINE
  5
20a
100
AcDbEntity
  8
Epilog_Laser
 62
7
100
AcDbPolyline
 90
2
 70
0
 10
1025.118064
 20
16469.744951
 30
0.0
 10
1025.118064
 20
14954.964587
 30
0.0
  0
LWPOLYLINE
  5
20b
100
AcDbEntity
  8
Epilog_Laser
 62
7
100
AcDbPolyline
 90
2
 70
0
 10
1429.060529
 20
16469.744951
 30
0.0
 10
1429.060529
 20
14954.961200
 30
0.0
  0
LWPOLYLINE
  5
20c
100
AcDbEntity
  8
Epilog_Laser
 62
7
100
AcDbPolyline
 90
2
 70
0
 10
1176.596552
 20
16412.941238
 30
0.0
 10
1176.596552
 20
15011.766042
 30
0.0
  0
LWPOLYLINE
  5
20d
100
AcDbEntity
  8
Epilog_Laser
 62
7
100
AcDbPolyline
 90
2
 70
0
 10
1277.582041
 20
15011.766042
 30
0.0
 10
1277.582041
 20
16412.941238
 30
0.0
  0
LWPOLYLINE
  5
20e
100
AcDbEntity
  8
Epilog_Laser
 62
7
100
AcDbPolyline
 90
2
 70
0
 10
1025.118064
 20
13743.134538
 30
0.0
 10
1025.118064
 20
12228.353044
 30
0.0
  0
LWPOLYLINE
  5
20f
100
AcDbEntity
  8
Epilog_Laser
 62
7
100
AcDbPolyline
 90
2
 70
0
 10
1429.060529
 20
13743.134538
 30
0.0
 10
1429.060529
 20
12228.350787
 30
0.0
  0
LWPOLYLINE
  5
210
100
AcDbEntity
  8
Epilog_Laser
 62
7
100
AcDbPolyline
 90
2
 70
0
 10
1176.596552
 20
13686.329696
 30
0.0
 10
1176.596552
 20
12285.154500
 30
0.0
  0
LWPOLYLINE
  5
211
100
AcDbEntity
  8
Epilog_Laser
 62
7
100
AcDbPolyline
 90
2
 70
0
 10
1277.582041
 20
12285.154500
 30
0.0
 10
1277.582041
 20
13686.329696
 30
0.0
  0
LWPOLYLINE
  5
212
100
AcDbEntity
  8
Epilog_Laser
 62
7
100
AcDbPolyline
 90
2
 70
0
 10
1227.613186
 20
16412.941238
 30
0.0
 10
1227.613186
 20
15011.766042
 30
0.0
  0
LWPOLYLINE
  5
213
100
AcDbEntity
  8
Epilog_Laser
 62
7
100
AcDbPolyline
 90
2
 70
0
 10
1227.613186
 20
13686.329696
 30
0.0
 10
1227.613186
 20
12285.154500
 30
0.0
  0
LWPOLYLINE
  5
214
100
AcDbEntity
  8
Epilog_Laser
 62
7
100
AcDbPolyline
 90
2
 70
0
 10
1025.118064
 20
14954.961200
 30
0.0
 10
1176.596552
 20
14954.961200
 30
0.0
  0
LWPOLYLINE
  5
215
100
AcDbEntity
  8
Epilog_Laser
 62
7
100
AcDbPolyline
 90
2
 70
0
 10
1353.321285
 20
14954.961200
 30
0.0
 10
1429.060529
 20
14954.961200
 30
0.0
  0
LWPOLYLINE
  5
216
100
AcDbEntity
  8
Epilog_Laser
 62
7
100
AcDbPolyline
 90
2
 70
0
 10
1176.596552
 20
14954.961200
 30
0.0
 10
1176.596552
 20
15011.766042
 30
0.0
  0
LWPOLYLINE
  5
217
100
AcDbEntity
  8
Epilog_Laser
 62
7
100
AcDbPolyline
 90
2
 70
0
 10
1277.582041
 20
14980.211058
 30
0.0
 10
1277.582041
 20
15011.766042
 30
0.0
  0
LWPOLYLINE
  5
218
100
AcDbEntity
  8
Epilog_Laser
 62
7
100
AcDbPolyline
 90
2
 70
0
 10
1277.582041
 20
14980.211058
 30
0.0
 10
1353.321285
 20
14980.208236
 30
0.0
  0
LWPOLYLINE
  5
219
100
AcDbEntity
  8
Epilog_Laser
 62
7
100
AcDbPolyline
 90
2
 70
0
 10
1353.321285
 20
14980.207953
 30
0.0
 10
1353.321285
 20
14954.961200
 30
0.0
  0
LWPOLYLINE
  5
21a
100
AcDbEntity
  8
Epilog_Laser
 62
7
100
AcDbPolyline
 90
2
 70
0
 10
1176.596552
 20
15011.766042
 30
0.0
 10
1277.582041
 20
15011.766042
 30
0.0
  0
LWPOLYLINE
  5
21b
100
AcDbEntity
  8
Epilog_Laser
 62
7
100
AcDbPolyline
 90
2
 70
0
 10
1176.596552
 20
14954.961200
 30
0.0
 10
1353.321285
 20
14954.961200
 30
0.0
  0
LWPOLYLINE
  5
21c
100
AcDbEntity
  8
Epilog_Laser
 62
7
100
AcDbPolyline
 90
2
 70
0
 10
1277.582041
 20
14980.211058
 30
0.0
 10
1277.582041
 20
14954.961200
 30
0.0
  0
LWPOLYLINE
  5
21d
100
AcDbEntity
  8
Epilog_Laser
 62
7
100
AcDbPolyline
 90
2
 70
0
 10
1025.118064
 20
16469.744951
 30
0.0
 10
1176.596552
 20
16469.744951
 30
0.0
  0
LWPOLYLINE
  5
21e
100
AcDbEntity
  8
Epilog_Laser
 62
7
100
AcDbPolyline
 90
2
 70
0
 10
1353.321285
 20
16469.744951
 30
0.0
 10
1429.060529
 20
16469.744951
 30
0.0
  0
LWPOLYLINE
  5
21f
100
AcDbEntity
  8
Epilog_Laser
 62
7
100
AcDbPolyline
 90
2
 70
0
 10
1176.596552
 20
16469.744951
 30
0.0
 10
1176.596552
 20
16412.941238
 30
0.0
  0
LWPOLYLINE
  5
220
100
AcDbEntity
  8
Epilog_Laser
 62
7
100
AcDbPolyline
 90
2
 70
0
 10
1277.582041
 20
16444.496222
 30
0.0
 10
1277.582041
 20
16412.941238
 30
0.0
  0
LWPOLYLINE
  5
221
100
AcDbEntity
  8
Epilog_Laser
 62
7
100
AcDbPolyline
 90
2
 70
0
 10
1277.582041
 20
16444.496222
 30
0.0
 10
1353.321285
 20
16444.496222
 30
0.0
  0
LWPOLYLINE
  5
222
100
AcDbEntity
  8
Epilog_Laser
 62
7
100
AcDbPolyline
 90
2
 70
0
 10
1353.321285
 20
16444.498480
 30
0.0
 10
1353.321285
 20
16469.744951
 30
0.0
  0
LWPOLYLINE
  5
223
100
AcDbEntity
  8
Epilog_Laser
 62
7
100
AcDbPolyline
 90
2
 70
0
 10
1176.596552
 20
16412.941238
 30
0.0
 10
1277.582041
 20
16412.941238
 30
0.0
  0
LWPOLYLINE
  5
224
100
AcDbEntity
  8
Epilog_Laser
 62
7
100
AcDbPolyline
 90
2
 70
0
 10
1176.596552
 20
16469.744951
 30
0.0
 10
1353.321285
 20
16469.744951
 30
0.0
  0
LWPOLYLINE
  5
225
100
AcDbEntity
  8
Epilog_Laser
 62
7
100
AcDbPolyline
 90
2
 70
0
 10
1277.582041
 20
16444.496222
 30
0.0
 10
1277.582041
 20
16469.744951
 30
0.0
  0
LWPOLYLINE
  5
226
100
AcDbEntity
  8
Epilog_Laser
 62
7
100
AcDbPolyline
 90
2
 70
0
 10
1025.118064
 20
12228.350787
 30
0.0
 10
1176.596552
 20
12228.350787
 30
0.0
  0
LWPOLYLINE
  5
227
100
AcDbEntity
  8
Epilog_Laser
 62
7
100
AcDbPolyline
 90
2
 70
0
 10
1353.321285
 20
12228.350787
 30
0.0
 10
1429.060529
 20
12228.350787
 30
0.0
  0
LWPOLYLINE
  5
228
100
AcDbEntity
  8
Epilog_Laser
 62
7
100
AcDbPolyline
 90
2
 70
0
 10
1176.596552
 20
12228.350787
 30
0.0
 10
1176.596552
 20
12285.154500
 30
0.0
  0
LWPOLYLINE
  5
229
100
AcDbEntity
  8
Epilog_Laser
 62
7
100
AcDbPolyline
 90
2
 70
0
 10
1277.582041
 20
12253.599516
 30
0.0
 10
1277.582041
 20
12285.154500
 30
0.0
  0
LWPOLYLINE
  5
22a
100
AcDbEntity
  8
Epilog_Laser
 62
7
100
AcDbPolyline
 90
2
 70
0
 10
1277.582041
 20
12253.599516
 30
0.0
 10
1353.321285
 20
12253.596693
 30
0.0
  0
LWPOLYLINE
  5
22b
100
AcDbEntity
  8
Epilog_Laser
 62
7
100
AcDbPolyline
 90
2
 70
0
 10
1353.321285
 20
12253.596411
 30
0.0
 10
1353.321285
 20
12228.350787
 30
0.0
  0
LWPOLYLINE
  5
22c
100
AcDbEntity
  8
Epilog_Laser
 62
7
100
AcDbPolyline
 90
2
 70
0
 10
1176.596552
 20
12285.154500
 30
0.0
 10
1277.582041
 20
12285.154500
 30
0.0
  0
LWPOLYLINE
  5
22d
100
AcDbEntity
  8
Epilog_Laser
 62
7
100
AcDbPolyline
 90
2
 70
0
 10
1176.596552
 20
12228.350787
 30
0.0
 10
1353.321285
 20
12228.350787
 30
0.0
  0
LWPOLYLINE
  5
22e
100
AcDbEntity
  8
Epilog_Laser
 62
7
100
AcDbPolyline
 90
2
 70
0
 10
1277.582041
 20
12253.599516
 30
0.0
 10
1277.582041
 20
12228.350787
 30
0.0
  0
LWPOLYLINE
  5
22f
100
AcDbEntity
  8
Epilog_Laser
 62
7
100
AcDbPolyline
 90
2
 70
0
 10
1025.118064
 20
13743.134538
 30
0.0
 10
1176.596552
 20
13743.134538
 30
0.0
  0
LWPOLYLINE
  5
230
100
AcDbEntity
  8
Epilog_Laser
 62
7
100
AcDbPolyline
 90
2
 70
0
 10
1353.321285
 20
13743.134538
 30
0.0
 10
1429.060529
 20
13743.134538
 30
0.0
  0
LWPOLYLINE
  5
231
100
AcDbEntity
  8
Epilog_Laser
 62
7
100
AcDbPolyline
 90
2
 70
0
 10
1176.596552
 20
13743.134538
 30
0.0
 10
1176.596552
 20
13686.329696
 30
0.0
  0
LWPOLYLINE
  5
232
100
AcDbEntity
  8
Epilog_Laser
 62
7
100
AcDbPolyline
 90
2
 70
0
 10
1277.582041
 20
13717.884680
 30
0.0
 10
1277.582041
 20
13686.329696
 30
0.0
  0
LWPOLYLINE
  5
233
100
AcDbEntity
  8
Epilog_Laser
 62
7
100
AcDbPolyline
 90
2
 70
0
 10
1277.582041
 20
13717.884680
 30
0.0
 10
1353.321285
 20
13717.887502
 30
0.0
  0
LWPOLYLINE
  5
234
100
AcDbEntity
  8
Epilog_Laser
 62
7
100
AcDbPolyline
 90
2
 70
0
 10
1353.321285
 20
13717.888067
 30
0.0
 10
1353.321285
 20
13743.134538
 30
0.0
  0
LWPOLYLINE
  5
235
100
AcDbEntity
  8
Epilog_Laser
 62
7
100
AcDbPolyline
 90
2
 70
0
 10
1176.596552
 20
13686.329696
 30
0.0
 10
1277.582041
 20
13686.329696
 30
0.0
  0
LWPOLYLINE
  5
236
100
AcDbEntity
  8
Epilog_Laser
 62
7
100
AcDbPolyline
 90
2
 70
0
 10
1176.596552
 20
13743.134538
 30
0.0
 10
1353.321285
 20
13743.134538
 30
0.0
  0
LWPOLYLINE
  5
237
100
AcDbEntity
  8
Epilog_Laser
 62
7
100
AcDbPolyline
 90
2
 70
0
 10
1277.582041
 20
13717.884680
 30
0.0
 10
1277.582041
 20
13743.134538
 30
0.0
  0
LWPOLYLINE
  5
238
100
AcDbEntity
  8
Epilog_Laser
 62
7
100
AcDbPolyline
 90
5
 70
0
 10
2876.291484
 20
12349.623665
 30
0.0
 10
4088.118678
 20
12349.623665
 30
0.0
 10
4088.118678
 20
11137.796912
 30
0.0
 10
2876.291484
 20
11137.796912
 30
0.0
 10
2876.291484
 20
12349.623665
 30
0.0
  0
LWPOLYLINE
  5
239
100
AcDbEntity
  8
Epilog_Laser
 62
7
100
AcDbPolyline
 90
5
 70
0
 10
7966.355074
 20
10936.312202
 30
0.0
 10
9859.835545
 20
10936.312202
 30
0.0
 10
9859.835545
 20
12918.154662
 30
0.0
 10
7966.355074
 20
12918.154662
 30
0.0
 10
7966.355074
 20
10936.312202
 30
0.0
  0
LWPOLYLINE
  5
23a
100
AcDbEntity
  8
Epilog_Laser
 62
7
100
AcDbPolyline
 90
2
 70
0
 10
1478.785014
 20
3671.494845
 30
0.0
 10
2690.612212
 20
3671.494845
 30
0.0
  0
LWPOLYLINE
  5
23b
100
AcDbEntity
  8
Epilog_Laser
 62
7
100
AcDbPolyline
 90
3
 70
0
 10
1478.785014
 20
3671.494845
 30
0.0
 10
1478.785014
 20
3065.581880
 30
0.0
 10
2690.612212
 20
3065.581880
 30
0.0
  0
LWPOLYLINE
  5
23c
100
AcDbEntity
  8
Epilog_Laser
 62
7
100
AcDbPolyline
 90
2
 70
0
 10
2690.612212
 20
3671.494845
 30
0.0
 10
2690.612212
 20
3065.581880
 30
0.0
  0
LWPOLYLINE
  5
23d
100
AcDbEntity
  8
Epilog_Laser
 62
7
100
AcDbPolyline
 90
7
 70
0
 10
10085.480187
 20
4329.922676
 30
0.0
 10
9861.561407
 20
4514.096100
 30
0.0
 10
9846.406074
 20
4495.670940
 30
0.0
 10
9801.493229
 20
4532.612418
 30
0.0
 10
10102.945792
 20
4899.118896
 30
0.0
 10
9929.291354
 20
5094.079418
 30
0.0
 10
9914.136020
 20
5075.653411
 30
0.0
  0
LWPOLYLINE
  5
23e
100
AcDbEntity
  8
Epilog_Laser
 62
7
100
AcDbPolyline
 90
2
 70
0
 10
9850.897358
 20
5146.650927
 30
0.0
 10
9856.734278
 20
5153.754460
 30
0.0
  0
LWPOLYLINE
  5
23f
100
AcDbEntity
  8
Epilog_Laser
 62
7
100
AcDbPolyline
 90
9
 70
0
 10
9856.739640
 20
5153.753331
 30
0.0
 10
9696.665454
 20
5285.415642
 30
0.0
 10
9713.715063
 20
5306.144582
 30
0.0
 10
9667.650187
 20
5344.033198
 30
0.0
 10
9650.600578
 20
5323.304258
 30
0.0
 10
9492.137598
 20
5453.639842
 30
0.0
 10
9407.836127
 20
5351.146609
 30
0.0
 10
9383.652505
 20
5371.037631
 30
0.0
 10
9376.075403
 20
5361.819689
 30
0.0
  0
LWPOLYLINE
  5
240
100
AcDbEntity
  8
Epilog_Laser
 62
7
100
AcDbPolyline
 90
34
 70
0
 10
9376.075403
 20
5361.825051
 30
0.0
 10
9280.490969
 20
5440.442567
 30
0.0
 10
9181.981303
 20
5320.675358
 30
0.0
 10
9269.504058
 20
5248.686678
 30
0.0
 10
9194.434076
 20
5157.417422
 30
0.0
 10
9161.036463
 20
5184.886393
 30
0.0
 10
9185.664303
 20
5214.827913
 30
0.0
 10
9147.661105
 20
5246.086565
 30
0.0
 10
9095.564294
 20
5182.746585
 30
0.0
 10
9069.077738
 20
5204.532729
 30
0.0
 10
9050.132725
 20
5181.500856
 30
0.0
 10
9082.378307
 20
5154.979022
 30
0.0
 10
9027.440083
 20
5088.185207
 30
0.0
 10
9050.471956
 20
5069.240476
 30
0.0
 10
9037.211180
 20
5053.118249
 30
0.0
 10
8981.933725
 20
5098.583967
 30
0.0
 10
8970.566943
 20
5084.764391
 30
0.0
 10
9002.812525
 20
5058.242558
 30
0.0
 10
8942.191474
 20
4984.539096
 30
0.0
 10
8969.830343
 20
4961.806942
 30
0.0
 10
8888.370285
 20
4862.767545
 30
0.0
 10
8933.283129
 20
4825.826067
 30
0.0
 10
8511.047923
 20
4312.473440
 30
0.0
 10
8425.828100
 20
4382.566716
 30
0.0
 10
8320.688469
 20
4254.738111
 30
0.0
 10
8336.810696
 20
4241.477053
 30
0.0
 10
8071.592645
 20
3919.024618
 30
0.0
 10
8137.234429
 20
3865.033531
 30
0.0
 10
8400.558205
 20
4185.183316
 30
0.0
 10
8421.287145
 20
4168.133707
 30
0.0
 10
8414.657180
 20
4160.072029
 30
0.0
 10
8446.901634
 20
4133.550196
 30
0.0
 10
8324.712676
 20
3984.991240
 30
0.0
 10
8690.925925
 20
3683.778849
 30
0.0
  0
LWPOLYLINE
  5
241
100
AcDbEntity
  8
Epilog_Laser
 62
7
100
AcDbPolyline
 90
3
 70
0
 10
8381.119867
 20
4328.211280
 30
0.0
 10
8058.897725
 20
4593.239960
 30
0.0
 10
8008.696318
 20
4532.204889
 30
0.0
  0
SPLINE
  5
242
100
AcDbEntity
  8
Epilog_Laser
 62
7
100
AcDbSpline
 70
8
 71
3
 72
8
 73
4
 74
0
 40
0
 40
0
 40
0
 40
0
 40
1
 40
1
 40
1
 40
1
 10
8008.696318
 20
4532.204889
 30
0.0
 10
7910.249881
 20
4332.678192
 30
0.0
 10
7934.689928
 20
4094.410621
 30
0.0
 10
8071.592645
 20
3919.024618
 30
0.0
  0
LWPOLYLINE
  5
243
100
AcDbEntity
  8
Epilog_Laser
 62
7
100
AcDbPolyline
 90
2
 70
0
 10
8330.917614
 20
4267.175080
 30
0.0
 10
8008.696318
 20
4532.204889
 30
0.0
  0
LWPOLYLINE
  5
244
100
AcDbEntity
  8
Epilog_Laser
 62
7
100
AcDbPolyline
 90
2
 70
0
 10
8977.238676
 20
3501.942507
 30
0.0
 10
8748.272634
 20
3621.995042
 30
0.0
  0
LWPOLYLINE
  5
245
100
AcDbEntity
  8
Epilog_Laser
 62
7
100
AcDbPolyline
 90
4
 70
0
 10
8758.172425
 20
3641.597351
 30
0.0
 10
8904.127880
 20
3567.884011
 30
0.0
 10
9008.321220
 20
3694.561713
 30
0.0
 10
8800.548938
 20
3817.487553
 30
0.0
  0
LWPOLYLINE
  5
246
100
AcDbEntity
  8
Epilog_Laser
 62
7
100
AcDbPolyline
 90
2
 70
0
 10
8518.075538
 20
3825.948858
 30
0.0
 10
8501.872878
 20
3806.250876
 30
0.0
  0
LWPOLYLINE
  5
247
100
AcDbEntity
  8
Epilog_Laser
 62
7
100
AcDbPolyline
 90
2
 70
0
 10
8538.571927
 20
3751.548307
 30
0.0
 10
8538.524796
 20
3751.491016
 30
0.0
  0
LWPOLYLINE
  5
248
100
AcDbEntity
  8
Epilog_Laser
 62
7
100
AcDbPolyline
 90
2
 70
0
 10
8511.872858
 20
3748.895418
 30
0.0
 10
8474.114065
 20
3779.952562
 30
0.0
  0
LWPOLYLINE
  5
249
100
AcDbEntity
  8
Epilog_Laser
 62
7
100
AcDbPolyline
 90
2
 70
0
 10
8440.530467
 20
3758.993329
 30
0.0
 10
8440.640816
 20
3758.883262
 30
0.0
  0
LWPOLYLINE
  5
24a
100
AcDbEntity
  8
Epilog_Laser
 62
7
100
AcDbPolyline
 90
2
 70
0
 10
8414.841189
 20
3853.220838
 30
0.0
 10
8414.888603
 20
3853.278129
 30
0.0
  0
LWPOLYLINE
  5
24b
100
AcDbEntity
  8
Epilog_Laser
 62
7
100
AcDbPolyline
 90
3
 70
0
 10
8441.540540
 20
3855.874009
 30
0.0
 10
8475.213320
 20
3828.178131
 30
0.0
 10
8491.415698
 20
3847.877242
 30
0.0
  0
LWPOLYLINE
  5
24c
100
AcDbEntity
  8
Epilog_Laser
 62
7
100
AcDbPolyline
 90
2
 70
0
 10
10202.838629
 20
3066.418895
 30
0.0
 10
9512.956849
 20
3633.850633
 30
0.0
  0
LWPOLYLINE
  5
24d
100
AcDbEntity
  8
Epilog_Laser
 62
7
100
AcDbPolyline
 90
4
 70
0
 10
10202.838629
 20
3066.418895
 30
0.0
 10
10182.219756
 20
3041.349603
 30
0.0
 10
9492.337129
 20
3608.781398
 30
0.0
 10
10085.480187
 20
4329.922676
 30
0.0
  0
LWPOLYLINE
  5
24e
100
AcDbEntity
  8
Epilog_Laser
 62
7
100
AcDbPolyline
 90
3
 70
0
 10
9492.337129
 20
3608.781398
 30
0.0
 10
9472.740183
 20
3624.899109
 30
0.0
 10
9319.512707
 20
3438.605631
 30
0.0
  0
LWPOLYLINE
  5
24f
100
AcDbEntity
  8
Epilog_Laser
 62
7
100
AcDbPolyline
 90
2
 70
0
 10
9914.136020
 20
5075.653411
 30
0.0
 10
9850.897358
 20
5146.650927
 30
0.0
  0
LWPOLYLINE
  5
250
100
AcDbEntity
  8
Epilog_Laser
 62
7
100
AcDbPolyline
 90
2
 70
0
 10
8501.872878
 20
3806.250876
 30
0.0
 10
8535.976329
 20
3778.200245
 30
0.0
  0
LWPOLYLINE
  5
251
100
AcDbEntity
  8
Epilog_Laser
 62
7
100
AcDbPolyline
 90
2
 70
0
 10
8474.114065
 20
3779.952562
 30
0.0
 10
8458.298049
 20
3760.723351
 30
0.0
  0
LWPOLYLINE
  5
252
100
AcDbEntity
  8
Epilog_Laser
 62
7
100
AcDbPolyline
 90
2
 70
0
 10
8454.766320
 20
3795.866509
 30
0.0
 10
8438.950305
 20
3776.637580
 30
0.0
  0
SPLINE
  5
253
100
AcDbEntity
  8
Epilog_Laser
 62
7
100
AcDbSpline
 70
8
 71
3
 72
8
 73
4
 74
0
 40
0
 40
0
 40
0
 40
0
 40
1
 40
1
 40
1
 40
1
 10
8440.530467
 20
3758.993329
 30
0.0
 10
8445.914318
 20
3754.564523
 30
0.0
 10
8453.869011
 20
3755.338563
 30
0.0
 10
8458.298049
 20
3760.722222
 30
0.0
  0
SPLINE
  5
254
100
AcDbEntity
  8
Epilog_Laser
 62
7
100
AcDbSpline
 70
8
 71
3
 72
8
 73
4
 74
0
 40
0
 40
0
 40
0
 40
0
 40
1
 40
1
 40
1
 40
1
 10
8438.950305
 20
3776.637580
 30
0.0
 10
8434.521499
 20
3771.253730
 30
0.0
 10
8435.295539
 20
3763.299036
 30
0.0
 10
8440.679198
 20
3758.869998
 30
0.0
  0
SPLINE
  5
255
100
AcDbEntity
  8
Epilog_Laser
 62
7
100
AcDbSpline
 70
8
 71
3
 72
8
 73
4
 74
0
 40
0
 40
0
 40
0
 40
0
 40
1
 40
1
 40
1
 40
1
 10
8538.571927
 20
3751.548307
 30
0.0
 10
8541.761630
 20
3755.427186
 30
0.0
 10
8543.279771
 20
3760.414322
 30
0.0
 10
8542.792364
 20
3765.412556
 30
0.0
  0
SPLINE
  5
256
100
AcDbEntity
  8
Epilog_Laser
 62
7
100
AcDbSpline
 70
8
 71
3
 72
8
 73
4
 74
0
 40
0
 40
0
 40
0
 40
0
 40
1
 40
1
 40
1
 40
1
 10
8542.792364
 20
3765.412556
 30
0.0
 10
8542.304958
 20
3770.410790
 30
0.0
 10
8539.851930
 20
3775.010674
 30
0.0
 10
8535.972943
 20
3778.200245
 30
0.0
  0
SPLINE
  5
257
100
AcDbEntity
  8
Epilog_Laser
 62
7
100
AcDbSpline
 70
8
 71
3
 72
8
 73
4
 74
0
 40
0
 40
0
 40
0
 40
0
 40
1
 40
1
 40
1
 40
1
 10
8511.872858
 20
3748.895418
 30
0.0
 10
8515.751738
 20
3745.705716
 30
0.0
 10
8520.738873
 20
3744.187574
 30
0.0
 10
8525.737107
 20
3744.674981
 30
0.0
  0
SPLINE
  5
258
100
AcDbEntity
  8
Epilog_Laser
 62
7
100
AcDbSpline
 70
8
 71
3
 72
8
 73
4
 74
0
 40
0
 40
0
 40
0
 40
0
 40
1
 40
1
 40
1
 40
1
 10
8525.737107
 20
3744.674981
 30
0.0
 10
8530.735341
 20
3745.162387
 30
0.0
 10
8535.335225
 20
3747.615415
 30
0.0
 10
8538.524796
 20
3751.494402
 30
0.0
  0
SPLINE
  5
259
100
AcDbEntity
  8
Epilog_Laser
 62
7
100
AcDbSpline
 70
8
 71
3
 72
8
 73
4
 74
0
 40
0
 40
0
 40
0
 40
0
 40
1
 40
1
 40
1
 40
1
 10
8441.540540
 20
3855.874009
 30
0.0
 10
8437.661626
 20
3859.063679
 30
0.0
 10
8432.674468
 20
3860.581773
 30
0.0
 10
8427.676232
 20
3860.094313
 30
0.0
  0
SPLINE
  5
25a
100
AcDbEntity
  8
Epilog_Laser
 62
7
100
AcDbSpline
 70
8
 71
3
 72
8
 73
4
 74
0
 40
0
 40
0
 40
0
 40
0
 40
1
 40
1
 40
1
 40
1
 10
8427.676232
 20
3860.094313
 30
0.0
 10
8422.677997
 20
3859.606853
 30
0.0
 10
8418.078133
 20
3857.153772
 30
0.0
 10
8414.888603
 20
3853.274742
 30
0.0
  0
SPLINE
  5
25b
100
AcDbEntity
  8
Epilog_Laser
 62
7
100
AcDbSpline
 70
8
 71
3
 72
8
 73
4
 74
0
 40
0
 40
0
 40
0
 40
0
 40
1
 40
1
 40
1
 40
1
 10
8414.841189
 20
3853.220838
 30
0.0
 10
8411.651519
 20
3849.341923
 30
0.0
 10
8410.133425
 20
3844.354765
 30
0.0
 10
8410.620885
 20
3839.356530
 30
0.0
  0
SPLINE
  5
25c
100
AcDbEntity
  8
Epilog_Laser
 62
7
100
AcDbSpline
 70
8
 71
3
 72
8
 73
4
 74
0
 40
0
 40
0
 40
0
 40
0
 40
1
 40
1
 40
1
 40
1
 10
8410.620885
 20
3839.356530
 30
0.0
 10
8411.108345
 20
3834.358294
 30
0.0
 10
8413.561426
 20
3829.758430
 30
0.0
 10
8417.440456
 20
3826.568900
 30
0.0
  0
LWPOLYLINE
  5
25d
100
AcDbEntity
  8
Epilog_Laser
 62
7
100
AcDbPolyline
 90
2
 70
0
 10
8454.766320
 20
3795.866509
 30
0.0
 10
8417.437069
 20
3826.568900
 30
0.0
  0
LWPOLYLINE
  5
25e
100
AcDbEntity
  8
Epilog_Laser
 62
7
100
AcDbPolyline
 90
2
 70
0
 10
8690.714540
 20
3683.952698
 30
0.0
 10
8800.548938
 20
3817.487553
 30
0.0
  0
LWPOLYLINE
  5
25f
100
AcDbEntity
  8
Epilog_Laser
 62
7
100
AcDbPolyline
 90
2
 70
0
 10
8758.172425
 20
3641.597351
 30
0.0
 10
8748.271787
 20
3621.995042
 30
0.0
  0
LWPOLYLINE
  5
260
100
AcDbEntity
  8
Epilog_Laser
 62
7
100
AcDbPolyline
 90
2
 70
0
 10
9082.159020
 20
3633.830878
 30
0.0
 10
9319.512707
 20
3438.605631
 30
0.0
  0
SPLINE
  5
261
100
AcDbEntity
  8
Epilog_Laser
 62
7
100
AcDbSpline
 70
8
 71
3
 72
8
 73
4
 74
0
 40
0
 40
0
 40
0
 40
0
 40
1
 40
1
 40
1
 40
1
 10
10202.838629
 20
3066.418895
 30
0.0
 10
10439.529347
 20
3468.995119
 30
0.0
 10
10392.267394
 20
3977.826492
 30
0.0
 10
10085.480187
 20
4329.922676
 30
0.0
  0
SPLINE
  5
262
100
AcDbEntity
  8
Epilog_Laser
 62
7
100
AcDbSpline
 70
8
 71
3
 72
8
 73
4
 74
0
 40
0
 40
0
 40
0
 40
0
 40
1
 40
1
 40
1
 40
1
 10
9065.831054
 20
5365.955091
 30
0.0
 10
9065.877786
 20
5474.222330
 30
0.0
 10
9008.144740
 20
5574.285385
 30
0.0
 10
8914.390342
 20
5628.432499
 30
0.0
  0
SPLINE
  5
263
100
AcDbEntity
  8
Epilog_Laser
 62
7
100
AcDbSpline
 70
8
 71
3
 72
8
 73
4
 74
0
 40
0
 40
0
 40
0
 40
0
 40
1
 40
1
 40
1
 40
1
 10
8914.390342
 20
5628.432499
 30
0.0
 10
8820.635943
 20
5682.579614
 30
0.0
 10
8705.112269
 20
5682.579614
 30
0.0
 10
8611.357870
 20
5628.432499
 30
0.0
  0
SPLINE
  5
264
100
AcDbEntity
  8
Epilog_Laser
 62
7
100
AcDbSpline
 70
8
 71
3
 72
8
 73
4
 74
0
 40
0
 40
0
 40
0
 40
0
 40
1
 40
1
 40
1
 40
1
 10
8611.357870
 20
5628.432499
 30
0.0
 10
8517.603472
 20
5574.285385
 30
0.0
 10
8459.870426
 20
5474.222330
 30
0.0
 10
8459.917158
 20
5365.955091
 30
0.0
  0
SPLINE
  5
265
100
AcDbEntity
  8
Epilog_Laser
 62
7
100
AcDbSpline
 70
8
 71
3
 72
8
 73
4
 74
0
 40
0
 40
0
 40
0
 40
0
 40
1
 40
1
 40
1
 40
1
 10
8459.917158
 20
5365.955091
 30
0.0
 10
8459.989357
 20
5198.687655
 30
0.0
 10
8595.606654
 20
5063.128883
 30
0.0
 10
8762.874106
 20
5063.128883
 30
0.0
  0
SPLINE
  5
266
100
AcDbEntity
  8
Epilog_Laser
 62
7
100
AcDbSpline
 70
8
 71
3
 72
8
 73
4
 74
0
 40
0
 40
0
 40
0
 40
0
 40
1
 40
1
 40
1
 40
1
 10
8762.874106
 20
5063.128883
 30
0.0
 10
8930.141558
 20
5063.128883
 30
0.0
 10
9065.758855
 20
5198.687655
 30
0.0
 10
9065.831054
 20
5365.955091
 30
0.0
  0
LWPOLYLINE
  5
267
100
AcDbEntity
  8
Epilog_Laser
 62
7
100
AcDbPolyline
 90
2
 70
0
 10
9084.281332
 20
3632.085051
 30
0.0
 10
8977.238676
 20
3501.942507
 30
0.0
  0
SPLINE
  5
268
100
AcDbEntity
  8
Epilog_Laser
 62
7
100
AcDbSpline
 70
8
 71
3
 72
8
 73
4
 74
0
 40
0
 40
0
 40
0
 40
0
 40
1
 40
1
 40
1
 40
1
 10
8630.826138
 20
4837.077138
 30
0.0
 10
8630.872871
 20
4945.344377
 30
0.0
 10
8573.139825
 20
5045.407431
 30
0.0
 10
8479.385426
 20
5099.554546
 30
0.0
  0
SPLINE
  5
269
100
AcDbEntity
  8
Epilog_Laser
 62
7
100
AcDbSpline
 70
8
 71
3
 72
8
 73
4
 74
0
 40
0
 40
0
 40
0
 40
0
 40
1
 40
1
 40
1
 40
1
 10
8479.385426
 20
5099.554546
 30
0.0
 10
8385.631028
 20
5153.701660
 30
0.0
 10
8270.107353
 20
5153.701660
 30
0.0
 10
8176.352955
 20
5099.554546
 30
0.0
  0
SPLINE
  5
26a
100
AcDbEntity
  8
Epilog_Laser
 62
7
100
AcDbSpline
 70
8
 71
3
 72
8
 73
4
 74
0
 40
0
 40
0
 40
0
 40
0
 40
1
 40
1
 40
1
 40
1
 10
8176.352955
 20
5099.554546
 30
0.0
 10
8082.598556
 20
5045.407431
 30
0.0
 10
8024.865510
 20
4945.344377
 30
0.0
 10
8024.912243
 20
4837.077138
 30
0.0
  0
SPLINE
  5
26b
100
AcDbEntity
  8
Epilog_Laser
 62
7
100
AcDbSpline
 70
8
 71
3
 72
8
 73
4
 74
0
 40
0
 40
0
 40
0
 40
0
 40
1
 40
1
 40
1
 40
1
 10
8024.912243
 20
4837.077138
 30
0.0
 10
8024.984442
 20
4669.809701
 30
0.0
 10
8160.601739
 20
4534.250930
 30
0.0
 10
8327.869190
 20
4534.250930
 30
0.0
  0
SPLINE
  5
26c
100
AcDbEntity
  8
Epilog_Laser
 62
7
100
AcDbSpline
 70
8
 71
3
 72
8
 73
4
 74
0
 40
0
 40
0
 40
0
 40
0
 40
1
 40
1
 40
1
 40
1
 10
8327.869190
 20
4534.250930
 30
0.0
 10
8495.136642
 20
4534.250930
 30
0.0
 10
8630.753939
 20
4669.809701
 30
0.0
 10
8630.826138
 20
4837.077138
 30
0.0
  0
LWPOLYLINE
  5
26d
100
AcDbEntity
  8
Epilog_Laser
 62
7
100
AcDbPolyline
 90
2
 70
1
 10
9065.831054
 20
5365.955091
 30
0.0
 10
9065.831054
 20
5365.955091
 30
0.0
  0
LWPOLYLINE
  5
26e
100
AcDbEntity
  8
Epilog_Laser
 62
7
100
AcDbPolyline
 90
2
 70
1
 10
8630.826138
 20
4837.077138
 30
0.0
 10
8630.826138
 20
4837.077138
 30
0.0
  0
LWPOLYLINE
  5
26f
100
AcDbEntity
  8
Epilog_Laser
 62
7
100
AcDbPolyline
 90
2
 70
0
 10
15471.723189
 20
11877.111318
 30
0.0
 10
15468.760703
 20
12864.446571
 30
0.0
  0
LWPOLYLINE
  5
270
100
AcDbEntity
  8
Epilog_Laser
 62
7
100
AcDbPolyline
 90
2
 70
0
 10
15468.764089
 20
12864.446571
 30
0.0
 10
14364.290527
 20
12861.131589
 30
0.0
  0
LWPOLYLINE
  5
271
100
AcDbEntity
  8
Epilog_Laser
 62
7
100
AcDbPolyline
 90
2
 70
0
 10
14364.290527
 20
12861.137233
 30
0.0
 10
14364.070112
 20
12919.428822
 30
0.0
  0
LWPOLYLINE
  5
272
100
AcDbEntity
  8
Epilog_Laser
 62
7
100
AcDbPolyline
 90
2
 70
0
 10
14348.729923
 20
12934.722727
 30
0.0
 10
14348.729923
 20
12934.722727
 30
0.0
  0
LWPOLYLINE
  5
273
100
AcDbEntity
  8
Epilog_Laser
 62
7
100
AcDbPolyline
 90
2
 70
0
 10
14333.436018
 20
12919.336253
 30
0.0
 10
14333.656152
 20
12861.044665
 30
0.0
  0
LWPOLYLINE
  5
274
100
AcDbEntity
  8
Epilog_Laser
 62
7
100
AcDbPolyline
 90
2
 70
0
 10
14333.610996
 20
12861.044665
 30
0.0
 10
14210.891178
 20
12860.714182
 30
0.0
  0
LWPOLYLINE
  5
275
100
AcDbEntity
  8
Epilog_Laser
 62
7
100
AcDbPolyline
 90
2
 70
0
 10
14210.891178
 20
12860.676929
 30
0.0
 10
14210.560696
 20
12983.396465
 30
0.0
  0
LWPOLYLINE
  5
276
100
AcDbEntity
  8
Epilog_Laser
 62
7
100
AcDbPolyline
 90
2
 70
0
 10
14210.523443
 20
12983.396465
 30
0.0
 10
14216.657825
 20
12983.416220
 30
0.0
  0
SPLINE
  5
277
100
AcDbEntity
  8
Epilog_Laser
 62
7
100
AcDbSpline
 70
8
 71
3
 72
8
 73
4
 74
0
 40
0
 40
0
 40
0
 40
0
 40
1
 40
1
 40
1
 40
1
 10
14214.613689
 20
12983.408600
 30
0.0
 10
14234.550838
 20
12983.485928
 30
0.0
 10
14250.809823
 20
12999.407903
 30
0.0
 10
14251.304665
 20
13019.339060
 30
0.0
  0
SPLINE
  5
278
100
AcDbEntity
  8
Epilog_Laser
 62
7
100
AcDbSpline
 70
8
 71
3
 72
8
 73
4
 74
0
 40
0
 40
0
 40
0
 40
0
 40
1
 40
1
 40
1
 40
1
 10
14251.304665
 20
13019.339060
 30
0.0
 10
14251.799506
 20
13039.270217
 30
0.0
 10
14236.350673
 20
13055.979419
 30
0.0
 10
14216.441925
 20
13057.046022
 30
0.0
  0
LWPOLYLINE
  5
279
100
AcDbEntity
  8
Epilog_Laser
 62
7
100
AcDbPolyline
 90
2
 70
0
 10
14210.303027
 20
13057.028525
 30
0.0
 10
14216.437409
 20
13057.045458
 30
0.0
  0
LWPOLYLINE
  5
27a
100
AcDbEntity
  8
Epilog_Laser
 62
7
100
AcDbPolyline
 90
2
 70
0
 10
14210.303027
 20
13057.028525
 30
0.0
 10
14209.201796
 20
13425.185720
 30
0.0
  0
LWPOLYLINE
  5
27b
100
AcDbEntity
  8
Epilog_Laser
 62
7
100
AcDbPolyline
 90
3
 70
0
 10
14209.199538
 20
13425.185720
 30
0.0
 10
14135.567760
 20
13424.965305
 30
0.0
 10
14136.668992
 20
13056.806980
 30
0.0
  0
LWPOLYLINE
  5
27c
100
AcDbEntity
  8
Epilog_Laser
 62
7
100
AcDbPolyline
 90
2
 70
0
 10
14136.671249
 20
13056.806980
 30
0.0
 10
14087.583209
 20
13056.696913
 30
0.0
  0
LWPOLYLINE
  5
27d
100
AcDbEntity
  8
Epilog_Laser
 62
7
100
AcDbPolyline
 90
2
 70
0
 10
14087.583209
 20
13056.660507
 30
0.0
 10
14087.693558
 20
13007.572749
 30
0.0
  0
LWPOLYLINE
  5
27e
100
AcDbEntity
  8
Epilog_Laser
 62
7
100
AcDbPolyline
 90
2
 70
0
 10
14087.730812
 20
13007.572749
 30
0.0
 10
13719.572769
 20
13006.471518
 30
0.0
  0
LWPOLYLINE
  5
27f
100
AcDbEntity
  8
Epilog_Laser
 62
7
100
AcDbPolyline
 90
3
 70
0
 10
13719.572769
 20
13006.469260
 30
0.0
 10
13719.792903
 20
12932.838329
 30
0.0
 10
14087.951227
 20
12933.939842
 30
0.0
  0
SPLINE
  5
280
100
AcDbEntity
  8
Epilog_Laser
 62
7
100
AcDbSpline
 70
8
 71
3
 72
8
 73
4
 74
0
 40
0
 40
0
 40
0
 40
0
 40
1
 40
1
 40
1
 40
1
 10
14135.567760
 20
13424.965305
 30
0.0
 10
13917.791512
 20
13396.453729
 30
0.0
 10
13746.778450
 20
13224.412499
 30
0.0
 10
13719.572769
 20
13006.469260
 30
0.0
  0
LWPOLYLINE
  5
281
100
AcDbEntity
  8
Epilog_Laser
 62
7
100
AcDbPolyline
 90
3
 70
0
 10
14087.951227
 20
12933.940689
 30
0.0
 10
14088.171360
 20
12860.308911
 30
0.0
 10
13842.732854
 20
12859.538162
 30
0.0
  0
LWPOLYLINE
  5
282
100
AcDbEntity
  8
Epilog_Laser
 62
7
100
AcDbPolyline
 90
2
 70
0
 10
13842.732854
 20
12859.574287
 30
0.0
 10
13843.724300
 20
12540.504002
 30
0.0
  0
LWPOLYLINE
  5
283
100
AcDbEntity
  8
Epilog_Laser
 62
7
100
AcDbPolyline
 90
4
 70
0
 10
13843.690152
 20
12540.504002
 30
0.0
 10
13722.372132
 20
12559.002822
 30
0.0
 10
13722.262065
 20
12595.818711
 30
0.0
 10
13489.095709
 20
12595.158029
 30
0.0
  0
LWPOLYLINE
  5
284
100
AcDbEntity
  8
Epilog_Laser
 62
7
100
AcDbPolyline
 90
2
 70
0
 10
13489.095709
 20
12595.120493
 30
0.0
 10
13489.756392
 20
12386.497029
 30
0.0
  0
LWPOLYLINE
  5
285
100
AcDbEntity
  8
Epilog_Laser
 62
7
100
AcDbPolyline
 90
4
 70
0
 10
13843.980840
 20
12443.237807
 30
0.0
 10
13722.776274
 20
12424.012265
 30
0.0
 10
13722.886623
 20
12387.196376
 30
0.0
 10
13489.719985
 20
12386.535411
 30
0.0
  0
LWPOLYLINE
  5
286
100
AcDbEntity
  8
Epilog_Laser
 62
7
100
AcDbPolyline
 90
2
 70
0
 10
13843.980840
 20
12443.237807
 30
0.0
 10
13845.599667
 20
11903.273036
 30
0.0
  0
LWPOLYLINE
  5
287
100
AcDbEntity
  8
Epilog_Laser
 62
7
100
AcDbPolyline
 90
3
 70
0
 10
13845.598538
 20
11903.273036
 30
0.0
 10
13882.414427
 20
11903.383102
 30
0.0
 10
13882.524776
 20
11866.568342
 30
0.0
  0
LWPOLYLINE
  5
288
100
AcDbEntity
  8
Epilog_Laser
 62
7
100
AcDbPolyline
 90
2
 70
0
 10
13882.525905
 20
11866.568342
 30
0.0
 10
13845.709734
 20
11866.458276
 30
0.0
  0
LWPOLYLINE
  5
289
100
AcDbEntity
  8
Epilog_Laser
 62
7
100
AcDbPolyline
 90
2
 70
0
 10
13845.709734
 20
11866.457147
 30
0.0
 10
13847.174467
 20
11375.580133
 30
0.0
  0
LWPOLYLINE
  5
28a
100
AcDbEntity
  8
Epilog_Laser
 62
7
100
AcDbPolyline
 90
2
 70
0
 10
13847.180112
 20
11375.580133
 30
0.0
 10
13356.303098
 20
11374.104393
 30
0.0
  0
SPLINE
  5
28b
100
AcDbEntity
  8
Epilog_Laser
 62
7
100
AcDbSpline
 70
8
 71
3
 72
8
 73
4
 74
0
 40
0
 40
0
 40
0
 40
0
 40
1
 40
1
 40
1
 40
1
 10
13882.469743
 20
11884.975722
 30
0.0
 10
13610.734353
 20
11887.135372
 30
0.0
 10
13382.341886
 20
11681.407743
 30
0.0
 10
13356.193032
 20
11410.924798
 30
0.0
  0
LWPOLYLINE
  5
28c
100
AcDbEntity
  8
Epilog_Laser
 62
7
100
AcDbPolyline
 90
2
 70
0
 10
13356.193032
 20
11410.924798
 30
0.0
 10
13847.070045
 20
11412.400538
 30
0.0
  0
LWPOLYLINE
  5
28d
100
AcDbEntity
  8
Epilog_Laser
 62
7
100
AcDbPolyline
 90
2
 70
0
 10
13847.180112
 20
11375.580133
 30
0.0
 10
14141.706376
 20
11376.461231
 30
0.0
  0
LWPOLYLINE
  5
28e
100
AcDbEntity
  8
Epilog_Laser
 62
7
100
AcDbPolyline
 90
5
 70
0
 10
14141.706376
 20
11376.463489
 30
0.0
 10
14141.816725
 20
11339.647600
 30
0.0
 10
14178.632614
 20
11339.757667
 30
0.0
 10
14178.522547
 20
11376.573556
 30
0.0
 10
14184.656647
 20
11376.593311
 30
0.0
  0
LWPOLYLINE
  5
28f
100
AcDbEntity
  8
Epilog_Laser
 62
7
100
AcDbPolyline
 90
3
 70
0
 10
14184.658905
 20
11376.592182
 30
0.0
 10
14184.585245
 20
11401.135073
 30
0.0
 10
14258.217023
 20
11401.355489
 30
0.0
  0
LWPOLYLINE
  5
290
100
AcDbEntity
  8
Epilog_Laser
 62
7
100
AcDbPolyline
 90
2
 70
0
 10
14258.217023
 20
11401.356618
 30
0.0
 10
14258.657572
 20
11254.092780
 30
0.0
  0
LWPOLYLINE
  5
291
100
AcDbEntity
  8
Epilog_Laser
 62
7
100
AcDbPolyline
 90
2
 70
0
 10
14283.201592
 20
11254.166440
 30
0.0
 10
14285.844603
 20
10370.587365
 30
0.0
  0
LWPOLYLINE
  5
292
100
AcDbEntity
  8
Epilog_Laser
 62
7
100
AcDbPolyline
 90
2
 70
0
 10
14322.665007
 20
10370.697431
 30
0.0
 10
14320.021996
 20
11254.276789
 30
0.0
  0
SPLINE
  5
293
100
AcDbEntity
  8
Epilog_Laser
 62
7
100
AcDbSpline
 70
8
 71
3
 72
8
 73
4
 74
0
 40
0
 40
0
 40
0
 40
0
 40
1
 40
1
 40
1
 40
1
 10
14322.665007
 20
10370.697431
 30
0.0
 10
14798.688646
 20
10399.681732
 30
0.0
 10
15177.466191
 20
10780.736618
 30
0.0
 10
15203.596556
 20
11256.925445
 30
0.0
  0
LWPOLYLINE
  5
294
100
AcDbEntity
  8
Epilog_Laser
 62
7
100
AcDbPolyline
 90
2
 70
0
 10
14258.657572
 20
11254.092780
 30
0.0
 10
15203.596556
 20
11256.923187
 30
0.0
  0
LWPOLYLINE
  5
295
100
AcDbEntity
  8
Epilog_Laser
 62
7
100
AcDbPolyline
 90
4
 70
0
 10
15203.596556
 20
11256.925445
 30
0.0
 10
15203.522896
 20
11281.468336
 30
0.0
 10
15228.066634
 20
11281.541996
 30
0.0
 10
15227.295885
 20
11539.252371
 30
0.0
  0
LWPOLYLINE
  5
296
100
AcDbEntity
  8
Epilog_Laser
 62
7
100
AcDbPolyline
 90
2
 70
0
 10
15227.294756
 20
11539.252371
 30
0.0
 10
15172.070358
 20
11539.142305
 30
0.0
  0
LWPOLYLINE
  5
297
100
AcDbEntity
  8
Epilog_Laser
 62
7
100
AcDbPolyline
 90
4
 70
0
 10
15172.070358
 20
11539.087271
 30
0.0
 10
15171.960009
 20
11575.903160
 30
0.0
 10
15117.023196
 20
11581.519947
 30
0.0
 10
15116.142098
 20
11876.046211
 30
0.0
  0
LWPOLYLINE
  5
298
100
AcDbEntity
  8
Epilog_Laser
 62
7
100
AcDbPolyline
 90
4
 70
0
 10
15116.139840
 20
11876.046211
 30
0.0
 10
15140.683860
 20
11876.119025
 30
0.0
 10
15140.757520
 20
11851.575005
 30
0.0
 10
15232.796960
 20
11851.905487
 30
0.0
  0
SPLINE
  5
299
100
AcDbEntity
  8
Epilog_Laser
 62
7
100
AcDbSpline
 70
8
 71
3
 72
8
 73
4
 74
0
 40
0
 40
0
 40
0
 40
0
 40
1
 40
1
 40
1
 40
1
 10
14364.115267
 20
12919.428822
 30
0.0
 10
14364.089832
 20
12927.900586
 30
0.0
 10
14357.201687
 20
12934.747792
 30
0.0
 10
14348.729923
 20
12934.722727
 30
0.0
  0
SPLINE
  5
29a
100
AcDbEntity
  8
Epilog_Laser
 62
7
100
AcDbSpline
 70
8
 71
3
 72
8
 73
4
 74
0
 40
0
 40
0
 40
0
 40
0
 40
1
 40
1
 40
1
 40
1
 10
14348.729923
 20
12934.722727
 30
0.0
 10
14344.661433
 20
12934.710512
 30
0.0
 10
14340.764436
 20
12933.082566
 30
0.0
 10
14337.896260
 20
12930.197029
 30
0.0
  0
SPLINE
  5
29b
100
AcDbEntity
  8
Epilog_Laser
 62
7
100
AcDbSpline
 70
8
 71
3
 72
8
 73
4
 74
0
 40
0
 40
0
 40
0
 40
0
 40
1
 40
1
 40
1
 40
1
 10
14337.896260
 20
12930.197029
 30
0.0
 10
14335.028083
 20
12927.311492
 30
0.0
 10
14333.423682
 20
12923.404743
 30
0.0
 10
14333.436018
 20
12919.336253
 30
0.0
  0
SPLINE
  5
29c
100
AcDbEntity
  8
Epilog_Laser
 62
7
100
AcDbSpline
 70
8
 71
3
 72
8
 73
4
 74
0
 40
0
 40
0
 40
0
 40
0
 40
1
 40
1
 40
1
 40
1
 10
14889.825840
 20
13216.287653
 30
0.0
 10
14889.872573
 20
13324.554893
 30
0.0
 10
14832.139527
 20
13424.617947
 30
0.0
 10
14738.385129
 20
13478.765061
 30
0.0
  0
SPLINE
  5
29d
100
AcDbEntity
  8
Epilog_Laser
 62
7
100
AcDbSpline
 70
8
 71
3
 72
8
 73
4
 74
0
 40
0
 40
0
 40
0
 40
0
 40
1
 40
1
 40
1
 40
1
 10
14738.385129
 20
13478.765061
 30
0.0
 10
14644.630730
 20
13532.912176
 30
0.0
 10
14529.107055
 20
13532.912176
 30
0.0
 10
14435.352657
 20
13478.765061
 30
0.0
  0
SPLINE
  5
29e
100
AcDbEntity
  8
Epilog_Laser
 62
7
100
AcDbSpline
 70
8
 71
3
 72
8
 73
4
 74
0
 40
0
 40
0
 40
0
 40
0
 40
1
 40
1
 40
1
 40
1
 10
14435.352657
 20
13478.765061
 30
0.0
 10
14341.598258
 20
13424.617947
 30
0.0
 10
14283.865213
 20
13324.554893
 30
0.0
 10
14283.911945
 20
13216.287653
 30
0.0
  0
SPLINE
  5
29f
100
AcDbEntity
  8
Epilog_Laser
 62
7
100
AcDbSpline
 70
8
 71
3
 72
8
 73
4
 74
0
 40
0
 40
0
 40
0
 40
0
 40
1
 40
1
 40
1
 40
1
 10
14283.911945
 20
13216.287653
 30
0.0
 10
14283.984144
 20
13049.020217
 30
0.0
 10
14419.601441
 20
12913.461445
 30
0.0
 10
14586.868893
 20
12913.461445
 30
0.0
  0
SPLINE
  5
2a0
100
AcDbEntity
  8
Epilog_Laser
 62
7
100
AcDbSpline
 70
8
 71
3
 72
8
 73
4
 74
0
 40
0
 40
0
 40
0
 40
0
 40
1
 40
1
 40
1
 40
1
 10
14586.868893
 20
12913.461445
 30
0.0
 10
14754.136345
 20
12913.461445
 30
0.0
 10
14889.753641
 20
13049.020217
 30
0.0
 10
14889.825840
 20
13216.287653
 30
0.0
  0
LWPOLYLINE
  5
2a1
100
AcDbEntity
  8
Epilog_Laser
 62
7
100
AcDbPolyline
 90
3
 70
0
 10
15232.796960
 20
11851.851582
 30
0.0
 10
15232.723018
 20
11876.395320
 30
0.0
 10
15471.723189
 20
11877.056285
 30
0.0
  0
SPLINE
  5
2a2
100
AcDbEntity
  8
Epilog_Laser
 62
7
100
AcDbSpline
 70
8
 71
3
 72
8
 73
4
 74
0
 40
0
 40
0
 40
0
 40
0
 40
1
 40
1
 40
1
 40
1
 10
15574.614920
 20
13218.340538
 30
0.0
 10
15574.796063
 20
13326.697065
 30
0.0
 10
15517.092551
 20
13426.900217
 30
0.0
 10
15423.283120
 20
13481.130839
 30
0.0
  0
SPLINE
  5
2a3
100
AcDbEntity
  8
Epilog_Laser
 62
7
100
AcDbSpline
 70
8
 71
3
 72
8
 73
4
 74
0
 40
0
 40
0
 40
0
 40
0
 40
1
 40
1
 40
1
 40
1
 10
15423.283120
 20
13481.130839
 30
0.0
 10
15329.473688
 20
13535.361462
 30
0.0
 10
15213.843386
 20
13535.361462
 30
0.0
 10
15120.033954
 20
13481.130839
 30
0.0
  0
SPLINE
  5
2a4
100
AcDbEntity
  8
Epilog_Laser
 62
7
100
AcDbSpline
 70
8
 71
3
 72
8
 73
4
 74
0
 40
0
 40
0
 40
0
 40
0
 40
1
 40
1
 40
1
 40
1
 10
15120.033954
 20
13481.130839
 30
0.0
 10
15026.224523
 20
13426.900217
 30
0.0
 10
14968.521011
 20
13326.697065
 30
0.0
 10
14968.702154
 20
13218.340538
 30
0.0
  0
SPLINE
  5
2a5
100
AcDbEntity
  8
Epilog_Laser
 62
7
100
AcDbSpline
 70
8
 71
3
 72
8
 73
4
 74
0
 40
0
 40
0
 40
0
 40
0
 40
1
 40
1
 40
1
 40
1
 10
14968.702154
 20
13218.340538
 30
0.0
 10
14968.521011
 20
13109.984010
 30
0.0
 10
15026.224523
 20
13009.780859
 30
0.0
 10
15120.033954
 20
12955.550237
 30
0.0
  0
SPLINE
  5
2a6
100
AcDbEntity
  8
Epilog_Laser
 62
7
100
AcDbSpline
 70
8
 71
3
 72
8
 73
4
 74
0
 40
0
 40
0
 40
0
 40
0
 40
1
 40
1
 40
1
 40
1
 10
15120.033954
 20
12955.550237
 30
0.0
 10
15213.843386
 20
12901.319614
 30
0.0
 10
15329.473688
 20
12901.319614
 30
0.0
 10
15423.283120
 20
12955.550237
 30
0.0
  0
SPLINE
  5
2a7
100
AcDbEntity
  8
Epilog_Laser
 62
7
100
AcDbSpline
 70
8
 71
3
 72
8
 73
4
 74
0
 40
0
 40
0
 40
0
 40
0
 40
1
 40
1
 40
1
 40
1
 10
15423.283120
 20
12955.550237
 30
0.0
 10
15517.092551
 20
13009.780859
 30
0.0
 10
15574.796063
 20
13109.984010
 30
0.0
 10
15574.614920
 20
13218.340538
 30
0.0
  0
LWPOLYLINE
  5
2a8
100
AcDbEntity
  8
Epilog_Laser
 62
7
100
AcDbPolyline
 90
2
 70
1
 10
14889.825840
 20
13216.287653
 30
0.0
 10
14889.825840
 20
13216.287653
 30
0.0
  0
LWPOLYLINE
  5
2a9
100
AcDbEntity
  8
Epilog_Laser
 62
7
100
AcDbPolyline
 90
2
 70
1
 10
15574.614920
 20
13218.340538
 30
0.0
 10
15574.614920
 20
13218.340538
 30
0.0
  0
LWPOLYLINE
  5
2aa
100
AcDbEntity
  8
Epilog_Laser
 62
7
100
AcDbPolyline
 90
2
 70
0
 10
11255.639560
 20
9193.224269
 30
0.0
 10
10628.446109
 20
8430.684096
 30
0.0
  0
LWPOLYLINE
  5
2ab
100
AcDbEntity
  8
Epilog_Laser
 62
7
100
AcDbPolyline
 90
4
 70
0
 10
10663.526332
 20
8473.333800
 30
0.0
 10
10483.446540
 20
8621.451078
 30
0.0
 10
10463.957685
 20
8597.756265
 30
0.0
 10
10644.037476
 20
8449.640116
 30
0.0
  0
LWPOLYLINE
  5
2ac
100
AcDbEntity
  8
Epilog_Laser
 62
7
100
AcDbPolyline
 90
3
 70
0
 10
10628.446109
 20
8430.684096
 30
0.0
 10
11481.454874
 20
7729.080216
 30
0.0
 10
11444.425060
 20
7684.059280
 30
0.0
  0
LWPOLYLINE
  5
2ad
100
AcDbEntity
  8
Epilog_Laser
 62
7
100
AcDbPolyline
 90
2
 70
0
 10
11446.528745
 20
7662.468151
 30
0.0
 10
11446.528745
 20
7662.468151
 30
0.0
  0
LWPOLYLINE
  5
2ae
100
AcDbEntity
  8
Epilog_Laser
 62
7
100
AcDbPolyline
 90
5
 70
0
 10
11468.120156
 20
7664.570425
 30
0.0
 10
11505.149687
 20
7709.591360
 30
0.0
 10
11599.927812
 20
7631.634527
 30
0.0
 10
11521.972107
 20
7536.856120
 30
0.0
 10
11517.236700
 20
7540.755020
 30
0.0
  0
SPLINE
  5
2af
100
AcDbEntity
  8
Epilog_Laser
 62
7
100
AcDbSpline
 70
8
 71
3
 72
8
 73
4
 74
0
 40
0
 40
0
 40
0
 40
0
 40
1
 40
1
 40
1
 40
1
 10
11518.812629
 20
7539.454258
 30
0.0
 10
11503.403220
 20
7552.109475
 30
0.0
 10
11480.722260
 20
7550.209627
 30
0.0
 10
11467.632912
 20
7535.167241
 30
0.0
  0
SPLINE
  5
2b0
100
AcDbEntity
  8
Epilog_Laser
 62
7
100
AcDbSpline
 70
8
 71
3
 72
8
 73
4
 74
0
 40
0
 40
0
 40
0
 40
0
 40
1
 40
1
 40
1
 40
1
 10
11467.632912
 20
7535.167241
 30
0.0
 10
11454.543564
 20
7520.124854
 30
0.0
 10
11455.796077
 20
7497.398953
 30
0.0
 10
11470.459214
 20
7483.886113
 30
0.0
  0
LWPOLYLINE
  5
2b1
100
AcDbEntity
  8
Epilog_Laser
 62
7
100
AcDbPolyline
 90
2
 70
0
 10
11475.198289
 20
7479.988625
 30
0.0
 10
11470.462600
 20
7483.887242
 30
0.0
  0
SPLINE
  5
2b2
100
AcDbEntity
  8
Epilog_Laser
 62
7
100
AcDbSpline
 70
8
 71
3
 72
8
 73
4
 74
0
 40
0
 40
0
 40
0
 40
0
 40
1
 40
1
 40
1
 40
1
 10
11298.197825
 20
7148.878740
 30
0.0
 10
11484.152411
 20
7032.001526
 30
0.0
 10
11725.587204
 20
7055.514808
 30
0.0
 10
11885.496060
 20
7206.075589
 30
0.0
  0
LWPOLYLINE
  5
2b3
100
AcDbEntity
  8
Epilog_Laser
 62
7
100
AcDbPolyline
 90
16
 70
0
 10
11475.198289
 20
7479.988625
 30
0.0
 10
11241.330047
 20
7195.652840
 30
0.0
 10
11298.197825
 20
7148.878740
 30
0.0
 10
11532.065785
 20
7433.214525
 30
0.0
 10
11569.977543
 20
7402.032920
 30
0.0
 10
11601.160276
 20
7439.943549
 30
0.0
 10
11885.496060
 20
7206.075589
 30
0.0
 10
11932.270160
 20
7262.943085
 30
0.0
 10
11647.933247
 20
7496.811327
 30
0.0
 10
11694.707347
 20
7553.678822
 30
0.0
 10
11884.265007
 20
7397.766567
 30
0.0
 10
12086.950234
 20
7644.191722
 30
0.0
 10
12168.620547
 20
7552.593960
 30
0.0
 10
12145.233074
 20
7524.160353
 30
0.0
 10
12325.312583
 20
7376.043076
 30
0.0
 10
12457.838494
 20
7537.167976
 30
0.0
  0
LWPOLYLINE
  5
2b4
100
AcDbEntity
  8
Epilog_Laser
 62
7
100
AcDbPolyline
 90
4
 70
0
 10
12148.737427
 20
7719.311376
 30
0.0
 10
12254.372358
 20
7656.850236
 30
0.0
 10
12277.758985
 20
7685.284125
 30
0.0
 10
12457.838494
 20
7537.167976
 30
0.0
  0
SPLINE
  5
2b5
100
AcDbEntity
  8
Epilog_Laser
 62
7
100
AcDbSpline
 70
8
 71
3
 72
8
 73
4
 74
0
 40
0
 40
0
 40
0
 40
0
 40
1
 40
1
 40
1
 40
1
 10
12475.003814
 20
8173.941742
 30
0.0
 10
12682.974711
 20
7999.033824
 30
0.0
 10
12990.091653
 20
8011.917425
 30
0.0
 10
13182.682809
 20
8203.628980
 30
0.0
  0
LWPOLYLINE
  5
2b6
100
AcDbEntity
  8
Epilog_Laser
 62
7
100
AcDbPolyline
 90
9
 70
0
 10
12148.737427
 20
7719.311376
 30
0.0
 10
12491.743825
 20
8136.338453
 30
0.0
 10
12463.309936
 20
8159.724798
 30
0.0
 10
12486.696563
 20
8188.158687
 30
0.0
 10
12515.130169
 20
8164.772342
 30
0.0
 10
12826.954963
 20
8543.887662
 30
0.0
 10
13206.069154
 20
8232.062869
 30
0.0
 10
13182.682809
 20
8203.628980
 30
0.0
 10
12803.567489
 20
8515.453773
 30
0.0
  0
LWPOLYLINE
  5
2b7
100
AcDbEntity
  8
Epilog_Laser
 62
7
100
AcDbPolyline
 90
6
 70
0
 10
12826.954963
 20
8543.887662
 30
0.0
 10
12599.485545
 20
8730.981522
 30
0.0
 10
12622.872172
 20
8759.415411
 30
0.0
 10
12594.438283
 20
8782.801756
 30
0.0
 10
12571.051938
 20
8754.368996
 30
0.0
 10
12566.316249
 20
8758.267613
 30
0.0
  0
LWPOLYLINE
  5
2b8
100
AcDbEntity
  8
Epilog_Laser
 62
7
100
AcDbPolyline
 90
4
 70
0
 10
12566.312863
 20
8758.266767
 30
0.0
 10
12550.721496
 20
8739.310747
 30
0.0
 10
12493.854000
 20
8786.083718
 30
0.0
 10
12587.401918
 20
8899.818991
 30
0.0
  0
LWPOLYLINE
  5
2b9
100
AcDbEntity
  8
Epilog_Laser
 62
7
100
AcDbPolyline
 90
4
 70
0
 10
12568.446180
 20
8915.410358
 30
0.0
 10
13129.729172
 20
9597.817200
 30
0.0
 10
13101.295283
 20
9621.203827
 30
0.0
 10
12540.012292
 20
8938.796702
 30
0.0
  0
SPLINE
  5
2ba
100
AcDbEntity
  8
Epilog_Laser
 62
7
100
AcDbSpline
 70
8
 71
3
 72
8
 73
4
 74
0
 40
0
 40
0
 40
0
 40
0
 40
1
 40
1
 40
1
 40
1
 10
13101.295283
 20
9621.203827
 30
0.0
 10
12716.082876
 20
9902.360638
 30
0.0
 10
12181.329073
 20
9850.280469
 30
0.0
 10
11857.605167
 20
9500.079693
 30
0.0
  0
SPLINE
  5
2bb
100
AcDbEntity
  8
Epilog_Laser
 62
7
100
AcDbSpline
 70
8
 71
3
 72
8
 73
4
 74
0
 40
0
 40
0
 40
0
 40
0
 40
1
 40
1
 40
1
 40
1
 10
11444.425060
 20
7684.059280
 30
0.0
 10
11439.044036
 20
7677.516051
 30
0.0
 10
11439.985866
 20
7667.849601
 30
0.0
 10
11446.528745
 20
7662.468151
 30
0.0
  0
SPLINE
  5
2bc
100
AcDbEntity
  8
Epilog_Laser
 62
7
100
AcDbSpline
 70
8
 71
3
 72
8
 73
4
 74
0
 40
0
 40
0
 40
0
 40
0
 40
1
 40
1
 40
1
 40
1
 10
11446.528745
 20
7662.468151
 30
0.0
 10
11453.071943
 20
7657.086869
 30
0.0
 10
11462.738601
 20
7658.028580
 30
0.0
 10
11468.120156
 20
7664.571553
 30
0.0
  0
SPLINE
  5
2bd
100
AcDbEntity
  8
Epilog_Laser
 62
7
100
AcDbSpline
 70
8
 71
3
 72
8
 73
4
 74
0
 40
0
 40
0
 40
0
 40
0
 40
1
 40
1
 40
1
 40
1
 10
11386.509109
 20
7597.371338
 30
0.0
 10
11386.555842
 20
7705.638577
 30
0.0
 10
11328.822796
 20
7805.701631
 30
0.0
 10
11235.068397
 20
7859.848746
 30
0.0
  0
SPLINE
  5
2be
100
AcDbEntity
  8
Epilog_Laser
 62
7
100
AcDbSpline
 70
8
 71
3
 72
8
 73
4
 74
0
 40
0
 40
0
 40
0
 40
0
 40
1
 40
1
 40
1
 40
1
 10
11235.068397
 20
7859.848746
 30
0.0
 10
11141.313999
 20
7913.995860
 30
0.0
 10
11025.790324
 20
7913.995860
 30
0.0
 10
10932.035926
 20
7859.848746
 30
0.0
  0
SPLINE
  5
2bf
100
AcDbEntity
  8
Epilog_Laser
 62
7
100
AcDbSpline
 70
8
 71
3
 72
8
 73
4
 74
0
 40
0
 40
0
 40
0
 40
0
 40
1
 40
1
 40
1
 40
1
 10
10932.035926
 20
7859.848746
 30
0.0
 10
10838.281527
 20
7805.701631
 30
0.0
 10
10780.548482
 20
7705.638577
 30
0.0
 10
10780.595214
 20
7597.371338
 30
0.0
  0
SPLINE
  5
2c0
100
AcDbEntity
  8
Epilog_Laser
 62
7
100
AcDbSpline
 70
8
 71
3
 72
8
 73
4
 74
0
 40
0
 40
0
 40
0
 40
0
 40
1
 40
1
 40
1
 40
1
 10
10780.595214
 20
7597.371338
 30
0.0
 10
10780.667413
 20
7430.103901
 30
0.0
 10
10916.284710
 20
7294.545130
 30
0.0
 10
11083.552162
 20
7294.545130
 30
0.0
  0
SPLINE
  5
2c1
100
AcDbEntity
  8
Epilog_Laser
 62
7
100
AcDbSpline
 70
8
 71
3
 72
8
 73
4
 74
0
 40
0
 40
0
 40
0
 40
0
 40
1
 40
1
 40
1
 40
1
 10
11083.552162
 20
7294.545130
 30
0.0
 10
11250.819614
 20
7294.545130
 30
0.0
 10
11386.436910
 20
7430.103901
 30
0.0
 10
11386.509109
 20
7597.371338
 30
0.0
  0
LWPOLYLINE
  5
2c2
100
AcDbEntity
  8
Epilog_Laser
 62
7
100
AcDbPolyline
 90
14
 70
0
 10
12587.401918
 20
8899.818991
 30
0.0
 10
11857.605167
 20
9500.079693
 30
0.0
 10
11842.013800
 20
9481.123956
 30
0.0
 10
11823.058063
 20
9496.715322
 30
0.0
 10
11659.350547
 20
9297.679793
 30
0.0
 10
11702.001380
 20
9262.599571
 30
0.0
 10
11678.613625
 20
9234.166811
 30
0.0
 10
11717.357938
 20
9194.813462
 30
0.0
 10
11530.262949
 20
8967.345173
 30
0.0
 10
11511.307212
 20
8982.936540
 30
0.0
 10
11526.898296
 20
9001.892278
 30
0.0
 10
11455.814985
 20
9060.359127
 30
0.0
 10
11440.223618
 20
9041.403107
 30
0.0
 10
11255.639560
 20
9193.224269
 30
0.0
  0
SPLINE
  5
2c3
100
AcDbEntity
  8
Epilog_Laser
 62
7
100
AcDbSpline
 70
8
 71
3
 72
8
 73
4
 74
0
 40
0
 40
0
 40
0
 40
0
 40
1
 40
1
 40
1
 40
1
 10
10857.631156
 20
8032.376253
 30
0.0
 10
10857.677888
 20
8140.643493
 30
0.0
 10
10799.944843
 20
8240.706547
 30
0.0
 10
10706.190444
 20
8294.853661
 30
0.0
  0
SPLINE
  5
2c4
100
AcDbEntity
  8
Epilog_Laser
 62
7
100
AcDbSpline
 70
8
 71
3
 72
8
 73
4
 74
0
 40
0
 40
0
 40
0
 40
0
 40
1
 40
1
 40
1
 40
1
 10
10706.190444
 20
8294.853661
 30
0.0
 10
10612.436046
 20
8349.000776
 30
0.0
 10
10496.912371
 20
8349.000776
 30
0.0
 10
10403.157972
 20
8294.853661
 30
0.0
  0
SPLINE
  5
2c5
100
AcDbEntity
  8
Epilog_Laser
 62
7
100
AcDbSpline
 70
8
 71
3
 72
8
 73
4
 74
0
 40
0
 40
0
 40
0
 40
0
 40
1
 40
1
 40
1
 40
1
 10
10403.157972
 20
8294.853661
 30
0.0
 10
10309.403574
 20
8240.706547
 30
0.0
 10
10251.670528
 20
8140.643493
 30
0.0
 10
10251.717260
 20
8032.376253
 30
0.0
  0
SPLINE
  5
2c6
100
AcDbEntity
  8
Epilog_Laser
 62
7
100
AcDbSpline
 70
8
 71
3
 72
8
 73
4
 74
0
 40
0
 40
0
 40
0
 40
0
 40
1
 40
1
 40
1
 40
1
 10
10251.717260
 20
8032.376253
 30
0.0
 10
10251.789460
 20
7865.108817
 30
0.0
 10
10387.406756
 20
7729.550045
 30
0.0
 10
10554.674208
 20
7729.550045
 30
0.0
  0
SPLINE
  5
2c7
100
AcDbEntity
  8
Epilog_Laser
 62
7
100
AcDbSpline
 70
8
 71
3
 72
8
 73
4
 74
0
 40
0
 40
0
 40
0
 40
0
 40
1
 40
1
 40
1
 40
1
 10
10554.674208
 20
7729.550045
 30
0.0
 10
10721.941660
 20
7729.550045
 30
0.0
 10
10857.558957
 20
7865.108817
 30
0.0
 10
10857.631156
 20
8032.376253
 30
0.0
  0
LWPOLYLINE
  5
2c8
100
AcDbEntity
  8
Epilog_Laser
 62
7
100
AcDbPolyline
 90
2
 70
1
 10
11386.509109
 20
7597.371338
 30
0.0
 10
11386.509109
 20
7597.371338
 30
0.0
  0
LWPOLYLINE
  5
2c9
100
AcDbEntity
  8
Epilog_Laser
 62
7
100
AcDbPolyline
 90
2
 70
1
 10
10857.631156
 20
8032.376253
 30
0.0
 10
10857.631156
 20
8032.376253
 30
0.0
  0
LWPOLYLINE
  5
2ca
100
AcDbEntity
  8
Epilog_Laser
 62
7
100
AcDbPolyline
 90
2
 70
0
 10
12515.168834
 20
5103.126898
 30
0.0
 10
11752.627814
 20
5730.319220
 30
0.0
  0
LWPOLYLINE
  5
2cb
100
AcDbEntity
  8
Epilog_Laser
 62
7
100
AcDbPolyline
 90
4
 70
0
 10
11795.278365
 20
5695.240127
 30
0.0
 10
11943.394514
 20
5875.319918
 30
0.0
 10
11919.699700
 20
5894.808773
 30
0.0
 10
11771.583552
 20
5714.728982
 30
0.0
  0
LWPOLYLINE
  5
2cc
100
AcDbEntity
  8
Epilog_Laser
 62
7
100
AcDbPolyline
 90
3
 70
0
 10
11752.627814
 20
5730.319220
 30
0.0
 10
11051.023652
 20
4877.310456
 30
0.0
 10
11006.004127
 20
4914.339987
 30
0.0
  0
LWPOLYLINE
  5
2cd
100
AcDbEntity
  8
Epilog_Laser
 62
7
100
AcDbPolyline
 90
2
 70
0
 10
10984.411587
 20
4912.236585
 30
0.0
 10
10984.411587
 20
4912.236585
 30
0.0
  0
LWPOLYLINE
  5
2ce
100
AcDbEntity
  8
Epilog_Laser
 62
7
100
AcDbPolyline
 90
5
 70
0
 10
10986.514989
 20
4890.645173
 30
0.0
 10
11031.534796
 20
4853.615642
 30
0.0
 10
10953.579092
 20
4758.837236
 30
0.0
 10
10858.799838
 20
4836.792940
 30
0.0
 10
10862.698456
 20
4841.528629
 30
0.0
  0
SPLINE
  5
2cf
100
AcDbEntity
  8
Epilog_Laser
 62
7
100
AcDbSpline
 70
8
 71
3
 72
8
 73
4
 74
0
 40
0
 40
0
 40
0
 40
0
 40
1
 40
1
 40
1
 40
1
 10
10861.398823
 20
4839.952700
 30
0.0
 10
10874.054040
 20
4855.362110
 30
0.0
 10
10872.154192
 20
4878.043070
 30
0.0
 10
10857.111805
 20
4891.132417
 30
0.0
  0
SPLINE
  5
2d0
100
AcDbEntity
  8
Epilog_Laser
 62
7
100
AcDbSpline
 70
8
 71
3
 72
8
 73
4
 74
0
 40
0
 40
0
 40
0
 40
0
 40
1
 40
1
 40
1
 40
1
 10
10857.111805
 20
4891.132417
 30
0.0
 10
10842.069419
 20
4904.221765
 30
0.0
 10
10819.343518
 20
4902.969253
 30
0.0
 10
10805.830678
 20
4888.306116
 30
0.0
  0
LWPOLYLINE
  5
2d1
100
AcDbEntity
  8
Epilog_Laser
 62
7
100
AcDbPolyline
 90
2
 70
0
 10
10801.932060
 20
4883.567040
 30
0.0
 10
10805.830678
 20
4888.302729
 30
0.0
  0
SPLINE
  5
2d2
100
AcDbEntity
  8
Epilog_Laser
 62
7
100
AcDbSpline
 70
8
 71
3
 72
8
 73
4
 74
0
 40
0
 40
0
 40
0
 40
0
 40
1
 40
1
 40
1
 40
1
 10
10470.822176
 20
5060.567505
 30
0.0
 10
10353.945114
 20
4874.612606
 30
0.0
 10
10377.458868
 20
4633.177621
 30
0.0
 10
10528.020154
 20
4473.268987
 30
0.0
  0
LWPOLYLINE
  5
2d3
100
AcDbEntity
  8
Epilog_Laser
 62
7
100
AcDbPolyline
 90
16
 70
0
 10
10801.932060
 20
4883.567040
 30
0.0
 10
10517.596276
 20
5117.435000
 30
0.0
 10
10470.822176
 20
5060.567505
 30
0.0
 10
10755.159089
 20
4826.699545
 30
0.0
 10
10723.976356
 20
4788.787787
 30
0.0
 10
10761.888114
 20
4757.606182
 30
0.0
 10
10528.020154
 20
4473.268987
 30
0.0
 10
10584.886803
 20
4426.496298
 30
0.0
 10
10818.754763
 20
4710.832082
 30
0.0
 10
10875.622258
 20
4664.057982
 30
0.0
 10
10719.710003
 20
4474.500322
 30
0.0
 10
10966.135158
 20
4271.815096
 30
0.0
 10
10874.537678
 20
4190.144782
 30
0.0
 10
10846.103789
 20
4213.532256
 30
0.0
 10
10697.987640
 20
4033.452465
 30
0.0
 10
10859.111412
 20
3900.926553
 30
0.0
  0
LWPOLYLINE
  5
2d4
100
AcDbEntity
  8
Epilog_Laser
 62
7
100
AcDbPolyline
 90
4
 70
0
 10
11041.255940
 20
4210.027902
 30
0.0
 10
10978.793672
 20
4104.393818
 30
0.0
 10
11007.227560
 20
4081.006345
 30
0.0
 10
10859.111412
 20
3900.926553
 30
0.0
  0
SPLINE
  5
2d5
100
AcDbEntity
  8
Epilog_Laser
 62
7
100
AcDbSpline
 70
8
 71
3
 72
8
 73
4
 74
0
 40
0
 40
0
 40
0
 40
0
 40
1
 40
1
 40
1
 40
1
 10
11495.886307
 20
3883.762645
 30
0.0
 10
11320.977694
 20
3675.791565
 30
0.0
 10
11333.861308
 20
3368.673825
 30
0.0
 10
11525.573545
 20
3176.082520
 30
0.0
  0
LWPOLYLINE
  5
2d6
100
AcDbEntity
  8
Epilog_Laser
 62
7
100
AcDbPolyline
 90
9
 70
0
 10
11041.255940
 20
4210.027902
 30
0.0
 10
11458.281889
 20
3867.021505
 30
0.0
 10
11481.669645
 20
3895.455393
 30
0.0
 10
11510.102123
 20
3872.068767
 30
0.0
 10
11486.715778
 20
3843.634878
 30
0.0
 10
11865.831098
 20
3531.811213
 30
0.0
 10
11554.007434
 20
3152.696176
 30
0.0
 10
11525.573545
 20
3176.082520
 30
0.0
 10
11837.397209
 20
3555.197840
 30
0.0
  0
LWPOLYLINE
  5
2d7
100
AcDbEntity
  8
Epilog_Laser
 62
7
100
AcDbPolyline
 90
6
 70
0
 10
11865.831098
 20
3531.811213
 30
0.0
 10
12052.926087
 20
3759.279502
 30
0.0
 10
12081.358847
 20
3735.893158
 30
0.0
 10
12104.746320
 20
3764.327047
 30
0.0
 10
12076.312714
 20
3787.713391
 30
0.0
 10
12080.211332
 20
3792.449080
 30
0.0
  0
LWPOLYLINE
  5
2d8
100
AcDbEntity
  8
Epilog_Laser
 62
7
100
AcDbPolyline
 90
4
 70
0
 10
12080.210203
 20
3792.452467
 30
0.0
 10
12061.254183
 20
3808.043833
 30
0.0
 10
12108.028283
 20
3864.911329
 30
0.0
 10
12221.762427
 20
3771.364258
 30
0.0
  0
LWPOLYLINE
  5
2d9
100
AcDbEntity
  8
Epilog_Laser
 62
7
100
AcDbPolyline
 90
4
 70
0
 10
12237.353794
 20
3790.319149
 30
0.0
 10
12919.760918
 20
3229.036158
 30
0.0
 10
12943.148392
 20
3257.469765
 30
0.0
 10
12260.740138
 20
3818.753038
 30
0.0
  0
SPLINE
  5
2da
100
AcDbEntity
  8
Epilog_Laser
 62
7
100
AcDbSpline
 70
8
 71
3
 72
8
 73
4
 74
0
 40
0
 40
0
 40
0
 40
0
 40
1
 40
1
 40
1
 40
1
 10
12943.148392
 20
3257.469765
 30
0.0
 10
13224.305273
 20
3642.682102
 30
0.0
 10
13172.225227
 20
4177.435898
 30
0.0
 10
12822.024540
 20
4501.159880
 30
0.0
  0
SPLINE
  5
2db
100
AcDbEntity
  8
Epilog_Laser
 62
7
100
AcDbSpline
 70
8
 71
3
 72
8
 73
4
 74
0
 40
0
 40
0
 40
0
 40
0
 40
1
 40
1
 40
1
 40
1
 10
11006.004127
 20
4914.339987
 30
0.0
 10
11002.861900
 20
4916.924529
 30
0.0
 10
10998.821634
 20
4918.154911
 30
0.0
 10
10994.772209
 20
4917.760443
 30
0.0
  0
SPLINE
  5
2dc
100
AcDbEntity
  8
Epilog_Laser
 62
7
100
AcDbSpline
 70
8
 71
3
 72
8
 73
4
 74
0
 40
0
 40
0
 40
0
 40
0
 40
1
 40
1
 40
1
 40
1
 10
10994.772209
 20
4917.760443
 30
0.0
 10
10990.722784
 20
4917.365975
 30
0.0
 10
10986.995935
 20
4915.378972
 30
0.0
 10
10984.411587
 20
4912.236585
 30
0.0
  0
SPLINE
  5
2dd
100
AcDbEntity
  8
Epilog_Laser
 62
7
100
AcDbSpline
 70
8
 71
3
 72
8
 73
4
 74
0
 40
0
 40
0
 40
0
 40
0
 40
1
 40
1
 40
1
 40
1
 10
10984.411587
 20
4912.236585
 30
0.0
 10
10979.030305
 20
4905.693387
 30
0.0
 10
10979.972016
 20
4896.026728
 30
0.0
 10
10986.514989
 20
4890.645173
 30
0.0
  0
SPLINE
  5
2de
100
AcDbEntity
  8
Epilog_Laser
 62
7
100
AcDbSpline
 70
8
 71
3
 72
8
 73
4
 74
0
 40
0
 40
0
 40
0
 40
0
 40
1
 40
1
 40
1
 40
1
 10
11222.271863
 20
5275.213027
 30
0.0
 10
11222.453006
 20
5383.569554
 30
0.0
 10
11164.749494
 20
5483.772706
 30
0.0
 10
11070.940062
 20
5538.003328
 30
0.0
  0
SPLINE
  5
2df
100
AcDbEntity
  8
Epilog_Laser
 62
7
100
AcDbSpline
 70
8
 71
3
 72
8
 73
4
 74
0
 40
0
 40
0
 40
0
 40
0
 40
1
 40
1
 40
1
 40
1
 10
11070.940062
 20
5538.003328
 30
0.0
 10
10977.130631
 20
5592.233951
 30
0.0
 10
10861.500328
 20
5592.233951
 30
0.0
 10
10767.690897
 20
5538.003328
 30
0.0
  0
SPLINE
  5
2e0
100
AcDbEntity
  8
Epilog_Laser
 62
7
100
AcDbSpline
 70
8
 71
3
 72
8
 73
4
 74
0
 40
0
 40
0
 40
0
 40
0
 40
1
 40
1
 40
1
 40
1
 10
10767.690897
 20
5538.003328
 30
0.0
 10
10673.881465
 20
5483.772706
 30
0.0
 10
10616.177953
 20
5383.569554
 30
0.0
 10
10616.359096
 20
5275.213027
 30
0.0
  0
SPLINE
  5
2e1
100
AcDbEntity
  8
Epilog_Laser
 62
7
100
AcDbSpline
 70
8
 71
3
 72
8
 73
4
 74
0
 40
0
 40
0
 40
0
 40
0
 40
1
 40
1
 40
1
 40
1
 10
10616.359096
 20
5275.213027
 30
0.0
 10
10616.177953
 20
5166.856499
 30
0.0
 10
10673.881465
 20
5066.653348
 30
0.0
 10
10767.690897
 20
5012.422725
 30
0.0
  0
SPLINE
  5
2e2
100
AcDbEntity
  8
Epilog_Laser
 62
7
100
AcDbSpline
 70
8
 71
3
 72
8
 73
4
 74
0
 40
0
 40
0
 40
0
 40
0
 40
1
 40
1
 40
1
 40
1
 10
10767.690897
 20
5012.422725
 30
0.0
 10
10861.500328
 20
4958.192103
 30
0.0
 10
10977.130631
 20
4958.192103
 30
0.0
 10
11070.940062
 20
5012.422725
 30
0.0
  0
SPLINE
  5
2e3
100
AcDbEntity
  8
Epilog_Laser
 62
7
100
AcDbSpline
 70
8
 71
3
 72
8
 73
4
 74
0
 40
0
 40
0
 40
0
 40
0
 40
1
 40
1
 40
1
 40
1
 10
11070.940062
 20
5012.422725
 30
0.0
 10
11164.749494
 20
5066.653348
 30
0.0
 10
11222.453006
 20
5166.856499
 30
0.0
 10
11222.271863
 20
5275.213027
 30
0.0
  0
LWPOLYLINE
  5
2e4
100
AcDbEntity
  8
Epilog_Laser
 62
7
100
AcDbPolyline
 90
14
 70
0
 10
12221.762427
 20
3771.364258
 30
0.0
 10
12822.024540
 20
4501.159880
 30
0.0
 10
12803.068520
 20
4516.751247
 30
0.0
 10
12818.659887
 20
4535.707267
 30
0.0
 10
12619.624358
 20
4699.414782
 30
0.0
 10
12584.544136
 20
4656.763949
 30
0.0
 10
12556.110247
 20
4680.151422
 30
0.0
 10
12516.758027
 20
4641.407109
 30
0.0
 10
12289.288609
 20
4828.502380
 30
0.0
 10
12304.879976
 20
4847.458118
 30
0.0
 10
12323.835714
 20
4831.866751
 30
0.0
 10
12382.302563
 20
4902.951473
 30
0.0
 10
12363.346825
 20
4918.541711
 30
0.0
 10
12515.168834
 20
5103.126898
 30
0.0
  0
SPLINE
  5
2e5
100
AcDbEntity
  8
Epilog_Laser
 62
7
100
AcDbSpline
 70
8
 71
3
 72
8
 73
4
 74
0
 40
0
 40
0
 40
0
 40
0
 40
1
 40
1
 40
1
 40
1
 10
11657.276778
 20
5804.090980
 30
0.0
 10
11657.457921
 20
5912.447508
 30
0.0
 10
11599.754409
 20
6012.650659
 30
0.0
 10
11505.944978
 20
6066.881281
 30
0.0
  0
SPLINE
  5
2e6
100
AcDbEntity
  8
Epilog_Laser
 62
7
100
AcDbSpline
 70
8
 71
3
 72
8
 73
4
 74
0
 40
0
 40
0
 40
0
 40
0
 40
1
 40
1
 40
1
 40
1
 10
11505.944978
 20
6066.881281
 30
0.0
 10
11412.135546
 20
6121.111904
 30
0.0
 10
11296.505244
 20
6121.111904
 30
0.0
 10
11202.695812
 20
6066.881281
 30
0.0
  0
SPLINE
  5
2e7
100
AcDbEntity
  8
Epilog_Laser
 62
7
100
AcDbSpline
 70
8
 71
3
 72
8
 73
4
 74
0
 40
0
 40
0
 40
0
 40
0
 40
1
 40
1
 40
1
 40
1
 10
11202.695812
 20
6066.881281
 30
0.0
 10
11108.886381
 20
6012.650659
 30
0.0
 10
11051.182869
 20
5912.447508
 30
0.0
 10
11051.364012
 20
5804.090980
 30
0.0
  0
SPLINE
  5
2e8
100
AcDbEntity
  8
Epilog_Laser
 62
7
100
AcDbSpline
 70
8
 71
3
 72
8
 73
4
 74
0
 40
0
 40
0
 40
0
 40
0
 40
1
 40
1
 40
1
 40
1
 10
11051.364012
 20
5804.090980
 30
0.0
 10
11051.182869
 20
5695.734453
 30
0.0
 10
11108.886381
 20
5595.531301
 30
0.0
 10
11202.695812
 20
5541.300679
 30
0.0
  0
SPLINE
  5
2e9
100
AcDbEntity
  8
Epilog_Laser
 62
7
100
AcDbSpline
 70
8
 71
3
 72
8
 73
4
 74
0
 40
0
 40
0
 40
0
 40
0
 40
1
 40
1
 40
1
 40
1
 10
11202.695812
 20
5541.300679
 30
0.0
 10
11296.505244
 20
5487.070056
 30
0.0
 10
11412.135546
 20
5487.070056
 30
0.0
 10
11505.944978
 20
5541.300679
 30
0.0
  0
SPLINE
  5
2ea
100
AcDbEntity
  8
Epilog_Laser
 62
7
100
AcDbSpline
 70
8
 71
3
 72
8
 73
4
 74
0
 40
0
 40
0
 40
0
 40
0
 40
1
 40
1
 40
1
 40
1
 10
11505.944978
 20
5541.300679
 30
0.0
 10
11599.754409
 20
5595.531301
 30
0.0
 10
11657.457921
 20
5695.734453
 30
0.0
 10
11657.276778
 20
5804.090980
 30
0.0
  0
LWPOLYLINE
  5
2eb
100
AcDbEntity
  8
Epilog_Laser
 62
7
100
AcDbPolyline
 90
2
 70
1
 10
11222.271863
 20
5275.213027
 30
0.0
 10
11222.271863
 20
5275.213027
 30
0.0
  0
LWPOLYLINE
  5
2ec
100
AcDbEntity
  8
Epilog_Laser
 62
7
100
AcDbPolyline
 90
2
 70
1
 10
11657.276778
 20
5804.090980
 30
0.0
 10
11657.276778
 20
5804.090980
 30
0.0
  0
LWPOLYLINE
  5
2ed
100
AcDbEntity
  8
Epilog_Laser
 62
7
100
AcDbPolyline
 90
4
 70
0
 10
7473.877023
 20
4882.743233
 30
0.0
 10
7243.528656
 20
5067.132558
 30
0.0
 10
7268.816049
 20
5098.723667
 30
0.0
 10
6805.958623
 20
5469.231209
 30
0.0
  0
LWPOLYLINE
  5
2ee
100
AcDbEntity
  8
Epilog_Laser
 62
7
100
AcDbPolyline
 90
2
 70
0
 10
7473.877023
 20
4882.743233
 30
0.0
 10
6857.800023
 20
4113.107429
 30
0.0
  0
LWPOLYLINE
  5
2ef
100
AcDbEntity
  8
Epilog_Laser
 62
7
100
AcDbPolyline
 90
2
 70
0
 10
7605.277432
 20
3565.924542
 30
0.0
 10
6882.757498
 20
4144.285929
 30
0.0
  0
SPLINE
  5
2f0
100
AcDbEntity
  8
Epilog_Laser
 62
7
100
AcDbSpline
 70
8
 71
3
 72
8
 73
4
 74
0
 40
0
 40
0
 40
0
 40
0
 40
1
 40
1
 40
1
 40
1
 10
7602.371107
 20
3565.601962
 30
0.0
 10
7901.956748
 20
3973.102898
 30
0.0
 10
7846.572280
 20
4540.826848
 30
0.0
 10
7473.877023
 20
4882.743233
 30
0.0
  0
LWPOLYLINE
  5
2f1
100
AcDbEntity
  8
Epilog_Laser
 62
7
100
AcDbPolyline
 90
3
 70
0
 10
7602.371107
 20
3565.601962
 30
0.0
 10
7578.705927
 20
3536.038338
 30
0.0
 10
6857.800023
 20
4113.107429
 30
0.0
  0
LWPOLYLINE
  5
2f2
100
AcDbEntity
  8
Epilog_Laser
 62
7
100
AcDbPolyline
 90
13
 70
0
 10
6805.958623
 20
5469.231209
 30
0.0
 10
6952.416434
 20
5652.193900
 30
0.0
 10
6689.160674
 20
5862.924436
 30
0.0
 10
6552.186094
 20
5691.808305
 30
0.0
 10
6386.335100
 20
5824.569025
 30
0.0
 10
5819.254700
 20
5116.142140
 30
0.0
 10
5785.557932
 20
5143.116658
 30
0.0
 10
5702.319309
 20
5039.130469
 30
0.0
 10
5612.812249
 20
5110.778789
 30
0.0
 10
5413.672016
 20
4862.002158
 30
0.0
 10
5499.230223
 20
4793.514445
 30
0.0
 10
5379.606665
 20
4644.074673
 30
0.0
 10
5336.472667
 20
4678.603151
 30
0.0
  0
LWPOLYLINE
  5
2f3
100
AcDbEntity
  8
Epilog_Laser
 62
7
100
AcDbPolyline
 90
2
 70
0
 10
5309.857700
 20
4675.653647
 30
0.0
 10
5309.849234
 20
4675.645180
 30
0.0
  0
LWPOLYLINE
  5
2f4
100
AcDbEntity
  8
Epilog_Laser
 62
7
100
AcDbPolyline
 90
6
 70
0
 10
5312.799303
 20
4649.028238
 30
0.0
 10
5354.617016
 20
4615.554989
 30
0.0
 10
5320.900209
 20
4573.433887
 30
0.0
 10
4916.802860
 20
4896.905145
 30
0.0
 10
4874.656640
 20
4844.254331
 30
0.0
 10
5187.671847
 20
4593.691516
 30
0.0
  0
LWPOLYLINE
  5
2f5
100
AcDbEntity
  8
Epilog_Laser
 62
7
100
AcDbPolyline
 90
4
 70
0
 10
4905.212558
 20
4882.426016
 30
0.0
 10
4845.980040
 20
4929.839913
 30
0.0
 10
4827.014425
 20
4906.147358
 30
0.0
 10
4886.246943
 20
4858.733460
 30
0.0
  0
SPLINE
  5
2f6
100
AcDbEntity
  8
Epilog_Laser
 62
7
100
AcDbSpline
 70
8
 71
3
 72
8
 73
4
 74
0
 40
0
 40
0
 40
0
 40
0
 40
1
 40
1
 40
1
 40
1
 10
4827.014425
 20
4906.147358
 30
0.0
 10
4646.079535
 20
4689.033842
 30
0.0
 10
4669.747305
 20
4367.590202
 30
0.0
 10
4880.530532
 20
4179.318738
 30
0.0
  0
SPLINE
  5
2f7
100
AcDbEntity
  8
Epilog_Laser
 62
7
100
AcDbSpline
 70
8
 71
3
 72
8
 73
4
 74
0
 40
0
 40
0
 40
0
 40
0
 40
1
 40
1
 40
1
 40
1
 10
5336.472667
 20
4678.603151
 30
0.0
 10
5332.551928
 20
4681.741164
 30
0.0
 10
5327.545192
 20
4683.193125
 30
0.0
 10
5322.553905
 20
4682.639614
 30
0.0
  0
SPLINE
  5
2f8
100
AcDbEntity
  8
Epilog_Laser
 62
7
100
AcDbSpline
 70
8
 71
3
 72
8
 73
4
 74
0
 40
0
 40
0
 40
0
 40
0
 40
1
 40
1
 40
1
 40
1
 10
5322.553905
 20
4682.639614
 30
0.0
 10
5317.562619
 20
4682.086103
 30
0.0
 10
5312.995650
 20
4679.572461
 30
0.0
 10
5309.857700
 20
4675.651671
 30
0.0
  0
SPLINE
  5
2f9
100
AcDbEntity
  8
Epilog_Laser
 62
7
100
AcDbSpline
 70
8
 71
3
 72
8
 73
4
 74
0
 40
0
 40
0
 40
0
 40
0
 40
1
 40
1
 40
1
 40
1
 10
5309.849798
 20
4675.643769
 30
0.0
 10
5306.711354
 20
4671.723277
 30
0.0
 10
5305.258909
 20
4666.716593
 30
0.0
 10
5305.811999
 20
4661.725182
 30
0.0
  0
SPLINE
  5
2fa
100
AcDbEntity
  8
Epilog_Laser
 62
7
100
AcDbSpline
 70
8
 71
3
 72
8
 73
4
 74
0
 40
0
 40
0
 40
0
 40
0
 40
1
 40
1
 40
1
 40
1
 10
5305.811999
 20
4661.725182
 30
0.0
 10
5306.365089
 20
4656.733772
 30
0.0
 10
5308.878405
 20
4652.166527
 30
0.0
 10
5312.799020
 20
4649.028238
 30
0.0
  0
LWPOLYLINE
  5
2fb
100
AcDbEntity
  8
Epilog_Laser
 62
7
100
AcDbPolyline
 90
20
 70
0
 10
5187.671847
 20
4593.691516
 30
0.0
 10
4913.553636
 20
4251.248998
 30
0.0
 10
4928.519880
 20
4239.268947
 30
0.0
 10
4880.530532
 20
4179.318738
 30
0.0
 10
4902.066345
 20
4162.079758
 30
0.0
 10
4950.055694
 20
4222.029967
 30
0.0
 10
5025.721729
 20
4161.460845
 30
0.0
 10
4849.139518
 20
3940.865796
 30
0.0
 10
4890.464754
 20
3907.785682
 30
0.0
 10
4689.934576
 20
3657.272256
 30
0.0
 10
4784.225867
 20
3581.794745
 30
0.0
 10
4683.122296
 20
3455.490140
 30
0.0
 10
4714.552820
 20
3430.330593
 30
0.0
 10
4684.734067
 20
3393.079518
 30
0.0
 10
4938.157205
 20
3190.219031
 30
0.0
 10
4964.248649
 20
3222.813722
 30
0.0
 10
4998.589167
 20
3195.324713
 30
0.0
 10
5241.331605
 20
3498.571362
 30
0.0
 10
5286.731283
 20
3462.230171
 30
0.0
 10
5349.350467
 20
3540.456809
 30
0.0
  0
LWPOLYLINE
  5
2fc
100
AcDbEntity
  8
Epilog_Laser
 62
7
100
AcDbPolyline
 90
2
 70
0
 10
6840.668569
 20
4091.706800
 30
0.0
 10
5989.328303
 20
3028.167934
 30
0.0
  0
LWPOLYLINE
  5
2fd
100
AcDbEntity
  8
Epilog_Laser
 62
7
100
AcDbPolyline
 90
4
 70
0
 10
6857.800023
 20
4113.107429
 30
0.0
 10
6832.164085
 20
4133.628371
 30
0.0
 10
6815.032632
 20
4112.227460
 30
0.0
 10
6840.668569
 20
4091.706800
 30
0.0
  0
SPLINE
  5
2fe
100
AcDbEntity
  8
Epilog_Laser
 62
7
100
AcDbSpline
 70
8
 71
3
 72
8
 73
4
 74
0
 40
0
 40
0
 40
0
 40
0
 40
1
 40
1
 40
1
 40
1
 10
5918.311878
 20
5654.474820
 30
0.0
 10
5918.311878
 20
5762.710862
 30
0.0
 10
5860.568637
 20
5862.725090
 30
0.0
 10
5766.833475
 20
5916.843111
 30
0.0
  0
SPLINE
  5
2ff
100
AcDbEntity
  8
Epilog_Laser
 62
7
100
AcDbSpline
 70
8
 71
3
 72
8
 73
4
 74
0
 40
0
 40
0
 40
0
 40
0
 40
1
 40
1
 40
1
 40
1
 10
5766.833475
 20
5916.843111
 30
0.0
 10
5673.098313
 20
5970.961132
 30
0.0
 10
5557.611830
 20
5970.961132
 30
0.0
 10
5463.876668
 20
5916.843111
 30
0.0
  0
SPLINE
  5
300
100
AcDbEntity
  8
Epilog_Laser
 62
7
100
AcDbSpline
 70
8
 71
3
 72
8
 73
4
 74
0
 40
0
 40
0
 40
0
 40
0
 40
1
 40
1
 40
1
 40
1
 10
5463.876668
 20
5916.843111
 30
0.0
 10
5370.141506
 20
5862.725090
 30
0.0
 10
5312.398265
 20
5762.710862
 30
0.0
 10
5312.398265
 20
5654.474820
 30
0.0
  0
SPLINE
  5
301
100
AcDbEntity
  8
Epilog_Laser
 62
7
100
AcDbSpline
 70
8
 71
3
 72
8
 73
4
 74
0
 40
0
 40
0
 40
0
 40
0
 40
1
 40
1
 40
1
 40
1
 10
5312.398265
 20
5654.474820
 30
0.0
 10
5312.398265
 20
5546.238778
 30
0.0
 10
5370.141506
 20
5446.224550
 30
0.0
 10
5463.876668
 20
5392.106529
 30
0.0
  0
SPLINE
  5
302
100
AcDbEntity
  8
Epilog_Laser
 62
7
100
AcDbSpline
 70
8
 71
3
 72
8
 73
4
 74
0
 40
0
 40
0
 40
0
 40
0
 40
1
 40
1
 40
1
 40
1
 10
5463.876668
 20
5392.106529
 30
0.0
 10
5557.611830
 20
5337.988508
 30
0.0
 10
5673.098313
 20
5337.988508
 30
0.0
 10
5766.833475
 20
5392.106529
 30
0.0
  0
SPLINE
  5
303
100
AcDbEntity
  8
Epilog_Laser
 62
7
100
AcDbSpline
 70
8
 71
3
 72
8
 73
4
 74
0
 40
0
 40
0
 40
0
 40
0
 40
1
 40
1
 40
1
 40
1
 10
5766.833475
 20
5392.106529
 30
0.0
 10
5860.568637
 20
5446.224550
 30
0.0
 10
5918.311878
 20
5546.238778
 30
0.0
 10
5918.311878
 20
5654.474820
 30
0.0
  0
LWPOLYLINE
  5
304
100
AcDbEntity
  8
Epilog_Laser
 62
7
100
AcDbPolyline
 90
2
 70
0
 10
5349.350467
 20
3540.456809
 30
0.0
 10
5989.328303
 20
3028.167934
 30
0.0
  0
SPLINE
  5
305
100
AcDbEntity
  8
Epilog_Laser
 62
7
100
AcDbSpline
 70
8
 71
3
 72
8
 73
4
 74
0
 40
0
 40
0
 40
0
 40
0
 40
1
 40
1
 40
1
 40
1
 10
5490.369009
 20
5119.866909
 30
0.0
 10
5490.369009
 20
5228.102951
 30
0.0
 10
5432.625768
 20
5328.117179
 30
0.0
 10
5338.890606
 20
5382.235200
 30
0.0
  0
SPLINE
  5
306
100
AcDbEntity
  8
Epilog_Laser
 62
7
100
AcDbSpline
 70
8
 71
3
 72
8
 73
4
 74
0
 40
0
 40
0
 40
0
 40
0
 40
1
 40
1
 40
1
 40
1
 10
5338.890606
 20
5382.235200
 30
0.0
 10
5245.155444
 20
5436.353221
 30
0.0
 10
5129.668962
 20
5436.353221
 30
0.0
 10
5035.933799
 20
5382.235200
 30
0.0
  0
SPLINE
  5
307
100
AcDbEntity
  8
Epilog_Laser
 62
7
100
AcDbSpline
 70
8
 71
3
 72
8
 73
4
 74
0
 40
0
 40
0
 40
0
 40
0
 40
1
 40
1
 40
1
 40
1
 10
5035.933799
 20
5382.235200
 30
0.0
 10
4942.198637
 20
5328.117179
 30
0.0
 10
4884.455396
 20
5228.102951
 30
0.0
 10
4884.455396
 20
5119.866909
 30
0.0
  0
SPLINE
  5
308
100
AcDbEntity
  8
Epilog_Laser
 62
7
100
AcDbSpline
 70
8
 71
3
 72
8
 73
4
 74
0
 40
0
 40
0
 40
0
 40
0
 40
1
 40
1
 40
1
 40
1
 10
4884.455396
 20
5119.866909
 30
0.0
 10
4884.455396
 20
5011.630867
 30
0.0
 10
4942.198637
 20
4911.616639
 30
0.0
 10
5035.933799
 20
4857.498618
 30
0.0
  0
SPLINE
  5
309
100
AcDbEntity
  8
Epilog_Laser
 62
7
100
AcDbSpline
 70
8
 71
3
 72
8
 73
4
 74
0
 40
0
 40
0
 40
0
 40
0
 40
1
 40
1
 40
1
 40
1
 10
5035.933799
 20
4857.498618
 30
0.0
 10
5129.668962
 20
4803.380597
 30
0.0
 10
5245.155444
 20
4803.380597
 30
0.0
 10
5338.890606
 20
4857.498618
 30
0.0
  0
SPLINE
  5
30a
100
AcDbEntity
  8
Epilog_Laser
 62
7
100
AcDbSpline
 70
8
 71
3
 72
8
 73
4
 74
0
 40
0
 40
0
 40
0
 40
0
 40
1
 40
1
 40
1
 40
1
 10
5338.890606
 20
4857.498618
 30
0.0
 10
5432.625768
 20
4911.616639
 30
0.0
 10
5490.369009
 20
5011.630867
 30
0.0
 10
5490.369009
 20
5119.866909
 30
0.0
  0
LWPOLYLINE
  5
30b
100
AcDbEntity
  8
Epilog_Laser
 62
7
100
AcDbPolyline
 90
2
 70
1
 10
5918.311878
 20
5654.474820
 30
0.0
 10
5918.311878
 20
5654.474820
 30
0.0
  0
LWPOLYLINE
  5
30c
100
AcDbEntity
  8
Epilog_Laser
 62
7
100
AcDbPolyline
 90
2
 70
1
 10
5490.369009
 20
5119.866909
 30
0.0
 10
5490.369009
 20
5119.866909
 30
0.0
  0
LWPOLYLINE
  5
30d
100
AcDbEntity
  8
Epilog_Laser
 62
7
100
AcDbPolyline
 90
5
 70
0
 10
14902.662718
 20
6844.467925
 30
0.0
 10
13577.226372
 20
6844.467925
 30
0.0
 10
13577.226372
 20
7728.092156
 30
0.0
 10
14902.662718
 20
7728.092156
 30
0.0
 10
14902.662718
 20
6844.467925
 30
0.0
  0
ENDSEC
  0
SECTION
  2
OBJECTS
  0
DICTIONARY
  5
C
330
0
100
AcDbDictionary
  3
ACAD_GROUP
350
D
  3
ACAD_MLINESTYLE
350
17
  0
DICTIONARY
  5
D
330
C
100
AcDbDictionary
  0
DICTIONARY
  5
1A
330
C
100
AcDbDictionary
  0
DICTIONARY
  5
17
330
C
100
AcDbDictionary
  3
STANDARD
350
18
  0
DICTIONARY
  5
19
330
C
100
AcDbDictionary
  0
ENDSEC
  0
EOF
