  0
SECTION
  2
HEADER
  9
$ACADVER
  1
AC1014
  9
$HANDSEED
  5
FFFF
  9
$MEASUREMENT
 70
     1
  0
ENDSEC
  0
SECTION
  2
TABLES
  0
TABLE
  2
VPORT
  5
8
330
0
100
AcDbSymbolTable
 70
     4
  0
VPORT
  5
2E
330
8
100
AcDbSymbolTableRecord
100
AcDbViewportTableRecord
  2
*ACTIVE
 70
     0
 10
0.0
 20
0.0
 11
1.0
 21
1.0
 12
210.0
 22
148.5
 13
0.0
 23
0.0
 14
10.0
 24
10.0
 15
10.0
 25
10.0
 16
0.0
 26
0.0
 36
1.0
 17
0.0
 27
0.0
 37
0.0
 40
341.0
 41
1.24
 42
50.0
 43
0.0
 44
0.0
 50
0.0
 51
0.0
 71
     0
 72
   100
 73
     1
 74
     3
 75
     0
 76
     0
 77
     0
 78
     0
  0
ENDTAB
  0
TABLE
  2
LTYPE
  5
5
330
0
100
AcDbSymbolTable
 70
     1
  0
LTYPE
  5
14
330
5
100
AcDbSymbolTableRecord
100
AcDbLinetypeTableRecord
  2
BYBLOCK
 70
     0
  3

 72
    65
 73
     0
 40
0.0
  0
LTYPE
  5
15
330
5
100
AcDbSymbolTableRecord
100
AcDbLinetypeTableRecord
  2
BYLAYER
 70
     0
  3

 72
    65
 73
     0
 40
0.0
  0
LTYPE
  5
16
330
5
100
AcDbSymbolTableRecord
100
AcDbLinetypeTableRecord
  2
CONTINUOUS
 70
     0
  3
Solid line
 72
    65
 73
     0
 40
0.0
  0
ENDTAB
  0
TABLE
  2
LAYER
  5
2
100
AcDbSymbolTable
 70
22
  0
LAYER
  5
50
100
AcDbSymbolTableRecord
100
AcDbLayerTableRecord
  2
0
 70
0
  6
CONTINUOUS
  0
LAYER
  5
51
100
AcDbSymbolTableRecord
100
AcDbLayerTableRecord
  2
X-REF-PLAN
 70
0
  6
CONTINUOUS
  0
LAYER
  5
52
100
AcDbSymbolTableRecord
100
AcDbLayerTableRecord
  2
MINI-MILL
 70
0
  6
CONTINUOUS
  0
LAYER
  5
53
100
AcDbSymbolTableRecord
100
AcDbLayerTableRecord
  2
ST-10-LATHE
 70
0
  6
CONTINUOUS
  0
LAYER
  5
54
100
AcDbSymbolTableRecord
100
AcDbLayerTableRecord
  2
TL-1_LATHE
 70
0
  6
CONTINUOUS
  0
LAYER
  5
55
100
AcDbSymbolTableRecord
100
AcDbLayerTableRecord
  2
PORTABLE-PNEUMATIC
 70
0
  6
CONTINUOUS
  0
LAYER
  5
56
100
AcDbSymbolTableRecord
100
AcDbLayerTableRecord
  2
WORK_COUNTER
 70
0
  6
CONTINUOUS
  0
LAYER
  5
57
100
AcDbSymbolTableRecord
100
AcDbLayerTableRecord
  2
FLUID_POWER_TRAINER
 70
0
  6
CONTINUOUS
  0
LAYER
  5
58
100
AcDbSymbolTableRecord
100
AcDbLayerTableRecord
  2
PLASMA-CUTTER
 70
0
  6
CONTINUOUS
  0
LAYER
  5
59
100
AcDbSymbolTableRecord
100
AcDbLayerTableRecord
  2
PRESS-BRAKE
 70
0
  6
CONTINUOUS
  0
LAYER
  5
5a
100
AcDbSymbolTableRecord
100
AcDbLayerTableRecord
  2
1-TEXT
 70
0
  6
CONTINUOUS
  0
LAYER
  5
5b
100
AcDbSymbolTableRecord
100
AcDbLayerTableRecord
  2
1AWA-NW
 70
0
  6
CONTINUOUS
  0
LAYER
  5
5c
100
AcDbSymbolTableRecord
100
AcDbLayerTableRecord
  2
HLSSHEET
 70
0
  6
CONTINUOUS
  0
LAYER
  5
5d
100
AcDbSymbolTableRecord
100
AcDbLayerTableRecord
  2
B-RMDRNUM
 70
0
  6
CONTINUOUS
  0
LAYER
  5
5e
100
AcDbSymbolTableRecord
100
AcDbLayerTableRecord
  2
3-A10-NEW
 70
0
  6
CONTINUOUS
  0
LAYER
  5
5f
100
AcDbSymbolTableRecord
100
AcDbLayerTableRecord
  2
EX-1AWA
 70
0
  6
CONTINUOUS
  0
LAYER
  5
60
100
AcDbSymbolTableRecord
100
AcDbLayerTableRecord
  2
EX-1ADO
 70
0
  6
CONTINUOUS
  0
LAYER
  5
61
100
AcDbSymbolTableRecord
100
AcDbLayerTableRecord
  2
EX-1AGL
 70
0
  6
CONTINUOUS
  0
LAYER
  5
62
100
AcDbSymbolTableRecord
100
AcDbLayerTableRecord
  2
EX-1AEQ
 70
0
  6
CONTINUOUS
  0
LAYER
  5
63
100
AcDbSymbolTableRecord
100
AcDbLayerTableRecord
  2
EX-1-TXT
 70
0
  6
CONTINUOUS
  0
LAYER
  5
64
100
AcDbSymbolTableRecord
100
AcDbLayerTableRecord
  2
Defpoints
 70
0
  6
CONTINUOUS
  0
LAYER
  5
65
100
AcDbSymbolTableRecord
100
AcDbLayerTableRecord
  2
Epilog_Laser
 70
0
  6
CONTINUOUS
  0
ENDTAB
  0
TABLE
  2
STYLE
  5
3
330
0
100
AcDbSymbolTable
 70
     1
  0
STYLE
  5
11
330
3
100
AcDbSymbolTableRecord
100
AcDbTextStyleTableRecord
  2
STANDARD
 70
     0
 40
0.0
 41
1.0
 50
0.0
 71
     0
 42
2.5
  3
txt
  4

  0
ENDTAB
  0
TABLE
  2
VIEW
  5
6
330
0
100
AcDbSymbolTable
 70
     0
  0
ENDTAB
  0
TABLE
  2
UCS
  5
7
330
0
100
AcDbSymbolTable
 70
     0
  0
ENDTAB
  0
TABLE
  2
APPID
  5
9
330
0
100
AcDbSymbolTable
 70
     2
  0
APPID
  5
12
330
9
100
AcDbSymbolTableRecord
100
AcDbRegAppTableRecord
  2
ACAD
 70
     0
  0
ENDTAB
  0
TABLE
  2
DIMSTYLE
  5
A
330
0
100
AcDbSymbolTable
 70
     1
  0
DIMSTYLE
105
27
330
A
100
AcDbSymbolTableRecord
100
AcDbDimStyleTableRecord
  2
ISO-25
 70
     0
  3

  4

  5

  6

  7

 40
1.0
 41
2.5
 42
0.625
 43
3.75
 44
1.25
 45
0.0
 46
0.0
 47
0.0
 48
0.0
140
2.5
141
2.5
142
0.0
143
0.03937007874016
144
1.0
145
0.0
146
1.0
147
0.625
 71
     0
 72
     0
 73
     0
 74
     0
 75
     0
 76
     0
 77
     1
 78
     8
170
     0
171
     3
172
     1
173
     0
174
     0
175
     0
176
     0
177
     0
178
     0
270
     2
271
     2
272
     2
273
     2
274
     3
340
11
275
     0
280
     0
281
     0
282
     0
283
     0
284
     8
285
     0
286
     0
287
     3
288
     0
  0
ENDTAB
  0
TABLE
  2
BLOCK_RECORD
  5
1
330
0
100
AcDbSymbolTable
 70
     1
  0
BLOCK_RECORD
  5
1F
330
1
100
AcDbSymbolTableRecord
100
AcDbBlockTableRecord
  2
*MODEL_SPACE
  0
BLOCK_RECORD
  5
1B
330
1
100
AcDbSymbolTableRecord
100
AcDbBlockTableRecord
  2
*PAPER_SPACE
  0
ENDTAB
  0
ENDSEC
  0
SECTION
  2
BLOCKS
  0
BLOCK
  5
20
330
1F
100
AcDbEntity
  8
0
100
AcDbBlockBegin
  2
*MODEL_SPACE
 70
     0
 10
0.0
 20
0.0
 30
0.0
  3
*MODEL_SPACE
  1

  0
ENDBLK
  5
21
330
1F
100
AcDbEntity
  8
0
100
AcDbBlockEnd
  0
BLOCK
  5
1C
330
1B
100
AcDbEntity
 67
     1
  8
0
100
AcDbBlockBegin
  2
*PAPER_SPACE
  1

  0
ENDBLK
  5
1D
330
1B
100
AcDbEntity
 67
     1
  8
0
100
AcDbBlockEnd
  0
ENDSEC
  0
SECTION
  2
ENTITIES
  0
LWPOLYLINE
  5
100
100
AcDbEntity
  8
Epilog_Laser
 62
7
100
AcDbPolyline
 90
2
 70
0
 10
42378.720311
 20
17580.596453
 30
0.0
 10
1025.118064
 20
17580.587987
 30
0.0
  0
LWPOLYLINE
  5
101
100
AcDbEntity
  8
Epilog_Laser
 62
7
100
AcDbPolyline
 90
2
 70
0
 10
15488.927338
 20
12810.088680
 30
0.0
 10
15722.093976
 20
12810.749362
 30
0.0
  0
LWPOLYLINE
  5
102
100
AcDbEntity
  8
Epilog_Laser
 62
7
100
AcDbPolyline
 90
3
 70
0
 10
15722.093976
 20
12810.786898
 30
0.0
 10
15722.002536
 20
12841.467276
 30
0.0
 10
15488.835898
 20
12840.806593
 30
0.0
  0
LWPOLYLINE
  5
103
100
AcDbEntity
  8
Epilog_Laser
 62
7
100
AcDbPolyline
 90
2
 70
0
 10
8902.761524
 20
9833.389867
 30
0.0
 10
8931.195413
 20
9810.003522
 30
0.0
  0
LWPOLYLINE
  5
104
100
AcDbEntity
  8
Epilog_Laser
 62
7
100
AcDbPolyline
 90
2
 70
0
 10
7537.006911
 20
9757.049884
 30
0.0
 10
7513.620567
 20
9728.615996
 30
0.0
  0
LWPOLYLINE
  5
105
100
AcDbEntity
  8
Epilog_Laser
 62
7
100
AcDbPolyline
 90
2
 70
0
 10
1025.114988
 20
118.062335
 30
0.0
 10
1025.118092
 20
5033.126840
 30
0.0
  0
LWPOLYLINE
  5
106
100
AcDbEntity
  8
Epilog_Laser
 62
7
100
AcDbPolyline
 90
2
 70
0
 10
1025.118064
 20
8062.694342
 30
0.0
 10
1025.118064
 20
10486.348796
 30
0.0
  0
LWPOLYLINE
  5
107
100
AcDbEntity
  8
Epilog_Laser
 62
7
100
AcDbPolyline
 90
2
 70
0
 10
1025.118064
 20
11647.683362
 30
0.0
 10
1025.118064
 20
12228.350787
 30
0.0
  0
LWPOLYLINE
  5
108
100
AcDbEntity
  8
Epilog_Laser
 62
7
100
AcDbPolyline
 90
2
 70
0
 10
1025.118064
 20
13743.134538
 30
0.0
 10
1025.118064
 20
14954.961200
 30
0.0
  0
LWPOLYLINE
  5
109
100
AcDbEntity
  8
Epilog_Laser
 62
7
100
AcDbPolyline
 90
2
 70
0
 10
1025.118064
 20
16469.744951
 30
0.0
 10
1025.118064
 20
17580.586576
 30
0.0
  0
LWPOLYLINE
  5
10a
100
AcDbEntity
  8
Epilog_Laser
 62
7
100
AcDbPolyline
 90
2
 70
0
 10
1429.054377
 20
8062.694342
 30
0.0
 10
1429.060586
 20
8647.398956
 30
0.0
  0
LWPOLYLINE
  5
10b
100
AcDbEntity
  8
Epilog_Laser
 62
7
100
AcDbPolyline
 90
2
 70
0
 10
1429.060529
 20
8849.369596
 30
0.0
 10
1429.060529
 20
10061.197387
 30
0.0
  0
LWPOLYLINE
  5
10c
100
AcDbEntity
  8
Epilog_Laser
 62
7
100
AcDbPolyline
 90
2
 70
0
 10
1429.060529
 20
10263.168027
 30
0.0
 10
1429.060529
 20
10486.348796
 30
0.0
  0
LWPOLYLINE
  5
10d
100
AcDbEntity
  8
Epilog_Laser
 62
7
100
AcDbPolyline
 90
2
 70
0
 10
1429.060529
 20
11647.683362
 30
0.0
 10
1429.060529
 20
12228.350787
 30
0.0
  0
LWPOLYLINE
  5
10e
100
AcDbEntity
  8
Epilog_Laser
 62
7
100
AcDbPolyline
 90
2
 70
0
 10
1429.060529
 20
13743.134538
 30
0.0
 10
1429.060529
 20
14954.961200
 30
0.0
  0
LWPOLYLINE
  5
10f
100
AcDbEntity
  8
Epilog_Laser
 62
7
100
AcDbPolyline
 90
2
 70
0
 10
1429.060529
 20
16469.744951
 30
0.0
 10
1429.060529
 20
17176.654044
 30
0.0
  0
LWPOLYLINE
  5
110
100
AcDbEntity
  8
Epilog_Laser
 62
7
100
AcDbPolyline
 90
2
 70
0
 10
25540.949680
 20
17176.654044
 30
0.0
 10
1429.060529
 20
17176.654044
 30
0.0
  0
LWPOLYLINE
  5
111
100
AcDbEntity
  8
Epilog_Laser
 62
7
100
AcDbPolyline
 90
2
 70
0
 10
1429.060529
 20
10263.168027
 30
0.0
 10
6000.036260
 20
10263.168027
 30
0.0
  0
LWPOLYLINE
  5
112
100
AcDbEntity
  8
Epilog_Laser
 62
7
100
AcDbPolyline
 90
2
 70
0
 10
1429.060529
 20
10061.197387
 30
0.0
 10
5798.065056
 20
10061.197387
 30
0.0
  0
LWPOLYLINE
  5
113
100
AcDbEntity
  8
Epilog_Laser
 62
7
100
AcDbPolyline
 90
2
 70
0
 10
19656.953038
 20
10132.901869
 30
0.0
 10
23117.094567
 20
10132.904691
 30
0.0
  0
LWPOLYLINE
  5
114
100
AcDbEntity
  8
Epilog_Laser
 62
7
100
AcDbPolyline
 90
2
 70
0
 10
23319.066336
 20
11951.348547
 30
0.0
 10
25742.921449
 20
11951.348547
 30
0.0
  0
LWPOLYLINE
  5
115
100
AcDbEntity
  8
Epilog_Laser
 62
7
100
AcDbPolyline
 90
2
 70
0
 10
25742.921449
 20
17176.654044
 30
0.0
 10
25742.921449
 20
13617.610842
 30
0.0
  0
LWPOLYLINE
  5
116
100
AcDbEntity
  8
Epilog_Laser
 62
7
100
AcDbPolyline
 90
2
 70
0
 10
25742.921449
 20
13466.132298
 30
0.0
 10
25742.921449
 20
13112.683396
 30
0.0
  0
LWPOLYLINE
  5
117
100
AcDbEntity
  8
Epilog_Laser
 62
7
100
AcDbPolyline
 90
2
 70
0
 10
25742.921449
 20
12203.812411
 30
0.0
 10
25742.921449
 20
11951.348547
 30
0.0
  0
LWPOLYLINE
  5
118
100
AcDbEntity
  8
Epilog_Laser
 62
7
100
AcDbPolyline
 90
2
 70
0
 10
25742.921449
 20
13112.683396
 30
0.0
 10
25540.949680
 20
13112.683396
 30
0.0
  0
LWPOLYLINE
  5
119
100
AcDbEntity
  8
Epilog_Laser
 62
7
100
AcDbPolyline
 90
2
 70
0
 10
25742.921449
 20
12203.812411
 30
0.0
 10
25540.949680
 20
12203.812411
 30
0.0
  0
LWPOLYLINE
  5
11a
100
AcDbEntity
  8
Epilog_Laser
 62
7
100
AcDbPolyline
 90
2
 70
0
 10
25540.949680
 20
17169.293971
 30
0.0
 10
25540.949680
 20
13112.683396
 30
0.0
  0
LWPOLYLINE
  5
11b
100
AcDbEntity
  8
Epilog_Laser
 62
7
100
AcDbPolyline
 90
2
 70
0
 10
25540.949680
 20
12203.812411
 30
0.0
 10
25540.949680
 20
12102.823704
 30
0.0
  0
LWPOLYLINE
  5
11c
100
AcDbEntity
  8
Epilog_Laser
 62
7
100
AcDbPolyline
 90
5
 70
0
 10
7565.312953
 20
10334.873638
 30
0.0
 10
7565.312953
 20
9930.931511
 30
0.0
 10
7161.370827
 20
9930.931511
 30
0.0
 10
7161.370827
 20
10334.873638
 30
0.0
 10
7565.312953
 20
10334.873638
 30
0.0
  0
LWPOLYLINE
  5
11d
100
AcDbEntity
  8
Epilog_Laser
 62
7
100
AcDbPolyline
 90
2
 70
0
 10
13624.449087
 20
10334.873638
 30
0.0
 10
13624.449087
 20
10263.168027
 30
0.0
  0
LWPOLYLINE
  5
11e
100
AcDbEntity
  8
Epilog_Laser
 62
7
100
AcDbPolyline
 90
2
 70
0
 10
13372.869707
 20
9930.931511
 30
0.0
 10
13220.506678
 20
9930.931511
 30
0.0
  0
LWPOLYLINE
  5
11f
100
AcDbEntity
  8
Epilog_Laser
 62
7
100
AcDbPolyline
 90
2
 70
0
 10
19656.953038
 20
9930.931511
 30
0.0
 10
19253.009500
 20
9930.931511
 30
0.0
  0
LWPOLYLINE
  5
120
100
AcDbEntity
  8
Epilog_Laser
 62
7
100
AcDbPolyline
 90
2
 70
0
 10
13220.506678
 20
9930.931511
 30
0.0
 10
13220.506678
 20
10334.873638
 30
0.0
  0
LWPOLYLINE
  5
121
100
AcDbEntity
  8
Epilog_Laser
 62
7
100
AcDbPolyline
 90
2
 70
0
 10
19253.009500
 20
9930.931511
 30
0.0
 10
19253.009500
 20
10132.901869
 30
0.0
  0
LWPOLYLINE
  5
122
100
AcDbEntity
  8
Epilog_Laser
 62
7
100
AcDbPolyline
 90
2
 70
0
 10
13220.506678
 20
10334.873638
 30
0.0
 10
13624.449087
 20
10334.873638
 30
0.0
  0
LWPOLYLINE
  5
123
100
AcDbEntity
  8
Epilog_Laser
 62
7
100
AcDbPolyline
 90
4
 70
0
 10
7538.681053
 20
2743.687511
 30
0.0
 10
7538.681053
 20
2659.974191
 30
0.0
 10
7134.739209
 20
2659.974191
 30
0.0
 10
7134.739209
 20
2743.687511
 30
0.0
  0
LWPOLYLINE
  5
124
100
AcDbEntity
  8
Epilog_Laser
 62
7
100
AcDbPolyline
 90
2
 70
0
 10
7538.681053
 20
3063.916430
 30
0.0
 10
7538.681053
 20
2945.659195
 30
0.0
  0
LWPOLYLINE
  5
125
100
AcDbEntity
  8
Epilog_Laser
 62
7
100
AcDbPolyline
 90
2
 70
0
 10
7134.739209
 20
2945.659195
 30
0.0
 10
7134.739209
 20
3063.916430
 30
0.0
  0
LWPOLYLINE
  5
126
100
AcDbEntity
  8
Epilog_Laser
 62
7
100
AcDbPolyline
 90
2
 70
0
 10
7139.728333
 20
3063.916430
 30
0.0
 10
7543.670178
 20
3063.916430
 30
0.0
  0
LWPOLYLINE
  5
127
100
AcDbEntity
  8
Epilog_Laser
 62
7
100
AcDbPolyline
 90
2
 70
0
 10
1429.060529
 20
8849.369596
 30
0.0
 10
4030.817158
 20
8849.369596
 30
0.0
  0
LWPOLYLINE
  5
128
100
AcDbEntity
  8
Epilog_Laser
 62
7
100
AcDbPolyline
 90
3
 70
0
 10
5040.673180
 20
8849.369596
 30
0.0
 10
5798.065056
 20
8849.369596
 30
0.0
 10
5798.065056
 20
10061.197387
 30
0.0
  0
LWPOLYLINE
  5
129
100
AcDbEntity
  8
Epilog_Laser
 62
7
100
AcDbPolyline
 90
2
 70
0
 10
6000.036260
 20
8641.913402
 30
0.0
 10
6000.036260
 20
10143.247853
 30
0.0
  0
LWPOLYLINE
  5
12a
100
AcDbEntity
  8
Epilog_Laser
 62
7
100
AcDbPolyline
 90
2
 70
0
 10
1429.054377
 20
2945.659195
 30
0.0
 10
7134.739209
 20
2945.659195
 30
0.0
  0
LWPOLYLINE
  5
12b
100
AcDbEntity
  8
Epilog_Laser
 62
7
100
AcDbPolyline
 90
2
 70
0
 10
7538.681053
 20
2945.659195
 30
0.0
 10
13193.874778
 20
2945.659195
 30
0.0
  0
LWPOLYLINE
  5
12c
100
AcDbEntity
  8
Epilog_Laser
 62
7
100
AcDbPolyline
 90
2
 70
0
 10
1429.054377
 20
2743.687511
 30
0.0
 10
7134.739209
 20
2743.687511
 30
0.0
  0
LWPOLYLINE
  5
12d
100
AcDbEntity
  8
Epilog_Laser
 62
7
100
AcDbPolyline
 90
2
 70
0
 10
7538.681053
 20
2743.687511
 30
0.0
 10
13193.874778
 20
2743.687511
 30
0.0
  0
LWPOLYLINE
  5
12e
100
AcDbEntity
  8
Epilog_Laser
 62
7
100
AcDbPolyline
 90
2
 70
0
 10
13661.967709
 20
2914.325614
 30
0.0
 10
13661.967709
 20
1722.767502
 30
0.0
  0
LWPOLYLINE
  5
12f
100
AcDbEntity
  8
Epilog_Laser
 62
7
100
AcDbPolyline
 90
2
 70
0
 10
13459.995940
 20
2659.973090
 30
0.0
 10
13459.995940
 20
1722.767502
 30
0.0
  0
LWPOLYLINE
  5
130
100
AcDbEntity
  8
Epilog_Laser
 62
7
100
AcDbPolyline
 90
2
 70
0
 10
13574.840064
 20
3116.297298
 30
0.0
 10
18068.856702
 20
3116.297298
 30
0.0
  0
LWPOLYLINE
  5
131
100
AcDbEntity
  8
Epilog_Laser
 62
7
100
AcDbPolyline
 90
2
 70
0
 10
13661.967709
 20
2914.325614
 30
0.0
 10
18270.825084
 20
2914.325614
 30
0.0
  0
LWPOLYLINE
  5
132
100
AcDbEntity
  8
Epilog_Laser
 62
7
100
AcDbPolyline
 90
2
 70
0
 10
18068.853316
 20
3116.295097
 30
0.0
 10
18067.862151
 20
8656.159980
 30
0.0
  0
LWPOLYLINE
  5
133
100
AcDbEntity
  8
Epilog_Laser
 62
7
100
AcDbPolyline
 90
2
 70
0
 10
18270.825084
 20
2914.325614
 30
0.0
 10
18269.723853
 20
8857.648020
 30
0.0
  0
LWPOLYLINE
  5
134
100
AcDbEntity
  8
Epilog_Laser
 62
7
100
AcDbPolyline
 90
2
 70
0
 10
16553.031269
 20
8858.134853
 30
0.0
 10
17764.857931
 20
8857.804653
 30
0.0
  0
LWPOLYLINE
  5
135
100
AcDbEntity
  8
Epilog_Laser
 62
7
100
AcDbPolyline
 90
2
 70
0
 10
17966.829700
 20
8857.734098
 30
0.0
 10
18269.748971
 20
8857.648020
 30
0.0
  0
LWPOLYLINE
  5
136
100
AcDbEntity
  8
Epilog_Laser
 62
7
100
AcDbPolyline
 90
2
 70
0
 10
16351.059500
 20
8656.159980
 30
0.0
 10
18072.117780
 20
8656.159980
 30
0.0
  0
LWPOLYLINE
  5
137
100
AcDbEntity
  8
Epilog_Laser
 62
7
100
AcDbPolyline
 90
2
 70
0
 10
19656.953038
 20
9930.931511
 30
0.0
 10
19656.953038
 20
10132.901869
 30
0.0
  0
LWPOLYLINE
  5
138
100
AcDbEntity
  8
Epilog_Laser
 62
7
100
AcDbPolyline
 90
2
 70
0
 10
1075.610921
 20
11647.683362
 30
0.0
 10
1025.118064
 20
11647.683362
 30
0.0
  0
LWPOLYLINE
  5
139
100
AcDbEntity
  8
Epilog_Laser
 62
7
100
AcDbPolyline
 90
2
 70
0
 10
1075.610921
 20
11647.683362
 30
0.0
 10
1075.610921
 20
11597.190420
 30
0.0
  0
LWPOLYLINE
  5
13a
100
AcDbEntity
  8
Epilog_Laser
 62
7
100
AcDbPolyline
 90
2
 70
0
 10
1075.610921
 20
10536.838633
 30
0.0
 10
1075.610921
 20
10486.345409
 30
0.0
  0
LWPOLYLINE
  5
13b
100
AcDbEntity
  8
Epilog_Laser
 62
7
100
AcDbPolyline
 90
2
 70
0
 10
1277.582041
 20
11647.683362
 30
0.0
 10
1277.582041
 20
11597.190420
 30
0.0
  0
LWPOLYLINE
  5
13c
100
AcDbEntity
  8
Epilog_Laser
 62
7
100
AcDbPolyline
 90
2
 70
0
 10
1277.582041
 20
10536.838633
 30
0.0
 10
1277.582041
 20
10486.348796
 30
0.0
  0
LWPOLYLINE
  5
13d
100
AcDbEntity
  8
Epilog_Laser
 62
7
100
AcDbPolyline
 90
2
 70
0
 10
1277.582041
 20
11597.190420
 30
0.0
 10
1075.610921
 20
11597.190420
 30
0.0
  0
LWPOLYLINE
  5
13e
100
AcDbEntity
  8
Epilog_Laser
 62
7
100
AcDbPolyline
 90
2
 70
0
 10
1277.582041
 20
10536.838633
 30
0.0
 10
1075.610921
 20
10536.838633
 30
0.0
  0
LWPOLYLINE
  5
13f
100
AcDbEntity
  8
Epilog_Laser
 62
7
100
AcDbPolyline
 90
2
 70
0
 10
1429.060529
 20
11647.683362
 30
0.0
 10
1277.582041
 20
11647.683362
 30
0.0
  0
LWPOLYLINE
  5
140
100
AcDbEntity
  8
Epilog_Laser
 62
7
100
AcDbPolyline
 90
2
 70
0
 10
1429.060529
 20
10486.348796
 30
0.0
 10
1277.582041
 20
10486.348796
 30
0.0
  0
LWPOLYLINE
  5
141
100
AcDbEntity
  8
Epilog_Laser
 62
7
100
AcDbPolyline
 90
2
 70
0
 10
1075.610921
 20
10486.345409
 30
0.0
 10
1025.118064
 20
10486.345409
 30
0.0
  0
LWPOLYLINE
  5
142
100
AcDbEntity
  8
Epilog_Laser
 62
7
100
AcDbPolyline
 90
2
 70
0
 10
1429.054377
 20
5033.126840
 30
0.0
 10
1353.315133
 20
5033.126840
 30
0.0
  0
LWPOLYLINE
  5
143
100
AcDbEntity
  8
Epilog_Laser
 62
7
100
AcDbPolyline
 90
2
 70
0
 10
1201.836758
 20
5033.126840
 30
0.0
 10
1025.118064
 20
5033.126840
 30
0.0
  0
LWPOLYLINE
  5
144
100
AcDbEntity
  8
Epilog_Laser
 62
7
100
AcDbPolyline
 90
2
 70
0
 10
1429.054377
 20
8062.694342
 30
0.0
 10
1353.315133
 20
8062.694342
 30
0.0
  0
LWPOLYLINE
  5
145
100
AcDbEntity
  8
Epilog_Laser
 62
7
100
AcDbPolyline
 90
2
 70
0
 10
1201.836758
 20
8062.694342
 30
0.0
 10
1025.118064
 20
8062.694342
 30
0.0
  0
LWPOLYLINE
  5
146
100
AcDbEntity
  8
Epilog_Laser
 62
7
100
AcDbPolyline
 90
2
 70
0
 10
6000.036260
 20
8849.369596
 30
0.0
 10
6000.036260
 20
8641.913402
 30
0.0
  0
LWPOLYLINE
  5
147
100
AcDbEntity
  8
Epilog_Laser
 62
7
100
AcDbPolyline
 90
2
 70
0
 10
1429.060529
 20
8647.398956
 30
0.0
 10
4030.817158
 20
8644.161020
 30
0.0
  0
LWPOLYLINE
  5
148
100
AcDbEntity
  8
Epilog_Laser
 62
7
100
AcDbPolyline
 90
2
 70
0
 10
5040.673180
 20
8643.065433
 30
0.0
 10
6000.036260
 20
8641.908887
 30
0.0
  0
LWPOLYLINE
  5
149
100
AcDbEntity
  8
Epilog_Laser
 62
7
100
AcDbPolyline
 90
2
 70
0
 10
13372.869707
 20
9930.931511
 30
0.0
 10
13372.869707
 20
3063.915330
 30
0.0
  0
LWPOLYLINE
  5
14a
100
AcDbEntity
  8
Epilog_Laser
 62
7
100
AcDbPolyline
 90
2
 70
0
 10
13574.840064
 20
9930.931511
 30
0.0
 10
13574.840064
 20
3116.297298
 30
0.0
  0
LWPOLYLINE
  5
14b
100
AcDbEntity
  8
Epilog_Laser
 62
7
100
AcDbPolyline
 90
2
 70
0
 10
13624.449087
 20
10263.168027
 30
0.0
 10
16212.204191
 20
10263.165204
 30
0.0
  0
LWPOLYLINE
  5
14c
100
AcDbEntity
  8
Epilog_Laser
 62
7
100
AcDbPolyline
 90
2
 70
0
 10
16313.190640
 20
10263.164640
 30
0.0
 10
16452.045949
 20
10263.164640
 30
0.0
  0
LWPOLYLINE
  5
14d
100
AcDbEntity
  8
Epilog_Laser
 62
7
100
AcDbPolyline
 90
2
 70
0
 10
16553.031269
 20
10334.870251
 30
0.0
 10
16553.031269
 20
10334.873073
 30
0.0
  0
LWPOLYLINE
  5
14e
100
AcDbEntity
  8
Epilog_Laser
 62
7
100
AcDbPolyline
 90
2
 70
0
 10
16351.059500
 20
9867.987771
 30
0.0
 10
16351.059500
 20
10061.200773
 30
0.0
  0
LWPOLYLINE
  5
14f
100
AcDbEntity
  8
Epilog_Laser
 62
7
100
AcDbPolyline
 90
2
 70
0
 10
16553.031269
 20
9867.987771
 30
0.0
 10
16351.059500
 20
9867.987771
 30
0.0
  0
LWPOLYLINE
  5
150
100
AcDbEntity
  8
Epilog_Laser
 62
7
100
AcDbPolyline
 90
2
 70
0
 10
16553.031269
 20
9867.987771
 30
0.0
 10
16553.031269
 20
10132.905256
 30
0.0
  0
LWPOLYLINE
  5
151
100
AcDbEntity
  8
Epilog_Laser
 62
7
100
AcDbPolyline
 90
2
 70
0
 10
16351.059500
 20
8656.159980
 30
0.0
 10
16351.059500
 20
8959.116787
 30
0.0
  0
LWPOLYLINE
  5
152
100
AcDbEntity
  8
Epilog_Laser
 62
7
100
AcDbPolyline
 90
3
 70
0
 10
16553.031269
 20
8858.134853
 30
0.0
 10
16553.031269
 20
8959.116787
 30
0.0
 10
16351.059500
 20
8959.116787
 30
0.0
  0
LWPOLYLINE
  5
153
100
AcDbEntity
  8
Epilog_Laser
 62
7
100
AcDbPolyline
 90
3
 70
0
 10
16553.031269
 20
10132.905256
 30
0.0
 10
16553.031269
 20
10290.534551
 30
0.0
 10
16553.031269
 20
10334.873638
 30
0.0
  0
LWPOLYLINE
  5
154
100
AcDbEntity
  8
Epilog_Laser
 62
7
100
AcDbPolyline
 90
2
 70
0
 10
1201.836758
 20
5033.126840
 30
0.0
 10
1353.315133
 20
5033.126840
 30
0.0
  0
LWPOLYLINE
  5
155
100
AcDbEntity
  8
Epilog_Laser
 62
7
100
AcDbPolyline
 90
2
 70
0
 10
1201.836758
 20
8062.694342
 30
0.0
 10
1353.315133
 20
8062.694342
 30
0.0
  0
LWPOLYLINE
  5
156
100
AcDbEntity
  8
Epilog_Laser
 62
7
100
AcDbPolyline
 90
2
 70
0
 10
23117.094567
 20
12102.823704
 30
0.0
 10
25540.949680
 20
12102.823704
 30
0.0
  0
LWPOLYLINE
  5
157
100
AcDbEntity
  8
Epilog_Laser
 62
7
100
AcDbPolyline
 90
2
 70
0
 10
13624.449087
 20
10061.197387
 30
0.0
 10
13624.449087
 20
9930.931511
 30
0.0
  0
LWPOLYLINE
  5
158
100
AcDbEntity
  8
Epilog_Laser
 62
7
100
AcDbPolyline
 90
2
 70
0
 10
13624.449087
 20
10061.197387
 30
0.0
 10
16351.059500
 20
10061.200209
 30
0.0
  0
LWPOLYLINE
  5
159
100
AcDbEntity
  8
Epilog_Laser
 62
7
100
AcDbPolyline
 90
2
 70
0
 10
13624.449087
 20
9930.931511
 30
0.0
 10
13574.840064
 20
9930.931511
 30
0.0
  0
LWPOLYLINE
  5
15a
100
AcDbEntity
  8
Epilog_Laser
 62
7
100
AcDbPolyline
 90
2
 70
0
 10
1429.056691
 20
118.062335
 30
0.0
 10
1429.056691
 20
1329.889080
 30
0.0
  0
LWPOLYLINE
  5
15b
100
AcDbEntity
  8
Epilog_Laser
 62
7
100
AcDbPolyline
 90
2
 70
0
 10
1429.055477
 20
1531.860764
 30
0.0
 10
1429.055477
 20
2743.687511
 30
0.0
  0
LWPOLYLINE
  5
15c
100
AcDbEntity
  8
Epilog_Laser
 62
7
100
AcDbPolyline
 90
2
 70
0
 10
1429.054377
 20
2945.659195
 30
0.0
 10
1429.054377
 20
5033.126840
 30
0.0
  0
LWPOLYLINE
  5
15d
100
AcDbEntity
  8
Epilog_Laser
 62
7
100
AcDbPolyline
 90
2
 70
0
 10
23117.094567
 20
10334.873638
 30
0.0
 10
23117.094567
 20
11982.900144
 30
0.0
  0
LWPOLYLINE
  5
15e
100
AcDbEntity
  8
Epilog_Laser
 62
7
100
AcDbPolyline
 90
3
 70
0
 10
5798.065056
 20
8849.369596
 30
0.0
 10
5040.673180
 20
8849.369596
 30
0.0
 10
5040.673180
 20
8643.065433
 30
0.0
  0
LWPOLYLINE
  5
15f
100
AcDbEntity
  8
Epilog_Laser
 62
7
100
AcDbPolyline
 90
2
 70
0
 10
4030.817158
 20
8849.369596
 30
0.0
 10
4030.817158
 20
8644.156787
 30
0.0
  0
LWPOLYLINE
  5
160
100
AcDbEntity
  8
Epilog_Laser
 62
7
100
AcDbPolyline
 90
2
 70
0
 10
17966.829700
 20
8857.734098
 30
0.0
 10
17966.829700
 20
10132.901869
 30
0.0
  0
LWPOLYLINE
  5
161
100
AcDbEntity
  8
Epilog_Laser
 62
7
100
AcDbPolyline
 90
2
 70
0
 10
23117.094567
 20
10334.873638
 30
0.0
 10
18187.735193
 20
10334.873638
 30
0.0
  0
LWPOLYLINE
  5
162
100
AcDbEntity
  8
Epilog_Laser
 62
7
100
AcDbPolyline
 90
2
 70
0
 10
19253.009500
 20
10132.901869
 30
0.0
 10
17966.829700
 20
10132.901869
 30
0.0
  0
LWPOLYLINE
  5
163
100
AcDbEntity
  8
Epilog_Laser
 62
7
100
AcDbPolyline
 90
2
 70
0
 10
1126.103694
 20
6042.982862
 30
0.0
 10
1126.103694
 20
5992.489638
 30
0.0
  0
LWPOLYLINE
  5
164
100
AcDbEntity
  8
Epilog_Laser
 62
7
100
AcDbPolyline
 90
2
 70
0
 10
1126.103694
 20
5083.618936
 30
0.0
 10
1126.103694
 20
5033.126840
 30
0.0
  0
LWPOLYLINE
  5
165
100
AcDbEntity
  8
Epilog_Laser
 62
7
100
AcDbPolyline
 90
2
 70
0
 10
1227.089296
 20
6042.982862
 30
0.0
 10
1227.089296
 20
5992.489638
 30
0.0
  0
LWPOLYLINE
  5
166
100
AcDbEntity
  8
Epilog_Laser
 62
7
100
AcDbPolyline
 90
2
 70
0
 10
1227.089296
 20
5083.618936
 30
0.0
 10
1227.089296
 20
5033.126840
 30
0.0
  0
LWPOLYLINE
  5
167
100
AcDbEntity
  8
Epilog_Laser
 62
7
100
AcDbPolyline
 90
2
 70
0
 10
1227.089296
 20
6951.852718
 30
0.0
 10
1227.089296
 20
8062.694342
 30
0.0
  0
LWPOLYLINE
  5
168
100
AcDbEntity
  8
Epilog_Laser
 62
7
100
AcDbPolyline
 90
2
 70
0
 10
1126.103694
 20
8062.694342
 30
0.0
 10
1126.103694
 20
6951.852718
 30
0.0
  0
LWPOLYLINE
  5
169
100
AcDbEntity
  8
Epilog_Laser
 62
7
100
AcDbPolyline
 90
2
 70
0
 10
13459.995940
 20
1722.767502
 30
0.0
 10
13459.995940
 20
1531.860764
 30
0.0
  0
LWPOLYLINE
  5
16a
100
AcDbEntity
  8
Epilog_Laser
 62
7
100
AcDbPolyline
 90
2
 70
0
 10
17764.857931
 20
8857.792518
 30
0.0
 10
17764.857931
 20
10334.873638
 30
0.0
  0
LWPOLYLINE
  5
16b
100
AcDbEntity
  8
Epilog_Laser
 62
7
100
AcDbPolyline
 90
2
 70
0
 10
18067.814738
 20
10334.873638
 30
0.0
 10
17764.857931
 20
10334.873638
 30
0.0
  0
LWPOLYLINE
  5
16c
100
AcDbEntity
  8
Epilog_Laser
 62
7
100
AcDbPolyline
 90
2
 70
0
 10
6000.036260
 20
10263.168027
 30
0.0
 10
6126.268333
 20
10263.168027
 30
0.0
  0
LWPOLYLINE
  5
16d
100
AcDbEntity
  8
Epilog_Laser
 62
7
100
AcDbPolyline
 90
2
 70
0
 10
7035.138753
 20
10263.168027
 30
0.0
 10
7161.370827
 20
10263.168027
 30
0.0
  0
LWPOLYLINE
  5
16e
100
AcDbEntity
  8
Epilog_Laser
 62
7
100
AcDbPolyline
 90
2
 70
0
 10
6126.268333
 20
10263.168027
 30
0.0
 10
6126.268333
 20
10143.247853
 30
0.0
  0
LWPOLYLINE
  5
16f
100
AcDbEntity
  8
Epilog_Laser
 62
7
100
AcDbPolyline
 90
2
 70
0
 10
7035.138753
 20
10263.168027
 30
0.0
 10
7035.138753
 20
10143.247853
 30
0.0
  0
LWPOLYLINE
  5
170
100
AcDbEntity
  8
Epilog_Laser
 62
7
100
AcDbPolyline
 90
2
 70
0
 10
6000.036260
 20
10143.247853
 30
0.0
 10
6126.268333
 20
10143.247853
 30
0.0
  0
LWPOLYLINE
  5
171
100
AcDbEntity
  8
Epilog_Laser
 62
7
100
AcDbPolyline
 90
2
 70
0
 10
7035.138753
 20
10143.247853
 30
0.0
 10
7161.370827
 20
10143.247853
 30
0.0
  0
LWPOLYLINE
  5
172
100
AcDbEntity
  8
Epilog_Laser
 62
7
100
AcDbPolyline
 90
2
 70
0
 10
7565.312953
 20
10263.168027
 30
0.0
 10
7666.298273
 20
10263.168027
 30
0.0
  0
LWPOLYLINE
  5
173
100
AcDbEntity
  8
Epilog_Laser
 62
7
100
AcDbPolyline
 90
2
 70
0
 10
10342.416591
 20
10263.168027
 30
0.0
 10
13220.506678
 20
10263.168027
 30
0.0
  0
LWPOLYLINE
  5
174
100
AcDbEntity
  8
Epilog_Laser
 62
7
100
AcDbPolyline
 90
2
 70
0
 10
7565.312953
 20
10143.247853
 30
0.0
 10
7666.298273
 20
10143.247853
 30
0.0
  0
LWPOLYLINE
  5
175
100
AcDbEntity
  8
Epilog_Laser
 62
7
100
AcDbPolyline
 90
2
 70
0
 10
10342.416591
 20
10143.247853
 30
0.0
 10
13220.506678
 20
10143.247853
 30
0.0
  0
LWPOLYLINE
  5
176
100
AcDbEntity
  8
Epilog_Laser
 62
7
100
AcDbPolyline
 90
2
 70
0
 10
23117.094567
 20
12102.823704
 30
0.0
 10
22763.645664
 20
12102.823704
 30
0.0
  0
LWPOLYLINE
  5
177
100
AcDbEntity
  8
Epilog_Laser
 62
7
100
AcDbPolyline
 90
2
 70
0
 10
21854.774680
 20
12102.823704
 30
0.0
 10
18067.814738
 20
12102.820882
 30
0.0
  0
LWPOLYLINE
  5
178
100
AcDbEntity
  8
Epilog_Laser
 62
7
100
AcDbPolyline
 90
2
 70
0
 10
23117.094567
 20
11982.900144
 30
0.0
 10
22763.645664
 20
11982.900144
 30
0.0
  0
LWPOLYLINE
  5
179
100
AcDbEntity
  8
Epilog_Laser
 62
7
100
AcDbPolyline
 90
2
 70
0
 10
21854.774680
 20
11982.900144
 30
0.0
 10
18187.735193
 20
11982.902967
 30
0.0
  0
LWPOLYLINE
  5
17a
100
AcDbEntity
  8
Epilog_Laser
 62
7
100
AcDbPolyline
 90
2
 70
0
 10
22763.645664
 20
11982.900144
 30
0.0
 10
22763.645664
 20
12102.823704
 30
0.0
  0
LWPOLYLINE
  5
17b
100
AcDbEntity
  8
Epilog_Laser
 62
7
100
AcDbPolyline
 90
2
 70
0
 10
21854.774680
 20
11982.900144
 30
0.0
 10
21854.774680
 20
12102.823704
 30
0.0
  0
LWPOLYLINE
  5
17c
100
AcDbEntity
  8
Epilog_Laser
 62
7
100
AcDbPolyline
 90
3
 70
0
 10
18067.814738
 20
10334.873638
 30
0.0
 10
18067.814738
 20
12102.820600
 30
0.0
 10
18067.814738
 20
12102.823422
 30
0.0
  0
LWPOLYLINE
  5
17d
100
AcDbEntity
  8
Epilog_Laser
 62
7
100
AcDbPolyline
 90
2
 70
0
 10
18187.735193
 20
10334.873638
 30
0.0
 10
18187.735193
 20
11982.903531
 30
0.0
  0
LWPOLYLINE
  5
17e
100
AcDbEntity
  8
Epilog_Laser
 62
7
100
AcDbPolyline
 90
2
 70
0
 10
16553.031269
 20
10334.870251
 30
0.0
 10
16553.031269
 20
12102.823704
 30
0.0
  0
LWPOLYLINE
  5
17f
100
AcDbEntity
  8
Epilog_Laser
 62
7
100
AcDbPolyline
 90
2
 70
0
 10
16452.045949
 20
10263.164640
 30
0.0
 10
16452.045949
 20
12001.629258
 30
0.0
  0
LWPOLYLINE
  5
180
100
AcDbEntity
  8
Epilog_Laser
 62
7
100
AcDbPolyline
 90
2
 70
0
 10
16313.190640
 20
10263.164640
 30
0.0
 10
16313.190640
 20
12001.838384
 30
0.0
  0
LWPOLYLINE
  5
181
100
AcDbEntity
  8
Epilog_Laser
 62
7
100
AcDbPolyline
 90
2
 70
0
 10
16212.204191
 20
10263.164640
 30
0.0
 10
16212.204191
 20
12102.823704
 30
0.0
  0
LWPOLYLINE
  5
182
100
AcDbEntity
  8
Epilog_Laser
 62
7
100
AcDbPolyline
 90
2
 70
0
 10
16212.204191
 20
12103.532929
 30
0.0
 10
16212.204191
 20
12102.872247
 30
0.0
  0
LWPOLYLINE
  5
183
100
AcDbEntity
  8
Epilog_Laser
 62
7
100
AcDbPolyline
 90
2
 70
0
 10
16313.190640
 20
12001.838384
 30
0.0
 10
16452.045949
 20
12001.618251
 30
0.0
  0
LWPOLYLINE
  5
184
100
AcDbEntity
  8
Epilog_Laser
 62
7
100
AcDbPolyline
 90
2
 70
0
 10
16212.204191
 20
12103.532929
 30
0.0
 10
16553.031269
 20
12103.532929
 30
0.0
  0
LWPOLYLINE
  5
185
100
AcDbEntity
  8
Epilog_Laser
 62
7
100
AcDbPolyline
 90
2
 70
0
 10
7666.298273
 20
10143.247853
 30
0.0
 10
7666.298273
 20
10263.168027
 30
0.0
  0
LWPOLYLINE
  5
186
100
AcDbEntity
  8
Epilog_Laser
 62
7
100
AcDbPolyline
 90
2
 70
0
 10
10342.416591
 20
10143.247853
 30
0.0
 10
10342.416591
 20
10263.168027
 30
0.0
  0
LWPOLYLINE
  5
187
100
AcDbEntity
  8
Epilog_Laser
 62
7
100
AcDbPolyline
 90
3
 70
0
 10
13459.995940
 20
2659.973090
 30
0.0
 10
13193.873649
 20
2659.973090
 30
0.0
 10
13193.873649
 20
2743.686410
 30
0.0
  0
LWPOLYLINE
  5
188
100
AcDbEntity
  8
Epilog_Laser
 62
7
100
AcDbPolyline
 90
3
 70
0
 10
13193.873649
 20
2945.656994
 30
0.0
 10
13193.873649
 20
3063.915330
 30
0.0
 10
13372.869707
 20
3063.915330
 30
0.0
  0
LWPOLYLINE
  5
189
100
AcDbEntity
  8
Epilog_Laser
 62
7
100
AcDbPolyline
 90
2
 70
0
 10
1146.295904
 20
17595.999296
 30
0.0
 10
1146.295904
 20
17580.586576
 30
0.0
  0
LWPOLYLINE
  5
18a
100
AcDbEntity
  8
Epilog_Laser
 62
7
100
AcDbPolyline
 90
2
 70
0
 10
1146.295904
 20
17580.599558
 30
0.0
 10
1253.907491
 20
17580.599558
 30
0.0
  0
LWPOLYLINE
  5
18b
100
AcDbEntity
  8
Epilog_Laser
 62
7
100
AcDbPolyline
 90
2
 70
0
 10
1271.643408
 20
17562.863020
 30
0.0
 10
1271.643408
 20
17035.086298
 30
0.0
  0
LWPOLYLINE
  5
18c
100
AcDbEntity
  8
Epilog_Laser
 62
7
100
AcDbPolyline
 90
6
 70
0
 10
1253.907491
 20
17017.350889
 30
0.0
 10
1146.295904
 20
17017.350889
 30
0.0
 10
1146.295904
 20
17001.951151
 30
0.0
 10
1408.855986
 20
17001.951151
 30
0.0
 10
1408.855986
 20
17017.350889
 30
0.0
 10
1301.244399
 20
17017.350889
 30
0.0
  0
LWPOLYLINE
  5
18d
100
AcDbEntity
  8
Epilog_Laser
 62
7
100
AcDbPolyline
 90
2
 70
0
 10
1283.508454
 20
17035.086298
 30
0.0
 10
1283.508454
 20
17562.863020
 30
0.0
  0
LWPOLYLINE
  5
18e
100
AcDbEntity
  8
Epilog_Laser
 62
7
100
AcDbPolyline
 90
2
 70
0
 10
1301.244399
 20
17580.599558
 30
0.0
 10
1408.855986
 20
17580.599558
 30
0.0
  0
SPLINE
  5
18f
100
AcDbEntity
  8
Epilog_Laser
 62
7
100
AcDbSpline
 70
8
 71
3
 72
8
 73
4
 74
0
 40
0
 40
0
 40
0
 40
0
 40
1
 40
1
 40
1
 40
1
 10
1271.643098
 20
17562.863020
 30
0.0
 10
1271.643118
 20
17567.566809
 30
0.0
 10
1269.774560
 20
17572.077951
 30
0.0
 10
1266.448487
 20
17575.404040
 30
0.0
  0
SPLINE
  5
190
100
AcDbEntity
  8
Epilog_Laser
 62
7
100
AcDbSpline
 70
8
 71
3
 72
8
 73
4
 74
0
 40
0
 40
0
 40
0
 40
0
 40
1
 40
1
 40
1
 40
1
 10
1266.448487
 20
17575.404040
 30
0.0
 10
1263.122413
 20
17578.730130
 30
0.0
 10
1258.611281
 20
17580.598709
 30
0.0
 10
1253.907491
 20
17580.598711
 30
0.0
  0
SPLINE
  5
191
100
AcDbEntity
  8
Epilog_Laser
 62
7
100
AcDbSpline
 70
8
 71
3
 72
8
 73
4
 74
0
 40
0
 40
0
 40
0
 40
0
 40
1
 40
1
 40
1
 40
1
 10
1253.907491
 20
17017.350889
 30
0.0
 10
1263.702518
 20
17017.350893
 30
0.0
 10
1271.642985
 20
17025.291272
 30
0.0
 10
1271.643098
 20
17035.086298
 30
0.0
  0
SPLINE
  5
192
100
AcDbEntity
  8
Epilog_Laser
 62
7
100
AcDbSpline
 70
8
 71
3
 72
8
 73
4
 74
0
 40
0
 40
0
 40
0
 40
0
 40
1
 40
1
 40
1
 40
1
 10
1283.508792
 20
17035.086298
 30
0.0
 10
1283.508905
 20
17025.291272
 30
0.0
 10
1291.449373
 20
17017.350893
 30
0.0
 10
1301.244399
 20
17017.350889
 30
0.0
  0
SPLINE
  5
193
100
AcDbEntity
  8
Epilog_Laser
 62
7
100
AcDbSpline
 70
8
 71
3
 72
8
 73
4
 74
0
 40
0
 40
0
 40
0
 40
0
 40
1
 40
1
 40
1
 40
1
 10
1301.244399
 20
17580.598711
 30
0.0
 10
1296.540610
 20
17580.598709
 30
0.0
 10
1292.029477
 20
17578.730130
 30
0.0
 10
1288.703403
 20
17575.404040
 30
0.0
  0
SPLINE
  5
194
100
AcDbEntity
  8
Epilog_Laser
 62
7
100
AcDbSpline
 70
8
 71
3
 72
8
 73
4
 74
0
 40
0
 40
0
 40
0
 40
0
 40
1
 40
1
 40
1
 40
1
 10
1288.703403
 20
17575.404040
 30
0.0
 10
1285.377330
 20
17572.077951
 30
0.0
 10
1283.508772
 20
17567.566809
 30
0.0
 10
1283.508792
 20
17562.863020
 30
0.0
  0
LWPOLYLINE
  5
195
100
AcDbEntity
  8
Epilog_Laser
 62
7
100
AcDbPolyline
 90
3
 70
0
 10
1408.855986
 20
17580.589680
 30
0.0
 10
1408.855986
 20
17595.999296
 30
0.0
 10
1146.295904
 20
17595.999296
 30
0.0
  0
LWPOLYLINE
  5
196
100
AcDbEntity
  8
Epilog_Laser
 62
7
100
AcDbPolyline
 90
3
 70
0
 10
7205.431642
 20
17595.999296
 30
0.0
 10
7205.431642
 20
17580.599558
 30
0.0
 10
7313.042976
 20
17580.599558
 30
0.0
  0
LWPOLYLINE
  5
197
100
AcDbEntity
  8
Epilog_Laser
 62
7
100
AcDbPolyline
 90
2
 70
0
 10
7330.779796
 20
17562.863020
 30
0.0
 10
7330.779796
 20
17035.086298
 30
0.0
  0
LWPOLYLINE
  5
198
100
AcDbEntity
  8
Epilog_Laser
 62
7
100
AcDbPolyline
 90
6
 70
0
 10
7313.042976
 20
17017.350889
 30
0.0
 10
7205.431642
 20
17017.350889
 30
0.0
 10
7205.431642
 20
17001.951151
 30
0.0
 10
7467.991724
 20
17001.951151
 30
0.0
 10
7467.991724
 20
17017.350889
 30
0.0
 10
7360.379827
 20
17017.350889
 30
0.0
  0
LWPOLYLINE
  5
199
100
AcDbEntity
  8
Epilog_Laser
 62
7
100
AcDbPolyline
 90
2
 70
0
 10
7342.644418
 20
17035.086298
 30
0.0
 10
7342.644418
 20
17562.863020
 30
0.0
  0
SPLINE
  5
19a
100
AcDbEntity
  8
Epilog_Laser
 62
7
100
AcDbSpline
 70
8
 71
3
 72
8
 73
4
 74
0
 40
0
 40
0
 40
0
 40
0
 40
1
 40
1
 40
1
 40
1
 10
7330.778667
 20
17562.863020
 30
0.0
 10
7330.778687
 20
17567.566824
 30
0.0
 10
7328.910117
 20
17572.077978
 30
0.0
 10
7325.584026
 20
17575.404070
 30
0.0
  0
SPLINE
  5
19b
100
AcDbEntity
  8
Epilog_Laser
 62
7
100
AcDbSpline
 70
8
 71
3
 72
8
 73
4
 74
0
 40
0
 40
0
 40
0
 40
0
 40
1
 40
1
 40
1
 40
1
 10
7325.584026
 20
17575.404070
 30
0.0
 10
7322.257934
 20
17578.730162
 30
0.0
 10
7317.746780
 20
17580.598732
 30
0.0
 10
7313.042976
 20
17580.598711
 30
0.0
  0
SPLINE
  5
19c
100
AcDbEntity
  8
Epilog_Laser
 62
7
100
AcDbSpline
 70
8
 71
3
 72
8
 73
4
 74
0
 40
0
 40
0
 40
0
 40
0
 40
1
 40
1
 40
1
 40
1
 10
7313.042976
 20
17017.350889
 30
0.0
 10
7322.838035
 20
17017.350846
 30
0.0
 10
7330.778554
 20
17025.291239
 30
0.0
 10
7330.778667
 20
17035.086298
 30
0.0
  0
SPLINE
  5
19d
100
AcDbEntity
  8
Epilog_Laser
 62
7
100
AcDbSpline
 70
8
 71
3
 72
8
 73
4
 74
0
 40
0
 40
0
 40
0
 40
0
 40
1
 40
1
 40
1
 40
1
 10
7342.644418
 20
17035.086298
 30
0.0
 10
7342.644531
 20
17025.291349
 30
0.0
 10
7350.584878
 20
17017.351002
 30
0.0
 10
7360.379827
 20
17017.350889
 30
0.0
  0
SPLINE
  5
19e
100
AcDbEntity
  8
Epilog_Laser
 62
7
100
AcDbSpline
 70
8
 71
3
 72
8
 73
4
 74
0
 40
0
 40
0
 40
0
 40
0
 40
1
 40
1
 40
1
 40
1
 10
7360.379827
 20
17580.598711
 30
0.0
 10
7350.584767
 20
17580.598598
 30
0.0
 10
7342.644375
 20
17572.658079
 30
0.0
 10
7342.644418
 20
17562.863020
 30
0.0
  0
LWPOLYLINE
  5
19f
100
AcDbEntity
  8
Epilog_Laser
 62
7
100
AcDbPolyline
 90
4
 70
0
 10
7360.379827
 20
17580.599558
 30
0.0
 10
7467.991724
 20
17580.599558
 30
0.0
 10
7467.991724
 20
17595.999296
 30
0.0
 10
7205.431642
 20
17595.999296
 30
0.0
  0
LWPOLYLINE
  5
1a0
100
AcDbEntity
  8
Epilog_Laser
 62
7
100
AcDbPolyline
 90
3
 70
0
 10
13264.567211
 20
17595.999296
 30
0.0
 10
13264.567211
 20
17580.599558
 30
0.0
 10
13372.179109
 20
17580.599558
 30
0.0
  0
LWPOLYLINE
  5
1a1
100
AcDbEntity
  8
Epilog_Laser
 62
7
100
AcDbPolyline
 90
2
 70
0
 10
13389.914800
 20
17562.863020
 30
0.0
 10
13389.914800
 20
17035.086298
 30
0.0
  0
LWPOLYLINE
  5
1a2
100
AcDbEntity
  8
Epilog_Laser
 62
7
100
AcDbPolyline
 90
6
 70
0
 10
13372.179109
 20
17017.350889
 30
0.0
 10
13264.567211
 20
17017.350889
 30
0.0
 10
13264.567211
 20
17001.951151
 30
0.0
 10
13527.127858
 20
17001.951151
 30
0.0
 10
13527.127858
 20
17017.350889
 30
0.0
 10
13419.515960
 20
17017.350889
 30
0.0
  0
LWPOLYLINE
  5
1a3
100
AcDbEntity
  8
Epilog_Laser
 62
7
100
AcDbPolyline
 90
2
 70
0
 10
13401.780269
 20
17035.086298
 30
0.0
 10
13401.780269
 20
17562.863020
 30
0.0
  0
SPLINE
  5
1a4
100
AcDbEntity
  8
Epilog_Laser
 62
7
100
AcDbSpline
 70
8
 71
3
 72
8
 73
4
 74
0
 40
0
 40
0
 40
0
 40
0
 40
1
 40
1
 40
1
 40
1
 10
13389.914800
 20
17562.863020
 30
0.0
 10
13389.914821
 20
17567.566824
 30
0.0
 10
13388.046251
 20
17572.077978
 30
0.0
 10
13384.720159
 20
17575.404070
 30
0.0
  0
SPLINE
  5
1a5
100
AcDbEntity
  8
Epilog_Laser
 62
7
100
AcDbSpline
 70
8
 71
3
 72
8
 73
4
 74
0
 40
0
 40
0
 40
0
 40
0
 40
1
 40
1
 40
1
 40
1
 10
13384.720159
 20
17575.404070
 30
0.0
 10
13381.394067
 20
17578.730162
 30
0.0
 10
13376.882913
 20
17580.598732
 30
0.0
 10
13372.179109
 20
17580.598711
 30
0.0
  0
SPLINE
  5
1a6
100
AcDbEntity
  8
Epilog_Laser
 62
7
100
AcDbSpline
 70
8
 71
3
 72
8
 73
4
 74
0
 40
0
 40
0
 40
0
 40
0
 40
1
 40
1
 40
1
 40
1
 10
13372.179109
 20
17017.350889
 30
0.0
 10
13381.974168
 20
17017.350846
 30
0.0
 10
13389.914687
 20
17025.291239
 30
0.0
 10
13389.914800
 20
17035.086298
 30
0.0
  0
SPLINE
  5
1a7
100
AcDbEntity
  8
Epilog_Laser
 62
7
100
AcDbSpline
 70
8
 71
3
 72
8
 73
4
 74
0
 40
0
 40
0
 40
0
 40
0
 40
1
 40
1
 40
1
 40
1
 10
13401.780269
 20
17035.086298
 30
0.0
 10
13401.780382
 20
17025.291239
 30
0.0
 10
13409.720901
 20
17017.350846
 30
0.0
 10
13419.515960
 20
17017.350889
 30
0.0
  0
SPLINE
  5
1a8
100
AcDbEntity
  8
Epilog_Laser
 62
7
100
AcDbSpline
 70
8
 71
3
 72
8
 73
4
 74
0
 40
0
 40
0
 40
0
 40
0
 40
1
 40
1
 40
1
 40
1
 10
13419.515960
 20
17580.598711
 30
0.0
 10
13414.812156
 20
17580.598732
 30
0.0
 10
13410.301002
 20
17578.730162
 30
0.0
 10
13406.974910
 20
17575.404070
 30
0.0
  0
SPLINE
  5
1a9
100
AcDbEntity
  8
Epilog_Laser
 62
7
100
AcDbSpline
 70
8
 71
3
 72
8
 73
4
 74
0
 40
0
 40
0
 40
0
 40
0
 40
1
 40
1
 40
1
 40
1
 10
13406.974910
 20
17575.404070
 30
0.0
 10
13403.648818
 20
17572.077978
 30
0.0
 10
13401.780248
 20
17567.566824
 30
0.0
 10
13401.780269
 20
17562.863020
 30
0.0
  0
LWPOLYLINE
  5
1aa
100
AcDbEntity
  8
Epilog_Laser
 62
7
100
AcDbPolyline
 90
4
 70
0
 10
13419.515960
 20
17580.599558
 30
0.0
 10
13527.127858
 20
17580.599558
 30
0.0
 10
13527.127858
 20
17595.999296
 30
0.0
 10
13264.567211
 20
17595.999296
 30
0.0
  0
LWPOLYLINE
  5
1ab
100
AcDbEntity
  8
Epilog_Laser
 62
7
100
AcDbPolyline
 90
3
 70
0
 10
19323.703062
 20
17595.999296
 30
0.0
 10
19323.703062
 20
17580.599558
 30
0.0
 10
19431.314960
 20
17580.599558
 30
0.0
  0
LWPOLYLINE
  5
1ac
100
AcDbEntity
  8
Epilog_Laser
 62
7
100
AcDbPolyline
 90
2
 70
0
 10
19449.050651
 20
17562.863020
 30
0.0
 10
19449.050651
 20
17035.086298
 30
0.0
  0
LWPOLYLINE
  5
1ad
100
AcDbEntity
  8
Epilog_Laser
 62
7
100
AcDbPolyline
 90
6
 70
0
 10
19431.314960
 20
17017.350889
 30
0.0
 10
19323.703062
 20
17017.350889
 30
0.0
 10
19323.703062
 20
17001.951151
 30
0.0
 10
19586.263709
 20
17001.951151
 30
0.0
 10
19586.263709
 20
17017.350889
 30
0.0
 10
19478.651811
 20
17017.350889
 30
0.0
  0
LWPOLYLINE
  5
1ae
100
AcDbEntity
  8
Epilog_Laser
 62
7
100
AcDbPolyline
 90
2
 70
0
 10
19460.916120
 20
17035.086298
 30
0.0
 10
19460.916120
 20
17562.863020
 30
0.0
  0
SPLINE
  5
1af
100
AcDbEntity
  8
Epilog_Laser
 62
7
100
AcDbSpline
 70
8
 71
3
 72
8
 73
4
 74
0
 40
0
 40
0
 40
0
 40
0
 40
1
 40
1
 40
1
 40
1
 10
19449.050651
 20
17562.863020
 30
0.0
 10
19449.050672
 20
17567.566824
 30
0.0
 10
19447.182102
 20
17572.077978
 30
0.0
 10
19443.856010
 20
17575.404070
 30
0.0
  0
SPLINE
  5
1b0
100
AcDbEntity
  8
Epilog_Laser
 62
7
100
AcDbSpline
 70
8
 71
3
 72
8
 73
4
 74
0
 40
0
 40
0
 40
0
 40
0
 40
1
 40
1
 40
1
 40
1
 10
19443.856010
 20
17575.404070
 30
0.0
 10
19440.529918
 20
17578.730162
 30
0.0
 10
19436.018764
 20
17580.598732
 30
0.0
 10
19431.314960
 20
17580.598711
 30
0.0
  0
SPLINE
  5
1b1
100
AcDbEntity
  8
Epilog_Laser
 62
7
100
AcDbSpline
 70
8
 71
3
 72
8
 73
4
 74
0
 40
0
 40
0
 40
0
 40
0
 40
1
 40
1
 40
1
 40
1
 10
19431.314960
 20
17017.350889
 30
0.0
 10
19441.110019
 20
17017.350846
 30
0.0
 10
19449.050538
 20
17025.291239
 30
0.0
 10
19449.050651
 20
17035.086298
 30
0.0
  0
SPLINE
  5
1b2
100
AcDbEntity
  8
Epilog_Laser
 62
7
100
AcDbSpline
 70
8
 71
3
 72
8
 73
4
 74
0
 40
0
 40
0
 40
0
 40
0
 40
1
 40
1
 40
1
 40
1
 10
19460.916120
 20
17035.086298
 30
0.0
 10
19460.916233
 20
17025.291239
 30
0.0
 10
19468.856752
 20
17017.350846
 30
0.0
 10
19478.651811
 20
17017.350889
 30
0.0
  0
SPLINE
  5
1b3
100
AcDbEntity
  8
Epilog_Laser
 62
7
100
AcDbSpline
 70
8
 71
3
 72
8
 73
4
 74
0
 40
0
 40
0
 40
0
 40
0
 40
1
 40
1
 40
1
 40
1
 10
19478.651811
 20
17580.598711
 30
0.0
 10
19473.948007
 20
17580.598732
 30
0.0
 10
19469.436853
 20
17578.730162
 30
0.0
 10
19466.110761
 20
17575.404070
 30
0.0
  0
SPLINE
  5
1b4
100
AcDbEntity
  8
Epilog_Laser
 62
7
100
AcDbSpline
 70
8
 71
3
 72
8
 73
4
 74
0
 40
0
 40
0
 40
0
 40
0
 40
1
 40
1
 40
1
 40
1
 10
19466.110761
 20
17575.404070
 30
0.0
 10
19462.784669
 20
17572.077978
 30
0.0
 10
19460.916099
 20
17567.566824
 30
0.0
 10
19460.916120
 20
17562.863020
 30
0.0
  0
LWPOLYLINE
  5
1b5
100
AcDbEntity
  8
Epilog_Laser
 62
7
100
AcDbPolyline
 90
4
 70
0
 10
19478.651811
 20
17580.599558
 30
0.0
 10
19586.263709
 20
17580.599558
 30
0.0
 10
19586.263709
 20
17595.999296
 30
0.0
 10
19323.703062
 20
17595.999296
 30
0.0
  0
LWPOLYLINE
  5
1b6
100
AcDbEntity
  8
Epilog_Laser
 62
7
100
AcDbPolyline
 90
3
 70
0
 10
25382.839196
 20
17595.999296
 30
0.0
 10
25382.839196
 20
17580.599558
 30
0.0
 10
25490.451093
 20
17580.599558
 30
0.0
  0
LWPOLYLINE
  5
1b7
100
AcDbEntity
  8
Epilog_Laser
 62
7
100
AcDbPolyline
 90
2
 70
0
 10
25508.186502
 20
17562.863020
 30
0.0
 10
25508.186502
 20
17035.086298
 30
0.0
  0
LWPOLYLINE
  5
1b8
100
AcDbEntity
  8
Epilog_Laser
 62
7
100
AcDbPolyline
 90
6
 70
0
 10
25490.451093
 20
17017.350889
 30
0.0
 10
25382.839196
 20
17017.350889
 30
0.0
 10
25382.839196
 20
17001.951151
 30
0.0
 10
25645.399842
 20
17001.951151
 30
0.0
 10
25645.399842
 20
17017.350889
 30
0.0
 10
25537.787944
 20
17017.350889
 30
0.0
  0
LWPOLYLINE
  5
1b9
100
AcDbEntity
  8
Epilog_Laser
 62
7
100
AcDbPolyline
 90
2
 70
0
 10
25520.052253
 20
17035.086298
 30
0.0
 10
25520.052253
 20
17562.863020
 30
0.0
  0
SPLINE
  5
1ba
100
AcDbEntity
  8
Epilog_Laser
 62
7
100
AcDbSpline
 70
8
 71
3
 72
8
 73
4
 74
0
 40
0
 40
0
 40
0
 40
0
 40
1
 40
1
 40
1
 40
1
 10
25508.186502
 20
17562.863020
 30
0.0
 10
25508.186545
 20
17572.658079
 30
0.0
 10
25500.246153
 20
17580.598598
 30
0.0
 10
25490.451093
 20
17580.598711
 30
0.0
  0
SPLINE
  5
1bb
100
AcDbEntity
  8
Epilog_Laser
 62
7
100
AcDbSpline
 70
8
 71
3
 72
8
 73
4
 74
0
 40
0
 40
0
 40
0
 40
0
 40
1
 40
1
 40
1
 40
1
 10
25490.451093
 20
17017.350889
 30
0.0
 10
25500.246042
 20
17017.351002
 30
0.0
 10
25508.186389
 20
17025.291349
 30
0.0
 10
25508.186502
 20
17035.086298
 30
0.0
  0
SPLINE
  5
1bc
100
AcDbEntity
  8
Epilog_Laser
 62
7
100
AcDbSpline
 70
8
 71
3
 72
8
 73
4
 74
0
 40
0
 40
0
 40
0
 40
0
 40
1
 40
1
 40
1
 40
1
 10
25520.052253
 20
17035.086298
 30
0.0
 10
25520.052366
 20
17025.291239
 30
0.0
 10
25527.992885
 20
17017.350846
 30
0.0
 10
25537.787944
 20
17017.350889
 30
0.0
  0
SPLINE
  5
1bd
100
AcDbEntity
  8
Epilog_Laser
 62
7
100
AcDbSpline
 70
8
 71
3
 72
8
 73
4
 74
0
 40
0
 40
0
 40
0
 40
0
 40
1
 40
1
 40
1
 40
1
 10
25537.787944
 20
17580.598711
 30
0.0
 10
25533.084140
 20
17580.598732
 30
0.0
 10
25528.572986
 20
17578.730162
 30
0.0
 10
25525.246894
 20
17575.404070
 30
0.0
  0
SPLINE
  5
1be
100
AcDbEntity
  8
Epilog_Laser
 62
7
100
AcDbSpline
 70
8
 71
3
 72
8
 73
4
 74
0
 40
0
 40
0
 40
0
 40
0
 40
1
 40
1
 40
1
 40
1
 10
25525.246894
 20
17575.404070
 30
0.0
 10
25521.920803
 20
17572.077978
 30
0.0
 10
25520.052233
 20
17567.566824
 30
0.0
 10
25520.052253
 20
17562.863020
 30
0.0
  0
LWPOLYLINE
  5
1bf
100
AcDbEntity
  8
Epilog_Laser
 62
7
100
AcDbPolyline
 90
4
 70
0
 10
25537.787944
 20
17580.599558
 30
0.0
 10
25645.399842
 20
17580.599558
 30
0.0
 10
25645.399842
 20
17595.999296
 30
0.0
 10
25382.839196
 20
17595.999296
 30
0.0
  0
LWPOLYLINE
  5
1c0
100
AcDbEntity
  8
Epilog_Laser
 62
7
100
AcDbPolyline
 90
2
 70
0
 10
1429.055590
 20
118.062335
 30
0.0
 10
1277.578316
 20
118.062335
 30
0.0
  0
LWPOLYLINE
  5
1c1
100
AcDbEntity
  8
Epilog_Laser
 62
7
100
AcDbPolyline
 90
2
 70
0
 10
1075.607083
 20
118.062335
 30
0.0
 10
1025.114988
 20
118.062335
 30
0.0
  0
LWPOLYLINE
  5
1c2
100
AcDbEntity
  8
Epilog_Laser
 62
7
100
AcDbPolyline
 90
2
 70
0
 10
1277.578316
 20
67.569142
 30
0.0
 10
1075.607083
 20
67.569142
 30
0.0
  0
LWPOLYLINE
  5
1c3
100
AcDbEntity
  8
Epilog_Laser
 62
7
100
AcDbPolyline
 90
2
 70
0
 10
1075.607083
 20
118.062335
 30
0.0
 10
1075.607083
 20
67.569142
 30
0.0
  0
SPLINE
  5
1c4
100
AcDbEntity
  8
Epilog_Laser
 62
7
100
AcDbSpline
 70
8
 71
3
 72
8
 73
4
 74
0
 40
0
 40
0
 40
0
 40
0
 40
1
 40
1
 40
1
 40
1
 10
17461.901971
 20
8959.116787
 30
0.0
 10
17461.902143
 20
9200.164363
 30
0.0
 10
17366.146462
 20
9431.339311
 30
0.0
 10
17195.700113
 20
9601.785713
 30
0.0
  0
SPLINE
  5
1c5
100
AcDbEntity
  8
Epilog_Laser
 62
7
100
AcDbSpline
 70
8
 71
3
 72
8
 73
4
 74
0
 40
0
 40
0
 40
0
 40
0
 40
1
 40
1
 40
1
 40
1
 10
17195.700113
 20
9601.785713
 30
0.0
 10
17025.253764
 20
9772.232115
 30
0.0
 10
16794.078845
 20
9867.987868
 30
0.0
 10
16553.031269
 20
9867.987771
 30
0.0
  0
LWPOLYLINE
  5
1c6
100
AcDbEntity
  8
Epilog_Laser
 62
7
100
AcDbPolyline
 90
2
 70
0
 10
1277.578316
 20
118.062335
 30
0.0
 10
1277.578316
 20
67.569142
 30
0.0
  0
SPLINE
  5
1c7
100
AcDbEntity
  8
Epilog_Laser
 62
7
100
AcDbSpline
 70
8
 71
3
 72
8
 73
4
 74
0
 40
0
 40
0
 40
0
 40
0
 40
1
 40
1
 40
1
 40
1
 10
25564.618247
 20
12203.812411
 30
0.0
 10
25805.665823
 20
12203.812314
 30
0.0
 10
26036.840741
 20
12299.568067
 30
0.0
 10
26207.287091
 20
12470.014469
 30
0.0
  0
SPLINE
  5
1c8
100
AcDbEntity
  8
Epilog_Laser
 62
7
100
AcDbSpline
 70
8
 71
3
 72
8
 73
4
 74
0
 40
0
 40
0
 40
0
 40
0
 40
1
 40
1
 40
1
 40
1
 10
26207.287091
 20
12470.014469
 30
0.0
 10
26377.733440
 20
12640.460871
 30
0.0
 10
26473.489121
 20
12871.635819
 30
0.0
 10
26473.488949
 20
13112.683396
 30
0.0
  0
LWPOLYLINE
  5
1c9
100
AcDbEntity
  8
Epilog_Laser
 62
7
100
AcDbPolyline
 90
5
 70
0
 10
16553.031269
 20
8959.116787
 30
0.0
 10
17461.901971
 20
8959.116787
 30
0.0
 10
17461.901971
 20
9003.298393
 30
0.0
 10
16553.031269
 20
9003.298393
 30
0.0
 10
16553.031269
 20
8959.116787
 30
0.0
  0
SPLINE
  5
1ca
100
AcDbEntity
  8
Epilog_Laser
 62
7
100
AcDbSpline
 70
8
 71
3
 72
8
 73
4
 74
0
 40
0
 40
0
 40
0
 40
0
 40
1
 40
1
 40
1
 40
1
 10
4563.278204
 20
8542.080113
 30
0.0
 10
4563.278204
 20
8551.916720
 30
0.0
 10
4558.030438
 20
8561.006118
 30
0.0
 10
4549.511687
 20
8565.924422
 30
0.0
  0
SPLINE
  5
1cb
100
AcDbEntity
  8
Epilog_Laser
 62
7
100
AcDbSpline
 70
8
 71
3
 72
8
 73
4
 74
0
 40
0
 40
0
 40
0
 40
0
 40
1
 40
1
 40
1
 40
1
 10
4549.511687
 20
8565.924422
 30
0.0
 10
4540.992936
 20
8570.842725
 30
0.0
 10
4530.497402
 20
8570.842725
 30
0.0
 10
4521.978651
 20
8565.924422
 30
0.0
  0
SPLINE
  5
1cc
100
AcDbEntity
  8
Epilog_Laser
 62
7
100
AcDbSpline
 70
8
 71
3
 72
8
 73
4
 74
0
 40
0
 40
0
 40
0
 40
0
 40
1
 40
1
 40
1
 40
1
 10
4521.978651
 20
8565.924422
 30
0.0
 10
4513.459900
 20
8561.006118
 30
0.0
 10
4508.212133
 20
8551.916720
 30
0.0
 10
4508.212133
 20
8542.080113
 30
0.0
  0
SPLINE
  5
1cd
100
AcDbEntity
  8
Epilog_Laser
 62
7
100
AcDbSpline
 70
8
 71
3
 72
8
 73
4
 74
0
 40
0
 40
0
 40
0
 40
0
 40
1
 40
1
 40
1
 40
1
 10
4508.212133
 20
8542.080113
 30
0.0
 10
4508.212133
 20
8532.243507
 30
0.0
 10
4513.459900
 20
8523.154108
 30
0.0
 10
4521.978651
 20
8518.235805
 30
0.0
  0
SPLINE
  5
1ce
100
AcDbEntity
  8
Epilog_Laser
 62
7
100
AcDbSpline
 70
8
 71
3
 72
8
 73
4
 74
0
 40
0
 40
0
 40
0
 40
0
 40
1
 40
1
 40
1
 40
1
 10
4521.978651
 20
8518.235805
 30
0.0
 10
4530.497402
 20
8513.317502
 30
0.0
 10
4540.992936
 20
8513.317502
 30
0.0
 10
4549.511687
 20
8518.235805
 30
0.0
  0
SPLINE
  5
1cf
100
AcDbEntity
  8
Epilog_Laser
 62
7
100
AcDbSpline
 70
8
 71
3
 72
8
 73
4
 74
0
 40
0
 40
0
 40
0
 40
0
 40
1
 40
1
 40
1
 40
1
 10
4549.511687
 20
8518.235805
 30
0.0
 10
4558.030438
 20
8523.154108
 30
0.0
 10
4563.278204
 20
8532.243507
 30
0.0
 10
4563.278204
 20
8542.080113
 30
0.0
  0
LWPOLYLINE
  5
1d0
100
AcDbEntity
  8
Epilog_Laser
 62
7
100
AcDbPolyline
 90
5
 70
0
 10
25742.921449
 20
13112.683396
 30
0.0
 10
26473.488949
 20
13112.683396
 30
0.0
 10
26473.488949
 20
13068.501789
 30
0.0
 10
25742.921449
 20
13068.501789
 30
0.0
 10
25742.921449
 20
13112.683396
 30
0.0
  0
SPLINE
  5
1d1
100
AcDbEntity
  8
Epilog_Laser
 62
7
100
AcDbSpline
 70
8
 71
3
 72
8
 73
4
 74
0
 40
0
 40
0
 40
0
 40
0
 40
1
 40
1
 40
1
 40
1
 10
4030.817158
 20
8643.065433
 30
0.0
 10
4030.817068
 20
8375.234910
 30
0.0
 10
4137.212270
 20
8118.373998
 30
0.0
 10
4326.597022
 20
7928.989193
 30
0.0
  0
SPLINE
  5
1d2
100
AcDbEntity
  8
Epilog_Laser
 62
7
100
AcDbSpline
 70
8
 71
3
 72
8
 73
4
 74
0
 40
0
 40
0
 40
0
 40
0
 40
1
 40
1
 40
1
 40
1
 10
4326.597022
 20
7928.989193
 30
0.0
 10
4515.981775
 20
7739.604388
 30
0.0
 10
4772.842657
 20
7633.209114
 30
0.0
 10
5040.673180
 20
7633.209129
 30
0.0
  0
LWPOLYLINE
  5
1d3
100
AcDbEntity
  8
Epilog_Laser
 62
7
100
AcDbPolyline
 90
2
 70
1
 10
4563.278204
 20
8542.080113
 30
0.0
 10
4563.278204
 20
8542.080113
 30
0.0
  0
LWPOLYLINE
  5
1d4
100
AcDbEntity
  8
Epilog_Laser
 62
7
100
AcDbPolyline
 90
5
 70
0
 10
5040.673180
 20
8643.065433
 30
0.0
 10
5040.673180
 20
7633.209129
 30
0.0
 10
4996.491856
 20
7633.209129
 30
0.0
 10
4996.491856
 20
8643.065433
 30
0.0
 10
5040.673180
 20
8643.065433
 30
0.0
  0
SPLINE
  5
1d5
100
AcDbEntity
  8
Epilog_Laser
 62
7
100
AcDbSpline
 70
8
 71
3
 72
8
 73
4
 74
0
 40
0
 40
0
 40
0
 40
0
 40
1
 40
1
 40
1
 40
1
 10
15.259024
 20
11597.192396
 30
0.0
 10
15.257995
 20
11011.576213
 30
0.0
 10
489.992876
 20
10536.839663
 30
0.0
 10
1075.609059
 20
10536.838633
 30
0.0
  0
LWPOLYLINE
  5
1d6
100
AcDbEntity
  8
Epilog_Laser
 62
7
100
AcDbPolyline
 90
2
 70
0
 10
4030.817158
 20
8643.065433
 30
0.0
 10
4030.817158
 20
8687.246758
 30
0.0
  0
LWPOLYLINE
  5
1d7
100
AcDbEntity
  8
Epilog_Laser
 62
7
100
AcDbPolyline
 90
2
 70
0
 10
1075.610921
 20
11597.190420
 30
0.0
 10
15.255940
 20
11597.193242
 30
0.0
  0
LWPOLYLINE
  5
1d8
100
AcDbEntity
  8
Epilog_Laser
 62
7
100
AcDbPolyline
 90
3
 70
0
 10
15.255940
 20
11597.193524
 30
0.0
 10
15.255940
 20
11553.011918
 30
0.0
 10
1075.610921
 20
11553.009096
 30
0.0
  0
LWPOLYLINE
  5
1d9
100
AcDbEntity
  8
Epilog_Laser
 62
7
100
AcDbPolyline
 90
2
 70
0
 10
1075.610921
 20
11553.008813
 30
0.0
 10
1075.610921
 20
11597.190420
 30
0.0
  0
LWPOLYLINE
  5
1da
100
AcDbEntity
  8
Epilog_Laser
 62
7
100
AcDbPolyline
 90
2
 70
0
 10
1075.610921
 20
10536.838633
 30
0.0
 10
1119.792133
 20
10536.838633
 30
0.0
  0
LWPOLYLINE
  5
1db
100
AcDbEntity
  8
Epilog_Laser
 62
7
100
AcDbPolyline
 90
2
 70
0
 10
1126.103694
 20
5083.618936
 30
0.0
 10
1227.089296
 20
5083.618936
 30
0.0
  0
LWPOLYLINE
  5
1dc
100
AcDbEntity
  8
Epilog_Laser
 62
7
100
AcDbPolyline
 90
2
 70
0
 10
1126.103694
 20
5992.489638
 30
0.0
 10
1227.089296
 20
5992.489638
 30
0.0
  0
LWPOLYLINE
  5
1dd
100
AcDbEntity
  8
Epilog_Laser
 62
7
100
AcDbPolyline
 90
2
 70
0
 10
1126.103694
 20
6042.982862
 30
0.0
 10
1227.089296
 20
6042.982862
 30
0.0
  0
SPLINE
  5
1de
100
AcDbEntity
  8
Epilog_Laser
 62
7
100
AcDbSpline
 70
8
 71
3
 72
8
 73
4
 74
0
 40
0
 40
0
 40
0
 40
0
 40
1
 40
1
 40
1
 40
1
 10
1153.636617
 20
5538.054287
 30
0.0
 10
1153.636617
 20
5547.890858
 30
0.0
 10
1148.388869
 20
5556.980224
 30
0.0
 10
1139.870149
 20
5561.898509
 30
0.0
  0
SPLINE
  5
1df
100
AcDbEntity
  8
Epilog_Laser
 62
7
100
AcDbSpline
 70
8
 71
3
 72
8
 73
4
 74
0
 40
0
 40
0
 40
0
 40
0
 40
1
 40
1
 40
1
 40
1
 10
1139.870149
 20
5561.898509
 30
0.0
 10
1131.351428
 20
5566.816795
 30
0.0
 10
1120.855932
 20
5566.816795
 30
0.0
 10
1112.337212
 20
5561.898509
 30
0.0
  0
SPLINE
  5
1e0
100
AcDbEntity
  8
Epilog_Laser
 62
7
100
AcDbSpline
 70
8
 71
3
 72
8
 73
4
 74
0
 40
0
 40
0
 40
0
 40
0
 40
1
 40
1
 40
1
 40
1
 10
1112.337212
 20
5561.898509
 30
0.0
 10
1103.818491
 20
5556.980224
 30
0.0
 10
1098.570743
 20
5547.890858
 30
0.0
 10
1098.570743
 20
5538.054287
 30
0.0
  0
SPLINE
  5
1e1
100
AcDbEntity
  8
Epilog_Laser
 62
7
100
AcDbSpline
 70
8
 71
3
 72
8
 73
4
 74
0
 40
0
 40
0
 40
0
 40
0
 40
1
 40
1
 40
1
 40
1
 10
1098.570743
 20
5538.054287
 30
0.0
 10
1098.570743
 20
5528.217716
 30
0.0
 10
1103.818491
 20
5519.128349
 30
0.0
 10
1112.337212
 20
5514.210064
 30
0.0
  0
SPLINE
  5
1e2
100
AcDbEntity
  8
Epilog_Laser
 62
7
100
AcDbSpline
 70
8
 71
3
 72
8
 73
4
 74
0
 40
0
 40
0
 40
0
 40
0
 40
1
 40
1
 40
1
 40
1
 10
1112.337212
 20
5514.210064
 30
0.0
 10
1120.855932
 20
5509.291779
 30
0.0
 10
1131.351428
 20
5509.291779
 30
0.0
 10
1139.870149
 20
5514.210064
 30
0.0
  0
SPLINE
  5
1e3
100
AcDbEntity
  8
Epilog_Laser
 62
7
100
AcDbSpline
 70
8
 71
3
 72
8
 73
4
 74
0
 40
0
 40
0
 40
0
 40
0
 40
1
 40
1
 40
1
 40
1
 10
1139.870149
 20
5514.210064
 30
0.0
 10
1148.388869
 20
5519.128349
 30
0.0
 10
1153.636617
 20
5528.217716
 30
0.0
 10
1153.636617
 20
5538.054287
 30
0.0
  0
LWPOLYLINE
  5
1e4
100
AcDbEntity
  8
Epilog_Laser
 62
7
100
AcDbPolyline
 90
2
 70
0
 10
1126.103694
 20
6951.852718
 30
0.0
 10
1227.089296
 20
6951.852718
 30
0.0
  0
SPLINE
  5
1e5
100
AcDbEntity
  8
Epilog_Laser
 62
7
100
AcDbSpline
 70
8
 71
3
 72
8
 73
4
 74
0
 40
0
 40
0
 40
0
 40
0
 40
1
 40
1
 40
1
 40
1
 10
1126.103694
 20
5992.489638
 30
0.0
 10
885.056228
 20
5992.489642
 30
0.0
 10
653.881442
 20
5896.733887
 30
0.0
 10
483.435176
 20
5726.287556
 30
0.0
  0
SPLINE
  5
1e6
100
AcDbEntity
  8
Epilog_Laser
 62
7
100
AcDbSpline
 70
8
 71
3
 72
8
 73
4
 74
0
 40
0
 40
0
 40
0
 40
0
 40
1
 40
1
 40
1
 40
1
 10
483.435176
 20
5726.287556
 30
0.0
 10
312.988911
 20
5555.841225
 30
0.0
 10
217.233245
 20
5324.666402
 30
0.0
 10
217.233342
 20
5083.618936
 30
0.0
  0
LWPOLYLINE
  5
1e7
100
AcDbEntity
  8
Epilog_Laser
 62
7
100
AcDbPolyline
 90
2
 70
1
 10
1153.636617
 20
5538.054287
 30
0.0
 10
1153.636617
 20
5538.054287
 30
0.0
  0
LWPOLYLINE
  5
1e8
100
AcDbEntity
  8
Epilog_Laser
 62
7
100
AcDbPolyline
 90
5
 70
0
 10
1126.103694
 20
5083.618936
 30
0.0
 10
217.233342
 20
5083.618936
 30
0.0
 10
217.233342
 20
5127.800542
 30
0.0
 10
1126.103694
 20
5127.800542
 30
0.0
 10
1126.103694
 20
5083.618936
 30
0.0
  0
SPLINE
  5
1e9
100
AcDbEntity
  8
Epilog_Laser
 62
7
100
AcDbSpline
 70
8
 71
3
 72
8
 73
4
 74
0
 40
0
 40
0
 40
0
 40
0
 40
1
 40
1
 40
1
 40
1
 10
1153.636617
 20
6497.417367
 30
0.0
 10
1153.636617
 20
6507.253938
 30
0.0
 10
1148.388869
 20
6516.343304
 30
0.0
 10
1139.870149
 20
6521.261589
 30
0.0
  0
SPLINE
  5
1ea
100
AcDbEntity
  8
Epilog_Laser
 62
7
100
AcDbSpline
 70
8
 71
3
 72
8
 73
4
 74
0
 40
0
 40
0
 40
0
 40
0
 40
1
 40
1
 40
1
 40
1
 10
1139.870149
 20
6521.261589
 30
0.0
 10
1131.351428
 20
6526.179875
 30
0.0
 10
1120.855932
 20
6526.179875
 30
0.0
 10
1112.337212
 20
6521.261589
 30
0.0
  0
SPLINE
  5
1eb
100
AcDbEntity
  8
Epilog_Laser
 62
7
100
AcDbSpline
 70
8
 71
3
 72
8
 73
4
 74
0
 40
0
 40
0
 40
0
 40
0
 40
1
 40
1
 40
1
 40
1
 10
1112.337212
 20
6521.261589
 30
0.0
 10
1103.818491
 20
6516.343304
 30
0.0
 10
1098.570743
 20
6507.253938
 30
0.0
 10
1098.570743
 20
6497.417367
 30
0.0
  0
SPLINE
  5
1ec
100
AcDbEntity
  8
Epilog_Laser
 62
7
100
AcDbSpline
 70
8
 71
3
 72
8
 73
4
 74
0
 40
0
 40
0
 40
0
 40
0
 40
1
 40
1
 40
1
 40
1
 10
1098.570743
 20
6497.417367
 30
0.0
 10
1098.570743
 20
6487.580796
 30
0.0
 10
1103.818491
 20
6478.491429
 30
0.0
 10
1112.337212
 20
6473.573144
 30
0.0
  0
SPLINE
  5
1ed
100
AcDbEntity
  8
Epilog_Laser
 62
7
100
AcDbSpline
 70
8
 71
3
 72
8
 73
4
 74
0
 40
0
 40
0
 40
0
 40
0
 40
1
 40
1
 40
1
 40
1
 10
1112.337212
 20
6473.573144
 30
0.0
 10
1120.855932
 20
6468.654859
 30
0.0
 10
1131.351428
 20
6468.654859
 30
0.0
 10
1139.870149
 20
6473.573144
 30
0.0
  0
SPLINE
  5
1ee
100
AcDbEntity
  8
Epilog_Laser
 62
7
100
AcDbSpline
 70
8
 71
3
 72
8
 73
4
 74
0
 40
0
 40
0
 40
0
 40
0
 40
1
 40
1
 40
1
 40
1
 10
1139.870149
 20
6473.573144
 30
0.0
 10
1148.388869
 20
6478.491429
 30
0.0
 10
1153.636617
 20
6487.580796
 30
0.0
 10
1153.636617
 20
6497.417367
 30
0.0
  0
LWPOLYLINE
  5
1ef
100
AcDbEntity
  8
Epilog_Laser
 62
7
100
AcDbPolyline
 90
2
 70
0
 10
1126.103694
 20
5992.489638
 30
0.0
 10
1170.284906
 20
5992.489638
 30
0.0
  0
SPLINE
  5
1f0
100
AcDbEntity
  8
Epilog_Laser
 62
7
100
AcDbSpline
 70
8
 71
3
 72
8
 73
4
 74
0
 40
0
 40
0
 40
0
 40
0
 40
1
 40
1
 40
1
 40
1
 10
217.233342
 20
6951.852718
 30
0.0
 10
217.233607
 20
6449.897673
 30
0.0
 10
624.148649
 20
6042.982853
 30
0.0
 10
1126.103694
 20
6042.982862
 30
0.0
  0
LWPOLYLINE
  5
1f1
100
AcDbEntity
  8
Epilog_Laser
 62
7
100
AcDbPolyline
 90
2
 70
1
 10
1153.636617
 20
6497.417367
 30
0.0
 10
1153.636617
 20
6497.417367
 30
0.0
  0
LWPOLYLINE
  5
1f2
100
AcDbEntity
  8
Epilog_Laser
 62
7
100
AcDbPolyline
 90
5
 70
0
 10
1126.103694
 20
6951.852718
 30
0.0
 10
217.233342
 20
6951.852718
 30
0.0
 10
217.233342
 20
6907.671111
 30
0.0
 10
1126.103694
 20
6907.671111
 30
0.0
 10
1126.103694
 20
6951.852718
 30
0.0
  0
LWPOLYLINE
  5
1f3
100
AcDbEntity
  8
Epilog_Laser
 62
7
100
AcDbPolyline
 90
2
 70
0
 10
1126.103694
 20
6042.982862
 30
0.0
 10
1170.284906
 20
6042.982862
 30
0.0
  0
SPLINE
  5
1f4
100
AcDbEntity
  8
Epilog_Laser
 62
7
100
AcDbSpline
 70
8
 71
3
 72
8
 73
4
 74
0
 40
0
 40
0
 40
0
 40
0
 40
1
 40
1
 40
1
 40
1
 10
22336.743067
 20
12102.823704
 30
0.0
 10
22336.759327
 20
12112.671089
 30
0.0
 10
22331.515146
 20
12121.777413
 30
0.0
 10
22322.989760
 20
12126.705806
 30
0.0
  0
SPLINE
  5
1f5
100
AcDbEntity
  8
Epilog_Laser
 62
7
100
AcDbSpline
 70
8
 71
3
 72
8
 73
4
 74
0
 40
0
 40
0
 40
0
 40
0
 40
1
 40
1
 40
1
 40
1
 10
22322.989760
 20
12126.705806
 30
0.0
 10
22314.464375
 20
12131.634198
 30
0.0
 10
22303.955970
 20
12131.634198
 30
0.0
 10
22295.430584
 20
12126.705806
 30
0.0
  0
SPLINE
  5
1f6
100
AcDbEntity
  8
Epilog_Laser
 62
7
100
AcDbSpline
 70
8
 71
3
 72
8
 73
4
 74
0
 40
0
 40
0
 40
0
 40
0
 40
1
 40
1
 40
1
 40
1
 10
22295.430584
 20
12126.705806
 30
0.0
 10
22286.905198
 20
12121.777413
 30
0.0
 10
22281.661017
 20
12112.671089
 30
0.0
 10
22281.677278
 20
12102.823704
 30
0.0
  0
SPLINE
  5
1f7
100
AcDbEntity
  8
Epilog_Laser
 62
7
100
AcDbSpline
 70
8
 71
3
 72
8
 73
4
 74
0
 40
0
 40
0
 40
0
 40
0
 40
1
 40
1
 40
1
 40
1
 10
22281.677278
 20
12102.823704
 30
0.0
 10
22281.702357
 20
12087.635458
 30
0.0
 10
22294.021905
 20
12075.336236
 30
0.0
 10
22309.210172
 20
12075.336236
 30
0.0
  0
SPLINE
  5
1f8
100
AcDbEntity
  8
Epilog_Laser
 62
7
100
AcDbSpline
 70
8
 71
3
 72
8
 73
4
 74
0
 40
0
 40
0
 40
0
 40
0
 40
1
 40
1
 40
1
 40
1
 10
22309.210172
 20
12075.336236
 30
0.0
 10
22324.398439
 20
12075.336236
 30
0.0
 10
22336.717987
 20
12087.635458
 30
0.0
 10
22336.743067
 20
12102.823704
 30
0.0
  0
LWPOLYLINE
  5
1f9
100
AcDbEntity
  8
Epilog_Laser
 62
7
100
AcDbPolyline
 90
2
 70
0
 10
6170.449658
 20
10263.168027
 30
0.0
 10
6126.268333
 20
10263.168027
 30
0.0
  0
SPLINE
  5
1fa
100
AcDbEntity
  8
Epilog_Laser
 62
7
100
AcDbSpline
 70
8
 71
3
 72
8
 73
4
 74
0
 40
0
 40
0
 40
0
 40
0
 40
1
 40
1
 40
1
 40
1
 10
22763.645664
 20
13011.694689
 30
0.0
 10
22522.598049
 20
13011.694831
 30
0.0
 10
22291.423075
 20
12915.939102
 30
0.0
 10
22120.976671
 20
12745.492698
 30
0.0
  0
SPLINE
  5
1fb
100
AcDbEntity
  8
Epilog_Laser
 62
7
100
AcDbSpline
 70
8
 71
3
 72
8
 73
4
 74
0
 40
0
 40
0
 40
0
 40
0
 40
1
 40
1
 40
1
 40
1
 10
22120.976671
 20
12745.492698
 30
0.0
 10
21950.530267
 20
12575.046294
 30
0.0
 10
21854.774538
 20
12343.871320
 30
0.0
 10
21854.774680
 20
12102.823704
 30
0.0
  0
LWPOLYLINE
  5
1fc
100
AcDbEntity
  8
Epilog_Laser
 62
7
100
AcDbPolyline
 90
2
 70
1
 10
22336.743067
 20
12102.823704
 30
0.0
 10
22336.743067
 20
12102.823704
 30
0.0
  0
LWPOLYLINE
  5
1fd
100
AcDbEntity
  8
Epilog_Laser
 62
7
100
AcDbPolyline
 90
5
 70
0
 10
22763.645664
 20
12102.823704
 30
0.0
 10
22763.645664
 20
13011.694689
 30
0.0
 10
22719.464058
 20
13011.694689
 30
0.0
 10
22719.464058
 20
12102.823704
 30
0.0
 10
22763.645664
 20
12102.823704
 30
0.0
  0
LWPOLYLINE
  5
1fe
100
AcDbEntity
  8
Epilog_Laser
 62
7
100
AcDbPolyline
 90
2
 70
0
 10
1025.118064
 20
16469.744951
 30
0.0
 10
1025.118064
 20
14954.964587
 30
0.0
  0
LWPOLYLINE
  5
1ff
100
AcDbEntity
  8
Epilog_Laser
 62
7
100
AcDbPolyline
 90
2
 70
0
 10
1429.060529
 20
16469.744951
 30
0.0
 10
1429.060529
 20
14954.961200
 30
0.0
  0
LWPOLYLINE
  5
200
100
AcDbEntity
  8
Epilog_Laser
 62
7
100
AcDbPolyline
 90
2
 70
0
 10
1176.596552
 20
16412.941238
 30
0.0
 10
1176.596552
 20
15011.766042
 30
0.0
  0
LWPOLYLINE
  5
201
100
AcDbEntity
  8
Epilog_Laser
 62
7
100
AcDbPolyline
 90
2
 70
0
 10
1277.582041
 20
15011.766042
 30
0.0
 10
1277.582041
 20
16412.941238
 30
0.0
  0
LWPOLYLINE
  5
202
100
AcDbEntity
  8
Epilog_Laser
 62
7
100
AcDbPolyline
 90
2
 70
0
 10
1025.118064
 20
13743.134538
 30
0.0
 10
1025.118064
 20
12228.353044
 30
0.0
  0
LWPOLYLINE
  5
203
100
AcDbEntity
  8
Epilog_Laser
 62
7
100
AcDbPolyline
 90
2
 70
0
 10
1429.060529
 20
13743.134538
 30
0.0
 10
1429.060529
 20
12228.350787
 30
0.0
  0
LWPOLYLINE
  5
204
100
AcDbEntity
  8
Epilog_Laser
 62
7
100
AcDbPolyline
 90
2
 70
0
 10
1176.596552
 20
13686.329696
 30
0.0
 10
1176.596552
 20
12285.154500
 30
0.0
  0
LWPOLYLINE
  5
205
100
AcDbEntity
  8
Epilog_Laser
 62
7
100
AcDbPolyline
 90
2
 70
0
 10
1277.582041
 20
12285.154500
 30
0.0
 10
1277.582041
 20
13686.329696
 30
0.0
  0
LWPOLYLINE
  5
206
100
AcDbEntity
  8
Epilog_Laser
 62
7
100
AcDbPolyline
 90
2
 70
0
 10
1227.613186
 20
16412.941238
 30
0.0
 10
1227.613186
 20
15011.766042
 30
0.0
  0
LWPOLYLINE
  5
207
100
AcDbEntity
  8
Epilog_Laser
 62
7
100
AcDbPolyline
 90
2
 70
0
 10
1227.613186
 20
13686.329696
 30
0.0
 10
1227.613186
 20
12285.154500
 30
0.0
  0
LWPOLYLINE
  5
208
100
AcDbEntity
  8
Epilog_Laser
 62
7
100
AcDbPolyline
 90
2
 70
0
 10
1025.118064
 20
14954.961200
 30
0.0
 10
1176.596552
 20
14954.961200
 30
0.0
  0
LWPOLYLINE
  5
209
100
AcDbEntity
  8
Epilog_Laser
 62
7
100
AcDbPolyline
 90
2
 70
0
 10
1353.321285
 20
14954.961200
 30
0.0
 10
1429.060529
 20
14954.961200
 30
0.0
  0
LWPOLYLINE
  5
20a
100
AcDbEntity
  8
Epilog_Laser
 62
7
100
AcDbPolyline
 90
2
 70
0
 10
1176.596552
 20
14954.961200
 30
0.0
 10
1176.596552
 20
15011.766042
 30
0.0
  0
LWPOLYLINE
  5
20b
100
AcDbEntity
  8
Epilog_Laser
 62
7
100
AcDbPolyline
 90
2
 70
0
 10
1277.582041
 20
14980.211058
 30
0.0
 10
1277.582041
 20
15011.766042
 30
0.0
  0
LWPOLYLINE
  5
20c
100
AcDbEntity
  8
Epilog_Laser
 62
7
100
AcDbPolyline
 90
2
 70
0
 10
1277.582041
 20
14980.211058
 30
0.0
 10
1353.321285
 20
14980.208236
 30
0.0
  0
LWPOLYLINE
  5
20d
100
AcDbEntity
  8
Epilog_Laser
 62
7
100
AcDbPolyline
 90
2
 70
0
 10
1353.321285
 20
14980.207953
 30
0.0
 10
1353.321285
 20
14954.961200
 30
0.0
  0
LWPOLYLINE
  5
20e
100
AcDbEntity
  8
Epilog_Laser
 62
7
100
AcDbPolyline
 90
2
 70
0
 10
1176.596552
 20
15011.766042
 30
0.0
 10
1277.582041
 20
15011.766042
 30
0.0
  0
LWPOLYLINE
  5
20f
100
AcDbEntity
  8
Epilog_Laser
 62
7
100
AcDbPolyline
 90
2
 70
0
 10
1176.596552
 20
14954.961200
 30
0.0
 10
1353.321285
 20
14954.961200
 30
0.0
  0
LWPOLYLINE
  5
210
100
AcDbEntity
  8
Epilog_Laser
 62
7
100
AcDbPolyline
 90
2
 70
0
 10
1277.582041
 20
14980.211058
 30
0.0
 10
1277.582041
 20
14954.961200
 30
0.0
  0
LWPOLYLINE
  5
211
100
AcDbEntity
  8
Epilog_Laser
 62
7
100
AcDbPolyline
 90
2
 70
0
 10
1025.118064
 20
16469.744951
 30
0.0
 10
1176.596552
 20
16469.744951
 30
0.0
  0
LWPOLYLINE
  5
212
100
AcDbEntity
  8
Epilog_Laser
 62
7
100
AcDbPolyline
 90
2
 70
0
 10
1353.321285
 20
16469.744951
 30
0.0
 10
1429.060529
 20
16469.744951
 30
0.0
  0
LWPOLYLINE
  5
213
100
AcDbEntity
  8
Epilog_Laser
 62
7
100
AcDbPolyline
 90
2
 70
0
 10
1176.596552
 20
16469.744951
 30
0.0
 10
1176.596552
 20
16412.941238
 30
0.0
  0
LWPOLYLINE
  5
214
100
AcDbEntity
  8
Epilog_Laser
 62
7
100
AcDbPolyline
 90
2
 70
0
 10
1277.582041
 20
16444.496222
 30
0.0
 10
1277.582041
 20
16412.941238
 30
0.0
  0
LWPOLYLINE
  5
215
100
AcDbEntity
  8
Epilog_Laser
 62
7
100
AcDbPolyline
 90
2
 70
0
 10
1277.582041
 20
16444.496222
 30
0.0
 10
1353.321285
 20
16444.496222
 30
0.0
  0
LWPOLYLINE
  5
216
100
AcDbEntity
  8
Epilog_Laser
 62
7
100
AcDbPolyline
 90
2
 70
0
 10
1353.321285
 20
16444.498480
 30
0.0
 10
1353.321285
 20
16469.744951
 30
0.0
  0
LWPOLYLINE
  5
217
100
AcDbEntity
  8
Epilog_Laser
 62
7
100
AcDbPolyline
 90
2
 70
0
 10
1176.596552
 20
16412.941238
 30
0.0
 10
1277.582041
 20
16412.941238
 30
0.0
  0
LWPOLYLINE
  5
218
100
AcDbEntity
  8
Epilog_Laser
 62
7
100
AcDbPolyline
 90
2
 70
0
 10
1176.596552
 20
16469.744951
 30
0.0
 10
1353.321285
 20
16469.744951
 30
0.0
  0
LWPOLYLINE
  5
219
100
AcDbEntity
  8
Epilog_Laser
 62
7
100
AcDbPolyline
 90
2
 70
0
 10
1277.582041
 20
16444.496222
 30
0.0
 10
1277.582041
 20
16469.744951
 30
0.0
  0
LWPOLYLINE
  5
21a
100
AcDbEntity
  8
Epilog_Laser
 62
7
100
AcDbPolyline
 90
2
 70
0
 10
1025.118064
 20
12228.350787
 30
0.0
 10
1176.596552
 20
12228.350787
 30
0.0
  0
LWPOLYLINE
  5
21b
100
AcDbEntity
  8
Epilog_Laser
 62
7
100
AcDbPolyline
 90
2
 70
0
 10
1353.321285
 20
12228.350787
 30
0.0
 10
1429.060529
 20
12228.350787
 30
0.0
  0
LWPOLYLINE
  5
21c
100
AcDbEntity
  8
Epilog_Laser
 62
7
100
AcDbPolyline
 90
2
 70
0
 10
1176.596552
 20
12228.350787
 30
0.0
 10
1176.596552
 20
12285.154500
 30
0.0
  0
LWPOLYLINE
  5
21d
100
AcDbEntity
  8
Epilog_Laser
 62
7
100
AcDbPolyline
 90
2
 70
0
 10
1277.582041
 20
12253.599516
 30
0.0
 10
1277.582041
 20
12285.154500
 30
0.0
  0
LWPOLYLINE
  5
21e
100
AcDbEntity
  8
Epilog_Laser
 62
7
100
AcDbPolyline
 90
2
 70
0
 10
1277.582041
 20
12253.599516
 30
0.0
 10
1353.321285
 20
12253.596693
 30
0.0
  0
LWPOLYLINE
  5
21f
100
AcDbEntity
  8
Epilog_Laser
 62
7
100
AcDbPolyline
 90
2
 70
0
 10
1353.321285
 20
12253.596411
 30
0.0
 10
1353.321285
 20
12228.350787
 30
0.0
  0
LWPOLYLINE
  5
220
100
AcDbEntity
  8
Epilog_Laser
 62
7
100
AcDbPolyline
 90
2
 70
0
 10
1176.596552
 20
12285.154500
 30
0.0
 10
1277.582041
 20
12285.154500
 30
0.0
  0
LWPOLYLINE
  5
221
100
AcDbEntity
  8
Epilog_Laser
 62
7
100
AcDbPolyline
 90
2
 70
0
 10
1176.596552
 20
12228.350787
 30
0.0
 10
1353.321285
 20
12228.350787
 30
0.0
  0
LWPOLYLINE
  5
222
100
AcDbEntity
  8
Epilog_Laser
 62
7
100
AcDbPolyline
 90
2
 70
0
 10
1277.582041
 20
12253.599516
 30
0.0
 10
1277.582041
 20
12228.350787
 30
0.0
  0
LWPOLYLINE
  5
223
100
AcDbEntity
  8
Epilog_Laser
 62
7
100
AcDbPolyline
 90
2
 70
0
 10
1025.118064
 20
13743.134538
 30
0.0
 10
1176.596552
 20
13743.134538
 30
0.0
  0
LWPOLYLINE
  5
224
100
AcDbEntity
  8
Epilog_Laser
 62
7
100
AcDbPolyline
 90
2
 70
0
 10
1353.321285
 20
13743.134538
 30
0.0
 10
1429.060529
 20
13743.134538
 30
0.0
  0
LWPOLYLINE
  5
225
100
AcDbEntity
  8
Epilog_Laser
 62
7
100
AcDbPolyline
 90
2
 70
0
 10
1176.596552
 20
13743.134538
 30
0.0
 10
1176.596552
 20
13686.329696
 30
0.0
  0
LWPOLYLINE
  5
226
100
AcDbEntity
  8
Epilog_Laser
 62
7
100
AcDbPolyline
 90
2
 70
0
 10
1277.582041
 20
13717.884680
 30
0.0
 10
1277.582041
 20
13686.329696
 30
0.0
  0
LWPOLYLINE
  5
227
100
AcDbEntity
  8
Epilog_Laser
 62
7
100
AcDbPolyline
 90
2
 70
0
 10
1277.582041
 20
13717.884680
 30
0.0
 10
1353.321285
 20
13717.887502
 30
0.0
  0
LWPOLYLINE
  5
228
100
AcDbEntity
  8
Epilog_Laser
 62
7
100
AcDbPolyline
 90
2
 70
0
 10
1353.321285
 20
13717.888067
 30
0.0
 10
1353.321285
 20
13743.134538
 30
0.0
  0
LWPOLYLINE
  5
229
100
AcDbEntity
  8
Epilog_Laser
 62
7
100
AcDbPolyline
 90
2
 70
0
 10
1176.596552
 20
13686.329696
 30
0.0
 10
1277.582041
 20
13686.329696
 30
0.0
  0
LWPOLYLINE
  5
22a
100
AcDbEntity
  8
Epilog_Laser
 62
7
100
AcDbPolyline
 90
2
 70
0
 10
1176.596552
 20
13743.134538
 30
0.0
 10
1353.321285
 20
13743.134538
 30
0.0
  0
LWPOLYLINE
  5
22b
100
AcDbEntity
  8
Epilog_Laser
 62
7
100
AcDbPolyline
 90
2
 70
0
 10
1277.582041
 20
13717.884680
 30
0.0
 10
1277.582041
 20
13743.134538
 30
0.0
  0
LWPOLYLINE
  5
22c
100
AcDbEntity
  8
Epilog_Laser
 62
7
100
AcDbPolyline
 90
5
 70
0
 10
2876.291484
 20
12349.623665
 30
0.0
 10
4088.118678
 20
12349.623665
 30
0.0
 10
4088.118678
 20
11137.796912
 30
0.0
 10
2876.291484
 20
11137.796912
 30
0.0
 10
2876.291484
 20
12349.623665
 30
0.0
  0
LWPOLYLINE
  5
22d
100
AcDbEntity
  8
Epilog_Laser
 62
7
100
AcDbPolyline
 90
5
 70
0
 10
7966.355074
 20
10936.312202
 30
0.0
 10
9859.835545
 20
10936.312202
 30
0.0
 10
9859.835545
 20
12918.154662
 30
0.0
 10
7966.355074
 20
12918.154662
 30
0.0
 10
7966.355074
 20
10936.312202
 30
0.0
  0
LWPOLYLINE
  5
22e
100
AcDbEntity
  8
Epilog_Laser
 62
7
100
AcDbPolyline
 90
2
 70
0
 10
10806.229340
 20
12970.717151
 30
0.0
 10
12018.056538
 20
12970.717151
 30
0.0
  0
LWPOLYLINE
  5
22f
100
AcDbEntity
  8
Epilog_Laser
 62
7
100
AcDbPolyline
 90
3
 70
0
 10
10806.229340
 20
12970.717151
 30
0.0
 10
10806.229340
 20
12364.804187
 30
0.0
 10
12018.056538
 20
12364.804187
 30
0.0
  0
LWPOLYLINE
  5
230
100
AcDbEntity
  8
Epilog_Laser
 62
7
100
AcDbPolyline
 90
2
 70
0
 10
12018.056538
 20
12970.717151
 30
0.0
 10
12018.056538
 20
12364.804187
 30
0.0
  0
LWPOLYLINE
  5
231
100
AcDbEntity
  8
Epilog_Laser
 62
7
100
AcDbPolyline
 90
7
 70
0
 10
8185.978525
 20
3617.655280
 30
0.0
 10
8365.311202
 20
3845.469373
 30
0.0
 10
8346.565502
 20
3860.226385
 30
0.0
 10
8382.536040
 20
3905.920551
 30
0.0
 10
8755.418313
 20
3612.391243
 30
0.0
 10
8946.612747
 20
3790.183697
 30
0.0
 10
8927.866201
 20
3804.940691
 30
0.0
  0
LWPOLYLINE
  5
232
100
AcDbEntity
  8
Epilog_Laser
 62
7
100
AcDbPolyline
 90
2
 70
0
 10
8997.492244
 20
3869.686268
 30
0.0
 10
9004.719228
 20
3864.002914
 30
0.0
  0
LWPOLYLINE
  5
233
100
AcDbEntity
  8
Epilog_Laser
 62
7
100
AcDbPolyline
 90
9
 70
0
 10
9004.718214
 20
3863.997528
 30
0.0
 10
9132.919990
 20
4026.856405
 30
0.0
 10
9154.009533
 20
4010.254921
 30
0.0
 10
9190.902304
 20
4057.121150
 30
0.0
 10
9169.812760
 20
4073.722634
 30
0.0
 10
9296.722642
 20
4234.942243
 30
0.0
 10
9192.446412
 20
4317.027983
 30
0.0
 10
9211.814624
 20
4341.632305
 30
0.0
 10
9202.436426
 20
4349.010132
 30
0.0
  0
LWPOLYLINE
  5
234
100
AcDbEntity
  8
Epilog_Laser
 62
7
100
AcDbPolyline
 90
34
 70
0
 10
9202.441787
 20
4349.010247
 30
0.0
 10
9278.992928
 20
4446.257460
 30
0.0
 10
9157.142215
 20
4542.177960
 30
0.0
 10
9087.045631
 20
4453.132626
 30
0.0
 10
8994.188626
 20
4526.229520
 30
0.0
 10
9020.935597
 20
4560.208109
 30
0.0
 10
9051.398002
 20
4536.227555
 30
0.0
 10
9081.835088
 20
4574.891881
 30
0.0
 10
9017.393248
 20
4625.619388
 30
0.0
 10
9038.606797
 20
4652.566726
 30
0.0
 10
9015.174232
 20
4671.013829
 30
0.0
 10
8989.349494
 20
4638.207303
 30
0.0
 10
8921.393722
 20
4691.701558
 30
0.0
 10
8902.946901
 20
4668.268998
 30
0.0
 10
8886.544206
 20
4681.181238
 30
0.0
 10
8930.814918
 20
4737.420305
 30
0.0
 10
8916.754932
 20
4748.488331
 30
0.0
 10
8890.930194
 20
4715.681806
 30
0.0
 10
8815.944582
 20
4774.709512
 30
0.0
 10
8793.809934
 20
4746.589853
 30
0.0
 10
8693.047636
 20
4825.908845
 30
0.0
 10
8657.077099
 20
4780.214679
 30
0.0
 10
8134.794095
 20
5191.352065
 30
0.0
 10
8203.045061
 20
5278.054377
 30
0.0
 10
8072.992727
 20
5380.430568
 30
0.0
 10
8060.080205
 20
5364.027867
 30
0.0
 10
7732.018343
 20
5622.275038
 30
0.0
 10
7679.446322
 20
5555.491329
 30
0.0
 10
8005.165468
 20
5299.088653
 30
0.0
 10
7988.563984
 20
5277.999110
 30
0.0
 10
7980.362081
 20
5284.454795
 30
0.0
 10
7954.537319
 20
5251.649398
 30
0.0
 10
7803.394038
 20
5370.626761
 30
0.0
 10
7510.098562
 20
4998.042797
 30
0.0
  0
LWPOLYLINE
  5
235
100
AcDbEntity
  8
Epilog_Laser
 62
7
100
AcDbPolyline
 90
3
 70
0
 10
8147.744035
 20
5321.587537
 30
0.0
 10
8405.806814
 20
5649.415100
 30
0.0
 10
8343.709971
 20
5698.297031
 30
0.0
  0
SPLINE
  5
236
100
AcDbEntity
  8
Epilog_Laser
 62
7
100
AcDbSpline
 70
8
 71
3
 72
8
 73
4
 74
0
 40
0
 40
0
 40
0
 40
0
 40
1
 40
1
 40
1
 40
1
 10
8343.709971
 20
5698.297031
 30
0.0
 10
8142.119441
 20
5792.445116
 30
0.0
 10
7904.430322
 20
5762.904740
 30
0.0
 10
7732.018343
 20
5622.275038
 30
0.0
  0
LWPOLYLINE
  5
237
100
AcDbEntity
  8
Epilog_Laser
 62
7
100
AcDbPolyline
 90
2
 70
0
 10
8085.646045
 20
5370.470290
 30
0.0
 10
8343.709971
 20
5698.297031
 30
0.0
  0
LWPOLYLINE
  5
238
100
AcDbEntity
  8
Epilog_Laser
 62
7
100
AcDbPolyline
 90
2
 70
0
 10
7334.439498
 20
4707.899143
 30
0.0
 10
7449.557851
 20
4939.385264
 30
0.0
  0
LWPOLYLINE
  5
239
100
AcDbEntity
  8
Epilog_Laser
 62
7
100
AcDbPolyline
 90
4
 70
0
 10
7469.367805
 20
4929.907813
 30
0.0
 10
7398.799137
 20
4782.406239
 30
0.0
 10
7527.680553
 20
4680.951458
 30
0.0
 10
7646.125721
 20
4891.310260
 30
0.0
  0
LWPOLYLINE
  5
23a
100
AcDbEntity
  8
Epilog_Laser
 62
7
100
AcDbPolyline
 90
2
 70
0
 10
7648.531836
 20
5173.900114
 30
0.0
 10
7628.491163
 20
5189.676936
 30
0.0
  0
LWPOLYLINE
  5
23b
100
AcDbEntity
  8
Epilog_Laser
 62
7
100
AcDbPolyline
 90
2
 70
0
 10
7574.587596
 20
5151.814069
 30
0.0
 10
7574.529308
 20
5151.859962
 30
0.0
  0
LWPOLYLINE
  5
23c
100
AcDbEntity
  8
Epilog_Laser
 62
7
100
AcDbPolyline
 90
2
 70
0
 10
7571.363170
 20
5178.450157
 30
0.0
 10
7601.604033
 20
5216.865817
 30
0.0
  0
LWPOLYLINE
  5
23d
100
AcDbEntity
  8
Epilog_Laser
 62
7
100
AcDbPolyline
 90
2
 70
0
 10
7579.929935
 20
5249.992558
 30
0.0
 10
7579.822258
 20
5249.879875
 30
0.0
  0
LWPOLYLINE
  5
23e
100
AcDbEntity
  8
Epilog_Laser
 62
7
100
AcDbPolyline
 90
2
 70
0
 10
7673.585299
 20
5277.695179
 30
0.0
 10
7673.643593
 20
5277.649004
 30
0.0
  0
LWPOLYLINE
  5
23f
100
AcDbEntity
  8
Epilog_Laser
 62
7
100
AcDbPolyline
 90
3
 70
0
 10
7676.810013
 20
5251.058815
 30
0.0
 10
7649.842084
 20
5216.800260
 30
0.0
 10
7669.883879
 20
5201.023744
 30
0.0
  0
LWPOLYLINE
  5
240
100
AcDbEntity
  8
Epilog_Laser
 62
7
100
AcDbPolyline
 90
2
 70
0
 10
6925.279821
 20
3473.247610
 30
0.0
 10
7477.797474
 20
4175.130710
 30
0.0
  0
LWPOLYLINE
  5
241
100
AcDbEntity
  8
Epilog_Laser
 62
7
100
AcDbPolyline
 90
4
 70
0
 10
6925.279821
 20
3473.247610
 30
0.0
 10
6899.774435
 20
3493.324527
 30
0.0
 10
7452.292126
 20
4195.208475
 30
0.0
 10
8185.978525
 20
3617.655280
 30
0.0
  0
LWPOLYLINE
  5
242
100
AcDbEntity
  8
Epilog_Laser
 62
7
100
AcDbPolyline
 90
3
 70
0
 10
7452.292126
 20
4195.208475
 30
0.0
 10
7467.986185
 20
4215.146315
 30
0.0
 10
7278.451908
 20
4364.346438
 30
0.0
  0
LWPOLYLINE
  5
243
100
AcDbEntity
  8
Epilog_Laser
 62
7
100
AcDbPolyline
 90
2
 70
0
 10
8927.866201
 20
3804.940691
 30
0.0
 10
8997.492244
 20
3869.686268
 30
0.0
  0
LWPOLYLINE
  5
244
100
AcDbEntity
  8
Epilog_Laser
 62
7
100
AcDbPolyline
 90
2
 70
0
 10
7628.491163
 20
5189.676936
 30
0.0
 10
7601.177791
 20
5154.980207
 30
0.0
  0
LWPOLYLINE
  5
245
100
AcDbEntity
  8
Epilog_Laser
 62
7
100
AcDbPolyline
 90
2
 70
0
 10
7601.604033
 20
5216.865817
 30
0.0
 10
7582.040309
 20
5232.266129
 30
0.0
  0
LWPOLYLINE
  5
246
100
AcDbEntity
  8
Epilog_Laser
 62
7
100
AcDbPolyline
 90
2
 70
0
 10
7617.099714
 20
5236.550145
 30
0.0
 10
7597.536272
 20
5251.950463
 30
0.0
  0
SPLINE
  5
247
100
AcDbEntity
  8
Epilog_Laser
 62
7
100
AcDbSpline
 70
8
 71
3
 72
8
 73
4
 74
0
 40
0
 40
0
 40
0
 40
0
 40
1
 40
1
 40
1
 40
1
 10
7579.929935
 20
5249.992558
 30
0.0
 10
7575.617519
 20
5244.515037
 30
0.0
 10
7576.561845
 20
5236.578757
 30
0.0
 10
7582.039181
 20
5232.266105
 30
0.0
  0
SPLINE
  5
248
100
AcDbEntity
  8
Epilog_Laser
 62
7
100
AcDbSpline
 70
8
 71
3
 72
8
 73
4
 74
0
 40
0
 40
0
 40
0
 40
0
 40
1
 40
1
 40
1
 40
1
 10
7597.536272
 20
5251.950463
 30
0.0
 10
7592.058751
 20
5256.262880
 30
0.0
 10
7584.122472
 20
5255.318553
 30
0.0
 10
7579.809819
 20
5249.841218
 30
0.0
  0
SPLINE
  5
249
100
AcDbEntity
  8
Epilog_Laser
 62
7
100
AcDbSpline
 70
8
 71
3
 72
8
 73
4
 74
0
 40
0
 40
0
 40
0
 40
0
 40
1
 40
1
 40
1
 40
1
 10
7574.587596
 20
5151.814069
 30
0.0
 10
7578.533938
 20
5148.708222
 30
0.0
 10
7583.552462
 20
5147.297300
 30
0.0
 10
7588.539103
 20
5147.891704
 30
0.0
  0
SPLINE
  5
24a
100
AcDbEntity
  8
Epilog_Laser
 62
7
100
AcDbSpline
 70
8
 71
3
 72
8
 73
4
 74
0
 40
0
 40
0
 40
0
 40
0
 40
1
 40
1
 40
1
 40
1
 10
7588.539103
 20
5147.891704
 30
0.0
 10
7593.525744
 20
5148.486108
 30
0.0
 10
7598.072005
 20
5151.037145
 30
0.0
 10
7601.177719
 20
5154.983593
 30
0.0
  0
SPLINE
  5
24b
100
AcDbEntity
  8
Epilog_Laser
 62
7
100
AcDbSpline
 70
8
 71
3
 72
8
 73
4
 74
0
 40
0
 40
0
 40
0
 40
0
 40
1
 40
1
 40
1
 40
1
 10
7571.363170
 20
5178.450157
 30
0.0
 10
7568.257323
 20
5174.503815
 30
0.0
 10
7566.846401
 20
5169.485291
 30
0.0
 10
7567.440805
 20
5164.498650
 30
0.0
  0
SPLINE
  5
24c
100
AcDbEntity
  8
Epilog_Laser
 62
7
100
AcDbSpline
 70
8
 71
3
 72
8
 73
4
 74
0
 40
0
 40
0
 40
0
 40
0
 40
1
 40
1
 40
1
 40
1
 10
7567.440805
 20
5164.498650
 30
0.0
 10
7568.035209
 20
5159.512009
 30
0.0
 10
7570.586246
 20
5154.965748
 30
0.0
 10
7574.532694
 20
5151.860034
 30
0.0
  0
SPLINE
  5
24d
100
AcDbEntity
  8
Epilog_Laser
 62
7
100
AcDbSpline
 70
8
 71
3
 72
8
 73
4
 74
0
 40
0
 40
0
 40
0
 40
0
 40
1
 40
1
 40
1
 40
1
 10
7676.810013
 20
5251.058815
 30
0.0
 10
7679.915827
 20
5255.005192
 30
0.0
 10
7681.326701
 20
5260.023737
 30
0.0
 10
7680.732243
 20
5265.010378
 30
0.0
  0
SPLINE
  5
24e
100
AcDbEntity
  8
Epilog_Laser
 62
7
100
AcDbSpline
 70
8
 71
3
 72
8
 73
4
 74
0
 40
0
 40
0
 40
0
 40
0
 40
1
 40
1
 40
1
 40
1
 10
7680.732243
 20
5265.010378
 30
0.0
 10
7680.137786
 20
5269.997020
 30
0.0
 10
7677.586696
 20
5274.543259
 30
0.0
 10
7673.640207
 20
5277.648932
 30
0.0
  0
SPLINE
  5
24f
100
AcDbEntity
  8
Epilog_Laser
 62
7
100
AcDbSpline
 70
8
 71
3
 72
8
 73
4
 74
0
 40
0
 40
0
 40
0
 40
0
 40
1
 40
1
 40
1
 40
1
 10
7673.585299
 20
5277.695179
 30
0.0
 10
7669.638922
 20
5280.800993
 30
0.0
 10
7664.620377
 20
5282.211867
 30
0.0
 10
7659.633735
 20
5281.617410
 30
0.0
  0
SPLINE
  5
250
100
AcDbEntity
  8
Epilog_Laser
 62
7
100
AcDbSpline
 70
8
 71
3
 72
8
 73
4
 74
0
 40
0
 40
0
 40
0
 40
0
 40
1
 40
1
 40
1
 40
1
 10
7659.633735
 20
5281.617410
 30
0.0
 10
7654.647094
 20
5281.022952
 30
0.0
 10
7650.100854
 20
5278.471862
 30
0.0
 10
7646.995182
 20
5274.525373
 30
0.0
  0
LWPOLYLINE
  5
251
100
AcDbEntity
  8
Epilog_Laser
 62
7
100
AcDbPolyline
 90
2
 70
0
 10
7617.099714
 20
5236.550145
 30
0.0
 10
7646.995109
 20
5274.528759
 30
0.0
  0
LWPOLYLINE
  5
252
100
AcDbEntity
  8
Epilog_Laser
 62
7
100
AcDbPolyline
 90
2
 70
0
 10
7510.267841
 20
4998.257858
 30
0.0
 10
7646.125721
 20
4891.310260
 30
0.0
  0
LWPOLYLINE
  5
253
100
AcDbEntity
  8
Epilog_Laser
 62
7
100
AcDbPolyline
 90
2
 70
0
 10
7469.367805
 20
4929.907813
 30
0.0
 10
7449.557833
 20
4939.386111
 30
0.0
  0
LWPOLYLINE
  5
254
100
AcDbEntity
  8
Epilog_Laser
 62
7
100
AcDbPolyline
 90
2
 70
0
 10
7468.545967
 20
4605.829187
 30
0.0
 10
7278.451908
 20
4364.346438
 30
0.0
  0
SPLINE
  5
255
100
AcDbEntity
  8
Epilog_Laser
 62
7
100
AcDbSpline
 70
8
 71
3
 72
8
 73
4
 74
0
 40
0
 40
0
 40
0
 40
0
 40
1
 40
1
 40
1
 40
1
 10
6925.279821
 20
3473.247610
 30
0.0
 10
7332.835747
 20
3245.238228
 30
0.0
 10
7840.537475
 20
3303.393300
 30
0.0
 10
8185.978525
 20
3617.655280
 30
0.0
  0
SPLINE
  5
256
100
AcDbEntity
  8
Epilog_Laser
 62
7
100
AcDbSpline
 70
8
 71
3
 72
8
 73
4
 74
0
 40
0
 40
0
 40
0
 40
0
 40
1
 40
1
 40
1
 40
1
 10
9199.922516
 20
4659.271856
 30
0.0
 10
9308.165894
 20
4661.545240
 30
0.0
 10
9406.968783
 20
4721.409323
 30
0.0
 10
9459.094359
 20
4816.302535
 30
0.0
  0
SPLINE
  5
257
100
AcDbEntity
  8
Epilog_Laser
 62
7
100
AcDbSpline
 70
8
 71
3
 72
8
 73
4
 74
0
 40
0
 40
0
 40
0
 40
0
 40
1
 40
1
 40
1
 40
1
 10
9459.094359
 20
4816.302535
 30
0.0
 10
9511.219935
 20
4911.195746
 30
0.0
 10
9508.744327
 20
5026.692892
 30
0.0
 10
9452.600543
 20
5119.265418
 30
0.0
  0
SPLINE
  5
258
100
AcDbEntity
  8
Epilog_Laser
 62
7
100
AcDbSpline
 70
8
 71
3
 72
8
 73
4
 74
0
 40
0
 40
0
 40
0
 40
0
 40
1
 40
1
 40
1
 40
1
 10
9452.600543
 20
5119.265418
 30
0.0
 10
9396.456758
 20
5211.837944
 30
0.0
 10
9295.179496
 20
5267.413437
 30
0.0
 10
9186.938120
 20
5265.046609
 30
0.0
  0
SPLINE
  5
259
100
AcDbEntity
  8
Epilog_Laser
 62
7
100
AcDbSpline
 70
8
 71
3
 72
8
 73
4
 74
0
 40
0
 40
0
 40
0
 40
0
 40
1
 40
1
 40
1
 40
1
 10
9186.938120
 20
5265.046609
 30
0.0
 10
9019.710643
 20
5261.389979
 30
0.0
 10
8887.089203
 20
5122.898877
 30
0.0
 10
8890.673651
 20
4955.669836
 30
0.0
  0
SPLINE
  5
25a
100
AcDbEntity
  8
Epilog_Laser
 62
7
100
AcDbSpline
 70
8
 71
3
 72
8
 73
4
 74
0
 40
0
 40
0
 40
0
 40
0
 40
1
 40
1
 40
1
 40
1
 10
8890.673651
 20
4955.669836
 30
0.0
 10
8894.258099
 20
4788.440796
 30
0.0
 10
9032.691944
 20
4655.759591
 30
0.0
 10
9199.922516
 20
4659.271856
 30
0.0
  0
LWPOLYLINE
  5
25b
100
AcDbEntity
  8
Epilog_Laser
 62
7
100
AcDbPolyline
 90
2
 70
0
 10
7466.846021
 20
4603.669951
 30
0.0
 10
7334.439498
 20
4707.899143
 30
0.0
  0
SPLINE
  5
25c
100
AcDbEntity
  8
Epilog_Laser
 62
7
100
AcDbSpline
 70
8
 71
3
 72
8
 73
4
 74
0
 40
0
 40
0
 40
0
 40
0
 40
1
 40
1
 40
1
 40
1
 10
8661.844102
 20
5082.843318
 30
0.0
 10
8770.087481
 20
5085.116703
 30
0.0
 10
8868.890369
 20
5144.980786
 30
0.0
 10
8921.015945
 20
5239.873997
 30
0.0
  0
SPLINE
  5
25d
100
AcDbEntity
  8
Epilog_Laser
 62
7
100
AcDbSpline
 70
8
 71
3
 72
8
 73
4
 74
0
 40
0
 40
0
 40
0
 40
0
 40
1
 40
1
 40
1
 40
1
 10
8921.015945
 20
5239.873997
 30
0.0
 10
8973.141521
 20
5334.767208
 30
0.0
 10
8970.665914
 20
5450.264354
 30
0.0
 10
8914.522129
 20
5542.836881
 30
0.0
  0
SPLINE
  5
25e
100
AcDbEntity
  8
Epilog_Laser
 62
7
100
AcDbSpline
 70
8
 71
3
 72
8
 73
4
 74
0
 40
0
 40
0
 40
0
 40
0
 40
1
 40
1
 40
1
 40
1
 10
8914.522129
 20
5542.836881
 30
0.0
 10
8858.378345
 20
5635.409407
 30
0.0
 10
8757.101082
 20
5690.984900
 30
0.0
 10
8648.859707
 20
5688.618072
 30
0.0
  0
SPLINE
  5
25f
100
AcDbEntity
  8
Epilog_Laser
 62
7
100
AcDbSpline
 70
8
 71
3
 72
8
 73
4
 74
0
 40
0
 40
0
 40
0
 40
0
 40
1
 40
1
 40
1
 40
1
 10
8648.859707
 20
5688.618072
 30
0.0
 10
8481.632229
 20
5684.961442
 30
0.0
 10
8349.010790
 20
5546.470340
 30
0.0
 10
8352.595238
 20
5379.241299
 30
0.0
  0
SPLINE
  5
260
100
AcDbEntity
  8
Epilog_Laser
 62
7
100
AcDbSpline
 70
8
 71
3
 72
8
 73
4
 74
0
 40
0
 40
0
 40
0
 40
0
 40
1
 40
1
 40
1
 40
1
 10
8352.595238
 20
5379.241299
 30
0.0
 10
8356.179685
 20
5212.012258
 30
0.0
 10
8494.613530
 20
5079.331053
 30
0.0
 10
8661.844102
 20
5082.843318
 30
0.0
  0
LWPOLYLINE
  5
261
100
AcDbEntity
  8
Epilog_Laser
 62
7
100
AcDbPolyline
 90
2
 70
1
 10
9199.922516
 20
4659.271856
 30
0.0
 10
9199.922516
 20
4659.271856
 30
0.0
  0
LWPOLYLINE
  5
262
100
AcDbEntity
  8
Epilog_Laser
 62
7
100
AcDbPolyline
 90
2
 70
1
 10
8661.844102
 20
5082.843318
 30
0.0
 10
8661.844102
 20
5082.843318
 30
0.0
  0
LWPOLYLINE
  5
263
100
AcDbEntity
  8
Epilog_Laser
 62
7
100
AcDbPolyline
 90
2
 70
0
 10
15471.723189
 20
11877.111318
 30
0.0
 10
15468.760703
 20
12864.446571
 30
0.0
  0
LWPOLYLINE
  5
264
100
AcDbEntity
  8
Epilog_Laser
 62
7
100
AcDbPolyline
 90
2
 70
0
 10
15468.764089
 20
12864.446571
 30
0.0
 10
14364.290527
 20
12861.131589
 30
0.0
  0
LWPOLYLINE
  5
265
100
AcDbEntity
  8
Epilog_Laser
 62
7
100
AcDbPolyline
 90
2
 70
0
 10
14364.290527
 20
12861.137233
 30
0.0
 10
14364.070112
 20
12919.428822
 30
0.0
  0
LWPOLYLINE
  5
266
100
AcDbEntity
  8
Epilog_Laser
 62
7
100
AcDbPolyline
 90
2
 70
0
 10
14348.729923
 20
12934.722727
 30
0.0
 10
14348.729923
 20
12934.722727
 30
0.0
  0
LWPOLYLINE
  5
267
100
AcDbEntity
  8
Epilog_Laser
 62
7
100
AcDbPolyline
 90
2
 70
0
 10
14333.436018
 20
12919.336253
 30
0.0
 10
14333.656152
 20
12861.044665
 30
0.0
  0
LWPOLYLINE
  5
268
100
AcDbEntity
  8
Epilog_Laser
 62
7
100
AcDbPolyline
 90
2
 70
0
 10
14333.610996
 20
12861.044665
 30
0.0
 10
14210.891178
 20
12860.714182
 30
0.0
  0
LWPOLYLINE
  5
269
100
AcDbEntity
  8
Epilog_Laser
 62
7
100
AcDbPolyline
 90
2
 70
0
 10
14210.891178
 20
12860.676929
 30
0.0
 10
14210.560696
 20
12983.396465
 30
0.0
  0
LWPOLYLINE
  5
26a
100
AcDbEntity
  8
Epilog_Laser
 62
7
100
AcDbPolyline
 90
2
 70
0
 10
14210.523443
 20
12983.396465
 30
0.0
 10
14216.657825
 20
12983.416220
 30
0.0
  0
SPLINE
  5
26b
100
AcDbEntity
  8
Epilog_Laser
 62
7
100
AcDbSpline
 70
8
 71
3
 72
8
 73
4
 74
0
 40
0
 40
0
 40
0
 40
0
 40
1
 40
1
 40
1
 40
1
 10
14214.613689
 20
12983.408600
 30
0.0
 10
14234.550838
 20
12983.485928
 30
0.0
 10
14250.809823
 20
12999.407903
 30
0.0
 10
14251.304665
 20
13019.339060
 30
0.0
  0
SPLINE
  5
26c
100
AcDbEntity
  8
Epilog_Laser
 62
7
100
AcDbSpline
 70
8
 71
3
 72
8
 73
4
 74
0
 40
0
 40
0
 40
0
 40
0
 40
1
 40
1
 40
1
 40
1
 10
14251.304665
 20
13019.339060
 30
0.0
 10
14251.799506
 20
13039.270217
 30
0.0
 10
14236.350673
 20
13055.979419
 30
0.0
 10
14216.441925
 20
13057.046022
 30
0.0
  0
LWPOLYLINE
  5
26d
100
AcDbEntity
  8
Epilog_Laser
 62
7
100
AcDbPolyline
 90
2
 70
0
 10
14210.303027
 20
13057.028525
 30
0.0
 10
14216.437409
 20
13057.045458
 30
0.0
  0
LWPOLYLINE
  5
26e
100
AcDbEntity
  8
Epilog_Laser
 62
7
100
AcDbPolyline
 90
2
 70
0
 10
14210.303027
 20
13057.028525
 30
0.0
 10
14209.201796
 20
13425.185720
 30
0.0
  0
LWPOLYLINE
  5
26f
100
AcDbEntity
  8
Epilog_Laser
 62
7
100
AcDbPolyline
 90
3
 70
0
 10
14209.199538
 20
13425.185720
 30
0.0
 10
14135.567760
 20
13424.965305
 30
0.0
 10
14136.668992
 20
13056.806980
 30
0.0
  0
LWPOLYLINE
  5
270
100
AcDbEntity
  8
Epilog_Laser
 62
7
100
AcDbPolyline
 90
2
 70
0
 10
14136.671249
 20
13056.806980
 30
0.0
 10
14087.583209
 20
13056.696913
 30
0.0
  0
LWPOLYLINE
  5
271
100
AcDbEntity
  8
Epilog_Laser
 62
7
100
AcDbPolyline
 90
2
 70
0
 10
14087.583209
 20
13056.660507
 30
0.0
 10
14087.693558
 20
13007.572749
 30
0.0
  0
LWPOLYLINE
  5
272
100
AcDbEntity
  8
Epilog_Laser
 62
7
100
AcDbPolyline
 90
2
 70
0
 10
14087.730812
 20
13007.572749
 30
0.0
 10
13719.572769
 20
13006.471518
 30
0.0
  0
LWPOLYLINE
  5
273
100
AcDbEntity
  8
Epilog_Laser
 62
7
100
AcDbPolyline
 90
3
 70
0
 10
13719.572769
 20
13006.469260
 30
0.0
 10
13719.792903
 20
12932.838329
 30
0.0
 10
14087.951227
 20
12933.939842
 30
0.0
  0
SPLINE
  5
274
100
AcDbEntity
  8
Epilog_Laser
 62
7
100
AcDbSpline
 70
8
 71
3
 72
8
 73
4
 74
0
 40
0
 40
0
 40
0
 40
0
 40
1
 40
1
 40
1
 40
1
 10
14135.567760
 20
13424.965305
 30
0.0
 10
13917.791512
 20
13396.453729
 30
0.0
 10
13746.778450
 20
13224.412499
 30
0.0
 10
13719.572769
 20
13006.469260
 30
0.0
  0
LWPOLYLINE
  5
275
100
AcDbEntity
  8
Epilog_Laser
 62
7
100
AcDbPolyline
 90
3
 70
0
 10
14087.951227
 20
12933.940689
 30
0.0
 10
14088.171360
 20
12860.308911
 30
0.0
 10
13842.732854
 20
12859.538162
 30
0.0
  0
LWPOLYLINE
  5
276
100
AcDbEntity
  8
Epilog_Laser
 62
7
100
AcDbPolyline
 90
2
 70
0
 10
13842.732854
 20
12859.574287
 30
0.0
 10
13843.724300
 20
12540.504002
 30
0.0
  0
LWPOLYLINE
  5
277
100
AcDbEntity
  8
Epilog_Laser
 62
7
100
AcDbPolyline
 90
4
 70
0
 10
13843.690152
 20
12540.504002
 30
0.0
 10
13722.372132
 20
12559.002822
 30
0.0
 10
13722.262065
 20
12595.818711
 30
0.0
 10
13489.095709
 20
12595.158029
 30
0.0
  0
LWPOLYLINE
  5
278
100
AcDbEntity
  8
Epilog_Laser
 62
7
100
AcDbPolyline
 90
2
 70
0
 10
13489.095709
 20
12595.120493
 30
0.0
 10
13489.756392
 20
12386.497029
 30
0.0
  0
LWPOLYLINE
  5
279
100
AcDbEntity
  8
Epilog_Laser
 62
7
100
AcDbPolyline
 90
4
 70
0
 10
13843.980840
 20
12443.237807
 30
0.0
 10
13722.776274
 20
12424.012265
 30
0.0
 10
13722.886623
 20
12387.196376
 30
0.0
 10
13489.719985
 20
12386.535411
 30
0.0
  0
LWPOLYLINE
  5
27a
100
AcDbEntity
  8
Epilog_Laser
 62
7
100
AcDbPolyline
 90
2
 70
0
 10
13843.980840
 20
12443.237807
 30
0.0
 10
13845.599667
 20
11903.273036
 30
0.0
  0
LWPOLYLINE
  5
27b
100
AcDbEntity
  8
Epilog_Laser
 62
7
100
AcDbPolyline
 90
3
 70
0
 10
13845.598538
 20
11903.273036
 30
0.0
 10
13882.414427
 20
11903.383102
 30
0.0
 10
13882.524776
 20
11866.568342
 30
0.0
  0
LWPOLYLINE
  5
27c
100
AcDbEntity
  8
Epilog_Laser
 62
7
100
AcDbPolyline
 90
2
 70
0
 10
13882.525905
 20
11866.568342
 30
0.0
 10
13845.709734
 20
11866.458276
 30
0.0
  0
LWPOLYLINE
  5
27d
100
AcDbEntity
  8
Epilog_Laser
 62
7
100
AcDbPolyline
 90
2
 70
0
 10
13845.709734
 20
11866.457147
 30
0.0
 10
13847.174467
 20
11375.580133
 30
0.0
  0
LWPOLYLINE
  5
27e
100
AcDbEntity
  8
Epilog_Laser
 62
7
100
AcDbPolyline
 90
2
 70
0
 10
13847.180112
 20
11375.580133
 30
0.0
 10
13356.303098
 20
11374.104393
 30
0.0
  0
SPLINE
  5
27f
100
AcDbEntity
  8
Epilog_Laser
 62
7
100
AcDbSpline
 70
8
 71
3
 72
8
 73
4
 74
0
 40
0
 40
0
 40
0
 40
0
 40
1
 40
1
 40
1
 40
1
 10
13882.469743
 20
11884.975722
 30
0.0
 10
13610.734353
 20
11887.135372
 30
0.0
 10
13382.341886
 20
11681.407743
 30
0.0
 10
13356.193032
 20
11410.924798
 30
0.0
  0
LWPOLYLINE
  5
280
100
AcDbEntity
  8
Epilog_Laser
 62
7
100
AcDbPolyline
 90
2
 70
0
 10
13356.193032
 20
11410.924798
 30
0.0
 10
13847.070045
 20
11412.400538
 30
0.0
  0
LWPOLYLINE
  5
281
100
AcDbEntity
  8
Epilog_Laser
 62
7
100
AcDbPolyline
 90
2
 70
0
 10
13847.180112
 20
11375.580133
 30
0.0
 10
14141.706376
 20
11376.461231
 30
0.0
  0
LWPOLYLINE
  5
282
100
AcDbEntity
  8
Epilog_Laser
 62
7
100
AcDbPolyline
 90
5
 70
0
 10
14141.706376
 20
11376.463489
 30
0.0
 10
14141.816725
 20
11339.647600
 30
0.0
 10
14178.632614
 20
11339.757667
 30
0.0
 10
14178.522547
 20
11376.573556
 30
0.0
 10
14184.656647
 20
11376.593311
 30
0.0
  0
LWPOLYLINE
  5
283
100
AcDbEntity
  8
Epilog_Laser
 62
7
100
AcDbPolyline
 90
3
 70
0
 10
14184.658905
 20
11376.592182
 30
0.0
 10
14184.585245
 20
11401.135073
 30
0.0
 10
14258.217023
 20
11401.355489
 30
0.0
  0
LWPOLYLINE
  5
284
100
AcDbEntity
  8
Epilog_Laser
 62
7
100
AcDbPolyline
 90
2
 70
0
 10
14258.217023
 20
11401.356618
 30
0.0
 10
14258.657572
 20
11254.092780
 30
0.0
  0
LWPOLYLINE
  5
285
100
AcDbEntity
  8
Epilog_Laser
 62
7
100
AcDbPolyline
 90
2
 70
0
 10
14283.201592
 20
11254.166440
 30
0.0
 10
14285.844603
 20
10370.587365
 30
0.0
  0
LWPOLYLINE
  5
286
100
AcDbEntity
  8
Epilog_Laser
 62
7
100
AcDbPolyline
 90
2
 70
0
 10
14322.665007
 20
10370.697431
 30
0.0
 10
14320.021996
 20
11254.276789
 30
0.0
  0
SPLINE
  5
287
100
AcDbEntity
  8
Epilog_Laser
 62
7
100
AcDbSpline
 70
8
 71
3
 72
8
 73
4
 74
0
 40
0
 40
0
 40
0
 40
0
 40
1
 40
1
 40
1
 40
1
 10
14322.665007
 20
10370.697431
 30
0.0
 10
14798.688646
 20
10399.681732
 30
0.0
 10
15177.466191
 20
10780.736618
 30
0.0
 10
15203.596556
 20
11256.925445
 30
0.0
  0
LWPOLYLINE
  5
288
100
AcDbEntity
  8
Epilog_Laser
 62
7
100
AcDbPolyline
 90
2
 70
0
 10
14258.657572
 20
11254.092780
 30
0.0
 10
15203.596556
 20
11256.923187
 30
0.0
  0
LWPOLYLINE
  5
289
100
AcDbEntity
  8
Epilog_Laser
 62
7
100
AcDbPolyline
 90
4
 70
0
 10
15203.596556
 20
11256.925445
 30
0.0
 10
15203.522896
 20
11281.468336
 30
0.0
 10
15228.066634
 20
11281.541996
 30
0.0
 10
15227.295885
 20
11539.252371
 30
0.0
  0
LWPOLYLINE
  5
28a
100
AcDbEntity
  8
Epilog_Laser
 62
7
100
AcDbPolyline
 90
2
 70
0
 10
15227.294756
 20
11539.252371
 30
0.0
 10
15172.070358
 20
11539.142305
 30
0.0
  0
LWPOLYLINE
  5
28b
100
AcDbEntity
  8
Epilog_Laser
 62
7
100
AcDbPolyline
 90
4
 70
0
 10
15172.070358
 20
11539.087271
 30
0.0
 10
15171.960009
 20
11575.903160
 30
0.0
 10
15117.023196
 20
11581.519947
 30
0.0
 10
15116.142098
 20
11876.046211
 30
0.0
  0
LWPOLYLINE
  5
28c
100
AcDbEntity
  8
Epilog_Laser
 62
7
100
AcDbPolyline
 90
4
 70
0
 10
15116.139840
 20
11876.046211
 30
0.0
 10
15140.683860
 20
11876.119025
 30
0.0
 10
15140.757520
 20
11851.575005
 30
0.0
 10
15232.796960
 20
11851.905487
 30
0.0
  0
SPLINE
  5
28d
100
AcDbEntity
  8
Epilog_Laser
 62
7
100
AcDbSpline
 70
8
 71
3
 72
8
 73
4
 74
0
 40
0
 40
0
 40
0
 40
0
 40
1
 40
1
 40
1
 40
1
 10
14364.115267
 20
12919.428822
 30
0.0
 10
14364.089832
 20
12927.900586
 30
0.0
 10
14357.201687
 20
12934.747792
 30
0.0
 10
14348.729923
 20
12934.722727
 30
0.0
  0
SPLINE
  5
28e
100
AcDbEntity
  8
Epilog_Laser
 62
7
100
AcDbSpline
 70
8
 71
3
 72
8
 73
4
 74
0
 40
0
 40
0
 40
0
 40
0
 40
1
 40
1
 40
1
 40
1
 10
14348.729923
 20
12934.722727
 30
0.0
 10
14344.661433
 20
12934.710512
 30
0.0
 10
14340.764436
 20
12933.082566
 30
0.0
 10
14337.896260
 20
12930.197029
 30
0.0
  0
SPLINE
  5
28f
100
AcDbEntity
  8
Epilog_Laser
 62
7
100
AcDbSpline
 70
8
 71
3
 72
8
 73
4
 74
0
 40
0
 40
0
 40
0
 40
0
 40
1
 40
1
 40
1
 40
1
 10
14337.896260
 20
12930.197029
 30
0.0
 10
14335.028083
 20
12927.311492
 30
0.0
 10
14333.423682
 20
12923.404743
 30
0.0
 10
14333.436018
 20
12919.336253
 30
0.0
  0
SPLINE
  5
290
100
AcDbEntity
  8
Epilog_Laser
 62
7
100
AcDbSpline
 70
8
 71
3
 72
8
 73
4
 74
0
 40
0
 40
0
 40
0
 40
0
 40
1
 40
1
 40
1
 40
1
 10
14889.825840
 20
13216.287653
 30
0.0
 10
14889.872573
 20
13324.554893
 30
0.0
 10
14832.139527
 20
13424.617947
 30
0.0
 10
14738.385129
 20
13478.765061
 30
0.0
  0
SPLINE
  5
291
100
AcDbEntity
  8
Epilog_Laser
 62
7
100
AcDbSpline
 70
8
 71
3
 72
8
 73
4
 74
0
 40
0
 40
0
 40
0
 40
0
 40
1
 40
1
 40
1
 40
1
 10
14738.385129
 20
13478.765061
 30
0.0
 10
14644.630730
 20
13532.912176
 30
0.0
 10
14529.107055
 20
13532.912176
 30
0.0
 10
14435.352657
 20
13478.765061
 30
0.0
  0
SPLINE
  5
292
100
AcDbEntity
  8
Epilog_Laser
 62
7
100
AcDbSpline
 70
8
 71
3
 72
8
 73
4
 74
0
 40
0
 40
0
 40
0
 40
0
 40
1
 40
1
 40
1
 40
1
 10
14435.352657
 20
13478.765061
 30
0.0
 10
14341.598258
 20
13424.617947
 30
0.0
 10
14283.865213
 20
13324.554893
 30
0.0
 10
14283.911945
 20
13216.287653
 30
0.0
  0
SPLINE
  5
293
100
AcDbEntity
  8
Epilog_Laser
 62
7
100
AcDbSpline
 70
8
 71
3
 72
8
 73
4
 74
0
 40
0
 40
0
 40
0
 40
0
 40
1
 40
1
 40
1
 40
1
 10
14283.911945
 20
13216.287653
 30
0.0
 10
14283.984144
 20
13049.020217
 30
0.0
 10
14419.601441
 20
12913.461445
 30
0.0
 10
14586.868893
 20
12913.461445
 30
0.0
  0
SPLINE
  5
294
100
AcDbEntity
  8
Epilog_Laser
 62
7
100
AcDbSpline
 70
8
 71
3
 72
8
 73
4
 74
0
 40
0
 40
0
 40
0
 40
0
 40
1
 40
1
 40
1
 40
1
 10
14586.868893
 20
12913.461445
 30
0.0
 10
14754.136345
 20
12913.461445
 30
0.0
 10
14889.753641
 20
13049.020217
 30
0.0
 10
14889.825840
 20
13216.287653
 30
0.0
  0
LWPOLYLINE
  5
295
100
AcDbEntity
  8
Epilog_Laser
 62
7
100
AcDbPolyline
 90
3
 70
0
 10
15232.796960
 20
11851.851582
 30
0.0
 10
15232.723018
 20
11876.395320
 30
0.0
 10
15471.723189
 20
11877.056285
 30
0.0
  0
SPLINE
  5
296
100
AcDbEntity
  8
Epilog_Laser
 62
7
100
AcDbSpline
 70
8
 71
3
 72
8
 73
4
 74
0
 40
0
 40
0
 40
0
 40
0
 40
1
 40
1
 40
1
 40
1
 10
15574.614920
 20
13218.340538
 30
0.0
 10
15574.796063
 20
13326.697065
 30
0.0
 10
15517.092551
 20
13426.900217
 30
0.0
 10
15423.283120
 20
13481.130839
 30
0.0
  0
SPLINE
  5
297
100
AcDbEntity
  8
Epilog_Laser
 62
7
100
AcDbSpline
 70
8
 71
3
 72
8
 73
4
 74
0
 40
0
 40
0
 40
0
 40
0
 40
1
 40
1
 40
1
 40
1
 10
15423.283120
 20
13481.130839
 30
0.0
 10
15329.473688
 20
13535.361462
 30
0.0
 10
15213.843386
 20
13535.361462
 30
0.0
 10
15120.033954
 20
13481.130839
 30
0.0
  0
SPLINE
  5
298
100
AcDbEntity
  8
Epilog_Laser
 62
7
100
AcDbSpline
 70
8
 71
3
 72
8
 73
4
 74
0
 40
0
 40
0
 40
0
 40
0
 40
1
 40
1
 40
1
 40
1
 10
15120.033954
 20
13481.130839
 30
0.0
 10
15026.224523
 20
13426.900217
 30
0.0
 10
14968.521011
 20
13326.697065
 30
0.0
 10
14968.702154
 20
13218.340538
 30
0.0
  0
SPLINE
  5
299
100
AcDbEntity
  8
Epilog_Laser
 62
7
100
AcDbSpline
 70
8
 71
3
 72
8
 73
4
 74
0
 40
0
 40
0
 40
0
 40
0
 40
1
 40
1
 40
1
 40
1
 10
14968.702154
 20
13218.340538
 30
0.0
 10
14968.521011
 20
13109.984010
 30
0.0
 10
15026.224523
 20
13009.780859
 30
0.0
 10
15120.033954
 20
12955.550237
 30
0.0
  0
SPLINE
  5
29a
100
AcDbEntity
  8
Epilog_Laser
 62
7
100
AcDbSpline
 70
8
 71
3
 72
8
 73
4
 74
0
 40
0
 40
0
 40
0
 40
0
 40
1
 40
1
 40
1
 40
1
 10
15120.033954
 20
12955.550237
 30
0.0
 10
15213.843386
 20
12901.319614
 30
0.0
 10
15329.473688
 20
12901.319614
 30
0.0
 10
15423.283120
 20
12955.550237
 30
0.0
  0
SPLINE
  5
29b
100
AcDbEntity
  8
Epilog_Laser
 62
7
100
AcDbSpline
 70
8
 71
3
 72
8
 73
4
 74
0
 40
0
 40
0
 40
0
 40
0
 40
1
 40
1
 40
1
 40
1
 10
15423.283120
 20
12955.550237
 30
0.0
 10
15517.092551
 20
13009.780859
 30
0.0
 10
15574.796063
 20
13109.984010
 30
0.0
 10
15574.614920
 20
13218.340538
 30
0.0
  0
LWPOLYLINE
  5
29c
100
AcDbEntity
  8
Epilog_Laser
 62
7
100
AcDbPolyline
 90
2
 70
1
 10
14889.825840
 20
13216.287653
 30
0.0
 10
14889.825840
 20
13216.287653
 30
0.0
  0
LWPOLYLINE
  5
29d
100
AcDbEntity
  8
Epilog_Laser
 62
7
100
AcDbPolyline
 90
2
 70
1
 10
15574.614920
 20
13218.340538
 30
0.0
 10
15574.614920
 20
13218.340538
 30
0.0
  0
LWPOLYLINE
  5
29e
100
AcDbEntity
  8
Epilog_Laser
 62
7
100
AcDbPolyline
 90
2
 70
0
 10
11255.639560
 20
9193.224269
 30
0.0
 10
10628.446109
 20
8430.684096
 30
0.0
  0
LWPOLYLINE
  5
29f
100
AcDbEntity
  8
Epilog_Laser
 62
7
100
AcDbPolyline
 90
4
 70
0
 10
10663.526332
 20
8473.333800
 30
0.0
 10
10483.446540
 20
8621.451078
 30
0.0
 10
10463.957685
 20
8597.756265
 30
0.0
 10
10644.037476
 20
8449.640116
 30
0.0
  0
LWPOLYLINE
  5
2a0
100
AcDbEntity
  8
Epilog_Laser
 62
7
100
AcDbPolyline
 90
3
 70
0
 10
10628.446109
 20
8430.684096
 30
0.0
 10
11481.454874
 20
7729.080216
 30
0.0
 10
11444.425060
 20
7684.059280
 30
0.0
  0
LWPOLYLINE
  5
2a1
100
AcDbEntity
  8
Epilog_Laser
 62
7
100
AcDbPolyline
 90
2
 70
0
 10
11446.528745
 20
7662.468151
 30
0.0
 10
11446.528745
 20
7662.468151
 30
0.0
  0
LWPOLYLINE
  5
2a2
100
AcDbEntity
  8
Epilog_Laser
 62
7
100
AcDbPolyline
 90
5
 70
0
 10
11468.120156
 20
7664.570425
 30
0.0
 10
11505.149687
 20
7709.591360
 30
0.0
 10
11599.927812
 20
7631.634527
 30
0.0
 10
11521.972107
 20
7536.856120
 30
0.0
 10
11517.236700
 20
7540.755020
 30
0.0
  0
SPLINE
  5
2a3
100
AcDbEntity
  8
Epilog_Laser
 62
7
100
AcDbSpline
 70
8
 71
3
 72
8
 73
4
 74
0
 40
0
 40
0
 40
0
 40
0
 40
1
 40
1
 40
1
 40
1
 10
11518.812629
 20
7539.454258
 30
0.0
 10
11503.403220
 20
7552.109475
 30
0.0
 10
11480.722260
 20
7550.209627
 30
0.0
 10
11467.632912
 20
7535.167241
 30
0.0
  0
SPLINE
  5
2a4
100
AcDbEntity
  8
Epilog_Laser
 62
7
100
AcDbSpline
 70
8
 71
3
 72
8
 73
4
 74
0
 40
0
 40
0
 40
0
 40
0
 40
1
 40
1
 40
1
 40
1
 10
11467.632912
 20
7535.167241
 30
0.0
 10
11454.543564
 20
7520.124854
 30
0.0
 10
11455.796077
 20
7497.398953
 30
0.0
 10
11470.459214
 20
7483.886113
 30
0.0
  0
LWPOLYLINE
  5
2a5
100
AcDbEntity
  8
Epilog_Laser
 62
7
100
AcDbPolyline
 90
2
 70
0
 10
11475.198289
 20
7479.988625
 30
0.0
 10
11470.462600
 20
7483.887242
 30
0.0
  0
SPLINE
  5
2a6
100
AcDbEntity
  8
Epilog_Laser
 62
7
100
AcDbSpline
 70
8
 71
3
 72
8
 73
4
 74
0
 40
0
 40
0
 40
0
 40
0
 40
1
 40
1
 40
1
 40
1
 10
11298.197825
 20
7148.878740
 30
0.0
 10
11484.152411
 20
7032.001526
 30
0.0
 10
11725.587204
 20
7055.514808
 30
0.0
 10
11885.496060
 20
7206.075589
 30
0.0
  0
LWPOLYLINE
  5
2a7
100
AcDbEntity
  8
Epilog_Laser
 62
7
100
AcDbPolyline
 90
16
 70
0
 10
11475.198289
 20
7479.988625
 30
0.0
 10
11241.330047
 20
7195.652840
 30
0.0
 10
11298.197825
 20
7148.878740
 30
0.0
 10
11532.065785
 20
7433.214525
 30
0.0
 10
11569.977543
 20
7402.032920
 30
0.0
 10
11601.160276
 20
7439.943549
 30
0.0
 10
11885.496060
 20
7206.075589
 30
0.0
 10
11932.270160
 20
7262.943085
 30
0.0
 10
11647.933247
 20
7496.811327
 30
0.0
 10
11694.707347
 20
7553.678822
 30
0.0
 10
11884.265007
 20
7397.766567
 30
0.0
 10
12086.950234
 20
7644.191722
 30
0.0
 10
12168.620547
 20
7552.593960
 30
0.0
 10
12145.233074
 20
7524.160353
 30
0.0
 10
12325.312583
 20
7376.043076
 30
0.0
 10
12457.838494
 20
7537.167976
 30
0.0
  0
LWPOLYLINE
  5
2a8
100
AcDbEntity
  8
Epilog_Laser
 62
7
100
AcDbPolyline
 90
4
 70
0
 10
12148.737427
 20
7719.311376
 30
0.0
 10
12254.372358
 20
7656.850236
 30
0.0
 10
12277.758985
 20
7685.284125
 30
0.0
 10
12457.838494
 20
7537.167976
 30
0.0
  0
SPLINE
  5
2a9
100
AcDbEntity
  8
Epilog_Laser
 62
7
100
AcDbSpline
 70
8
 71
3
 72
8
 73
4
 74
0
 40
0
 40
0
 40
0
 40
0
 40
1
 40
1
 40
1
 40
1
 10
12475.003814
 20
8173.941742
 30
0.0
 10
12682.974711
 20
7999.033824
 30
0.0
 10
12990.091653
 20
8011.917425
 30
0.0
 10
13182.682809
 20
8203.628980
 30
0.0
  0
LWPOLYLINE
  5
2aa
100
AcDbEntity
  8
Epilog_Laser
 62
7
100
AcDbPolyline
 90
9
 70
0
 10
12148.737427
 20
7719.311376
 30
0.0
 10
12491.743825
 20
8136.338453
 30
0.0
 10
12463.309936
 20
8159.724798
 30
0.0
 10
12486.696563
 20
8188.158687
 30
0.0
 10
12515.130169
 20
8164.772342
 30
0.0
 10
12826.954963
 20
8543.887662
 30
0.0
 10
13206.069154
 20
8232.062869
 30
0.0
 10
13182.682809
 20
8203.628980
 30
0.0
 10
12803.567489
 20
8515.453773
 30
0.0
  0
LWPOLYLINE
  5
2ab
100
AcDbEntity
  8
Epilog_Laser
 62
7
100
AcDbPolyline
 90
6
 70
0
 10
12826.954963
 20
8543.887662
 30
0.0
 10
12599.485545
 20
8730.981522
 30
0.0
 10
12622.872172
 20
8759.415411
 30
0.0
 10
12594.438283
 20
8782.801756
 30
0.0
 10
12571.051938
 20
8754.368996
 30
0.0
 10
12566.316249
 20
8758.267613
 30
0.0
  0
LWPOLYLINE
  5
2ac
100
AcDbEntity
  8
Epilog_Laser
 62
7
100
AcDbPolyline
 90
4
 70
0
 10
12566.312863
 20
8758.266767
 30
0.0
 10
12550.721496
 20
8739.310747
 30
0.0
 10
12493.854000
 20
8786.083718
 30
0.0
 10
12587.401918
 20
8899.818991
 30
0.0
  0
LWPOLYLINE
  5
2ad
100
AcDbEntity
  8
Epilog_Laser
 62
7
100
AcDbPolyline
 90
4
 70
0
 10
12568.446180
 20
8915.410358
 30
0.0
 10
13129.729172
 20
9597.817200
 30
0.0
 10
13101.295283
 20
9621.203827
 30
0.0
 10
12540.012292
 20
8938.796702
 30
0.0
  0
SPLINE
  5
2ae
100
AcDbEntity
  8
Epilog_Laser
 62
7
100
AcDbSpline
 70
8
 71
3
 72
8
 73
4
 74
0
 40
0
 40
0
 40
0
 40
0
 40
1
 40
1
 40
1
 40
1
 10
13101.295283
 20
9621.203827
 30
0.0
 10
12716.082876
 20
9902.360638
 30
0.0
 10
12181.329073
 20
9850.280469
 30
0.0
 10
11857.605167
 20
9500.079693
 30
0.0
  0
SPLINE
  5
2af
100
AcDbEntity
  8
Epilog_Laser
 62
7
100
AcDbSpline
 70
8
 71
3
 72
8
 73
4
 74
0
 40
0
 40
0
 40
0
 40
0
 40
1
 40
1
 40
1
 40
1
 10
11444.425060
 20
7684.059280
 30
0.0
 10
11439.044036
 20
7677.516051
 30
0.0
 10
11439.985866
 20
7667.849601
 30
0.0
 10
11446.528745
 20
7662.468151
 30
0.0
  0
SPLINE
  5
2b0
100
AcDbEntity
  8
Epilog_Laser
 62
7
100
AcDbSpline
 70
8
 71
3
 72
8
 73
4
 74
0
 40
0
 40
0
 40
0
 40
0
 40
1
 40
1
 40
1
 40
1
 10
11446.528745
 20
7662.468151
 30
0.0
 10
11453.071943
 20
7657.086869
 30
0.0
 10
11462.738601
 20
7658.028580
 30
0.0
 10
11468.120156
 20
7664.571553
 30
0.0
  0
SPLINE
  5
2b1
100
AcDbEntity
  8
Epilog_Laser
 62
7
100
AcDbSpline
 70
8
 71
3
 72
8
 73
4
 74
0
 40
0
 40
0
 40
0
 40
0
 40
1
 40
1
 40
1
 40
1
 10
11386.509109
 20
7597.371338
 30
0.0
 10
11386.555842
 20
7705.638577
 30
0.0
 10
11328.822796
 20
7805.701631
 30
0.0
 10
11235.068397
 20
7859.848746
 30
0.0
  0
SPLINE
  5
2b2
100
AcDbEntity
  8
Epilog_Laser
 62
7
100
AcDbSpline
 70
8
 71
3
 72
8
 73
4
 74
0
 40
0
 40
0
 40
0
 40
0
 40
1
 40
1
 40
1
 40
1
 10
11235.068397
 20
7859.848746
 30
0.0
 10
11141.313999
 20
7913.995860
 30
0.0
 10
11025.790324
 20
7913.995860
 30
0.0
 10
10932.035926
 20
7859.848746
 30
0.0
  0
SPLINE
  5
2b3
100
AcDbEntity
  8
Epilog_Laser
 62
7
100
AcDbSpline
 70
8
 71
3
 72
8
 73
4
 74
0
 40
0
 40
0
 40
0
 40
0
 40
1
 40
1
 40
1
 40
1
 10
10932.035926
 20
7859.848746
 30
0.0
 10
10838.281527
 20
7805.701631
 30
0.0
 10
10780.548482
 20
7705.638577
 30
0.0
 10
10780.595214
 20
7597.371338
 30
0.0
  0
SPLINE
  5
2b4
100
AcDbEntity
  8
Epilog_Laser
 62
7
100
AcDbSpline
 70
8
 71
3
 72
8
 73
4
 74
0
 40
0
 40
0
 40
0
 40
0
 40
1
 40
1
 40
1
 40
1
 10
10780.595214
 20
7597.371338
 30
0.0
 10
10780.667413
 20
7430.103901
 30
0.0
 10
10916.284710
 20
7294.545130
 30
0.0
 10
11083.552162
 20
7294.545130
 30
0.0
  0
SPLINE
  5
2b5
100
AcDbEntity
  8
Epilog_Laser
 62
7
100
AcDbSpline
 70
8
 71
3
 72
8
 73
4
 74
0
 40
0
 40
0
 40
0
 40
0
 40
1
 40
1
 40
1
 40
1
 10
11083.552162
 20
7294.545130
 30
0.0
 10
11250.819614
 20
7294.545130
 30
0.0
 10
11386.436910
 20
7430.103901
 30
0.0
 10
11386.509109
 20
7597.371338
 30
0.0
  0
LWPOLYLINE
  5
2b6
100
AcDbEntity
  8
Epilog_Laser
 62
7
100
AcDbPolyline
 90
14
 70
0
 10
12587.401918
 20
8899.818991
 30
0.0
 10
11857.605167
 20
9500.079693
 30
0.0
 10
11842.013800
 20
9481.123956
 30
0.0
 10
11823.058063
 20
9496.715322
 30
0.0
 10
11659.350547
 20
9297.679793
 30
0.0
 10
11702.001380
 20
9262.599571
 30
0.0
 10
11678.613625
 20
9234.166811
 30
0.0
 10
11717.357938
 20
9194.813462
 30
0.0
 10
11530.262949
 20
8967.345173
 30
0.0
 10
11511.307212
 20
8982.936540
 30
0.0
 10
11526.898296
 20
9001.892278
 30
0.0
 10
11455.814985
 20
9060.359127
 30
0.0
 10
11440.223618
 20
9041.403107
 30
0.0
 10
11255.639560
 20
9193.224269
 30
0.0
  0
SPLINE
  5
2b7
100
AcDbEntity
  8
Epilog_Laser
 62
7
100
AcDbSpline
 70
8
 71
3
 72
8
 73
4
 74
0
 40
0
 40
0
 40
0
 40
0
 40
1
 40
1
 40
1
 40
1
 10
10857.631156
 20
8032.376253
 30
0.0
 10
10857.677888
 20
8140.643493
 30
0.0
 10
10799.944843
 20
8240.706547
 30
0.0
 10
10706.190444
 20
8294.853661
 30
0.0
  0
SPLINE
  5
2b8
100
AcDbEntity
  8
Epilog_Laser
 62
7
100
AcDbSpline
 70
8
 71
3
 72
8
 73
4
 74
0
 40
0
 40
0
 40
0
 40
0
 40
1
 40
1
 40
1
 40
1
 10
10706.190444
 20
8294.853661
 30
0.0
 10
10612.436046
 20
8349.000776
 30
0.0
 10
10496.912371
 20
8349.000776
 30
0.0
 10
10403.157972
 20
8294.853661
 30
0.0
  0
SPLINE
  5
2b9
100
AcDbEntity
  8
Epilog_Laser
 62
7
100
AcDbSpline
 70
8
 71
3
 72
8
 73
4
 74
0
 40
0
 40
0
 40
0
 40
0
 40
1
 40
1
 40
1
 40
1
 10
10403.157972
 20
8294.853661
 30
0.0
 10
10309.403574
 20
8240.706547
 30
0.0
 10
10251.670528
 20
8140.643493
 30
0.0
 10
10251.717260
 20
8032.376253
 30
0.0
  0
SPLINE
  5
2ba
100
AcDbEntity
  8
Epilog_Laser
 62
7
100
AcDbSpline
 70
8
 71
3
 72
8
 73
4
 74
0
 40
0
 40
0
 40
0
 40
0
 40
1
 40
1
 40
1
 40
1
 10
10251.717260
 20
8032.376253
 30
0.0
 10
10251.789460
 20
7865.108817
 30
0.0
 10
10387.406756
 20
7729.550045
 30
0.0
 10
10554.674208
 20
7729.550045
 30
0.0
  0
SPLINE
  5
2bb
100
AcDbEntity
  8
Epilog_Laser
 62
7
100
AcDbSpline
 70
8
 71
3
 72
8
 73
4
 74
0
 40
0
 40
0
 40
0
 40
0
 40
1
 40
1
 40
1
 40
1
 10
10554.674208
 20
7729.550045
 30
0.0
 10
10721.941660
 20
7729.550045
 30
0.0
 10
10857.558957
 20
7865.108817
 30
0.0
 10
10857.631156
 20
8032.376253
 30
0.0
  0
LWPOLYLINE
  5
2bc
100
AcDbEntity
  8
Epilog_Laser
 62
7
100
AcDbPolyline
 90
2
 70
1
 10
11386.509109
 20
7597.371338
 30
0.0
 10
11386.509109
 20
7597.371338
 30
0.0
  0
LWPOLYLINE
  5
2bd
100
AcDbEntity
  8
Epilog_Laser
 62
7
100
AcDbPolyline
 90
2
 70
1
 10
10857.631156
 20
8032.376253
 30
0.0
 10
10857.631156
 20
8032.376253
 30
0.0
  0
LWPOLYLINE
  5
2be
100
AcDbEntity
  8
Epilog_Laser
 62
7
100
AcDbPolyline
 90
2
 70
0
 10
12515.168834
 20
5103.126898
 30
0.0
 10
11752.627814
 20
5730.319220
 30
0.0
  0
LWPOLYLINE
  5
2bf
100
AcDbEntity
  8
Epilog_Laser
 62
7
100
AcDbPolyline
 90
4
 70
0
 10
11795.278365
 20
5695.240127
 30
0.0
 10
11943.394514
 20
5875.319918
 30
0.0
 10
11919.699700
 20
5894.808773
 30
0.0
 10
11771.583552
 20
5714.728982
 30
0.0
  0
LWPOLYLINE
  5
2c0
100
AcDbEntity
  8
Epilog_Laser
 62
7
100
AcDbPolyline
 90
3
 70
0
 10
11752.627814
 20
5730.319220
 30
0.0
 10
11051.023652
 20
4877.310456
 30
0.0
 10
11006.004127
 20
4914.339987
 30
0.0
  0
LWPOLYLINE
  5
2c1
100
AcDbEntity
  8
Epilog_Laser
 62
7
100
AcDbPolyline
 90
2
 70
0
 10
10984.411587
 20
4912.236585
 30
0.0
 10
10984.411587
 20
4912.236585
 30
0.0
  0
LWPOLYLINE
  5
2c2
100
AcDbEntity
  8
Epilog_Laser
 62
7
100
AcDbPolyline
 90
5
 70
0
 10
10986.514989
 20
4890.645173
 30
0.0
 10
11031.534796
 20
4853.615642
 30
0.0
 10
10953.579092
 20
4758.837236
 30
0.0
 10
10858.799838
 20
4836.792940
 30
0.0
 10
10862.698456
 20
4841.528629
 30
0.0
  0
SPLINE
  5
2c3
100
AcDbEntity
  8
Epilog_Laser
 62
7
100
AcDbSpline
 70
8
 71
3
 72
8
 73
4
 74
0
 40
0
 40
0
 40
0
 40
0
 40
1
 40
1
 40
1
 40
1
 10
10861.398823
 20
4839.952700
 30
0.0
 10
10874.054040
 20
4855.362110
 30
0.0
 10
10872.154192
 20
4878.043070
 30
0.0
 10
10857.111805
 20
4891.132417
 30
0.0
  0
SPLINE
  5
2c4
100
AcDbEntity
  8
Epilog_Laser
 62
7
100
AcDbSpline
 70
8
 71
3
 72
8
 73
4
 74
0
 40
0
 40
0
 40
0
 40
0
 40
1
 40
1
 40
1
 40
1
 10
10857.111805
 20
4891.132417
 30
0.0
 10
10842.069419
 20
4904.221765
 30
0.0
 10
10819.343518
 20
4902.969253
 30
0.0
 10
10805.830678
 20
4888.306116
 30
0.0
  0
LWPOLYLINE
  5
2c5
100
AcDbEntity
  8
Epilog_Laser
 62
7
100
AcDbPolyline
 90
2
 70
0
 10
10801.932060
 20
4883.567040
 30
0.0
 10
10805.830678
 20
4888.302729
 30
0.0
  0
SPLINE
  5
2c6
100
AcDbEntity
  8
Epilog_Laser
 62
7
100
AcDbSpline
 70
8
 71
3
 72
8
 73
4
 74
0
 40
0
 40
0
 40
0
 40
0
 40
1
 40
1
 40
1
 40
1
 10
10470.822176
 20
5060.567505
 30
0.0
 10
10353.945114
 20
4874.612606
 30
0.0
 10
10377.458868
 20
4633.177621
 30
0.0
 10
10528.020154
 20
4473.268987
 30
0.0
  0
LWPOLYLINE
  5
2c7
100
AcDbEntity
  8
Epilog_Laser
 62
7
100
AcDbPolyline
 90
16
 70
0
 10
10801.932060
 20
4883.567040
 30
0.0
 10
10517.596276
 20
5117.435000
 30
0.0
 10
10470.822176
 20
5060.567505
 30
0.0
 10
10755.159089
 20
4826.699545
 30
0.0
 10
10723.976356
 20
4788.787787
 30
0.0
 10
10761.888114
 20
4757.606182
 30
0.0
 10
10528.020154
 20
4473.268987
 30
0.0
 10
10584.886803
 20
4426.496298
 30
0.0
 10
10818.754763
 20
4710.832082
 30
0.0
 10
10875.622258
 20
4664.057982
 30
0.0
 10
10719.710003
 20
4474.500322
 30
0.0
 10
10966.135158
 20
4271.815096
 30
0.0
 10
10874.537678
 20
4190.144782
 30
0.0
 10
10846.103789
 20
4213.532256
 30
0.0
 10
10697.987640
 20
4033.452465
 30
0.0
 10
10859.111412
 20
3900.926553
 30
0.0
  0
LWPOLYLINE
  5
2c8
100
AcDbEntity
  8
Epilog_Laser
 62
7
100
AcDbPolyline
 90
4
 70
0
 10
11041.255940
 20
4210.027902
 30
0.0
 10
10978.793672
 20
4104.393818
 30
0.0
 10
11007.227560
 20
4081.006345
 30
0.0
 10
10859.111412
 20
3900.926553
 30
0.0
  0
SPLINE
  5
2c9
100
AcDbEntity
  8
Epilog_Laser
 62
7
100
AcDbSpline
 70
8
 71
3
 72
8
 73
4
 74
0
 40
0
 40
0
 40
0
 40
0
 40
1
 40
1
 40
1
 40
1
 10
11495.886307
 20
3883.762645
 30
0.0
 10
11320.977694
 20
3675.791565
 30
0.0
 10
11333.861308
 20
3368.673825
 30
0.0
 10
11525.573545
 20
3176.082520
 30
0.0
  0
LWPOLYLINE
  5
2ca
100
AcDbEntity
  8
Epilog_Laser
 62
7
100
AcDbPolyline
 90
9
 70
0
 10
11041.255940
 20
4210.027902
 30
0.0
 10
11458.281889
 20
3867.021505
 30
0.0
 10
11481.669645
 20
3895.455393
 30
0.0
 10
11510.102123
 20
3872.068767
 30
0.0
 10
11486.715778
 20
3843.634878
 30
0.0
 10
11865.831098
 20
3531.811213
 30
0.0
 10
11554.007434
 20
3152.696176
 30
0.0
 10
11525.573545
 20
3176.082520
 30
0.0
 10
11837.397209
 20
3555.197840
 30
0.0
  0
LWPOLYLINE
  5
2cb
100
AcDbEntity
  8
Epilog_Laser
 62
7
100
AcDbPolyline
 90
6
 70
0
 10
11865.831098
 20
3531.811213
 30
0.0
 10
12052.926087
 20
3759.279502
 30
0.0
 10
12081.358847
 20
3735.893158
 30
0.0
 10
12104.746320
 20
3764.327047
 30
0.0
 10
12076.312714
 20
3787.713391
 30
0.0
 10
12080.211332
 20
3792.449080
 30
0.0
  0
LWPOLYLINE
  5
2cc
100
AcDbEntity
  8
Epilog_Laser
 62
7
100
AcDbPolyline
 90
4
 70
0
 10
12080.210203
 20
3792.452467
 30
0.0
 10
12061.254183
 20
3808.043833
 30
0.0
 10
12108.028283
 20
3864.911329
 30
0.0
 10
12221.762427
 20
3771.364258
 30
0.0
  0
LWPOLYLINE
  5
2cd
100
AcDbEntity
  8
Epilog_Laser
 62
7
100
AcDbPolyline
 90
4
 70
0
 10
12237.353794
 20
3790.319149
 30
0.0
 10
12919.760918
 20
3229.036158
 30
0.0
 10
12943.148392
 20
3257.469765
 30
0.0
 10
12260.740138
 20
3818.753038
 30
0.0
  0
SPLINE
  5
2ce
100
AcDbEntity
  8
Epilog_Laser
 62
7
100
AcDbSpline
 70
8
 71
3
 72
8
 73
4
 74
0
 40
0
 40
0
 40
0
 40
0
 40
1
 40
1
 40
1
 40
1
 10
12943.148392
 20
3257.469765
 30
0.0
 10
13224.305273
 20
3642.682102
 30
0.0
 10
13172.225227
 20
4177.435898
 30
0.0
 10
12822.024540
 20
4501.159880
 30
0.0
  0
SPLINE
  5
2cf
100
AcDbEntity
  8
Epilog_Laser
 62
7
100
AcDbSpline
 70
8
 71
3
 72
8
 73
4
 74
0
 40
0
 40
0
 40
0
 40
0
 40
1
 40
1
 40
1
 40
1
 10
11006.004127
 20
4914.339987
 30
0.0
 10
11002.861900
 20
4916.924529
 30
0.0
 10
10998.821634
 20
4918.154911
 30
0.0
 10
10994.772209
 20
4917.760443
 30
0.0
  0
SPLINE
  5
2d0
100
AcDbEntity
  8
Epilog_Laser
 62
7
100
AcDbSpline
 70
8
 71
3
 72
8
 73
4
 74
0
 40
0
 40
0
 40
0
 40
0
 40
1
 40
1
 40
1
 40
1
 10
10994.772209
 20
4917.760443
 30
0.0
 10
10990.722784
 20
4917.365975
 30
0.0
 10
10986.995935
 20
4915.378972
 30
0.0
 10
10984.411587
 20
4912.236585
 30
0.0
  0
SPLINE
  5
2d1
100
AcDbEntity
  8
Epilog_Laser
 62
7
100
AcDbSpline
 70
8
 71
3
 72
8
 73
4
 74
0
 40
0
 40
0
 40
0
 40
0
 40
1
 40
1
 40
1
 40
1
 10
10984.411587
 20
4912.236585
 30
0.0
 10
10979.030305
 20
4905.693387
 30
0.0
 10
10979.972016
 20
4896.026728
 30
0.0
 10
10986.514989
 20
4890.645173
 30
0.0
  0
SPLINE
  5
2d2
100
AcDbEntity
  8
Epilog_Laser
 62
7
100
AcDbSpline
 70
8
 71
3
 72
8
 73
4
 74
0
 40
0
 40
0
 40
0
 40
0
 40
1
 40
1
 40
1
 40
1
 10
11222.271863
 20
5275.213027
 30
0.0
 10
11222.453006
 20
5383.569554
 30
0.0
 10
11164.749494
 20
5483.772706
 30
0.0
 10
11070.940062
 20
5538.003328
 30
0.0
  0
SPLINE
  5
2d3
100
AcDbEntity
  8
Epilog_Laser
 62
7
100
AcDbSpline
 70
8
 71
3
 72
8
 73
4
 74
0
 40
0
 40
0
 40
0
 40
0
 40
1
 40
1
 40
1
 40
1
 10
11070.940062
 20
5538.003328
 30
0.0
 10
10977.130631
 20
5592.233951
 30
0.0
 10
10861.500328
 20
5592.233951
 30
0.0
 10
10767.690897
 20
5538.003328
 30
0.0
  0
SPLINE
  5
2d4
100
AcDbEntity
  8
Epilog_Laser
 62
7
100
AcDbSpline
 70
8
 71
3
 72
8
 73
4
 74
0
 40
0
 40
0
 40
0
 40
0
 40
1
 40
1
 40
1
 40
1
 10
10767.690897
 20
5538.003328
 30
0.0
 10
10673.881465
 20
5483.772706
 30
0.0
 10
10616.177953
 20
5383.569554
 30
0.0
 10
10616.359096
 20
5275.213027
 30
0.0
  0
SPLINE
  5
2d5
100
AcDbEntity
  8
Epilog_Laser
 62
7
100
AcDbSpline
 70
8
 71
3
 72
8
 73
4
 74
0
 40
0
 40
0
 40
0
 40
0
 40
1
 40
1
 40
1
 40
1
 10
10616.359096
 20
5275.213027
 30
0.0
 10
10616.177953
 20
5166.856499
 30
0.0
 10
10673.881465
 20
5066.653348
 30
0.0
 10
10767.690897
 20
5012.422725
 30
0.0
  0
SPLINE
  5
2d6
100
AcDbEntity
  8
Epilog_Laser
 62
7
100
AcDbSpline
 70
8
 71
3
 72
8
 73
4
 74
0
 40
0
 40
0
 40
0
 40
0
 40
1
 40
1
 40
1
 40
1
 10
10767.690897
 20
5012.422725
 30
0.0
 10
10861.500328
 20
4958.192103
 30
0.0
 10
10977.130631
 20
4958.192103
 30
0.0
 10
11070.940062
 20
5012.422725
 30
0.0
  0
SPLINE
  5
2d7
100
AcDbEntity
  8
Epilog_Laser
 62
7
100
AcDbSpline
 70
8
 71
3
 72
8
 73
4
 74
0
 40
0
 40
0
 40
0
 40
0
 40
1
 40
1
 40
1
 40
1
 10
11070.940062
 20
5012.422725
 30
0.0
 10
11164.749494
 20
5066.653348
 30
0.0
 10
11222.453006
 20
5166.856499
 30
0.0
 10
11222.271863
 20
5275.213027
 30
0.0
  0
LWPOLYLINE
  5
2d8
100
AcDbEntity
  8
Epilog_Laser
 62
7
100
AcDbPolyline
 90
14
 70
0
 10
12221.762427
 20
3771.364258
 30
0.0
 10
12822.024540
 20
4501.159880
 30
0.0
 10
12803.068520
 20
4516.751247
 30
0.0
 10
12818.659887
 20
4535.707267
 30
0.0
 10
12619.624358
 20
4699.414782
 30
0.0
 10
12584.544136
 20
4656.763949
 30
0.0
 10
12556.110247
 20
4680.151422
 30
0.0
 10
12516.758027
 20
4641.407109
 30
0.0
 10
12289.288609
 20
4828.502380
 30
0.0
 10
12304.879976
 20
4847.458118
 30
0.0
 10
12323.835714
 20
4831.866751
 30
0.0
 10
12382.302563
 20
4902.951473
 30
0.0
 10
12363.346825
 20
4918.541711
 30
0.0
 10
12515.168834
 20
5103.126898
 30
0.0
  0
SPLINE
  5
2d9
100
AcDbEntity
  8
Epilog_Laser
 62
7
100
AcDbSpline
 70
8
 71
3
 72
8
 73
4
 74
0
 40
0
 40
0
 40
0
 40
0
 40
1
 40
1
 40
1
 40
1
 10
11657.276778
 20
5804.090980
 30
0.0
 10
11657.457921
 20
5912.447508
 30
0.0
 10
11599.754409
 20
6012.650659
 30
0.0
 10
11505.944978
 20
6066.881281
 30
0.0
  0
SPLINE
  5
2da
100
AcDbEntity
  8
Epilog_Laser
 62
7
100
AcDbSpline
 70
8
 71
3
 72
8
 73
4
 74
0
 40
0
 40
0
 40
0
 40
0
 40
1
 40
1
 40
1
 40
1
 10
11505.944978
 20
6066.881281
 30
0.0
 10
11412.135546
 20
6121.111904
 30
0.0
 10
11296.505244
 20
6121.111904
 30
0.0
 10
11202.695812
 20
6066.881281
 30
0.0
  0
SPLINE
  5
2db
100
AcDbEntity
  8
Epilog_Laser
 62
7
100
AcDbSpline
 70
8
 71
3
 72
8
 73
4
 74
0
 40
0
 40
0
 40
0
 40
0
 40
1
 40
1
 40
1
 40
1
 10
11202.695812
 20
6066.881281
 30
0.0
 10
11108.886381
 20
6012.650659
 30
0.0
 10
11051.182869
 20
5912.447508
 30
0.0
 10
11051.364012
 20
5804.090980
 30
0.0
  0
SPLINE
  5
2dc
100
AcDbEntity
  8
Epilog_Laser
 62
7
100
AcDbSpline
 70
8
 71
3
 72
8
 73
4
 74
0
 40
0
 40
0
 40
0
 40
0
 40
1
 40
1
 40
1
 40
1
 10
11051.364012
 20
5804.090980
 30
0.0
 10
11051.182869
 20
5695.734453
 30
0.0
 10
11108.886381
 20
5595.531301
 30
0.0
 10
11202.695812
 20
5541.300679
 30
0.0
  0
SPLINE
  5
2dd
100
AcDbEntity
  8
Epilog_Laser
 62
7
100
AcDbSpline
 70
8
 71
3
 72
8
 73
4
 74
0
 40
0
 40
0
 40
0
 40
0
 40
1
 40
1
 40
1
 40
1
 10
11202.695812
 20
5541.300679
 30
0.0
 10
11296.505244
 20
5487.070056
 30
0.0
 10
11412.135546
 20
5487.070056
 30
0.0
 10
11505.944978
 20
5541.300679
 30
0.0
  0
SPLINE
  5
2de
100
AcDbEntity
  8
Epilog_Laser
 62
7
100
AcDbSpline
 70
8
 71
3
 72
8
 73
4
 74
0
 40
0
 40
0
 40
0
 40
0
 40
1
 40
1
 40
1
 40
1
 10
11505.944978
 20
5541.300679
 30
0.0
 10
11599.754409
 20
5595.531301
 30
0.0
 10
11657.457921
 20
5695.734453
 30
0.0
 10
11657.276778
 20
5804.090980
 30
0.0
  0
LWPOLYLINE
  5
2df
100
AcDbEntity
  8
Epilog_Laser
 62
7
100
AcDbPolyline
 90
2
 70
1
 10
11222.271863
 20
5275.213027
 30
0.0
 10
11222.271863
 20
5275.213027
 30
0.0
  0
LWPOLYLINE
  5
2e0
100
AcDbEntity
  8
Epilog_Laser
 62
7
100
AcDbPolyline
 90
2
 70
1
 10
11657.276778
 20
5804.090980
 30
0.0
 10
11657.276778
 20
5804.090980
 30
0.0
  0
LWPOLYLINE
  5
2e1
100
AcDbEntity
  8
Epilog_Laser
 62
7
100
AcDbPolyline
 90
4
 70
0
 10
6256.430188
 20
3884.729097
 30
0.0
 10
6256.586966
 20
4179.788023
 30
0.0
 10
6297.052383
 20
4179.767042
 30
0.0
 10
6297.366863
 20
4772.652142
 30
0.0
  0
LWPOLYLINE
  5
2e2
100
AcDbEntity
  8
Epilog_Laser
 62
7
100
AcDbPolyline
 90
2
 70
0
 10
6256.430188
 20
3884.729097
 30
0.0
 10
5270.585433
 20
3885.251918
 30
0.0
  0
LWPOLYLINE
  5
2e3
100
AcDbEntity
  8
Epilog_Laser
 62
7
100
AcDbPolyline
 90
2
 70
0
 10
5310.032030
 20
2959.738241
 30
0.0
 10
5310.522559
 20
3885.230931
 30
0.0
  0
SPLINE
  5
2e4
100
AcDbEntity
  8
Epilog_Laser
 62
7
100
AcDbSpline
 70
8
 71
3
 72
8
 73
4
 74
0
 40
0
 40
0
 40
0
 40
0
 40
1
 40
1
 40
1
 40
1
 10
5307.965064
 20
2961.806679
 30
0.0
 10
5813.324411
 20
2982.312855
 30
0.0
 10
6222.138847
 20
3380.117686
 30
0.0
 10
6256.430188
 20
3884.729097
 30
0.0
  0
LWPOLYLINE
  5
2e5
100
AcDbEntity
  8
Epilog_Laser
 62
7
100
AcDbPolyline
 90
3
 70
0
 10
5307.965064
 20
2961.806679
 30
0.0
 10
5270.096235
 20
2961.826864
 30
0.0
 10
5270.585433
 20
3885.251918
 30
0.0
  0
LWPOLYLINE
  5
2e6
100
AcDbEntity
  8
Epilog_Laser
 62
7
100
AcDbPolyline
 90
13
 70
0
 10
6297.366863
 20
4772.652142
 30
0.0
 10
6531.728170
 20
4772.527783
 30
0.0
 10
6531.906948
 20
5109.738287
 30
0.0
 10
6312.720377
 20
5109.854353
 30
0.0
 10
6312.833468
 20
5322.297166
 30
0.0
 10
5405.392776
 20
5322.778276
 30
0.0
 10
5405.416428
 20
5365.941875
 30
0.0
 10
5272.218113
 20
5366.012437
 30
0.0
 10
5272.278786
 20
5480.664049
 30
0.0
 10
4953.614985
 20
5480.832937
 30
0.0
 10
4953.556709
 20
5371.239277
 30
0.0
 10
4762.135627
 20
5371.340962
 30
0.0
 10
4762.165424
 20
5426.592720
 30
0.0
  0
LWPOLYLINE
  5
2e7
100
AcDbEntity
  8
Epilog_Laser
 62
7
100
AcDbPolyline
 90
2
 70
0
 10
4743.240529
 20
5445.537492
 30
0.0
 10
4743.228629
 20
5445.538817
 30
0.0
  0
LWPOLYLINE
  5
2e8
100
AcDbEntity
  8
Epilog_Laser
 62
7
100
AcDbPolyline
 90
6
 70
0
 10
4724.282667
 20
5426.612247
 30
0.0
 10
4724.254991
 20
5373.047531
 30
0.0
 10
4670.301218
 20
5373.075961
 30
0.0
 10
4670.575705
 20
5890.693822
 30
0.0
 10
4603.133798
 20
5890.729877
 30
0.0
 10
4602.920510
 20
5489.780752
 30
0.0
  0
LWPOLYLINE
  5
2e9
100
AcDbEntity
  8
Epilog_Laser
 62
7
100
AcDbPolyline
 90
4
 70
0
 10
4652.029002
 20
5890.703712
 30
0.0
 10
4652.068875
 20
5966.575758
 30
0.0
 10
4621.720374
 20
5966.592034
 30
0.0
 10
4621.680501
 20
5890.719988
 30
0.0
  0
SPLINE
  5
2ea
100
AcDbEntity
  8
Epilog_Laser
 62
7
100
AcDbSpline
 70
8
 71
3
 72
8
 73
4
 74
0
 40
0
 40
0
 40
0
 40
0
 40
1
 40
1
 40
1
 40
1
 10
4621.720374
 20
5966.592034
 30
0.0
 10
4339.155428
 20
5972.316116
 30
0.0
 10
4102.882946
 20
5753.086801
 30
0.0
 10
4087.475547
 20
5470.884168
 30
0.0
  0
SPLINE
  5
2eb
100
AcDbEntity
  8
Epilog_Laser
 62
7
100
AcDbSpline
 70
8
 71
3
 72
8
 73
4
 74
0
 40
0
 40
0
 40
0
 40
0
 40
1
 40
1
 40
1
 40
1
 10
4762.165424
 20
5426.592720
 30
0.0
 10
4762.167732
 20
5431.614603
 30
0.0
 10
4760.174989
 20
5436.431716
 30
0.0
 10
4756.625585
 20
5439.984327
 30
0.0
  0
SPLINE
  5
2ec
100
AcDbEntity
  8
Epilog_Laser
 62
7
100
AcDbSpline
 70
8
 71
3
 72
8
 73
4
 74
0
 40
0
 40
0
 40
0
 40
0
 40
1
 40
1
 40
1
 40
1
 10
4756.625585
 20
5439.984327
 30
0.0
 10
4753.076180
 20
5443.536938
 30
0.0
 10
4748.260870
 20
5445.534031
 30
0.0
 10
4743.238986
 20
5445.536258
 30
0.0
  0
SPLINE
  5
2ed
100
AcDbEntity
  8
Epilog_Laser
 62
7
100
AcDbSpline
 70
8
 71
3
 72
8
 73
4
 74
0
 40
0
 40
0
 40
0
 40
0
 40
1
 40
1
 40
1
 40
1
 10
4743.227879
 20
5445.537495
 30
0.0
 10
4738.205920
 20
5445.540294
 30
0.0
 10
4733.388545
 20
5443.547961
 30
0.0
 10
4729.835574
 20
5439.998809
 30
0.0
  0
SPLINE
  5
2ee
100
AcDbEntity
  8
Epilog_Laser
 62
7
100
AcDbSpline
 70
8
 71
3
 72
8
 73
4
 74
0
 40
0
 40
0
 40
0
 40
0
 40
1
 40
1
 40
1
 40
1
 10
4729.835574
 20
5439.998809
 30
0.0
 10
4726.282603
 20
5436.449656
 30
0.0
 10
4724.285092
 20
5431.634427
 30
0.0
 10
4724.282490
 20
5426.612467
 30
0.0
  0
LWPOLYLINE
  5
2ef
100
AcDbEntity
  8
Epilog_Laser
 62
7
100
AcDbPolyline
 90
20
 70
0
 10
4602.920510
 20
5489.780752
 30
0.0
 10
4164.277579
 20
5490.013611
 30
0.0
 10
4164.267497
 20
5470.843061
 30
0.0
 10
4087.475547
 20
5470.884168
 30
0.0
 10
4087.460900
 20
5443.298420
 30
0.0
 10
4164.252850
 20
5443.257313
 30
0.0
 10
4164.201387
 20
5346.334844
 30
0.0
 10
3881.635587
 20
5346.485160
 30
0.0
 10
3881.607400
 20
5293.550594
 30
0.0
 10
3560.719099
 20
5293.720409
 30
0.0
 10
3560.655555
 20
5172.940865
 30
0.0
 10
3398.869343
 20
5173.026225
 30
0.0
 10
3398.847926
 20
5132.766068
 30
0.0
 10
3351.132100
 20
5132.791423
 30
0.0
 10
3350.959412
 20
4808.175287
 30
0.0
 10
3392.710782
 20
4808.153074
 30
0.0
 10
3392.687330
 20
4764.165391
 30
0.0
 10
3781.123143
 20
4763.959407
 30
0.0
 10
3781.092521
 20
4705.806058
 30
0.0
 10
3881.295148
 20
4705.752579
 30
0.0
  0
LWPOLYLINE
  5
2f0
100
AcDbEntity
  8
Epilog_Laser
 62
7
100
AcDbPolyline
 90
2
 70
0
 10
5243.172418
 20
3885.267009
 30
0.0
 10
3880.860166
 20
3885.989600
 30
0.0
  0
LWPOLYLINE
  5
2f1
100
AcDbEntity
  8
Epilog_Laser
 62
7
100
AcDbPolyline
 90
4
 70
0
 10
5270.585433
 20
3885.251918
 30
0.0
 10
5270.602787
 20
3918.089551
 30
0.0
 10
5243.189552
 20
3918.104465
 30
0.0
 10
5243.172418
 20
3885.267009
 30
0.0
  0
SPLINE
  5
2f2
100
AcDbEntity
  8
Epilog_Laser
 62
7
100
AcDbSpline
 70
8
 71
3
 72
8
 73
4
 74
0
 40
0
 40
0
 40
0
 40
0
 40
1
 40
1
 40
1
 40
1
 10
5887.702266
 20
5581.606324
 30
0.0
 10
5972.236544
 20
5649.200679
 30
0.0
 10
6014.288278
 20
5756.758939
 30
0.0
 10
5998.016988
 20
5863.764949
 30
0.0
  0
SPLINE
  5
2f3
100
AcDbEntity
  8
Epilog_Laser
 62
7
100
AcDbSpline
 70
8
 71
3
 72
8
 73
4
 74
0
 40
0
 40
0
 40
0
 40
0
 40
1
 40
1
 40
1
 40
1
 10
5998.016988
 20
5863.764949
 30
0.0
 10
5981.745698
 20
5970.770959
 30
0.0
 10
5909.623379
 20
6060.967960
 30
0.0
 10
5808.817812
 20
6100.379614
 30
0.0
  0
SPLINE
  5
2f4
100
AcDbEntity
  8
Epilog_Laser
 62
7
100
AcDbSpline
 70
8
 71
3
 72
8
 73
4
 74
0
 40
0
 40
0
 40
0
 40
0
 40
1
 40
1
 40
1
 40
1
 10
5808.817812
 20
6100.379614
 30
0.0
 10
5708.012244
 20
6139.791268
 30
0.0
 10
5593.838190
 20
6122.430008
 30
0.0
 10
5509.303913
 20
6054.835653
 30
0.0
  0
SPLINE
  5
2f5
100
AcDbEntity
  8
Epilog_Laser
 62
7
100
AcDbSpline
 70
8
 71
3
 72
8
 73
4
 74
0
 40
0
 40
0
 40
0
 40
0
 40
1
 40
1
 40
1
 40
1
 10
5509.303913
 20
6054.835653
 30
0.0
 10
5424.769635
 20
5987.241298
 30
0.0
 10
5382.717900
 20
5879.683037
 30
0.0
 10
5398.989190
 20
5772.677027
 30
0.0
  0
SPLINE
  5
2f6
100
AcDbEntity
  8
Epilog_Laser
 62
7
100
AcDbSpline
 70
8
 71
3
 72
8
 73
4
 74
0
 40
0
 40
0
 40
0
 40
0
 40
1
 40
1
 40
1
 40
1
 10
5398.989190
 20
5772.677027
 30
0.0
 10
5415.260481
 20
5665.671018
 30
0.0
 10
5487.382799
 20
5575.474017
 30
0.0
 10
5588.188367
 20
5536.062363
 30
0.0
  0
SPLINE
  5
2f7
100
AcDbEntity
  8
Epilog_Laser
 62
7
100
AcDbSpline
 70
8
 71
3
 72
8
 73
4
 74
0
 40
0
 40
0
 40
0
 40
0
 40
1
 40
1
 40
1
 40
1
 10
5588.188367
 20
5536.062363
 30
0.0
 10
5688.993935
 20
5496.650708
 30
0.0
 10
5803.167988
 20
5514.011968
 30
0.0
 10
5887.702266
 20
5581.606324
 30
0.0
  0
LWPOLYLINE
  5
2f8
100
AcDbEntity
  8
Epilog_Laser
 62
7
100
AcDbPolyline
 90
2
 70
0
 10
3881.295148
 20
4705.752579
 30
0.0
 10
3880.860166
 20
3885.989600
 30
0.0
  0
SPLINE
  5
2f9
100
AcDbEntity
  8
Epilog_Laser
 62
7
100
AcDbSpline
 70
8
 71
3
 72
8
 73
4
 74
0
 40
0
 40
0
 40
0
 40
0
 40
1
 40
1
 40
1
 40
1
 10
5202.909895
 20
5581.970012
 30
0.0
 10
5287.444172
 20
5649.564367
 30
0.0
 10
5329.495907
 20
5757.122628
 30
0.0
 10
5313.224617
 20
5864.128637
 30
0.0
  0
SPLINE
  5
2fa
100
AcDbEntity
  8
Epilog_Laser
 62
7
100
AcDbSpline
 70
8
 71
3
 72
8
 73
4
 74
0
 40
0
 40
0
 40
0
 40
0
 40
1
 40
1
 40
1
 40
1
 10
5313.224617
 20
5864.128637
 30
0.0
 10
5296.953327
 20
5971.134647
 30
0.0
 10
5224.831008
 20
6061.331648
 30
0.0
 10
5124.025440
 20
6100.743302
 30
0.0
  0
SPLINE
  5
2fb
100
AcDbEntity
  8
Epilog_Laser
 62
7
100
AcDbSpline
 70
8
 71
3
 72
8
 73
4
 74
0
 40
0
 40
0
 40
0
 40
0
 40
1
 40
1
 40
1
 40
1
 10
5124.025440
 20
6100.743302
 30
0.0
 10
5023.219872
 20
6140.154956
 30
0.0
 10
4909.045819
 20
6122.793697
 30
0.0
 10
4824.511541
 20
6055.199341
 30
0.0
  0
SPLINE
  5
2fc
100
AcDbEntity
  8
Epilog_Laser
 62
7
100
AcDbSpline
 70
8
 71
3
 72
8
 73
4
 74
0
 40
0
 40
0
 40
0
 40
0
 40
1
 40
1
 40
1
 40
1
 10
4824.511541
 20
6055.199341
 30
0.0
 10
4739.977264
 20
5987.604986
 30
0.0
 10
4697.925529
 20
5880.046725
 30
0.0
 10
4714.196819
 20
5773.040716
 30
0.0
  0
SPLINE
  5
2fd
100
AcDbEntity
  8
Epilog_Laser
 62
7
100
AcDbSpline
 70
8
 71
3
 72
8
 73
4
 74
0
 40
0
 40
0
 40
0
 40
0
 40
1
 40
1
 40
1
 40
1
 10
4714.196819
 20
5773.040716
 30
0.0
 10
4730.468109
 20
5666.034706
 30
0.0
 10
4802.590428
 20
5575.837705
 30
0.0
 10
4903.395996
 20
5536.426051
 30
0.0
  0
SPLINE
  5
2fe
100
AcDbEntity
  8
Epilog_Laser
 62
7
100
AcDbSpline
 70
8
 71
3
 72
8
 73
4
 74
0
 40
0
 40
0
 40
0
 40
0
 40
1
 40
1
 40
1
 40
1
 10
4903.395996
 20
5536.426051
 30
0.0
 10
5004.201564
 20
5497.014396
 30
0.0
 10
5118.375617
 20
5514.375656
 30
0.0
 10
5202.909895
 20
5581.970012
 30
0.0
  0
LWPOLYLINE
  5
2ff
100
AcDbEntity
  8
Epilog_Laser
 62
7
100
AcDbPolyline
 90
2
 70
1
 10
5887.702266
 20
5581.606324
 30
0.0
 10
5887.702266
 20
5581.606324
 30
0.0
  0
LWPOLYLINE
  5
300
100
AcDbEntity
  8
Epilog_Laser
 62
7
100
AcDbPolyline
 90
2
 70
1
 10
5202.909895
 20
5581.970012
 30
0.0
 10
5202.909895
 20
5581.970012
 30
0.0
  0
LWPOLYLINE
  5
301
100
AcDbEntity
  8
Epilog_Laser
 62
7
100
AcDbPolyline
 90
5
 70
0
 10
20829.329267
 20
14182.245787
 30
0.0
 10
19503.892920
 20
14182.245787
 30
0.0
 10
19503.892920
 20
15065.870018
 30
0.0
 10
20829.329267
 20
15065.870018
 30
0.0
 10
20829.329267
 20
14182.245787
 30
0.0
  0
ENDSEC
  0
SECTION
  2
OBJECTS
  0
DICTIONARY
  5
C
330
0
100
AcDbDictionary
  3
ACAD_GROUP
350
D
  3
ACAD_MLINESTYLE
350
17
  0
DICTIONARY
  5
D
330
C
100
AcDbDictionary
  0
DICTIONARY
  5
1A
330
C
100
AcDbDictionary
  0
DICTIONARY
  5
17
330
C
100
AcDbDictionary
  3
STANDARD
350
18
  0
DICTIONARY
  5
19
330
C
100
AcDbDictionary
  0
ENDSEC
  0
EOF
